999
dxfrw 0.6.3
  0
SECTION
  2
HEADER
  9
$ACADVER
  1
AC1021
  9
$DWGCODEPAGE
  3
ANSI_1252
  9
$INSBASE
 10
0
 20
0
 30
0
  9
$EXTMIN
 10
-3.164135620181696e-15
 20
-4.166513863109136
 30
0
  9
$EXTMAX
 10
285
 20
102
 30
0
  9
$LIMMIN
 10
0
 20
0
  9
$LIMMAX
 10
420
 20
297
  9
$ORTHOMODE
 70
    0
  9
$REGENMODE
 70
    1
  9
$FILLMODE
 70
    1
  9
$QTEXTMODE
 70
    0
  9
$MIRRTEXT
 70
    0
  9
$LTSCALE
 40
1
  9
$ATTMODE
 70
    0
  9
$TEXTSIZE
 40
2.5
  9
$TRACEWID
 40
15.68
  9
$TEXTSTYLE
  7
STANDARD
  9
$CLAYER
  8
dims
  9
$CELTYPE
  6
BYLAYER
  9
$CECOLOR
 62
  256
  9
$CELTSCALE
 40
1
  9
$DISPSILH
 70
    0
  9
$DIMSCALE
 40
1
  9
$DIMASZ
 40
2.5
  9
$DIMEXO
 40
0.025
  9
$DIMDLI
 40
3.75
  9
$DIMRND
 40
0
  9
$DIMDLE
 40
0
  9
$DIMEXE
 40
0.05
  9
$DIMTP
 40
0
  9
$DIMTM
 40
0
  9
$DIMTXT
 40
1
  9
$DIMCEN
 40
2.5
  9
$DIMTSZ
 40
0
  9
$DIMTOL
 70
    0
  9
$DIMLIM
 70
    0
  9
$DIMTIH
 70
    0
  9
$DIMTOH
 70
    0
  9
$DIMSE1
 70
    0
  9
$DIMSE2
 70
    0
  9
$DIMTAD
 70
    1
  9
$DIMZIN
 70
    1
  9
$DIMBLK
  1

  9
$DIMASO
 70
    1
  9
$DIMSHO
 70
    1
  9
$DIMPOST
  1

  9
$DIMAPOST
  1

  9
$DIMALT
 70
    0
  9
$DIMALTD
 70
    3
  9
$DIMALTF
 40
0.03937
  9
$DIMLFAC
 40
1
  9
$DIMTOFL
 70
    1
  9
$DIMTVP
 40
0
  9
$DIMTIX
 70
    0
  9
$DIMSOXD
 70
    0
  9
$DIMSAH
 70
    0
  9
$DIMBLK1
  1

  9
$DIMBLK2
  1

  9
$DIMSTYLE
  2
STANDARD
  9
$DIMCLRD
 70
    0
  9
$DIMCLRE
 70
    0
  9
$DIMCLRT
 70
    0
  9
$DIMTFAC
 40
1
  9
$DIMGAP
 40
1
  9
$DIMJUST
 70
    0
  9
$DIMSD1
 70
    0
  9
$DIMSD2
 70
    0
  9
$DIMTOLJ
 70
    0
  9
$DIMTZIN
 70
    8
  9
$DIMALTZ
 70
    0
  9
$DIMALTTZ
 70
    0
  9
$DIMUPT
 70
    0
  9
$DIMDEC
 70
    2
  9
$DIMTDEC
 70
    2
  9
$DIMALTU
 70
    2
  9
$DIMALTTD
 70
    3
  9
$DIMTXSTY
  7
standard
  9
$DIMAUNIT
 70
    0
  9
$DIMADEC
 70
    2
  9
$DIMALTRND
 40
0
  9
$DIMAZIN
 70
    0
  9
$DIMDSEP
 70
    0
  9
$DIMATFIT
 70
    3
  9
$DIMFRAC
 70
    0
  9
$DIMLDRBLK
  1
STANDARD
  9
$DIMLUNIT
 70
    2
  9
$DIMLWD
 70
   -2
  9
$DIMLWE
 70
   -2
  9
$DIMTMOVE
 70
    0
  9
$DIMFXL
 40
0.04
  9
$DIMFXLON
 70
    0
  9
$DIMJOGANG
 40
0.7854
  9
$DIMTFILL
 70
    0
  9
$DIMTFILLCLR
 70
    0
  9
$DIMARCSYM
 70
    0
  9
$DIMLTYPE
  6

  9
$DIMLTEX1
  6

  9
$DIMLTEX2
  6

  9
$LUNITS
 70
    2
  9
$LUPREC
 70
    3
  9
$SKETCHINC
 40
1
  9
$FILLETRAD
 40
0
  9
$AUNITS
 70
    0
  9
$AUPREC
 70
    2
  9
$MENU
  1
.
  9
$ELEVATION
 40
0
  9
$PELEVATION
 40
0
  9
$THICKNESS
 40
0
  9
$LIMCHECK
 70
    0
  9
$CHAMFERA
 40
0
  9
$CHAMFERB
 40
0
  9
$CHAMFERC
 40
0
  9
$CHAMFERD
 40
0
  9
$SKPOLY
 70
    0
  9
$USRTIMER
 70
    1
  9
$ANGBASE
 50
0
  9
$ANGDIR
 70
    0
  9
$PDMODE
 70
   34
  9
$PDSIZE
 40
0
  9
$PLINEWID
 40
0
  9
$SPLFRAME
 70
    0
  9
$SPLINETYPE
 70
    2
  9
$SPLINESEGS
 70
    8
  9
$HANDSEED
  5
20000
  9
$SURFTAB1
 70
    6
  9
$SURFTAB2
 70
    6
  9
$SURFTYPE
 70
    6
  9
$SURFU
 70
    6
  9
$SURFV
 70
    6
  9
$UCSBASE
  2

  9
$UCSNAME
  2

  9
$UCSORG
 10
0
 20
0
 30
0
  9
$UCSXDIR
 10
1
 20
0
 30
0
  9
$UCSYDIR
 10
0
 20
1
 30
0
  9
$UCSORTHOREF
  2

  9
$UCSORTHOVIEW
 70
    0
  9
$UCSORGTOP
 10
0
 20
0
 30
0
  9
$UCSORGBOTTOM
 10
0
 20
0
 30
0
  9
$UCSORGLEFT
 10
0
 20
0
 30
0
  9
$UCSORGRIGHT
 10
0
 20
0
 30
0
  9
$UCSORGFRONT
 10
0
 20
0
 30
0
  9
$UCSORGBACK
 10
0
 20
0
 30
0
  9
$PUCSBASE
  2

  9
$PUCSNAME
  2

  9
$PUCSORG
 10
0
 20
0
 30
0
  9
$PUCSXDIR
 10
1
 20
0
 30
0
  9
$PUCSYDIR
 10
0
 20
1
 30
0
  9
$PUCSORTHOREF
  2

  9
$PUCSORTHOVIEW
 70
    0
  9
$PUCSORGTOP
 10
0
 20
0
 30
0
  9
$PUCSORGBOTTOM
 10
0
 20
0
 30
0
  9
$PUCSORGLEFT
 10
0
 20
0
 30
0
  9
$PUCSORGRIGHT
 10
0
 20
0
 30
0
  9
$PUCSORGFRONT
 10
0
 20
0
 30
0
  9
$PUCSORGBACK
 10
0
 20
0
 30
0
  9
$USERI1
 70
    0
  9
$USERI2
 70
    0
  9
$USERI3
 70
    0
  9
$USERI4
 70
    0
  9
$USERI5
 70
    0
  9
$USERR1
 40
0
  9
$USERR2
 40
0
  9
$USERR3
 40
0
  9
$USERR4
 40
0
  9
$USERR5
 40
0
  9
$WORLDVIEW
 70
    1
  9
$SHADEDGE
 70
    3
  9
$SHADEDIF
 70
   70
  9
$TILEMODE
 70
    1
  9
$MAXACTVP
 70
   64
  9
$PINSBASE
 10
0
 20
0
 30
0
  9
$PLIMCHECK
 70
    0
  9
$PEXTMIN
 10
0
 20
0
 30
0
  9
$PEXTMAX
 10
0
 20
0
 30
0
  9
$GRIDMODE
 70
    1
  9
$SNAPSTYLE
 70
    0
  9
$GRIDUNIT
 10
0
 20
0
  9
$PLIMMIN
 10
0
 20
0
  9
$PLIMMAX
 10
9.3087e-21
 20
7.1931e-21
  9
$UNITMODE
 70
    0
  9
$VISRETAIN
 70
    1
  9
$PLINEGEN
 70
    0
  9
$PSLTSCALE
 70
    1
  9
$TREEDEPTH
 70
 3020
  9
$CMLSTYLE
  2
Standard
  9
$CMLJUST
 70
    0
  9
$CMLSCALE
 40
20
  9
$PROXYGRAPHICS
 70
    1
  9
$MEASUREMENT
 70
    1
  9
$CELWEIGHT
370
   -1
  9
$ENDCAPS
280
    0
  9
$JOINSTYLE
280
    0
  9
$LWDISPLAY
290
    0
  9
$INSUNITS
 70
    4
  9
$HYPERLINKBASE
  1

  9
$STYLESHEET
  1

  9
$XEDIT
290
    1
  9
$CEPSNTYPE
380
    0
  9
$PSTYLEMODE
290
    1
  9
$EXTNAMES
290
    1
  9
$PSVPSCALE
 40
1
  9
$OLESTARTUP
290
    0
  9
$SORTENTS
280
  127
  9
$INDEXCTL
280
    0
  9
$HIDETEXT
280
    1
  9
$XCLIPFRAME
290
    0
  9
$HALOGAP
280
    0
  9
$OBSCOLOR
 70
  257
  9
$OBSLTYPE
280
    0
  9
$INTERSECTIONDISPLAY
280
    0
  9
$INTERSECTIONCOLOR
 70
  257
  9
$DIMASSOC
280
    1
  9
$PROJECTNAME
  1

  9
$CAMERADISPLAY
290
    0
  9
$LENSLENGTH
 40
50
  9
$CAMERAHEIGHT
 40
0
  9
$STEPSPERSEC
 40
2
  9
$STEPSIZE
 40
50
  9
$3DDWFPREC
 40
2
  9
$PSOLWIDTH
 40
5
  9
$PSOLHEIGHT
 40
80
  9
$LOFTANG1
 40
1.570796326794897
  9
$LOFTANG2
 40
1.570796326794897
  9
$LOFTMAG1
 40
0
  9
$LOFTMAG2
 40
0
  9
$LOFTPARAM
 70
    7
  9
$LOFTNORMALS
280
    1
  9
$LATITUDE
 40
1
  9
$LONGITUDE
 40
1
  9
$NORTHDIRECTION
 40
0
  9
$TIMEZONE
 70
-8000
  9
$LIGHTGLYPHDISPLAY
280
    1
  9
$TILEMODELIGHTSYNCH
280
    1
  9
$SOLIDHIST
280
    1
  9
$SHOWHIST
280
    1
  9
$DWFFRAME
280
    2
  9
$DGNFRAME
280
    0
  9
$REALWORLDSCALE
290
    1
  9
$INTERFERECOLOR
 62
    1
  9
$CSHADOW
280
    0
  9
$SHADOWPLANELOCATION
 40
0
  0
ENDSEC
  0
SECTION
  2
CLASSES
  0
ENDSEC
  0
SECTION
  2
TABLES
  0
TABLE
  2
VPORT
  5
8
330
0
100
AcDbSymbolTable
 70
    1
  0
VPORT
  5
31
330
2
100
AcDbSymbolTableRecord
100
AcDbViewportTableRecord
  2
*ACTIVE
 70
    0
 10
0
 20
0
 11
1
 21
1
 12
195.4705364999296
 22
79.37554969232235
 13
0
 23
0
 14
10
 24
10
 15
10
 25
10
 16
0
 26
0
 36
1
 17
0
 27
0
 37
0
 40
296.1741424807707
 41
1.654046028210839
 42
50
 43
0
 44
0
 50
0
 51
0
 71
    0
 72
  100
 73
    1
 74
    3
 75
    0
 76
    1
 77
    0
 78
    0
281
    0
 65
    1
110
0
120
0
130
0
111
1
121
0
131
0
112
0
122
1
132
0
 79
    0
146
0
348
10020
 60
    7
 61
    5
292
1
282
    1
141
0
142
0
 63
  250
421
3358443
  0
ENDTAB
  0
TABLE
  2
LTYPE
  5
5
330
0
100
AcDbSymbolTable
 70
    4
  0
LTYPE
  5
14
330
5
100
AcDbSymbolTableRecord
100
AcDbLinetypeTableRecord
  2
ByBlock
 70
    0
  3

 72
   65
 73
    0
 40
0
  0
LTYPE
  5
15
330
5
100
AcDbSymbolTableRecord
100
AcDbLinetypeTableRecord
  2
ByLayer
 70
    0
  3

 72
   65
 73
    0
 40
0
  0
LTYPE
  5
16
330
5
100
AcDbSymbolTableRecord
100
AcDbLinetypeTableRecord
  2
Continuous
 70
    0
  3
Solid line
 72
   65
 73
    0
 40
0
  0
LTYPE
  5
32
330
5
100
AcDbSymbolTableRecord
100
AcDbLinetypeTableRecord
  2
DOT
 70
    0
  3
Dot . . . . . . . . . . . . . . . . . . . . . .
 72
   65
 73
    2
 40
6.35
 49
0
 74
    0
 49
-6.35
 74
    0
  0
LTYPE
  5
33
330
5
100
AcDbSymbolTableRecord
100
AcDbLinetypeTableRecord
  2
DOTTINY
 70
    0
  3
Dot (.15x) .....................................
 72
   65
 73
    2
 40
0.9525
 49
0
 74
    0
 49
-0.9525
 74
    0
  0
LTYPE
  5
34
330
5
100
AcDbSymbolTableRecord
100
AcDbLinetypeTableRecord
  2
DOT2
 70
    0
  3
Dot (.5x) .....................................
 72
   65
 73
    2
 40
3.175
 49
0
 74
    0
 49
-3.175
 74
    0
  0
LTYPE
  5
35
330
5
100
AcDbSymbolTableRecord
100
AcDbLinetypeTableRecord
  2
DOTX2
 70
    0
  3
Dot (2x) .  .  .  .  .  .  .  .  .  .  .  .  .
 72
   65
 73
    2
 40
12.7
 49
0
 74
    0
 49
-12.7
 74
    0
  0
LTYPE
  5
36
330
5
100
AcDbSymbolTableRecord
100
AcDbLinetypeTableRecord
  2
DASHED
 70
    0
  3
Dashed _ _ _ _ _ _ _ _ _ _ _ _ _ _ _ _ _
 72
   65
 73
    2
 40
19.05
 49
12.7
 74
    0
 49
-6.35
 74
    0
  0
LTYPE
  5
37
330
5
100
AcDbSymbolTableRecord
100
AcDbLinetypeTableRecord
  2
DASHEDTINY
 70
    0
  3
Dashed (.15x) _ _ _ _ _ _ _ _ _ _ _ _ _ _ _ _ _
 72
   65
 73
    2
 40
2.8575
 49
1.905
 74
    0
 49
-0.9525
 74
    0
  0
LTYPE
  5
38
330
5
100
AcDbSymbolTableRecord
100
AcDbLinetypeTableRecord
  2
DASHED2
 70
    0
  3
Dashed (.5x) _ _ _ _ _ _ _ _ _ _ _ _ _ _ _ _ _
 72
   65
 73
    2
 40
9.524999999999999
 49
6.35
 74
    0
 49
-3.175
 74
    0
  0
LTYPE
  5
39
330
5
100
AcDbSymbolTableRecord
100
AcDbLinetypeTableRecord
  2
DASHEDX2
 70
    0
  3
Dashed (2x) ____  ____  ____  ____  ____  ___
 72
   65
 73
    2
 40
38.09999999999999
 49
25.4
 74
    0
 49
-12.7
 74
    0
  0
LTYPE
  5
3A
330
5
100
AcDbSymbolTableRecord
100
AcDbLinetypeTableRecord
  2
DASHDOT
 70
    0
  3
Dash dot __ . __ . __ . __ . __ . __ . __ . __
 72
   65
 73
    4
 40
25.4
 49
12.7
 74
    0
 49
-6.35
 74
    0
 49
0
 74
    0
 49
-6.35
 74
    0
  0
LTYPE
  5
3B
330
5
100
AcDbSymbolTableRecord
100
AcDbLinetypeTableRecord
  2
DASHDOTTINY
 70
    0
  3
Dash dot (.15x) _._._._._._._._._._._._._._._.
 72
   65
 73
    4
 40
3.81
 49
1.905
 74
    0
 49
-0.9525
 74
    0
 49
0
 74
    0
 49
-0.9525
 74
    0
  0
LTYPE
  5
3C
330
5
100
AcDbSymbolTableRecord
100
AcDbLinetypeTableRecord
  2
DASHDOT2
 70
    0
  3
Dash dot (.5x) _._._._._._._._._._._._._._._.
 72
   65
 73
    4
 40
12.7
 49
6.35
 74
    0
 49
-3.175
 74
    0
 49
0
 74
    0
 49
-3.175
 74
    0
  0
LTYPE
  5
3D
330
5
100
AcDbSymbolTableRecord
100
AcDbLinetypeTableRecord
  2
DASHDOTX2
 70
    0
  3
Dash dot (2x) ____  .  ____  .  ____  .  ___
 72
   65
 73
    4
 40
50.8
 49
25.4
 74
    0
 49
-12.7
 74
    0
 49
0
 74
    0
 49
-12.7
 74
    0
  0
LTYPE
  5
3E
330
5
100
AcDbSymbolTableRecord
100
AcDbLinetypeTableRecord
  2
DIVIDE
 70
    0
  3
Divide ____ . . ____ . . ____ . . ____ . . ____
 72
   65
 73
    6
 40
31.75
 49
12.7
 74
    0
 49
-6.35
 74
    0
 49
0
 74
    0
 49
-6.35
 74
    0
 49
0
 74
    0
 49
-6.35
 74
    0
  0
LTYPE
  5
3F
330
5
100
AcDbSymbolTableRecord
100
AcDbLinetypeTableRecord
  2
DIVIDETINY
 70
    0
  3
Divide (.15x) __..__..__..__..__..__..__..__.._
 72
   65
 73
    6
 40
4.7625
 49
1.905
 74
    0
 49
-0.9525
 74
    0
 49
0
 74
    0
 49
-0.9525
 74
    0
 49
0
 74
    0
 49
-0.9525
 74
    0
  0
LTYPE
  5
40
330
5
100
AcDbSymbolTableRecord
100
AcDbLinetypeTableRecord
  2
DIVIDE2
 70
    0
  3
Divide (.5x) __..__..__..__..__..__..__..__.._
 72
   65
 73
    6
 40
15.875
 49
6.35
 74
    0
 49
-3.175
 74
    0
 49
0
 74
    0
 49
-3.175
 74
    0
 49
0
 74
    0
 49
-3.175
 74
    0
  0
LTYPE
  5
41
330
5
100
AcDbSymbolTableRecord
100
AcDbLinetypeTableRecord
  2
DIVIDEX2
 70
    0
  3
Divide (2x) ________  .  .  ________  .  .  _
 72
   65
 73
    6
 40
63.5
 49
25.4
 74
    0
 49
-12.7
 74
    0
 49
0
 74
    0
 49
-12.7
 74
    0
 49
0
 74
    0
 49
-12.7
 74
    0
  0
LTYPE
  5
42
330
5
100
AcDbSymbolTableRecord
100
AcDbLinetypeTableRecord
  2
BORDER
 70
    0
  3
Border __ __ . __ __ . __ __ . __ __ . __ __ .
 72
   65
 73
    6
 40
44.45
 49
12.7
 74
    0
 49
-6.35
 74
    0
 49
12.7
 74
    0
 49
-6.35
 74
    0
 49
0
 74
    0
 49
-6.35
 74
    0
  0
LTYPE
  5
43
330
5
100
AcDbSymbolTableRecord
100
AcDbLinetypeTableRecord
  2
BORDERTINY
 70
    0
  3
Border (.15x) __.__.__.__.__.__.__.__.__.__.__.
 72
   65
 73
    6
 40
6.6675
 49
1.905
 74
    0
 49
-0.9525
 74
    0
 49
1.905
 74
    0
 49
-0.9525
 74
    0
 49
0
 74
    0
 49
-0.9525
 74
    0
  0
LTYPE
  5
44
330
5
100
AcDbSymbolTableRecord
100
AcDbLinetypeTableRecord
  2
BORDER2
 70
    0
  3
Border (.5x) __.__.__.__.__.__.__.__.__.__.__.
 72
   65
 73
    6
 40
22.225
 49
6.35
 74
    0
 49
-3.175
 74
    0
 49
6.35
 74
    0
 49
-3.175
 74
    0
 49
0
 74
    0
 49
-3.175
 74
    0
  0
LTYPE
  5
45
330
5
100
AcDbSymbolTableRecord
100
AcDbLinetypeTableRecord
  2
BORDERX2
 70
    0
  3
Border (2x) ____  ____  .  ____  ____  .  ___
 72
   65
 73
    6
 40
88.89999999999999
 49
25.4
 74
    0
 49
-12.7
 74
    0
 49
25.4
 74
    0
 49
-12.7
 74
    0
 49
0
 74
    0
 49
-12.7
 74
    0
  0
LTYPE
  5
46
330
5
100
AcDbSymbolTableRecord
100
AcDbLinetypeTableRecord
  2
CENTER
 70
    0
  3
Center ____ _ ____ _ ____ _ ____ _ ____ _ ____
 72
   65
 73
    4
 40
50.8
 49
31.75
 74
    0
 49
-6.35
 74
    0
 49
6.35
 74
    0
 49
-6.35
 74
    0
  0
LTYPE
  5
47
330
5
100
AcDbSymbolTableRecord
100
AcDbLinetypeTableRecord
  2
CENTERTINY
 70
    0
  3
Center (.15x) ___ _ ___ _ ___ _ ___ _ ___ _ ___
 72
   65
 73
    4
 40
7.619999999999999
 49
4.7625
 74
    0
 49
-0.9525
 74
    0
 49
0.9525
 74
    0
 49
-0.9525
 74
    0
  0
LTYPE
  5
48
330
5
100
AcDbSymbolTableRecord
100
AcDbLinetypeTableRecord
  2
CENTER2
 70
    0
  3
Center (.5x) ___ _ ___ _ ___ _ ___ _ ___ _ ___
 72
   65
 73
    4
 40
28.575
 49
19.05
 74
    0
 49
-3.175
 74
    0
 49
3.175
 74
    0
 49
-3.175
 74
    0
  0
LTYPE
  5
49
330
5
100
AcDbSymbolTableRecord
100
AcDbLinetypeTableRecord
  2
CENTERX2
 70
    0
  3
Center (2x) ________  __  ________  __  _____
 72
   65
 73
    4
 40
101.6
 49
63.5
 74
    0
 49
-12.7
 74
    0
 49
12.7
 74
    0
 49
-12.7
 74
    0
  0
ENDTAB
  0
TABLE
  2
LAYER
  5
2
330
0
100
AcDbSymbolTable
 70
    1
  0
LAYER
  5
10
330
2
100
AcDbSymbolTableRecord
100
AcDbLayerTableRecord
  2
0
 70
    0
 62
    7
  6
CONTINUOUS
290
0
370
    0
390
F
  0
LAYER
  5
4A
330
2
100
AcDbSymbolTableRecord
100
AcDbLayerTableRecord
  2
dims
 70
    0
 62
  136
420
32896
  6
CONTINUOUS
290
0
370
    0
390
F
  0
ENDTAB
  0
TABLE
  2
STYLE
  5
3
330
0
100
AcDbSymbolTable
 70
    3
  0
STYLE
  5
4B
330
2
100
AcDbSymbolTableRecord
100
AcDbTextStyleTableRecord
  2
Standard
 70
    0
 40
0
 41
1
 50
0
 71
    0
 42
1
  3
txt
  4

  0
ENDTAB
  0
TABLE
  2
VIEW
  5
6
330
0
100
AcDbSymbolTable
 70
    0
  0
ENDTAB
  0
TABLE
  2
UCS
  5
7
330
0
100
AcDbSymbolTable
 70
    0
  0
ENDTAB
  0
TABLE
  2
APPID
  5
9
330
0
100
AcDbSymbolTable
 70
    1
  0
APPID
  5
12
330
9
100
AcDbSymbolTableRecord
100
AcDbRegAppTableRecord
  2
ACAD
 70
    0
  0
APPID
  5
4C
330
9
100
AcDbSymbolTableRecord
100
AcDbRegAppTableRecord
  2
LibreCad
 70
    0
  0
ENDTAB
  0
TABLE
  2
DIMSTYLE
  5
A
330
0
100
AcDbSymbolTable
 70
    1
100
AcDbDimStyleTable
 71
    1
  0
DIMSTYLE
105
4D
330
A
100
AcDbSymbolTableRecord
100
AcDbDimStyleTableRecord
  2
Standard
 70
    0
 40
1
 41
1
 42
0.025
 43
0.38
 44
0.05
 45
0
 46
0
 47
0
 48
0
 49
0.04
140
1
141
0.09
142
0
143
25.4
144
1
145
0
146
1
147
1
148
0
 71
    0
 72
    0
 73
    0
 74
    1
 75
    0
 76
    0
 77
    0
 78
    1
 79
    0
170
    0
171
    2
172
    0
173
    0
174
    0
175
    0
176
    0
177
    0
178
    0
179
    2
271
    2
272
    4
273
    2
274
    2
275
    0
276
    0
277
    2
278
    0
279
    0
280
    0
281
    0
282
    0
283
    1
284
    0
285
    0
286
    0
288
    0
289
    3
340
standard
341

371
   -2
372
   -2
  0
ENDTAB
  0
TABLE
  2
BLOCK_RECORD
  5
1
330
0
100
AcDbSymbolTable
 70
    2
  0
BLOCK_RECORD
  5
1F
330
1
100
AcDbSymbolTableRecord
100
AcDbBlockTableRecord
  2
*Model_Space
 70
    0
280
    1
281
    0
  0
BLOCK_RECORD
  5
1E
330
1
100
AcDbSymbolTableRecord
100
AcDbBlockTableRecord
  2
*Paper_Space
 70
    0
280
    1
281
    0
  0
BLOCK_RECORD
  5
4E
330
1
100
AcDbSymbolTableRecord
100
AcDbBlockTableRecord
  2
*D21
 70
    0
280
    1
281
    0
  0
BLOCK_RECORD
  5
51
330
1
100
AcDbSymbolTableRecord
100
AcDbBlockTableRecord
  2
*D2
 70
    0
280
    1
281
    0
  0
BLOCK_RECORD
  5
54
330
1
100
AcDbSymbolTableRecord
100
AcDbBlockTableRecord
  2
*D44
 70
    0
280
    1
281
    0
  0
BLOCK_RECORD
  5
57
330
1
100
AcDbSymbolTableRecord
100
AcDbBlockTableRecord
  2
*D20
 70
    0
280
    1
281
    0
  0
BLOCK_RECORD
  5
5A
330
1
100
AcDbSymbolTableRecord
100
AcDbBlockTableRecord
  2
*D37
 70
    0
280
    1
281
    0
  0
BLOCK_RECORD
  5
5D
330
1
100
AcDbSymbolTableRecord
100
AcDbBlockTableRecord
  2
*D63
 70
    0
280
    1
281
    0
  0
BLOCK_RECORD
  5
60
330
1
100
AcDbSymbolTableRecord
100
AcDbBlockTableRecord
  2
*D5
 70
    0
280
    1
281
    0
  0
BLOCK_RECORD
  5
63
330
1
100
AcDbSymbolTableRecord
100
AcDbBlockTableRecord
  2
*D52
 70
    0
280
    1
281
    0
  0
BLOCK_RECORD
  5
66
330
1
100
AcDbSymbolTableRecord
100
AcDbBlockTableRecord
  2
*D16
 70
    0
280
    1
281
    0
  0
BLOCK_RECORD
  5
69
330
1
100
AcDbSymbolTableRecord
100
AcDbBlockTableRecord
  2
*D23
 70
    0
280
    1
281
    0
  0
BLOCK_RECORD
  5
6C
330
1
100
AcDbSymbolTableRecord
100
AcDbBlockTableRecord
  2
*D53
 70
    0
280
    1
281
    0
  0
BLOCK_RECORD
  5
6F
330
1
100
AcDbSymbolTableRecord
100
AcDbBlockTableRecord
  2
*D4
 70
    0
280
    1
281
    0
  0
BLOCK_RECORD
  5
72
330
1
100
AcDbSymbolTableRecord
100
AcDbBlockTableRecord
  2
*D40
 70
    0
280
    1
281
    0
  0
BLOCK_RECORD
  5
75
330
1
100
AcDbSymbolTableRecord
100
AcDbBlockTableRecord
  2
*D26
 70
    0
280
    1
281
    0
  0
BLOCK_RECORD
  5
78
330
1
100
AcDbSymbolTableRecord
100
AcDbBlockTableRecord
  2
*D30
 70
    0
280
    1
281
    0
  0
BLOCK_RECORD
  5
7B
330
1
100
AcDbSymbolTableRecord
100
AcDbBlockTableRecord
  2
*D34
 70
    0
280
    1
281
    0
  0
BLOCK_RECORD
  5
7E
330
1
100
AcDbSymbolTableRecord
100
AcDbBlockTableRecord
  2
*D39
 70
    0
280
    1
281
    0
  0
BLOCK_RECORD
  5
81
330
1
100
AcDbSymbolTableRecord
100
AcDbBlockTableRecord
  2
*D64
 70
    0
280
    1
281
    0
  0
BLOCK_RECORD
  5
84
330
1
100
AcDbSymbolTableRecord
100
AcDbBlockTableRecord
  2
*D7
 70
    0
280
    1
281
    0
  0
BLOCK_RECORD
  5
87
330
1
100
AcDbSymbolTableRecord
100
AcDbBlockTableRecord
  2
*D60
 70
    0
280
    1
281
    0
  0
BLOCK_RECORD
  5
8A
330
1
100
AcDbSymbolTableRecord
100
AcDbBlockTableRecord
  2
*D67
 70
    0
280
    1
281
    0
  0
BLOCK_RECORD
  5
8D
330
1
100
AcDbSymbolTableRecord
100
AcDbBlockTableRecord
  2
*D3
 70
    0
280
    1
281
    0
  0
BLOCK_RECORD
  5
90
330
1
100
AcDbSymbolTableRecord
100
AcDbBlockTableRecord
  2
*D12
 70
    0
280
    1
281
    0
  0
BLOCK_RECORD
  5
93
330
1
100
AcDbSymbolTableRecord
100
AcDbBlockTableRecord
  2
*D56
 70
    0
280
    1
281
    0
  0
BLOCK_RECORD
  5
96
330
1
100
AcDbSymbolTableRecord
100
AcDbBlockTableRecord
  2
*D35
 70
    0
280
    1
281
    0
  0
BLOCK_RECORD
  5
99
330
1
100
AcDbSymbolTableRecord
100
AcDbBlockTableRecord
  2
*D66
 70
    0
280
    1
281
    0
  0
BLOCK_RECORD
  5
9C
330
1
100
AcDbSymbolTableRecord
100
AcDbBlockTableRecord
  2
*D48
 70
    0
280
    1
281
    0
  0
BLOCK_RECORD
  5
9F
330
1
100
AcDbSymbolTableRecord
100
AcDbBlockTableRecord
  2
*D18
 70
    0
280
    1
281
    0
  0
BLOCK_RECORD
  5
A2
330
1
100
AcDbSymbolTableRecord
100
AcDbBlockTableRecord
  2
*D11
 70
    0
280
    1
281
    0
  0
BLOCK_RECORD
  5
A5
330
1
100
AcDbSymbolTableRecord
100
AcDbBlockTableRecord
  2
*D17
 70
    0
280
    1
281
    0
  0
BLOCK_RECORD
  5
A8
330
1
100
AcDbSymbolTableRecord
100
AcDbBlockTableRecord
  2
*D22
 70
    0
280
    1
281
    0
  0
BLOCK_RECORD
  5
AB
330
1
100
AcDbSymbolTableRecord
100
AcDbBlockTableRecord
  2
*D41
 70
    0
280
    1
281
    0
  0
BLOCK_RECORD
  5
AE
330
1
100
AcDbSymbolTableRecord
100
AcDbBlockTableRecord
  2
*D51
 70
    0
280
    1
281
    0
  0
BLOCK_RECORD
  5
B1
330
1
100
AcDbSymbolTableRecord
100
AcDbBlockTableRecord
  2
*D50
 70
    0
280
    1
281
    0
  0
BLOCK_RECORD
  5
B4
330
1
100
AcDbSymbolTableRecord
100
AcDbBlockTableRecord
  2
*D24
 70
    0
280
    1
281
    0
  0
BLOCK_RECORD
  5
B7
330
1
100
AcDbSymbolTableRecord
100
AcDbBlockTableRecord
  2
*D58
 70
    0
280
    1
281
    0
  0
BLOCK_RECORD
  5
BA
330
1
100
AcDbSymbolTableRecord
100
AcDbBlockTableRecord
  2
*D42
 70
    0
280
    1
281
    0
  0
BLOCK_RECORD
  5
BD
330
1
100
AcDbSymbolTableRecord
100
AcDbBlockTableRecord
  2
*D55
 70
    0
280
    1
281
    0
  0
BLOCK_RECORD
  5
C0
330
1
100
AcDbSymbolTableRecord
100
AcDbBlockTableRecord
  2
*D62
 70
    0
280
    1
281
    0
  0
BLOCK_RECORD
  5
C3
330
1
100
AcDbSymbolTableRecord
100
AcDbBlockTableRecord
  2
*D9
 70
    0
280
    1
281
    0
  0
BLOCK_RECORD
  5
C6
330
1
100
AcDbSymbolTableRecord
100
AcDbBlockTableRecord
  2
*D36
 70
    0
280
    1
281
    0
  0
BLOCK_RECORD
  5
C9
330
1
100
AcDbSymbolTableRecord
100
AcDbBlockTableRecord
  2
*D59
 70
    0
280
    1
281
    0
  0
BLOCK_RECORD
  5
CC
330
1
100
AcDbSymbolTableRecord
100
AcDbBlockTableRecord
  2
*D32
 70
    0
280
    1
281
    0
  0
BLOCK_RECORD
  5
CF
330
1
100
AcDbSymbolTableRecord
100
AcDbBlockTableRecord
  2
*D49
 70
    0
280
    1
281
    0
  0
BLOCK_RECORD
  5
D2
330
1
100
AcDbSymbolTableRecord
100
AcDbBlockTableRecord
  2
*D10
 70
    0
280
    1
281
    0
  0
BLOCK_RECORD
  5
D5
330
1
100
AcDbSymbolTableRecord
100
AcDbBlockTableRecord
  2
*D6
 70
    0
280
    1
281
    0
  0
BLOCK_RECORD
  5
D8
330
1
100
AcDbSymbolTableRecord
100
AcDbBlockTableRecord
  2
*D54
 70
    0
280
    1
281
    0
  0
BLOCK_RECORD
  5
DB
330
1
100
AcDbSymbolTableRecord
100
AcDbBlockTableRecord
  2
*D57
 70
    0
280
    1
281
    0
  0
BLOCK_RECORD
  5
DE
330
1
100
AcDbSymbolTableRecord
100
AcDbBlockTableRecord
  2
*D45
 70
    0
280
    1
281
    0
  0
BLOCK_RECORD
  5
E1
330
1
100
AcDbSymbolTableRecord
100
AcDbBlockTableRecord
  2
*D33
 70
    0
280
    1
281
    0
  0
BLOCK_RECORD
  5
E4
330
1
100
AcDbSymbolTableRecord
100
AcDbBlockTableRecord
  2
*D1
 70
    0
280
    1
281
    0
  0
BLOCK_RECORD
  5
E7
330
1
100
AcDbSymbolTableRecord
100
AcDbBlockTableRecord
  2
*D8
 70
    0
280
    1
281
    0
  0
BLOCK_RECORD
  5
EA
330
1
100
AcDbSymbolTableRecord
100
AcDbBlockTableRecord
  2
*D61
 70
    0
280
    1
281
    0
  0
BLOCK_RECORD
  5
ED
330
1
100
AcDbSymbolTableRecord
100
AcDbBlockTableRecord
  2
*D15
 70
    0
280
    1
281
    0
  0
BLOCK_RECORD
  5
F0
330
1
100
AcDbSymbolTableRecord
100
AcDbBlockTableRecord
  2
*D14
 70
    0
280
    1
281
    0
  0
BLOCK_RECORD
  5
F3
330
1
100
AcDbSymbolTableRecord
100
AcDbBlockTableRecord
  2
*D19
 70
    0
280
    1
281
    0
  0
BLOCK_RECORD
  5
F6
330
1
100
AcDbSymbolTableRecord
100
AcDbBlockTableRecord
  2
*D43
 70
    0
280
    1
281
    0
  0
BLOCK_RECORD
  5
F9
330
1
100
AcDbSymbolTableRecord
100
AcDbBlockTableRecord
  2
*D29
 70
    0
280
    1
281
    0
  0
BLOCK_RECORD
  5
FC
330
1
100
AcDbSymbolTableRecord
100
AcDbBlockTableRecord
  2
*D13
 70
    0
280
    1
281
    0
  0
BLOCK_RECORD
  5
FF
330
1
100
AcDbSymbolTableRecord
100
AcDbBlockTableRecord
  2
*D47
 70
    0
280
    1
281
    0
  0
BLOCK_RECORD
  5
102
330
1
100
AcDbSymbolTableRecord
100
AcDbBlockTableRecord
  2
*D27
 70
    0
280
    1
281
    0
  0
BLOCK_RECORD
  5
105
330
1
100
AcDbSymbolTableRecord
100
AcDbBlockTableRecord
  2
*D31
 70
    0
280
    1
281
    0
  0
BLOCK_RECORD
  5
108
330
1
100
AcDbSymbolTableRecord
100
AcDbBlockTableRecord
  2
*D38
 70
    0
280
    1
281
    0
  0
BLOCK_RECORD
  5
10B
330
1
100
AcDbSymbolTableRecord
100
AcDbBlockTableRecord
  2
*D25
 70
    0
280
    1
281
    0
  0
BLOCK_RECORD
  5
10E
330
1
100
AcDbSymbolTableRecord
100
AcDbBlockTableRecord
  2
*D46
 70
    0
280
    1
281
    0
  0
BLOCK_RECORD
  5
111
330
1
100
AcDbSymbolTableRecord
100
AcDbBlockTableRecord
  2
*D28
 70
    0
280
    1
281
    0
  0
BLOCK_RECORD
  5
114
330
1
100
AcDbSymbolTableRecord
100
AcDbBlockTableRecord
  2
*D65
 70
    0
280
    1
281
    0
  0
BLOCK_RECORD
  5
117
330
1
100
AcDbSymbolTableRecord
100
AcDbBlockTableRecord
  2
mount_old
 70
    0
280
    1
281
    0
  0
BLOCK_RECORD
  5
11A
330
1
100
AcDbSymbolTableRecord
100
AcDbBlockTableRecord
  2
laser_mount_t
 70
    0
280
    1
281
    0
  0
BLOCK_RECORD
  5
11D
330
1
100
AcDbSymbolTableRecord
100
AcDbBlockTableRecord
  2
laser_mount_s
 70
    0
280
    1
281
    0
  0
BLOCK_RECORD
  5
120
330
1
100
AcDbSymbolTableRecord
100
AcDbBlockTableRecord
  2
laser_mount_b
 70
    0
280
    1
281
    0
  0
BLOCK_RECORD
  5
123
330
1
100
AcDbSymbolTableRecord
100
AcDbBlockTableRecord
  2
laser_mount_r
 70
    0
280
    1
281
    0
  0
BLOCK_RECORD
  5
126
330
1
100
AcDbSymbolTableRecord
100
AcDbBlockTableRecord
  2
laser_mount_f
 70
    0
280
    1
281
    0
  0
BLOCK_RECORD
  5
129
330
1
100
AcDbSymbolTableRecord
100
AcDbBlockTableRecord
  2
laser_mount_enc_f
 70
    0
280
    1
281
    0
  0
BLOCK_RECORD
  5
12C
330
1
100
AcDbSymbolTableRecord
100
AcDbBlockTableRecord
  2
laser_mount_enc_s
 70
    0
280
    1
281
    0
  0
BLOCK_RECORD
  5
12F
330
1
100
AcDbSymbolTableRecord
100
AcDbBlockTableRecord
  2
laser_mount_enc_b
 70
    0
280
    1
281
    0
  0
BLOCK_RECORD
  5
132
330
1
100
AcDbSymbolTableRecord
100
AcDbBlockTableRecord
  2
laser_mount_nad_f
 70
    0
280
    1
281
    0
  0
BLOCK_RECORD
  5
135
330
1
100
AcDbSymbolTableRecord
100
AcDbBlockTableRecord
  2
laser_mount_nad_b
 70
    0
280
    1
281
    0
  0
BLOCK_RECORD
  5
138
330
1
100
AcDbSymbolTableRecord
100
AcDbBlockTableRecord
  2
laser_mount_nad_s
 70
    0
280
    1
281
    0
  0
ENDTAB
  0
ENDSEC
  0
SECTION
  2
BLOCKS
  0
BLOCK
  5
20
330
1F
100
AcDbEntity
  8
0
100
AcDbBlockBegin
  2
*Model_Space
 70
    0
 10
0
 20
0
 30
0
  3
*Model_Space
  1

  0
ENDBLK
  5
21
330
1F
100
AcDbEntity
  8
0
100
AcDbBlockEnd
  0
BLOCK
  5
1C
330
1B
100
AcDbEntity
  8
0
100
AcDbBlockBegin
  2
*Paper_Space
 70
    0
 10
0
 20
0
 30
0
  3
*Paper_Space
  1

  0
ENDBLK
  5
1D
330
1F
100
AcDbEntity
  8
0
100
AcDbBlockEnd
  0
BLOCK
  5
4F
330
4E
100
AcDbEntity
  8
0
100
AcDbBlockBegin
  2
*D21
 70
    1
 10
0
 20
0
  3
*D21
  1

  0
LINE
  5
13B
100
AcDbEntity
  8
dims
  6
ByBlock
 62
    0
370
   -2
100
AcDbLine
 10
9.25
 20
-1
 11
40
 21
-1
  0
SOLID
  5
13C
100
AcDbEntity
  8
dims
  6
ByBlock
 62
    0
370
   -2
100
AcDbTrace
 10
9.25
 20
-1
 30
0
 11
10.25
 21
-0.8334861368908639
 31
0
 12
10.25
 22
-1.166513863109136
 32
0
 13
10.25
 23
-1.166513863109136
 33
0
  0
SOLID
  5
13D
100
AcDbEntity
  8
dims
  6
ByBlock
 62
    0
370
   -2
100
AcDbTrace
 10
40
 20
-1
 30
0
 11
39
 21
-1.166513863109136
 31
0
 12
39
 22
-0.8334861368908638
 32
0
 13
39
 23
-0.8334861368908638
 33
0
  0
MTEXT
  5
13E
100
AcDbEntity
  8
dims
  6
CONTINUOUS
 62
    0
370
   -2
100
AcDbMText
 10
24.625
 20
0.5
 30
0
 40
1
 41
3.111111111111235
 71
    5
 72
    1
  1
30.75
  7
standard
210
0
220
0
230
1
 50
0
 73
    2
 44
1
  0
LINE
  5
13F
100
AcDbEntity
  8
dims
  6
ByBlock
 62
    0
370
   -2
100
AcDbLine
 10
9.25
 20
7.975
 11
9.25
 21
-1.05
  0
LINE
  5
140
100
AcDbEntity
  8
dims
  6
ByBlock
 62
    0
370
   -2
100
AcDbLine
 10
40
 20
7.975
 11
40
 21
-1.05
  0
ENDBLK
  5
50
330
4E
100
AcDbEntity
  8
0
100
AcDbBlockEnd
  0
BLOCK
  5
52
330
51
100
AcDbEntity
  8
0
100
AcDbBlockBegin
  2
*D2
 70
    1
 10
0
 20
0
  3
*D2
  1

  0
LINE
  5
141
100
AcDbEntity
  8
dims
  6
ByBlock
 62
    0
370
   -2
100
AcDbLine
 10
66.75
 20
88.02500000000001
 11
66.75
 21
96.55000000000001
  0
LINE
  5
142
100
AcDbEntity
  8
dims
  6
ByBlock
 62
    0
370
   -2
100
AcDbLine
 10
70.7500000000001
 20
88.02500000000001
 11
70.7500000000001
 21
96.55000000000001
  0
LINE
  5
143
100
AcDbEntity
  8
dims
  6
ByBlock
 62
    0
370
   -2
100
AcDbLine
 10
66.75
 20
96.50000000000001
 11
70.7500000000001
 21
96.50000000000001
  0
SOLID
  5
144
100
AcDbEntity
  8
dims
  6
ByBlock
 62
    0
370
   -2
100
AcDbTrace
 10
66.75
 20
96.50000000000001
 30
0
 11
67.75
 21
96.66651386310915
 31
0
 12
67.75
 22
96.33348613689088
 32
0
 13
67.75
 23
96.33348613689088
 33
0
  0
SOLID
  5
145
100
AcDbEntity
  8
dims
  6
ByBlock
 62
    0
370
   -2
100
AcDbTrace
 10
70.7500000000001
 20
96.50000000000001
 30
0
 11
69.7500000000001
 21
96.33348613689088
 31
0
 12
69.7500000000001
 22
96.66651386310915
 32
0
 13
69.7500000000001
 23
96.66651386310915
 33
0
  0
MTEXT
  5
146
100
AcDbEntity
  8
dims
  6
CONTINUOUS
 62
    0
370
   -2
100
AcDbMText
 10
68.75000000000006
 20
98.00000000000001
 30
0
 40
1
 41
2.444444444444444
 71
    5
 72
    1
  1
4.00
  7
standard
210
0
220
0
230
1
 50
0
 73
    2
 44
1
  0
ENDBLK
  5
53
330
51
100
AcDbEntity
  8
0
100
AcDbBlockEnd
  0
BLOCK
  5
55
330
54
100
AcDbEntity
  8
0
100
AcDbBlockBegin
  2
*D44
 70
    1
 10
0
 20
0
  3
*D44
  1

  0
LINE
  5
147
100
AcDbEntity
  8
dims
  6
CONTINUOUS
 62
    7
370
    0
100
AcDbLine
 10
47.29289321881345
 20
72.70710678118655
 11
42
 21
76
  0
SOLID
  5
148
100
AcDbEntity
  8
dims
  6
CONTINUOUS
 62
    7
370
    0
100
AcDbTrace
 10
47.29289321881345
 20
72.70710678118655
 30
0
 11
46.35584265126332
 21
73.09396993588275
 31
0
 12
46.53176401210587
 22
73.37674041034821
 32
0
 13
46.53176401210587
 23
73.37674041034821
 33
0
  0
LINE
  5
149
100
AcDbEntity
  8
dims
  6
CONTINUOUS
 62
    7
370
    0
100
AcDbLine
 10
42
 20
76
 11
38
 21
76
  0
ENDBLK
  5
56
330
54
100
AcDbEntity
  8
0
100
AcDbBlockEnd
  0
BLOCK
  5
58
330
57
100
AcDbEntity
  8
0
100
AcDbBlockBegin
  2
*D20
 70
    1
 10
0
 20
0
  3
*D20
  1

  0
LINE
  5
14A
100
AcDbEntity
  8
dims
  6
ByBlock
 62
    0
370
   -2
100
AcDbLine
 10
78
 20
19
 11
78
 21
24
  0
SOLID
  5
14B
100
AcDbEntity
  8
dims
  6
ByBlock
 62
    0
370
   -2
100
AcDbTrace
 10
78
 20
19
 30
0
 11
77.83348613689087
 21
20
 31
0
 12
78.16651386310913
 22
20
 32
0
 13
78.16651386310913
 23
20
 33
0
  0
SOLID
  5
14C
100
AcDbEntity
  8
dims
  6
ByBlock
 62
    0
370
   -2
100
AcDbTrace
 10
78
 20
24
 30
0
 11
78.16651386310913
 21
23
 31
0
 12
77.83348613689087
 22
23
 32
0
 13
77.83348613689087
 23
23
 33
0
  0
MTEXT
  5
14D
100
AcDbEntity
  8
dims
  6
CONTINUOUS
 62
    0
370
   -2
100
AcDbMText
 10
76.5
 20
21.5
 30
0
 40
1
 41
2.333333333333395
 71
    5
 72
    1
  1
5.00
  7
standard
210
0
220
0
230
1
 50
90
 73
    2
 44
1
  0
LINE
  5
14E
100
AcDbEntity
  8
dims
  6
ByBlock
 62
    0
370
   -2
100
AcDbLine
 10
41.025
 20
19
 11
78.05
 21
19
  0
LINE
  5
14F
100
AcDbEntity
  8
dims
  6
ByBlock
 62
    0
370
   -2
100
AcDbLine
 10
44.025
 20
24
 11
78.05
 21
24
  0
ENDBLK
  5
59
330
57
100
AcDbEntity
  8
0
100
AcDbBlockEnd
  0
BLOCK
  5
5B
330
5A
100
AcDbEntity
  8
0
100
AcDbBlockBegin
  2
*D37
 70
    1
 10
0
 20
0
  3
*D37
  1

  0
LINE
  5
150
100
AcDbEntity
  8
dims
  6
ByBlock
 62
    0
370
   -2
100
AcDbLine
 10
186
 20
70
 11
186
 21
79
  0
SOLID
  5
151
100
AcDbEntity
  8
dims
  6
ByBlock
 62
    0
370
   -2
100
AcDbTrace
 10
186
 20
70
 30
0
 11
185.8334861368909
 21
71
 31
0
 12
186.1665138631091
 22
71
 32
0
 13
186.1665138631091
 23
71
 33
0
  0
SOLID
  5
152
100
AcDbEntity
  8
dims
  6
ByBlock
 62
    0
370
   -2
100
AcDbTrace
 10
186
 20
79
 30
0
 11
186.1665138631091
 21
78
 31
0
 12
185.8334861368909
 22
78
 32
0
 13
185.8334861368909
 23
78
 33
0
  0
MTEXT
  5
153
100
AcDbEntity
  8
dims
  6
CONTINUOUS
 62
    0
370
   -2
100
AcDbMText
 10
184.5
 20
74.5
 30
0
 40
1
 41
2.333333333333395
 71
    5
 72
    1
  1
9.00
  7
standard
210
0
220
0
230
1
 50
90
 73
    2
 44
1
  0
LINE
  5
154
100
AcDbEntity
  8
dims
  6
ByBlock
 62
    0
370
   -2
100
AcDbLine
 10
198.975
 20
70
 11
185.95
 21
70
  0
LINE
  5
155
100
AcDbEntity
  8
dims
  6
ByBlock
 62
    0
370
   -2
100
AcDbLine
 10
198.975
 20
79
 11
185.95
 21
79
  0
ENDBLK
  5
5C
330
5A
100
AcDbEntity
  8
0
100
AcDbBlockEnd
  0
BLOCK
  5
5E
330
5D
100
AcDbEntity
  8
0
100
AcDbBlockBegin
  2
*D63
 70
    1
 10
0
 20
0
  3
*D63
  1

  0
LINE
  5
156
100
AcDbEntity
  8
dims
  6
ByBlock
 62
    0
370
   -2
100
AcDbLine
 10
160
 20
23
 11
168
 21
23
  0
SOLID
  5
157
100
AcDbEntity
  8
dims
  6
ByBlock
 62
    0
370
   -2
100
AcDbTrace
 10
160
 20
23
 30
0
 11
161
 21
23.16651386310913
 31
0
 12
161
 22
22.83348613689086
 32
0
 13
161
 23
22.83348613689086
 33
0
  0
SOLID
  5
158
100
AcDbEntity
  8
dims
  6
ByBlock
 62
    0
370
   -2
100
AcDbTrace
 10
168
 20
23
 30
0
 11
167
 21
22.83348613689087
 31
0
 12
167
 22
23.16651386310913
 32
0
 13
167
 23
23.16651386310913
 33
0
  0
MTEXT
  5
159
100
AcDbEntity
  8
dims
  6
CONTINUOUS
 62
    0
370
   -2
100
AcDbMText
 10
164
 20
24.5
 30
0
 40
1
 41
2.333333333333333
 71
    5
 72
    1
  1
8.00
  7
standard
210
0
220
0
230
1
 50
0
 73
    2
 44
1
  0
LINE
  5
15A
100
AcDbEntity
  8
dims
  6
ByBlock
 62
    0
370
   -2
100
AcDbLine
 10
160
 20
16.025
 11
160
 21
23.05
  0
LINE
  5
15B
100
AcDbEntity
  8
dims
  6
ByBlock
 62
    0
370
   -2
100
AcDbLine
 10
168
 20
12.825
 11
168
 21
23.05
  0
ENDBLK
  5
5F
330
5D
100
AcDbEntity
  8
0
100
AcDbBlockEnd
  0
BLOCK
  5
61
330
60
100
AcDbEntity
  8
0
100
AcDbBlockBegin
  2
*D5
 70
    1
 10
0
 20
0
  3
*D5
  1

  0
LINE
  5
15C
100
AcDbEntity
  8
dims
  6
ByBlock
 62
    0
370
   -2
100
AcDbLine
 10
87
 20
70
 11
87
 21
87.5
  0
SOLID
  5
15D
100
AcDbEntity
  8
dims
  6
ByBlock
 62
    0
370
   -2
100
AcDbTrace
 10
87
 20
70
 30
0
 11
86.83348613689087
 21
71
 31
0
 12
87.16651386310913
 22
71
 32
0
 13
87.16651386310913
 23
71
 33
0
  0
SOLID
  5
15E
100
AcDbEntity
  8
dims
  6
ByBlock
 62
    0
370
   -2
100
AcDbTrace
 10
87
 20
87.5
 30
0
 11
87.16651386310913
 21
86.5
 31
0
 12
86.83348613689087
 22
86.5
 32
0
 13
86.83348613689087
 23
86.5
 33
0
  0
MTEXT
  5
15F
100
AcDbEntity
  8
dims
  6
CONTINUOUS
 62
    0
370
   -2
100
AcDbMText
 10
85.5
 20
78.75
 30
0
 40
1
 41
2.888888888888951
 71
    5
 72
    1
  1
17.50
  7
standard
210
0
220
0
230
1
 50
90
 73
    2
 44
1
  0
LINE
  5
160
100
AcDbEntity
  8
dims
  6
ByBlock
 62
    0
370
   -2
100
AcDbLine
 10
61.025
 20
70
 11
87.05
 21
70
  0
LINE
  5
161
100
AcDbEntity
  8
dims
  6
ByBlock
 62
    0
370
   -2
100
AcDbLine
 10
72.02500000000001
 20
87.5
 11
87.05
 21
87.5
  0
ENDBLK
  5
62
330
60
100
AcDbEntity
  8
0
100
AcDbBlockEnd
  0
BLOCK
  5
64
330
63
100
AcDbEntity
  8
0
100
AcDbBlockBegin
  2
*D52
 70
    1
 10
0
 20
0
  3
*D52
  1

  0
LINE
  5
162
100
AcDbEntity
  8
dims
  6
CONTINUOUS
 62
    7
370
    0
100
AcDbLine
 10
161
 20
77.86222702495101
 11
164
 21
82
  0
SOLID
  5
163
100
AcDbEntity
  8
dims
  6
CONTINUOUS
 62
    7
370
    0
100
AcDbTrace
 10
161
 20
77.86222702495101
 30
0
 11
161.452172679559
 21
78.76956749823984
 31
0
 12
161.7217918561992
 22
78.57408612823761
 32
0
 13
161.7217918561992
 23
78.57408612823761
 33
0
  0
LINE
  5
164
100
AcDbEntity
  8
dims
  6
CONTINUOUS
 62
    7
370
    0
100
AcDbLine
 10
164
 20
82
 11
170
 21
82
  0
ENDBLK
  5
65
330
63
100
AcDbEntity
  8
0
100
AcDbBlockEnd
  0
BLOCK
  5
67
330
66
100
AcDbEntity
  8
0
100
AcDbBlockBegin
  2
*D16
 70
    1
 10
0
 20
0
  3
*D16
  1

  0
LINE
  5
165
100
AcDbEntity
  8
dims
  6
CONTINUOUS
 62
    7
370
    0
100
AcDbLine
 10
40
 20
23
 11
45
 21
25
  0
LINE
  5
166
100
AcDbEntity
  8
dims
  6
CONTINUOUS
 62
    7
370
    0
100
AcDbLine
 10
45
 20
25
 11
48
 21
25
  0
SOLID
  5
167
100
AcDbEntity
  8
dims
  6
CONTINUOUS
 62
    7
370
    0
100
AcDbTrace
 10
40
 20
23
 30
0
 11
40.86663499464282
 21
23.52599491696019
 31
0
 12
40.99031838712769
 22
23.21678643574801
 32
0
 13
40.99031838712769
 23
23.21678643574801
 33
0
  0
ENDBLK
  5
68
330
66
100
AcDbEntity
  8
0
100
AcDbBlockEnd
  0
BLOCK
  5
6A
330
69
100
AcDbEntity
  8
0
100
AcDbBlockBegin
  2
*D23
 70
    1
 10
0
 20
0
  3
*D23
  1

  0
LINE
  5
168
100
AcDbEntity
  8
dims
  6
ByBlock
 62
    0
370
   -2
100
AcDbLine
 10
38
 20
32
 11
42
 21
32
  0
SOLID
  5
169
100
AcDbEntity
  8
dims
  6
ByBlock
 62
    0
370
   -2
100
AcDbTrace
 10
38
 20
32
 30
0
 11
39
 21
32.16651386310914
 31
0
 12
39
 22
31.83348613689086
 32
0
 13
39
 23
31.83348613689086
 33
0
  0
SOLID
  5
16A
100
AcDbEntity
  8
dims
  6
ByBlock
 62
    0
370
   -2
100
AcDbTrace
 10
42
 20
32
 30
0
 11
41
 21
31.83348613689087
 31
0
 12
41
 22
32.16651386310914
 32
0
 13
41
 23
32.16651386310914
 33
0
  0
MTEXT
  5
16B
100
AcDbEntity
  8
dims
  6
CONTINUOUS
 62
    0
370
   -2
100
AcDbMText
 10
40
 20
33.5
 30
0
 40
1
 41
2.444444444444444
 71
    5
 72
    1
  1
4.00
  7
standard
210
0
220
0
230
1
 50
0
 73
    2
 44
1
  0
LINE
  5
16C
100
AcDbEntity
  8
dims
  6
ByBlock
 62
    0
370
   -2
100
AcDbLine
 10
38
 20
25.025
 11
38
 21
32.05
  0
LINE
  5
16D
100
AcDbEntity
  8
dims
  6
ByBlock
 62
    0
370
   -2
100
AcDbLine
 10
42
 20
25.025
 11
42
 21
32.05
  0
ENDBLK
  5
6B
330
69
100
AcDbEntity
  8
0
100
AcDbBlockEnd
  0
BLOCK
  5
6D
330
6C
100
AcDbEntity
  8
0
100
AcDbBlockBegin
  2
*D53
 70
    1
 10
0
 20
0
  3
*D53
  1

  0
LINE
  5
16E
100
AcDbEntity
  8
dims
  6
CONTINUOUS
 62
    7
370
    0
100
AcDbLine
 10
151
 20
70.74958559677944
 11
146
 21
66
  0
SOLID
  5
16F
100
AcDbEntity
  8
dims
  6
CONTINUOUS
 62
    7
370
    0
100
AcDbTrace
 10
151
 20
70.74958559677944
 30
0
 11
150.3896516352514
 21
69.94014026801648
 31
0
 12
150.160289486992
 22
70.18159517348742
 32
0
 13
150.160289486992
 23
70.18159517348742
 33
0
  0
LINE
  5
170
100
AcDbEntity
  8
dims
  6
CONTINUOUS
 62
    7
370
    0
100
AcDbLine
 10
146
 20
66
 11
141
 21
66
  0
ENDBLK
  5
6E
330
6C
100
AcDbEntity
  8
0
100
AcDbBlockEnd
  0
BLOCK
  5
70
330
6F
100
AcDbEntity
  8
0
100
AcDbBlockBegin
  2
*D4
 70
    1
 10
0
 20
0
  3
*D4
  1

  0
LINE
  5
171
100
AcDbEntity
  8
dims
  6
ByBlock
 62
    0
370
   -2
100
AcDbLine
 10
9.233445055088207
 20
79.48126677286298
 11
0.3659942705165142
 21
69.44704614821609
  0
LINE
  5
172
100
AcDbEntity
  8
dims
  6
ByBlock
 62
    0
370
   -2
100
AcDbLine
 10
19.98344505508822
 20
69.98126677286297
 11
11.11599427051653
 21
59.94704614821607
  0
LINE
  5
173
100
AcDbEntity
  8
dims
  6
ByBlock
 62
    0
370
   -2
100
AcDbLine
 10
0.3991041603400998
 20
69.48451260249014
 11
11.14910416034011
 21
59.98451260249013
  0
SOLID
  5
174
100
AcDbEntity
  8
dims
  6
ByBlock
 62
    0
370
   -2
100
AcDbTrace
 10
0.3991041603400998
 20
69.48451260249014
 30
0
 11
1.258698359054108
 21
68.94708848678194
 31
0
 12
1.038168132588384
 22
68.69754112525493
 32
0
 13
1.038168132588384
 23
68.69754112525493
 33
0
  0
SOLID
  5
175
100
AcDbEntity
  8
dims
  6
ByBlock
 62
    0
370
   -2
100
AcDbTrace
 10
11.14910416034011
 20
59.98451260249013
 30
0
 11
10.28950996162611
 21
60.52193671819834
 31
0
 12
10.51004018809183
 22
60.77148407972534
 32
0
 13
10.51004018809183
 23
60.77148407972534
 33
0
  0
MTEXT
  5
176
100
AcDbEntity
  8
dims
  6
CONTINUOUS
 62
    0
370
   -2
100
AcDbMText
 10
6.767400855047674
 20
65.85850623071184
 30
0
 40
1
 41
3.000000000000124
 71
    5
 72
    1
  1
14.35
  7
standard
210
0
220
0
230
1
 50
318.5322945838909
 73
    2
 44
1
  0
ENDBLK
  5
71
330
6F
100
AcDbEntity
  8
0
100
AcDbBlockEnd
  0
BLOCK
  5
73
330
72
100
AcDbEntity
  8
0
100
AcDbBlockBegin
  2
*D40
 70
    1
 10
0
 20
0
  3
*D40
  1

  0
LINE
  5
177
100
AcDbEntity
  8
dims
  6
CONTINUOUS
 62
    7
370
    0
100
AcDbLine
 10
162.7017251643036
 20
75.30410165883215
 11
168
 21
78
  0
LINE
  5
178
100
AcDbEntity
  8
dims
  6
CONTINUOUS
 62
    7
370
    0
100
AcDbLine
 10
168
 20
78
 11
174
 21
78
  0
SOLID
  5
179
100
AcDbEntity
  8
dims
  6
CONTINUOUS
 62
    7
370
    0
100
AcDbTrace
 10
162.7017251643036
 20
75.30410165883215
 30
0
 11
163.5174705749454
 21
75.90600388646081
 31
0
 12
163.6684970849481
 22
75.60919003956934
 32
0
 13
163.6684970849481
 23
75.60919003956934
 33
0
  0
ENDBLK
  5
74
330
72
100
AcDbEntity
  8
0
100
AcDbBlockEnd
  0
BLOCK
  5
76
330
75
100
AcDbEntity
  8
0
100
AcDbBlockBegin
  2
*D26
 70
    1
 10
0
 20
0
  3
*D26
  1

  0
LINE
  5
17A
100
AcDbEntity
  8
dims
  6
ByBlock
 62
    0
370
   -2
100
AcDbLine
 10
96
 20
70
 11
96
 21
87.5
  0
SOLID
  5
17B
100
AcDbEntity
  8
dims
  6
ByBlock
 62
    0
370
   -2
100
AcDbTrace
 10
96
 20
70
 30
0
 11
95.83348613689087
 21
71
 31
0
 12
96.16651386310913
 22
71
 32
0
 13
96.16651386310913
 23
71
 33
0
  0
SOLID
  5
17C
100
AcDbEntity
  8
dims
  6
ByBlock
 62
    0
370
   -2
100
AcDbTrace
 10
96
 20
87.5
 30
0
 11
96.16651386310913
 21
86.5
 31
0
 12
95.83348613689087
 22
86.5
 32
0
 13
95.83348613689087
 23
86.5
 33
0
  0
MTEXT
  5
17D
100
AcDbEntity
  8
dims
  6
CONTINUOUS
 62
    0
370
   -2
100
AcDbMText
 10
94.5
 20
78.75
 30
0
 40
1
 41
2.888888888888951
 71
    5
 72
    1
  1
17.50
  7
standard
210
0
220
0
230
1
 50
90
 73
    2
 44
1
  0
LINE
  5
17E
100
AcDbEntity
  8
dims
  6
ByBlock
 62
    0
370
   -2
100
AcDbLine
 10
108.975
 20
70
 11
95.95
 21
70
  0
LINE
  5
17F
100
AcDbEntity
  8
dims
  6
ByBlock
 62
    0
370
   -2
100
AcDbLine
 10
108.975
 20
87.5
 11
95.95
 21
87.5
  0
ENDBLK
  5
77
330
75
100
AcDbEntity
  8
0
100
AcDbBlockEnd
  0
BLOCK
  5
79
330
78
100
AcDbEntity
  8
0
100
AcDbBlockBegin
  2
*D30
 70
    1
 10
0
 20
0
  3
*D30
  1

  0
LINE
  5
180
100
AcDbEntity
  8
dims
  6
ByBlock
 62
    0
370
   -2
100
AcDbLine
 10
137
 20
68
 11
137
 21
74
  0
SOLID
  5
181
100
AcDbEntity
  8
dims
  6
ByBlock
 62
    0
370
   -2
100
AcDbTrace
 10
137
 20
70
 30
0
 11
137.1665138631091
 21
69
 31
0
 12
136.8334861368909
 22
69
 32
0
 13
136.8334861368909
 23
69
 33
0
  0
SOLID
  5
182
100
AcDbEntity
  8
dims
  6
ByBlock
 62
    0
370
   -2
100
AcDbTrace
 10
137
 20
72
 30
0
 11
136.8334861368909
 21
73
 31
0
 12
137.1665138631091
 22
73
 32
0
 13
137.1665138631091
 23
73
 33
0
  0
MTEXT
  5
183
100
AcDbEntity
  8
dims
  6
CONTINUOUS
 62
    0
370
   -2
100
AcDbMText
 10
135.5
 20
74.16666666666667
 30
0
 40
1
 41
2.333333333333333
 71
    5
 72
    1
  1
2.00
  7
standard
210
0
220
0
230
1
 50
90
 73
    2
 44
1
  0
LINE
  5
184
100
AcDbEntity
  8
dims
  6
ByBlock
 62
    0
370
   -2
100
AcDbLine
 10
147.975
 20
70
 11
136.95
 21
70
  0
LINE
  5
185
100
AcDbEntity
  8
dims
  6
ByBlock
 62
    0
370
   -2
100
AcDbLine
 10
147.975
 20
72
 11
136.95
 21
72
  0
ENDBLK
  5
7A
330
78
100
AcDbEntity
  8
0
100
AcDbBlockEnd
  0
BLOCK
  5
7C
330
7B
100
AcDbEntity
  8
0
100
AcDbBlockBegin
  2
*D34
 70
    1
 10
0
 20
0
  3
*D34
  1

  0
LINE
  5
186
100
AcDbEntity
  8
dims
  6
ByBlock
 62
    0
370
   -2
100
AcDbLine
 10
165
 20
100
 11
155
 21
100
  0
SOLID
  5
187
100
AcDbEntity
  8
dims
  6
ByBlock
 62
    0
370
   -2
100
AcDbTrace
 10
165
 20
100
 30
0
 11
164
 21
99.83348613689087
 31
0
 12
164
 22
100.1665138631091
 32
0
 13
164
 23
100.1665138631091
 33
0
  0
SOLID
  5
188
100
AcDbEntity
  8
dims
  6
ByBlock
 62
    0
370
   -2
100
AcDbTrace
 10
155
 20
100
 30
0
 11
156
 21
100.1665138631091
 31
0
 12
156
 22
99.83348613689087
 32
0
 13
156
 23
99.83348613689087
 33
0
  0
MTEXT
  5
189
100
AcDbEntity
  8
dims
  6
CONTINUOUS
 62
    0
370
   -2
100
AcDbMText
 10
160
 20
101.5
 30
0
 40
1
 41
2.888888888888889
 71
    5
 72
    1
  1
10.00
  7
standard
210
0
220
0
230
1
 50
360
 73
    2
 44
1
  0
LINE
  5
18A
100
AcDbEntity
  8
dims
  6
ByBlock
 62
    0
370
   -2
100
AcDbLine
 10
165
 20
78.02500000000001
 11
165
 21
100.05
  0
LINE
  5
18B
100
AcDbEntity
  8
dims
  6
ByBlock
 62
    0
370
   -2
100
AcDbLine
 10
155
 20
78.02500000000001
 11
155
 21
100.05
  0
ENDBLK
  5
7D
330
7B
100
AcDbEntity
  8
0
100
AcDbBlockEnd
  0
BLOCK
  5
7F
330
7E
100
AcDbEntity
  8
0
100
AcDbBlockBegin
  2
*D39
 70
    1
 10
0
 20
0
  3
*D39
  1

  0
LINE
  5
18C
100
AcDbEntity
  8
dims
  6
ByBlock
 62
    0
370
   -2
100
AcDbLine
 10
189
 20
81
 11
189
 21
75
  0
SOLID
  5
18D
100
AcDbEntity
  8
dims
  6
ByBlock
 62
    0
370
   -2
100
AcDbTrace
 10
189
 20
79
 30
0
 11
188.8334861368909
 21
80
 31
0
 12
189.1665138631091
 22
80
 32
0
 13
189.1665138631091
 23
80
 33
0
  0
SOLID
  5
18E
100
AcDbEntity
  8
dims
  6
ByBlock
 62
    0
370
   -2
100
AcDbTrace
 10
189
 20
77
 30
0
 11
189.1665138631091
 21
76
 31
0
 12
188.8334861368909
 22
76
 32
0
 13
188.8334861368909
 23
76
 33
0
  0
MTEXT
  5
18F
100
AcDbEntity
  8
dims
  6
CONTINUOUS
 62
    0
370
   -2
100
AcDbMText
 10
187.5
 20
81.16666666666667
 30
0
 40
1
 41
2.333333333333333
 71
    5
 72
    1
  1
2.00
  7
standard
210
0
220
0
230
1
 50
90
 73
    2
 44
1
  0
LINE
  5
190
100
AcDbEntity
  8
dims
  6
ByBlock
 62
    0
370
   -2
100
AcDbLine
 10
198.975
 20
79
 11
188.95
 21
79
  0
LINE
  5
191
100
AcDbEntity
  8
dims
  6
ByBlock
 62
    0
370
   -2
100
AcDbLine
 10
198.975
 20
77
 11
188.95
 21
77
  0
ENDBLK
  5
80
330
7E
100
AcDbEntity
  8
0
100
AcDbBlockEnd
  0
BLOCK
  5
82
330
81
100
AcDbEntity
  8
0
100
AcDbBlockBegin
  2
*D64
 70
    1
 10
0
 20
0
  3
*D64
  1

  0
LINE
  5
192
100
AcDbEntity
  8
dims
  6
ByBlock
 62
    0
370
   -2
100
AcDbLine
 10
157
 20
2
 11
163
 21
2
  0
SOLID
  5
193
100
AcDbEntity
  8
dims
  6
ByBlock
 62
    0
370
   -2
100
AcDbTrace
 10
157
 20
2
 30
0
 11
158
 21
2.166513863109136
 31
0
 12
158
 22
1.833486136890864
 32
0
 13
158
 23
1.833486136890864
 33
0
  0
SOLID
  5
194
100
AcDbEntity
  8
dims
  6
ByBlock
 62
    0
370
   -2
100
AcDbTrace
 10
163
 20
2
 30
0
 11
162
 21
1.833486136890864
 31
0
 12
162
 22
2.166513863109136
 32
0
 13
162
 23
2.166513863109136
 33
0
  0
MTEXT
  5
195
100
AcDbEntity
  8
dims
  6
CONTINUOUS
 62
    0
370
   -2
100
AcDbMText
 10
160
 20
3.5
 30
0
 40
1
 41
3.333333333333396
 71
    5
 72
    1
  1
%%C6.00
  7
standard
210
0
220
0
230
1
 50
0
 73
    2
 44
1
  0
LINE
  5
196
100
AcDbEntity
  8
dims
  6
ByBlock
 62
    0
370
   -2
100
AcDbLine
 10
157
 20
8.975
 11
157
 21
1.95
  0
LINE
  5
197
100
AcDbEntity
  8
dims
  6
ByBlock
 62
    0
370
   -2
100
AcDbLine
 10
163
 20
8.975
 11
163
 21
1.95
  0
ENDBLK
  5
83
330
81
100
AcDbEntity
  8
0
100
AcDbBlockEnd
  0
BLOCK
  5
85
330
84
100
AcDbEntity
  8
0
100
AcDbBlockBegin
  2
*D7
 70
    1
 10
0
 20
0
  3
*D7
  1

  0
LINE
  5
198
100
AcDbEntity
  8
dims
  6
ByBlock
 62
    0
370
   -2
100
AcDbLine
 10
2
 20
87.5
 11
2
 21
79.50000000000001
  0
SOLID
  5
199
100
AcDbEntity
  8
dims
  6
ByBlock
 62
    0
370
   -2
100
AcDbTrace
 10
2
 20
87.5
 30
0
 11
2.166513863109137
 21
86.5
 31
0
 12
1.833486136890864
 22
86.5
 32
0
 13
1.833486136890864
 23
86.5
 33
0
  0
SOLID
  5
19A
100
AcDbEntity
  8
dims
  6
ByBlock
 62
    0
370
   -2
100
AcDbTrace
 10
2
 20
79.50000000000001
 30
0
 11
1.833486136890864
 21
80.50000000000001
 31
0
 12
2.166513863109136
 22
80.50000000000001
 32
0
 13
2.166513863109136
 23
80.50000000000001
 33
0
  0
MTEXT
  5
19B
100
AcDbEntity
  8
dims
  6
CONTINUOUS
 62
    0
370
   -2
100
AcDbMText
 10
0.5
 20
83.5
 30
0
 40
1
 41
2.333333333333333
 71
    5
 72
    1
  1
8.00
  7
standard
210
0
220
0
230
1
 50
90
 73
    2
 44
1
  0
LINE
  5
19C
100
AcDbEntity
  8
dims
  6
ByBlock
 62
    0
370
   -2
100
AcDbLine
 10
8.975
 20
87.5
 11
1.95
 21
87.5
  0
LINE
  5
19D
100
AcDbEntity
  8
dims
  6
ByBlock
 62
    0
370
   -2
100
AcDbLine
 10
8.975
 20
79.50000000000001
 11
1.95
 21
79.50000000000001
  0
ENDBLK
  5
86
330
84
100
AcDbEntity
  8
0
100
AcDbBlockEnd
  0
BLOCK
  5
88
330
87
100
AcDbEntity
  8
0
100
AcDbBlockBegin
  2
*D60
 70
    1
 10
0
 20
0
  3
*D60
  1

  0
LINE
  5
19E
100
AcDbEntity
  8
dims
  6
ByBlock
 62
    0
370
   -2
100
AcDbLine
 10
149
 20
-4
 11
171
 21
-4
  0
SOLID
  5
19F
100
AcDbEntity
  8
dims
  6
ByBlock
 62
    0
370
   -2
100
AcDbTrace
 10
149
 20
-4
 30
0
 11
150
 21
-3.833486136890864
 31
0
 12
150
 22
-4.166513863109136
 32
0
 13
150
 23
-4.166513863109136
 33
0
  0
SOLID
  5
1A0
100
AcDbEntity
  8
dims
  6
ByBlock
 62
    0
370
   -2
100
AcDbTrace
 10
171
 20
-4
 30
0
 11
170
 21
-4.166513863109136
 31
0
 12
170
 22
-3.833486136890864
 32
0
 13
170
 23
-3.833486136890864
 33
0
  0
MTEXT
  5
1A1
100
AcDbEntity
  8
dims
  6
CONTINUOUS
 62
    0
370
   -2
100
AcDbMText
 10
160
 20
-2.5
 30
0
 40
1
 41
3.111111111111111
 71
    5
 72
    1
  1
22.00
  7
standard
210
0
220
0
230
1
 50
0
 73
    2
 44
1
  0
LINE
  5
1A2
100
AcDbEntity
  8
dims
  6
ByBlock
 62
    0
370
   -2
100
AcDbLine
 10
149
 20
8.975
 11
149
 21
-4.05
  0
LINE
  5
1A3
100
AcDbEntity
  8
dims
  6
ByBlock
 62
    0
370
   -2
100
AcDbLine
 10
171
 20
8.975
 11
171
 21
-4.05
  0
ENDBLK
  5
89
330
87
100
AcDbEntity
  8
0
100
AcDbBlockEnd
  0
BLOCK
  5
8B
330
8A
100
AcDbEntity
  8
0
100
AcDbBlockBegin
  2
*D67
 70
    1
 10
0
 20
0
  3
*D67
  1

  0
LINE
  5
1A4
100
AcDbEntity
  8
dims
  6
ByBlock
 62
    0
370
   -2
100
AcDbLine
 10
180
 20
12.5
 11
180
 21
15
  0
SOLID
  5
1A5
100
AcDbEntity
  8
dims
  6
ByBlock
 62
    0
370
   -2
100
AcDbTrace
 10
180
 20
12.5
 30
0
 11
179.8334861368909
 21
13.5
 31
0
 12
180.1665138631091
 22
13.5
 32
0
 13
180.1665138631091
 23
13.5
 33
0
  0
SOLID
  5
1A6
100
AcDbEntity
  8
dims
  6
ByBlock
 62
    0
370
   -2
100
AcDbTrace
 10
180
 20
15
 30
0
 11
180.1665138631091
 21
14
 31
0
 12
179.8334861368909
 22
14
 32
0
 13
179.8334861368909
 23
14
 33
0
  0
MTEXT
  5
1A7
100
AcDbEntity
  8
dims
  6
CONTINUOUS
 62
    0
370
   -2
100
AcDbMText
 10
178.5
 20
13.75
 30
0
 40
1
 41
2.333333333333396
 71
    5
 72
    1
  1
2.50
  7
standard
210
0
220
0
230
1
 50
90
 73
    2
 44
1
  0
LINE
  5
1A8
100
AcDbEntity
  8
dims
  6
ByBlock
 62
    0
370
   -2
100
AcDbLine
 10
160.825
 20
12.5
 11
180.05
 21
12.5
  0
LINE
  5
1A9
100
AcDbEntity
  8
dims
  6
ByBlock
 62
    0
370
   -2
100
AcDbLine
 10
172.025
 20
15
 11
180.05
 21
15
  0
ENDBLK
  5
8C
330
8A
100
AcDbEntity
  8
0
100
AcDbBlockEnd
  0
BLOCK
  5
8E
330
8D
100
AcDbEntity
  8
0
100
AcDbBlockBegin
  2
*D3
 70
    1
 10
0
 20
0
  3
*D3
  1

  0
LINE
  5
1AA
100
AcDbEntity
  8
dims
  6
ByBlock
 62
    0
370
   -2
100
AcDbLine
 10
9.250000000000028
 20
88.02500000000001
 11
9.250000000000028
 21
96.55
  0
LINE
  5
1AB
100
AcDbEntity
  8
dims
  6
ByBlock
 62
    0
370
   -2
100
AcDbLine
 10
11.25
 20
88.02500000000001
 11
11.25
 21
96.55
  0
LINE
  5
1AC
100
AcDbEntity
  8
dims
  6
ByBlock
 62
    0
370
   -2
100
AcDbLine
 10
7.250000000000028
 20
96.5
 11
13.25
 21
96.5
  0
SOLID
  5
1AD
100
AcDbEntity
  8
dims
  6
ByBlock
 62
    0
370
   -2
100
AcDbTrace
 10
9.250000000000028
 20
96.5
 30
0
 11
8.250000000000028
 21
96.33348613689087
 31
0
 12
8.250000000000028
 22
96.66651386310913
 32
0
 13
8.250000000000028
 23
96.66651386310913
 33
0
  0
SOLID
  5
1AE
100
AcDbEntity
  8
dims
  6
ByBlock
 62
    0
370
   -2
100
AcDbTrace
 10
11.25
 20
96.5
 30
0
 11
12.25
 21
96.66651386310913
 31
0
 12
12.25
 22
96.33348613689087
 32
0
 13
12.25
 23
96.33348613689087
 33
0
  0
MTEXT
  5
1AF
100
AcDbEntity
  8
dims
  6
CONTINUOUS
 62
    0
370
   -2
100
AcDbMText
 10
13.41666666666667
 20
98
 30
0
 40
1
 41
2.333333333333333
 71
    5
 72
    1
  1
2.00
  7
standard
210
0
220
0
230
1
 50
0
 73
    2
 44
1
  0
ENDBLK
  5
8F
330
8D
100
AcDbEntity
  8
0
100
AcDbBlockEnd
  0
BLOCK
  5
91
330
90
100
AcDbEntity
  8
0
100
AcDbBlockBegin
  2
*D12
 70
    1
 10
0
 20
0
  3
*D12
  1

  0
LINE
  5
1B0
100
AcDbEntity
  8
dims
  6
ByBlock
 62
    0
370
   -2
100
AcDbLine
 10
28
 20
38
 11
52
 21
38
  0
SOLID
  5
1B1
100
AcDbEntity
  8
dims
  6
ByBlock
 62
    0
370
   -2
100
AcDbTrace
 10
28
 20
38
 30
0
 11
29
 21
38.16651386310914
 31
0
 12
29
 22
37.83348613689086
 32
0
 13
29
 23
37.83348613689086
 33
0
  0
SOLID
  5
1B2
100
AcDbEntity
  8
dims
  6
ByBlock
 62
    0
370
   -2
100
AcDbTrace
 10
52
 20
38
 30
0
 11
51
 21
37.83348613689086
 31
0
 12
51
 22
38.16651386310914
 32
0
 13
51
 23
38.16651386310914
 33
0
  0
MTEXT
  5
1B3
100
AcDbEntity
  8
dims
  6
CONTINUOUS
 62
    0
370
   -2
100
AcDbMText
 10
40
 20
39.5
 30
0
 40
1
 41
3.222222222222222
 71
    5
 72
    1
  1
24.00
  7
standard
210
0
220
0
230
1
 50
0
 73
    2
 44
1
  0
LINE
  5
1B4
100
AcDbEntity
  8
dims
  6
ByBlock
 62
    0
370
   -2
100
AcDbLine
 10
28
 20
16.025
 11
28
 21
38.05
  0
LINE
  5
1B5
100
AcDbEntity
  8
dims
  6
ByBlock
 62
    0
370
   -2
100
AcDbLine
 10
52
 20
16.025
 11
52
 21
38.05
  0
ENDBLK
  5
92
330
90
100
AcDbEntity
  8
0
100
AcDbBlockEnd
  0
BLOCK
  5
94
330
93
100
AcDbEntity
  8
0
100
AcDbBlockBegin
  2
*D56
 70
    1
 10
0
 20
0
  3
*D56
  1

  0
LINE
  5
1B6
100
AcDbEntity
  8
dims
  6
ByBlock
 62
    0
370
   -2
100
AcDbLine
 10
217
 20
77
 11
217
 21
71
  0
SOLID
  5
1B7
100
AcDbEntity
  8
dims
  6
ByBlock
 62
    0
370
   -2
100
AcDbTrace
 10
217
 20
77
 30
0
 11
217.1665138631091
 21
76
 31
0
 12
216.8334861368909
 22
76
 32
0
 13
216.8334861368909
 23
76
 33
0
  0
SOLID
  5
1B8
100
AcDbEntity
  8
dims
  6
ByBlock
 62
    0
370
   -2
100
AcDbTrace
 10
217
 20
71
 30
0
 11
216.8334861368909
 21
72
 31
0
 12
217.1665138631091
 22
72
 32
0
 13
217.1665138631091
 23
72
 33
0
  0
MTEXT
  5
1B9
100
AcDbEntity
  8
dims
  6
CONTINUOUS
 62
    0
370
   -2
100
AcDbMText
 10
215.5
 20
74
 30
0
 40
1
 41
3.333333333333396
 71
    5
 72
    1
  1
%%C6.00
  7
standard
210
0
220
0
230
1
 50
90
 73
    2
 44
1
  0
LINE
  5
1BA
100
AcDbEntity
  8
dims
  6
ByBlock
 62
    0
370
   -2
100
AcDbLine
 10
206.025
 20
77
 11
217.05
 21
77
  0
LINE
  5
1BB
100
AcDbEntity
  8
dims
  6
ByBlock
 62
    0
370
   -2
100
AcDbLine
 10
206.025
 20
71
 11
217.05
 21
71
  0
ENDBLK
  5
95
330
93
100
AcDbEntity
  8
0
100
AcDbBlockEnd
  0
BLOCK
  5
97
330
96
100
AcDbEntity
  8
0
100
AcDbBlockBegin
  2
*D35
 70
    1
 10
0
 20
0
  3
*D35
  1

  0
LINE
  5
1BC
100
AcDbEntity
  8
dims
  6
ByBlock
 62
    0
370
   -2
100
AcDbLine
 10
182
 20
74
 11
182
 21
70
  0
SOLID
  5
1BD
100
AcDbEntity
  8
dims
  6
ByBlock
 62
    0
370
   -2
100
AcDbTrace
 10
182
 20
74
 30
0
 11
182.1665138631091
 21
73
 31
0
 12
181.8334861368909
 22
73
 32
0
 13
181.8334861368909
 23
73
 33
0
  0
SOLID
  5
1BE
100
AcDbEntity
  8
dims
  6
ByBlock
 62
    0
370
   -2
100
AcDbTrace
 10
182
 20
70
 30
0
 11
181.8334861368909
 21
71
 31
0
 12
182.1665138631091
 22
71
 32
0
 13
182.1665138631091
 23
71
 33
0
  0
MTEXT
  5
1BF
100
AcDbEntity
  8
dims
  6
CONTINUOUS
 62
    0
370
   -2
100
AcDbMText
 10
180.5
 20
72
 30
0
 40
1
 41
2.444444444444444
 71
    5
 72
    1
  1
4.00
  7
standard
210
0
220
0
230
1
 50
90
 73
    2
 44
1
  0
LINE
  5
1C0
100
AcDbEntity
  8
dims
  6
ByBlock
 62
    0
370
   -2
100
AcDbLine
 10
160.025
 20
74
 11
182.05
 21
74
  0
LINE
  5
1C1
100
AcDbEntity
  8
dims
  6
ByBlock
 62
    0
370
   -2
100
AcDbLine
 10
172.025
 20
70
 11
182.05
 21
70
  0
ENDBLK
  5
98
330
96
100
AcDbEntity
  8
0
100
AcDbBlockEnd
  0
BLOCK
  5
9A
330
99
100
AcDbEntity
  8
0
100
AcDbBlockBegin
  2
*D66
 70
    1
 10
0
 20
0
  3
*D66
  1

  0
LINE
  5
1C2
100
AcDbEntity
  8
dims
  6
ByBlock
 62
    0
370
   -2
100
AcDbLine
 10
143
 20
12
 11
143
 21
15
  0
SOLID
  5
1C3
100
AcDbEntity
  8
dims
  6
ByBlock
 62
    0
370
   -2
100
AcDbTrace
 10
143
 20
12
 30
0
 11
142.8334861368909
 21
13
 31
0
 12
143.1665138631091
 22
13
 32
0
 13
143.1665138631091
 23
13
 33
0
  0
SOLID
  5
1C4
100
AcDbEntity
  8
dims
  6
ByBlock
 62
    0
370
   -2
100
AcDbTrace
 10
143
 20
15
 30
0
 11
143.1665138631091
 21
14
 31
0
 12
142.8334861368909
 22
14
 32
0
 13
142.8334861368909
 23
14
 33
0
  0
MTEXT
  5
1C5
100
AcDbEntity
  8
dims
  6
CONTINUOUS
 62
    0
370
   -2
100
AcDbMText
 10
141.5
 20
13.5
 30
0
 40
1
 41
2.333333333333395
 71
    5
 72
    1
  1
3.00
  7
standard
210
0
220
0
230
1
 50
90
 73
    2
 44
1
  0
LINE
  5
1C6
100
AcDbEntity
  8
dims
  6
ByBlock
 62
    0
370
   -2
100
AcDbLine
 10
151.175
 20
12
 11
142.95
 21
12
  0
LINE
  5
1C7
100
AcDbEntity
  8
dims
  6
ByBlock
 62
    0
370
   -2
100
AcDbLine
 10
147.875
 20
15
 11
142.95
 21
15
  0
ENDBLK
  5
9B
330
99
100
AcDbEntity
  8
0
100
AcDbBlockEnd
  0
BLOCK
  5
9D
330
9C
100
AcDbEntity
  8
0
100
AcDbBlockBegin
  2
*D48
 70
    1
 10
0
 20
0
  3
*D48
  1

  0
LINE
  5
1C8
100
AcDbEntity
  8
dims
  6
ByBlock
 62
    0
370
   -2
100
AcDbLine
 10
32
 20
61
 11
40
 21
61
  0
SOLID
  5
1C9
100
AcDbEntity
  8
dims
  6
ByBlock
 62
    0
370
   -2
100
AcDbTrace
 10
32
 20
61
 30
0
 11
33
 21
61.16651386310914
 31
0
 12
33
 22
60.83348613689086
 32
0
 13
33
 23
60.83348613689086
 33
0
  0
SOLID
  5
1CA
100
AcDbEntity
  8
dims
  6
ByBlock
 62
    0
370
   -2
100
AcDbTrace
 10
40
 20
61
 30
0
 11
39
 21
60.83348613689086
 31
0
 12
39
 22
61.16651386310914
 32
0
 13
39
 23
61.16651386310914
 33
0
  0
MTEXT
  5
1CB
100
AcDbEntity
  8
dims
  6
CONTINUOUS
 62
    0
370
   -2
100
AcDbMText
 10
36
 20
62.5
 30
0
 40
1
 41
2.333333333333333
 71
    5
 72
    1
  1
8.00
  7
standard
210
0
220
0
230
1
 50
0
 73
    2
 44
1
  0
LINE
  5
1CC
100
AcDbEntity
  8
dims
  6
ByBlock
 62
    0
370
   -2
100
AcDbLine
 10
32
 20
71.175
 11
32
 21
60.95
  0
LINE
  5
1CD
100
AcDbEntity
  8
dims
  6
ByBlock
 62
    0
370
   -2
100
AcDbLine
 10
40
 20
68.97499999999999
 11
40
 21
60.95
  0
ENDBLK
  5
9E
330
9C
100
AcDbEntity
  8
0
100
AcDbBlockEnd
  0
BLOCK
  5
A0
330
9F
100
AcDbEntity
  8
0
100
AcDbBlockBegin
  2
*D18
 70
    1
 10
0
 20
0
  3
*D18
  1

  0
LINE
  5
1CE
100
AcDbEntity
  8
dims
  6
CONTINUOUS
 62
    7
370
    0
100
AcDbLine
 10
12
 20
13
 11
16
 21
17
  0
LINE
  5
1CF
100
AcDbEntity
  8
dims
  6
CONTINUOUS
 62
    7
370
    0
100
AcDbLine
 10
16
 20
17
 11
20
 21
17
  0
SOLID
  5
1D0
100
AcDbEntity
  8
dims
  6
CONTINUOUS
 62
    7
370
    0
100
AcDbTrace
 10
12
 20
13
 30
0
 11
12.58936369942051
 21
13.82484986295259
 31
0
 12
12.82484986295259
 22
13.58936369942051
 32
0
 13
12.82484986295259
 23
13.58936369942051
 33
0
  0
ENDBLK
  5
A1
330
9F
100
AcDbEntity
  8
0
100
AcDbBlockEnd
  0
BLOCK
  5
A3
330
A2
100
AcDbEntity
  8
0
100
AcDbBlockBegin
  2
*D11
 70
    1
 10
0
 20
0
  3
*D11
  1

  0
LINE
  5
1D1
100
AcDbEntity
  8
dims
  6
ByBlock
 62
    0
370
   -2
100
AcDbLine
 10
7.249999999999986
 20
28.50000000000001
 11
13.25
 21
28.50000000000001
  0
SOLID
  5
1D2
100
AcDbEntity
  8
dims
  6
ByBlock
 62
    0
370
   -2
100
AcDbTrace
 10
9.249999999999986
 20
28.50000000000001
 30
0
 11
8.249999999999986
 21
28.33348613689088
 31
0
 12
8.249999999999986
 22
28.66651386310915
 32
0
 13
8.249999999999986
 23
28.66651386310915
 33
0
  0
SOLID
  5
1D3
100
AcDbEntity
  8
dims
  6
ByBlock
 62
    0
370
   -2
100
AcDbTrace
 10
11.25
 20
28.50000000000001
 30
0
 11
12.25
 21
28.66651386310915
 31
0
 12
12.25
 22
28.33348613689088
 32
0
 13
12.25
 23
28.33348613689088
 33
0
  0
MTEXT
  5
1D4
100
AcDbEntity
  8
dims
  6
CONTINUOUS
 62
    0
370
   -2
100
AcDbMText
 10
13.41666666666667
 20
30.00000000000001
 30
0
 40
1
 41
2.333333333333333
 71
    5
 72
    1
  1
2.00
  7
standard
210
0
220
0
230
1
 50
0
 73
    2
 44
1
  0
LINE
  5
1D5
100
AcDbEntity
  8
dims
  6
ByBlock
 62
    0
370
   -2
100
AcDbLine
 10
9.249999999999986
 20
15.825
 11
9.249999999999986
 21
28.55000000000001
  0
LINE
  5
1D6
100
AcDbEntity
  8
dims
  6
ByBlock
 62
    0
370
   -2
100
AcDbLine
 10
11.25
 20
12.525
 11
11.25
 21
28.55000000000001
  0
ENDBLK
  5
A4
330
A2
100
AcDbEntity
  8
0
100
AcDbBlockEnd
  0
BLOCK
  5
A6
330
A5
100
AcDbEntity
  8
0
100
AcDbBlockBegin
  2
*D17
 70
    1
 10
0
 20
0
  3
*D17
  1

  0
LINE
  5
1D7
100
AcDbEntity
  8
dims
  6
CONTINUOUS
 62
    7
370
    0
100
AcDbLine
 10
69
 20
13
 11
71
 21
17
  0
LINE
  5
1D8
100
AcDbEntity
  8
dims
  6
CONTINUOUS
 62
    7
370
    0
100
AcDbLine
 10
71
 20
17
 11
75
 21
17
  0
SOLID
  5
1D9
100
AcDbEntity
  8
dims
  6
CONTINUOUS
 62
    7
370
    0
100
AcDbTrace
 10
69
 20
13
 30
0
 11
69.29827906865671
 21
13.96889445442154
 31
0
 12
69.59614812234321
 22
13.81995992757829
 32
0
 13
69.59614812234321
 23
13.81995992757829
 33
0
  0
ENDBLK
  5
A7
330
A5
100
AcDbEntity
  8
0
100
AcDbBlockEnd
  0
BLOCK
  5
A9
330
A8
100
AcDbEntity
  8
0
100
AcDbBlockBegin
  2
*D22
 70
    1
 10
0
 20
0
  3
*D22
  1

  0
LINE
  5
1DA
100
AcDbEntity
  8
dims
  6
ByBlock
 62
    0
370
   -2
100
AcDbLine
 10
37
 20
35
 11
43
 21
35
  0
SOLID
  5
1DB
100
AcDbEntity
  8
dims
  6
ByBlock
 62
    0
370
   -2
100
AcDbTrace
 10
37
 20
35
 30
0
 11
38
 21
35.16651386310914
 31
0
 12
38
 22
34.83348613689086
 32
0
 13
38
 23
34.83348613689086
 33
0
  0
SOLID
  5
1DC
100
AcDbEntity
  8
dims
  6
ByBlock
 62
    0
370
   -2
100
AcDbTrace
 10
43
 20
35
 30
0
 11
42
 21
34.83348613689086
 31
0
 12
42
 22
35.16651386310914
 32
0
 13
42
 23
35.16651386310914
 33
0
  0
MTEXT
  5
1DD
100
AcDbEntity
  8
dims
  6
CONTINUOUS
 62
    0
370
   -2
100
AcDbMText
 10
40
 20
36.5
 30
0
 40
1
 41
3.333333333333396
 71
    5
 72
    1
  1
%%C6.00
  7
standard
210
0
220
0
230
1
 50
0
 73
    2
 44
1
  0
LINE
  5
1DE
100
AcDbEntity
  8
dims
  6
ByBlock
 62
    0
370
   -2
100
AcDbLine
 10
37
 20
21.025
 11
37
 21
35.05
  0
LINE
  5
1DF
100
AcDbEntity
  8
dims
  6
ByBlock
 62
    0
370
   -2
100
AcDbLine
 10
43
 20
21.025
 11
43
 21
35.05
  0
ENDBLK
  5
AA
330
A8
100
AcDbEntity
  8
0
100
AcDbBlockEnd
  0
BLOCK
  5
AC
330
AB
100
AcDbEntity
  8
0
100
AcDbBlockBegin
  2
*D41
 70
    1
 10
0
 20
0
  3
*D41
  1

  0
LINE
  5
1E0
100
AcDbEntity
  8
dims
  6
ByBlock
 62
    0
370
   -2
100
AcDbLine
 10
200
 20
89
 11
202.5
 21
89
  0
SOLID
  5
1E1
100
AcDbEntity
  8
dims
  6
ByBlock
 62
    0
370
   -2
100
AcDbTrace
 10
200
 20
89
 30
0
 11
201
 21
89.16651386310913
 31
0
 12
201
 22
88.83348613689087
 32
0
 13
201
 23
88.83348613689087
 33
0
  0
SOLID
  5
1E2
100
AcDbEntity
  8
dims
  6
ByBlock
 62
    0
370
   -2
100
AcDbTrace
 10
202.5
 20
89
 30
0
 11
201.5
 21
88.83348613689087
 31
0
 12
201.5
 22
89.16651386310913
 32
0
 13
201.5
 23
89.16651386310913
 33
0
  0
MTEXT
  5
1E3
100
AcDbEntity
  8
dims
  6
CONTINUOUS
 62
    0
370
   -2
100
AcDbMText
 10
201.25
 20
90.5
 30
0
 40
1
 41
2.333333333333396
 71
    5
 72
    1
  1
2.50
  7
standard
210
0
220
0
230
1
 50
0
 73
    2
 44
1
  0
LINE
  5
1E4
100
AcDbEntity
  8
dims
  6
ByBlock
 62
    0
370
   -2
100
AcDbLine
 10
200
 20
80.02500000000001
 11
200
 21
89.05
  0
LINE
  5
1E5
100
AcDbEntity
  8
dims
  6
ByBlock
 62
    0
370
   -2
100
AcDbLine
 10
202.5
 20
80.02500000000001
 11
202.5
 21
89.05
  0
ENDBLK
  5
AD
330
AB
100
AcDbEntity
  8
0
100
AcDbBlockEnd
  0
BLOCK
  5
AF
330
AE
100
AcDbEntity
  8
0
100
AcDbBlockBegin
  2
*D51
 70
    1
 10
0
 20
0
  3
*D51
  1

  0
LINE
  5
1E6
100
AcDbEntity
  8
dims
  6
CONTINUOUS
 62
    7
370
    0
100
AcDbLine
 10
113.4999998210014
 20
85.63431865364538
 11
117
 21
88
  0
SOLID
  5
1E7
100
AcDbEntity
  8
dims
  6
CONTINUOUS
 62
    7
370
    0
100
AcDbTrace
 10
113.4999998210014
 20
85.63431865364538
 30
0
 11
114.2352530236383
 21
86.33226535262725
 31
0
 12
114.421745245907
 22
86.05635210998859
 32
0
 13
114.421745245907
 23
86.05635210998859
 33
0
  0
LINE
  5
1E8
100
AcDbEntity
  8
dims
  6
CONTINUOUS
 62
    7
370
    0
100
AcDbLine
 10
117
 20
88
 11
122
 21
88
  0
ENDBLK
  5
B0
330
AE
100
AcDbEntity
  8
0
100
AcDbBlockEnd
  0
BLOCK
  5
B2
330
B1
100
AcDbEntity
  8
0
100
AcDbBlockBegin
  2
*D50
 70
    1
 10
0
 20
0
  3
*D50
  1

  0
LINE
  5
1E9
100
AcDbEntity
  8
dims
  6
CONTINUOUS
 62
    7
370
    0
100
AcDbLine
 10
69.75
 20
86.29129159188651
 11
75
 21
90
  0
SOLID
  5
1EA
100
AcDbEntity
  8
dims
  6
CONTINUOUS
 62
    7
370
    0
100
AcDbTrace
 10
69.75
 20
86.29129159188651
 30
0
 11
70.47068606979178
 21
87.0042701718001
 31
0
 12
70.66283527662995
 22
86.73226622193617
 32
0
 13
70.66283527662995
 23
86.73226622193617
 33
0
  0
LINE
  5
1EB
100
AcDbEntity
  8
dims
  6
CONTINUOUS
 62
    7
370
    0
100
AcDbLine
 10
75
 20
90
 11
80
 21
90
  0
ENDBLK
  5
B3
330
B1
100
AcDbEntity
  8
0
100
AcDbBlockEnd
  0
BLOCK
  5
B5
330
B4
100
AcDbEntity
  8
0
100
AcDbBlockBegin
  2
*D24
 70
    1
 10
0
 20
0
  3
*D24
  1

  0
LINE
  5
1EC
100
AcDbEntity
  8
dims
  6
ByBlock
 62
    0
370
   -2
100
AcDbLine
 10
110
 20
100
 11
115
 21
100
  0
SOLID
  5
1ED
100
AcDbEntity
  8
dims
  6
ByBlock
 62
    0
370
   -2
100
AcDbTrace
 10
110
 20
100
 30
0
 11
111
 21
100.1665138631091
 31
0
 12
111
 22
99.83348613689087
 32
0
 13
111
 23
99.83348613689087
 33
0
  0
SOLID
  5
1EE
100
AcDbEntity
  8
dims
  6
ByBlock
 62
    0
370
   -2
100
AcDbTrace
 10
115
 20
100
 30
0
 11
114
 21
99.83348613689087
 31
0
 12
114
 22
100.1665138631091
 32
0
 13
114
 23
100.1665138631091
 33
0
  0
MTEXT
  5
1EF
100
AcDbEntity
  8
dims
  6
CONTINUOUS
 62
    0
370
   -2
100
AcDbMText
 10
112.5
 20
101.5
 30
0
 40
1
 41
2.333333333333395
 71
    5
 72
    1
  1
5.00
  7
standard
210
0
220
0
230
1
 50
0
 73
    2
 44
1
  0
LINE
  5
1F0
100
AcDbEntity
  8
dims
  6
ByBlock
 62
    0
370
   -2
100
AcDbLine
 10
110
 20
89.02500000000001
 11
110
 21
100.05
  0
LINE
  5
1F1
100
AcDbEntity
  8
dims
  6
ByBlock
 62
    0
370
   -2
100
AcDbLine
 10
115
 20
89.02500000000001
 11
115
 21
100.05
  0
ENDBLK
  5
B6
330
B4
100
AcDbEntity
  8
0
100
AcDbBlockEnd
  0
BLOCK
  5
B8
330
B7
100
AcDbEntity
  8
0
100
AcDbBlockBegin
  2
*D58
 70
    1
 10
0
 20
0
  3
*D58
  1

  0
LINE
  5
1F2
100
AcDbEntity
  8
dims
  6
CONTINUOUS
 62
    7
370
    0
100
AcDbLine
 10
204
 20
70.5932364920137
 11
209
 21
66
  0
SOLID
  5
1F3
100
AcDbEntity
  8
dims
  6
CONTINUOUS
 62
    7
370
    0
100
AcDbTrace
 10
204
 20
70.5932364920137
 30
0
 11
204.8490766015982
 21
70.03934499431222
 31
0
 12
204.6237777396937
 22
69.79409432814664
 32
0
 13
204.6237777396937
 23
69.79409432814664
 33
0
  0
LINE
  5
1F4
100
AcDbEntity
  8
dims
  6
CONTINUOUS
 62
    7
370
    0
100
AcDbLine
 10
209
 20
66
 11
214
 21
66
  0
ENDBLK
  5
B9
330
B7
100
AcDbEntity
  8
0
100
AcDbBlockEnd
  0
BLOCK
  5
BB
330
BA
100
AcDbEntity
  8
0
100
AcDbBlockBegin
  2
*D42
 70
    1
 10
0
 20
0
  3
*D42
  1

  0
LINE
  5
1F5
100
AcDbEntity
  8
dims
  6
ByBlock
 62
    0
370
   -2
100
AcDbLine
 10
200
 20
60
 11
203
 21
60
  0
SOLID
  5
1F6
100
AcDbEntity
  8
dims
  6
ByBlock
 62
    0
370
   -2
100
AcDbTrace
 10
200
 20
60
 30
0
 11
201
 21
60.16651386310914
 31
0
 12
201
 22
59.83348613689086
 32
0
 13
201
 23
59.83348613689086
 33
0
  0
SOLID
  5
1F7
100
AcDbEntity
  8
dims
  6
ByBlock
 62
    0
370
   -2
100
AcDbTrace
 10
203
 20
60
 30
0
 11
202
 21
59.83348613689086
 31
0
 12
202
 22
60.16651386310914
 32
0
 13
202
 23
60.16651386310914
 33
0
  0
MTEXT
  5
1F8
100
AcDbEntity
  8
dims
  6
CONTINUOUS
 62
    0
370
   -2
100
AcDbMText
 10
201.5
 20
61.5
 30
0
 40
1
 41
2.333333333333395
 71
    5
 72
    1
  1
3.00
  7
standard
210
0
220
0
230
1
 50
0
 73
    2
 44
1
  0
LINE
  5
1F9
100
AcDbEntity
  8
dims
  6
ByBlock
 62
    0
370
   -2
100
AcDbLine
 10
200
 20
68.97499999999999
 11
200
 21
59.95
  0
LINE
  5
1FA
100
AcDbEntity
  8
dims
  6
ByBlock
 62
    0
370
   -2
100
AcDbLine
 10
203
 20
68.97499999999999
 11
203
 21
59.95
  0
ENDBLK
  5
BC
330
BA
100
AcDbEntity
  8
0
100
AcDbBlockEnd
  0
BLOCK
  5
BE
330
BD
100
AcDbEntity
  8
0
100
AcDbBlockBegin
  2
*D55
 70
    1
 10
0
 20
0
  3
*D55
  1

  0
LINE
  5
1FB
100
AcDbEntity
  8
dims
  6
ByBlock
 62
    0
370
   -2
100
AcDbLine
 10
220
 20
68
 11
220
 21
73
  0
SOLID
  5
1FC
100
AcDbEntity
  8
dims
  6
ByBlock
 62
    0
370
   -2
100
AcDbTrace
 10
220
 20
70
 30
0
 11
220.1665138631091
 21
69
 31
0
 12
219.8334861368909
 22
69
 32
0
 13
219.8334861368909
 23
69
 33
0
  0
SOLID
  5
1FD
100
AcDbEntity
  8
dims
  6
ByBlock
 62
    0
370
   -2
100
AcDbTrace
 10
220
 20
71
 30
0
 11
219.8334861368909
 21
72
 31
0
 12
220.1665138631091
 22
72
 32
0
 13
220.1665138631091
 23
72
 33
0
  0
MTEXT
  5
1FE
100
AcDbEntity
  8
dims
  6
CONTINUOUS
 62
    0
370
   -2
100
AcDbMText
 10
218.5
 20
73.05555555555556
 30
0
 40
1
 41
2.111111111111111
 71
    5
 72
    1
  1
1.00
  7
standard
210
0
220
0
230
1
 50
90
 73
    2
 44
1
  0
LINE
  5
1FF
100
AcDbEntity
  8
dims
  6
ByBlock
 62
    0
370
   -2
100
AcDbLine
 10
206.025
 20
70
 11
220.05
 21
70
  0
LINE
  5
200
100
AcDbEntity
  8
dims
  6
ByBlock
 62
    0
370
   -2
100
AcDbLine
 10
206.025
 20
71
 11
220.05
 21
71
  0
ENDBLK
  5
BF
330
BD
100
AcDbEntity
  8
0
100
AcDbBlockEnd
  0
BLOCK
  5
C1
330
C0
100
AcDbEntity
  8
0
100
AcDbBlockBegin
  2
*D62
 70
    1
 10
0
 20
0
  3
*D62
  1

  0
LINE
  5
201
100
AcDbEntity
  8
dims
  6
ByBlock
 62
    0
370
   -2
100
AcDbLine
 10
152
 20
23
 11
160
 21
23
  0
SOLID
  5
202
100
AcDbEntity
  8
dims
  6
ByBlock
 62
    0
370
   -2
100
AcDbTrace
 10
152
 20
23
 30
0
 11
153
 21
23.16651386310913
 31
0
 12
153
 22
22.83348613689086
 32
0
 13
153
 23
22.83348613689086
 33
0
  0
SOLID
  5
203
100
AcDbEntity
  8
dims
  6
ByBlock
 62
    0
370
   -2
100
AcDbTrace
 10
160
 20
23
 30
0
 11
159
 21
22.83348613689087
 31
0
 12
159
 22
23.16651386310913
 32
0
 13
159
 23
23.16651386310913
 33
0
  0
MTEXT
  5
204
100
AcDbEntity
  8
dims
  6
CONTINUOUS
 62
    0
370
   -2
100
AcDbMText
 10
156
 20
24.5
 30
0
 40
1
 41
2.333333333333333
 71
    5
 72
    1
  1
8.00
  7
standard
210
0
220
0
230
1
 50
0
 73
    2
 44
1
  0
LINE
  5
205
100
AcDbEntity
  8
dims
  6
ByBlock
 62
    0
370
   -2
100
AcDbLine
 10
152
 20
12.825
 11
152
 21
23.05
  0
LINE
  5
206
100
AcDbEntity
  8
dims
  6
ByBlock
 62
    0
370
   -2
100
AcDbLine
 10
160
 20
16.025
 11
160
 21
23.05
  0
ENDBLK
  5
C2
330
C0
100
AcDbEntity
  8
0
100
AcDbBlockEnd
  0
BLOCK
  5
C4
330
C3
100
AcDbEntity
  8
0
100
AcDbBlockBegin
  2
*D9
 70
    1
 10
0
 20
0
  3
*D9
  1

  0
SOLID
  5
207
100
AcDbEntity
  8
dims
  6
ByBlock
 62
    0
370
   -2
100
AcDbTrace
 10
13.60089163497084
 20
84.44206782208624
 30
0
 11
14.53718202496781
 21
84.83076715602813
 31
0
 12
14.61261729905227
 22
84.50639547746492
 32
0
 13
14.61261729905227
 23
84.50639547746492
 33
0
  0
LINE
  5
208
100
AcDbEntity
  8
dims
  6
ByBlock
 62
    0
370
   -2
100
AcDbLine
 10
26.75
 20
87.5
 11
13.60089163497084
 21
84.44206782208624
  0
MTEXT
  5
209
100
AcDbEntity
  8
dims
  6
CONTINUOUS
 62
    0
370
   -2
100
AcDbMText
 10
19.835675575495
 20
87.43204595160192
 30
0
 40
1
 41
3.777777777777902
 71
    5
 72
    1
  1
R13.50
  7
standard
210
0
220
0
230
1
 50
13.09189306434682
 73
    2
 44
1
  0
ENDBLK
  5
C5
330
C3
100
AcDbEntity
  8
0
100
AcDbBlockEnd
  0
BLOCK
  5
C7
330
C6
100
AcDbEntity
  8
0
100
AcDbBlockBegin
  2
*D36
 70
    1
 10
0
 20
0
  3
*D36
  1

  0
LINE
  5
20A
100
AcDbEntity
  8
dims
  6
ByBlock
 62
    0
370
   -2
100
AcDbLine
 10
149
 20
100
 11
155
 21
100
  0
SOLID
  5
20B
100
AcDbEntity
  8
dims
  6
ByBlock
 62
    0
370
   -2
100
AcDbTrace
 10
149
 20
100
 30
0
 11
150
 21
100.1665138631091
 31
0
 12
150
 22
99.83348613689087
 32
0
 13
150
 23
99.83348613689087
 33
0
  0
SOLID
  5
20C
100
AcDbEntity
  8
dims
  6
ByBlock
 62
    0
370
   -2
100
AcDbTrace
 10
155
 20
100
 30
0
 11
154
 21
99.83348613689087
 31
0
 12
154
 22
100.1665138631091
 32
0
 13
154
 23
100.1665138631091
 33
0
  0
MTEXT
  5
20D
100
AcDbEntity
  8
dims
  6
CONTINUOUS
 62
    0
370
   -2
100
AcDbMText
 10
152
 20
101.5
 30
0
 40
1
 41
2.333333333333395
 71
    5
 72
    1
  1
6.00
  7
standard
210
0
220
0
230
1
 50
0
 73
    2
 44
1
  0
LINE
  5
20E
100
AcDbEntity
  8
dims
  6
ByBlock
 62
    0
370
   -2
100
AcDbLine
 10
149
 20
73.02500000000001
 11
149
 21
100.05
  0
LINE
  5
20F
100
AcDbEntity
  8
dims
  6
ByBlock
 62
    0
370
   -2
100
AcDbLine
 10
155
 20
79.02500000000001
 11
155
 21
100.05
  0
ENDBLK
  5
C8
330
C6
100
AcDbEntity
  8
0
100
AcDbBlockEnd
  0
BLOCK
  5
CA
330
C9
100
AcDbEntity
  8
0
100
AcDbBlockBegin
  2
*D59
 70
    1
 10
0
 20
0
  3
*D59
  1

  0
LINE
  5
210
100
AcDbEntity
  8
dims
  6
ByBlock
 62
    0
370
   -2
100
AcDbLine
 10
200
 20
57
 11
205
 21
57
  0
SOLID
  5
211
100
AcDbEntity
  8
dims
  6
ByBlock
 62
    0
370
   -2
100
AcDbTrace
 10
200
 20
57
 30
0
 11
201
 21
57.16651386310914
 31
0
 12
201
 22
56.83348613689086
 32
0
 13
201
 23
56.83348613689086
 33
0
  0
SOLID
  5
212
100
AcDbEntity
  8
dims
  6
ByBlock
 62
    0
370
   -2
100
AcDbTrace
 10
205
 20
57
 30
0
 11
204
 21
56.83348613689086
 31
0
 12
204
 22
57.16651386310914
 32
0
 13
204
 23
57.16651386310914
 33
0
  0
MTEXT
  5
213
100
AcDbEntity
  8
dims
  6
CONTINUOUS
 62
    0
370
   -2
100
AcDbMText
 10
202.5
 20
58.5
 30
0
 40
1
 41
2.333333333333395
 71
    5
 72
    1
  1
5.00
  7
standard
210
0
220
0
230
1
 50
0
 73
    2
 44
1
  0
LINE
  5
214
100
AcDbEntity
  8
dims
  6
ByBlock
 62
    0
370
   -2
100
AcDbLine
 10
200
 20
68.97499999999999
 11
200
 21
56.95
  0
LINE
  5
215
100
AcDbEntity
  8
dims
  6
ByBlock
 62
    0
370
   -2
100
AcDbLine
 10
205
 20
68.97499999999999
 11
205
 21
56.95
  0
ENDBLK
  5
CB
330
C9
100
AcDbEntity
  8
0
100
AcDbBlockEnd
  0
BLOCK
  5
CD
330
CC
100
AcDbEntity
  8
0
100
AcDbBlockBegin
  2
*D32
 70
    1
 10
0
 20
0
  3
*D32
  1

  0
LINE
  5
216
100
AcDbEntity
  8
dims
  6
ByBlock
 62
    0
370
   -2
100
AcDbLine
 10
137
 20
75
 11
137
 21
81
  0
SOLID
  5
217
100
AcDbEntity
  8
dims
  6
ByBlock
 62
    0
370
   -2
100
AcDbTrace
 10
137
 20
77
 30
0
 11
137.1665138631091
 21
76
 31
0
 12
136.8334861368909
 22
76
 32
0
 13
136.8334861368909
 23
76
 33
0
  0
SOLID
  5
218
100
AcDbEntity
  8
dims
  6
ByBlock
 62
    0
370
   -2
100
AcDbTrace
 10
137
 20
79
 30
0
 11
136.8334861368909
 21
80
 31
0
 12
137.1665138631091
 22
80
 32
0
 13
137.1665138631091
 23
80
 33
0
  0
MTEXT
  5
219
100
AcDbEntity
  8
dims
  6
CONTINUOUS
 62
    0
370
   -2
100
AcDbMText
 10
135.5
 20
81.16666666666667
 30
0
 40
1
 41
2.333333333333333
 71
    5
 72
    1
  1
2.00
  7
standard
210
0
220
0
230
1
 50
90
 73
    2
 44
1
  0
LINE
  5
21A
100
AcDbEntity
  8
dims
  6
ByBlock
 62
    0
370
   -2
100
AcDbLine
 10
153.975
 20
77
 11
136.95
 21
77
  0
LINE
  5
21B
100
AcDbEntity
  8
dims
  6
ByBlock
 62
    0
370
   -2
100
AcDbLine
 10
155.975
 20
79
 11
136.95
 21
79
  0
ENDBLK
  5
CE
330
CC
100
AcDbEntity
  8
0
100
AcDbBlockEnd
  0
BLOCK
  5
D0
330
CF
100
AcDbEntity
  8
0
100
AcDbBlockBegin
  2
*D49
 70
    1
 10
0
 20
0
  3
*D49
  1

  0
LINE
  5
21C
100
AcDbEntity
  8
dims
  6
ByBlock
 62
    0
370
   -2
100
AcDbLine
 10
48
 20
61
 11
40
 21
61
  0
SOLID
  5
21D
100
AcDbEntity
  8
dims
  6
ByBlock
 62
    0
370
   -2
100
AcDbTrace
 10
48
 20
61
 30
0
 11
47
 21
60.83348613689086
 31
0
 12
47
 22
61.16651386310914
 32
0
 13
47
 23
61.16651386310914
 33
0
  0
SOLID
  5
21E
100
AcDbEntity
  8
dims
  6
ByBlock
 62
    0
370
   -2
100
AcDbTrace
 10
40
 20
61
 30
0
 11
41
 21
61.16651386310914
 31
0
 12
41
 22
60.83348613689086
 32
0
 13
41
 23
60.83348613689086
 33
0
  0
MTEXT
  5
21F
100
AcDbEntity
  8
dims
  6
CONTINUOUS
 62
    0
370
   -2
100
AcDbMText
 10
44
 20
62.5
 30
0
 40
1
 41
2.333333333333333
 71
    5
 72
    1
  1
8.00
  7
standard
210
0
220
0
230
1
 50
360
 73
    2
 44
1
  0
LINE
  5
220
100
AcDbEntity
  8
dims
  6
ByBlock
 62
    0
370
   -2
100
AcDbLine
 10
48
 20
71.17500000000001
 11
48
 21
60.95
  0
LINE
  5
221
100
AcDbEntity
  8
dims
  6
ByBlock
 62
    0
370
   -2
100
AcDbLine
 10
40
 20
68.97499999999999
 11
40
 21
60.95
  0
ENDBLK
  5
D1
330
CF
100
AcDbEntity
  8
0
100
AcDbBlockEnd
  0
BLOCK
  5
D3
330
D2
100
AcDbEntity
  8
0
100
AcDbBlockBegin
  2
*D10
 70
    1
 10
0
 20
0
  3
*D10
  1

  0
LINE
  5
222
100
AcDbEntity
  8
dims
  6
ByBlock
 62
    0
370
   -2
100
AcDbLine
 10
28.025
 20
70
 11
22.8784271247462
 21
70
  0
LINE
  5
223
100
AcDbEntity
  8
dims
  6
ByBlock
 62
    0
370
   -2
100
AcDbLine
 10
9.231266772862982
 20
79.51655494491179
 11
17.84311083498984
 21
71.90608809931132
  0
ARC
  5
224
100
AcDbEntity
  8
dims
  6
ByBlock
 62
    0
370
   -2
100
AcDbCircle
 10
20.00000000000001
 20
70
 40
2.82842712474618
100
AcDbArc
 50
0
 51
138.5322945838909
  0
SOLID
  5
225
100
AcDbEntity
  8
dims
  6
ByBlock
 62
    0
370
   -2
100
AcDbTrace
 10
22.8284271247462
 20
70
 30
0
 11
22.48865085145108
 21
70.95513294923441
 31
0
 12
22.81648855627238
 22
71.01369834625017
 32
0
 13
22.81648855627238
 23
71.01369834625017
 33
0
  0
SOLID
  5
226
100
AcDbEntity
  8
dims
  6
ByBlock
 62
    0
370
   -2
100
AcDbTrace
 10
17.88057728926389
 20
71.87297820948774
 30
0
 11
18.56079201703421
 21
72.62466617050075
 31
0
 12
18.76766846772086
 22
72.36368800938106
 32
0
 13
18.76766846772086
 23
72.36368800938106
 33
0
  0
MTEXT
  5
227
100
AcDbEntity
  8
dims
  6
CONTINUOUS
 62
    0
370
   -2
100
AcDbMText
 10
21.35536841092927
 20
73.58047911879785
 30
0
 40
1
 41
4.333333333333519
 71
    8
 72
    1
  1
138.53%%D
  7
standard
210
0
220
0
230
1
 50
339.2661472919455
 73
    2
 44
1
  0
ENDBLK
  5
D4
330
D2
100
AcDbEntity
  8
0
100
AcDbBlockEnd
  0
BLOCK
  5
D6
330
D5
100
AcDbEntity
  8
0
100
AcDbBlockBegin
  2
*D6
 70
    1
 10
0
 20
0
  3
*D6
  1

  0
LINE
  5
228
100
AcDbEntity
  8
dims
  6
ByBlock
 62
    0
370
   -2
100
AcDbLine
 10
77
 20
70
 11
77
 21
74
  0
SOLID
  5
229
100
AcDbEntity
  8
dims
  6
ByBlock
 62
    0
370
   -2
100
AcDbTrace
 10
77
 20
70
 30
0
 11
76.83348613689087
 21
71
 31
0
 12
77.16651386310913
 22
71
 32
0
 13
77.16651386310913
 23
71
 33
0
  0
SOLID
  5
22A
100
AcDbEntity
  8
dims
  6
ByBlock
 62
    0
370
   -2
100
AcDbTrace
 10
77
 20
74
 30
0
 11
77.16651386310913
 21
73
 31
0
 12
76.83348613689087
 22
73
 32
0
 13
76.83348613689087
 23
73
 33
0
  0
MTEXT
  5
22B
100
AcDbEntity
  8
dims
  6
CONTINUOUS
 62
    0
370
   -2
100
AcDbMText
 10
75.5
 20
72
 30
0
 40
1
 41
2.444444444444444
 71
    5
 72
    1
  1
4.00
  7
standard
210
0
220
0
230
1
 50
90
 73
    2
 44
1
  0
LINE
  5
22C
100
AcDbEntity
  8
dims
  6
ByBlock
 62
    0
370
   -2
100
AcDbLine
 10
61.025
 20
70
 11
77.05
 21
70
  0
LINE
  5
22D
100
AcDbEntity
  8
dims
  6
ByBlock
 62
    0
370
   -2
100
AcDbLine
 10
56.025
 20
74
 11
77.05
 21
74
  0
ENDBLK
  5
D7
330
D5
100
AcDbEntity
  8
0
100
AcDbBlockEnd
  0
BLOCK
  5
D9
330
D8
100
AcDbEntity
  8
0
100
AcDbBlockBegin
  2
*D54
 70
    1
 10
0
 20
0
  3
*D54
  1

  0
LINE
  5
22E
100
AcDbEntity
  8
dims
  6
CONTINUOUS
 62
    7
370
    0
100
AcDbLine
 10
169
 20
70.79668918239646
 11
173
 21
66
  0
SOLID
  5
22F
100
AcDbEntity
  8
dims
  6
CONTINUOUS
 62
    7
370
    0
100
AcDbTrace
 10
169
 20
70.79668918239646
 30
0
 11
169.7683283771835
 21
70.13532818307598
 31
0
 12
169.5125617574679
 22
69.9220422185368
 32
0
 13
169.5125617574679
 23
69.9220422185368
 33
0
  0
LINE
  5
230
100
AcDbEntity
  8
dims
  6
CONTINUOUS
 62
    7
370
    0
100
AcDbLine
 10
173
 20
66
 11
178
 21
66
  0
ENDBLK
  5
DA
330
D8
100
AcDbEntity
  8
0
100
AcDbBlockEnd
  0
BLOCK
  5
DC
330
DB
100
AcDbEntity
  8
0
100
AcDbBlockBegin
  2
*D57
 70
    1
 10
0
 20
0
  3
*D57
  1

  0
LINE
  5
231
100
AcDbEntity
  8
dims
  6
CONTINUOUS
 62
    7
370
    0
100
AcDbLine
 10
203.5
 20
78.29883624994477
 11
207
 21
81
  0
SOLID
  5
232
100
AcDbEntity
  8
dims
  6
CONTINUOUS
 62
    7
370
    0
100
AcDbTrace
 10
203.5
 20
78.29883624994477
 30
0
 11
204.1899202176351
 21
79.04162623365873
 31
0
 12
204.3933896553232
 22
78.77798319021359
 32
0
 13
204.3933896553232
 23
78.77798319021359
 33
0
  0
LINE
  5
233
100
AcDbEntity
  8
dims
  6
CONTINUOUS
 62
    7
370
    0
100
AcDbLine
 10
207
 20
81
 11
212
 21
81
  0
ENDBLK
  5
DD
330
DB
100
AcDbEntity
  8
0
100
AcDbBlockEnd
  0
BLOCK
  5
DF
330
DE
100
AcDbEntity
  8
0
100
AcDbBlockBegin
  2
*D45
 70
    1
 10
0
 20
0
  3
*D45
  1

  0
LINE
  5
234
100
AcDbEntity
  8
dims
  6
CONTINUOUS
 62
    7
370
    0
100
AcDbLine
 10
10.25
 20
86.3294761860699
 11
5
 21
92
  0
SOLID
  5
235
100
AcDbEntity
  8
dims
  6
CONTINUOUS
 62
    7
370
    0
100
AcDbTrace
 10
10.25
 20
86.3294761860699
 30
0
 11
9.448439226759804
 21
86.95014291903543
 31
0
 12
9.69281229537752
 22
87.176393377078
 32
0
 13
9.69281229537752
 23
87.176393377078
 33
0
  0
LINE
  5
236
100
AcDbEntity
  8
dims
  6
CONTINUOUS
 62
    7
370
    0
100
AcDbLine
 10
5
 20
92
 11
0
 21
92
  0
ENDBLK
  5
E0
330
DE
100
AcDbEntity
  8
0
100
AcDbBlockEnd
  0
BLOCK
  5
E2
330
E1
100
AcDbEntity
  8
0
100
AcDbBlockBegin
  2
*D33
 70
    1
 10
0
 20
0
  3
*D33
  1

  0
LINE
  5
237
100
AcDbEntity
  8
dims
  6
ByBlock
 62
    0
370
   -2
100
AcDbLine
 10
163
 20
97
 11
157
 21
97
  0
SOLID
  5
238
100
AcDbEntity
  8
dims
  6
ByBlock
 62
    0
370
   -2
100
AcDbTrace
 10
163
 20
97
 30
0
 11
162
 21
96.83348613689087
 31
0
 12
162
 22
97.16651386310913
 32
0
 13
162
 23
97.16651386310913
 33
0
  0
SOLID
  5
239
100
AcDbEntity
  8
dims
  6
ByBlock
 62
    0
370
   -2
100
AcDbTrace
 10
157
 20
97
 30
0
 11
158
 21
97.16651386310913
 31
0
 12
158
 22
96.83348613689087
 32
0
 13
158
 23
96.83348613689087
 33
0
  0
MTEXT
  5
23A
100
AcDbEntity
  8
dims
  6
CONTINUOUS
 62
    0
370
   -2
100
AcDbMText
 10
160
 20
98.5
 30
0
 40
1
 41
2.333333333333395
 71
    5
 72
    1
  1
6.00
  7
standard
210
0
220
0
230
1
 50
360
 73
    2
 44
1
  0
LINE
  5
23B
100
AcDbEntity
  8
dims
  6
ByBlock
 62
    0
370
   -2
100
AcDbLine
 10
163
 20
80.02500000000001
 11
163
 21
97.05
  0
LINE
  5
23C
100
AcDbEntity
  8
dims
  6
ByBlock
 62
    0
370
   -2
100
AcDbLine
 10
157
 20
80.02500000000001
 11
157
 21
97.05
  0
ENDBLK
  5
E3
330
E1
100
AcDbEntity
  8
0
100
AcDbBlockEnd
  0
BLOCK
  5
E5
330
E4
100
AcDbEntity
  8
0
100
AcDbBlockBegin
  2
*D1
 70
    1
 10
0
 20
0
  3
*D1
  1

  0
LINE
  5
23D
100
AcDbEntity
  8
dims
  6
ByBlock
 62
    0
370
   -2
100
AcDbLine
 10
26.75
 20
96
 11
53.25
 21
96
  0
SOLID
  5
23E
100
AcDbEntity
  8
dims
  6
ByBlock
 62
    0
370
   -2
100
AcDbTrace
 10
26.75
 20
96
 30
0
 11
27.75
 21
96.16651386310913
 31
0
 12
27.75
 22
95.83348613689087
 32
0
 13
27.75
 23
95.83348613689087
 33
0
  0
SOLID
  5
23F
100
AcDbEntity
  8
dims
  6
ByBlock
 62
    0
370
   -2
100
AcDbTrace
 10
53.25
 20
96
 30
0
 11
52.25
 21
95.83348613689087
 31
0
 12
52.25
 22
96.16651386310913
 32
0
 13
52.25
 23
96.16651386310913
 33
0
  0
MTEXT
  5
240
100
AcDbEntity
  8
dims
  6
CONTINUOUS
 62
    0
370
   -2
100
AcDbMText
 10
40
 20
97.5
 30
0
 40
1
 41
3.111111111111235
 71
    5
 72
    1
  1
26.50
  7
standard
210
0
220
0
230
1
 50
0
 73
    2
 44
1
  0
LINE
  5
241
100
AcDbEntity
  8
dims
  6
ByBlock
 62
    0
370
   -2
100
AcDbLine
 10
26.75
 20
92.52500000000001
 11
26.75
 21
96.05
  0
LINE
  5
242
100
AcDbEntity
  8
dims
  6
ByBlock
 62
    0
370
   -2
100
AcDbLine
 10
53.25
 20
92.52500000000001
 11
53.25
 21
96.05
  0
ENDBLK
  5
E6
330
E4
100
AcDbEntity
  8
0
100
AcDbBlockEnd
  0
BLOCK
  5
E8
330
E7
100
AcDbEntity
  8
0
100
AcDbBlockBegin
  2
*D8
 70
    1
 10
0
 20
0
  3
*D8
  1

  0
LINE
  5
243
100
AcDbEntity
  8
dims
  6
ByBlock
 62
    0
370
   -2
100
AcDbLine
 10
40
 20
57
 11
70.75
 21
57
  0
SOLID
  5
244
100
AcDbEntity
  8
dims
  6
ByBlock
 62
    0
370
   -2
100
AcDbTrace
 10
40
 20
57
 30
0
 11
41
 21
57.16651386310914
 31
0
 12
41
 22
56.83348613689086
 32
0
 13
41
 23
56.83348613689086
 33
0
  0
SOLID
  5
245
100
AcDbEntity
  8
dims
  6
ByBlock
 62
    0
370
   -2
100
AcDbTrace
 10
70.75
 20
57
 30
0
 11
69.75
 21
56.83348613689086
 31
0
 12
69.75
 22
57.16651386310914
 32
0
 13
69.75
 23
57.16651386310914
 33
0
  0
MTEXT
  5
246
100
AcDbEntity
  8
dims
  6
CONTINUOUS
 62
    0
370
   -2
100
AcDbMText
 10
55.375
 20
58.5
 30
0
 40
1
 41
3.111111111111235
 71
    5
 72
    1
  1
30.75
  7
standard
210
0
220
0
230
1
 50
0
 73
    2
 44
1
  0
LINE
  5
247
100
AcDbEntity
  8
dims
  6
ByBlock
 62
    0
370
   -2
100
AcDbLine
 10
40
 20
68.97499999999999
 11
40
 21
56.95
  0
LINE
  5
248
100
AcDbEntity
  8
dims
  6
ByBlock
 62
    0
370
   -2
100
AcDbLine
 10
70.75
 20
78.97499999999999
 11
70.75
 21
56.95
  0
ENDBLK
  5
E9
330
E7
100
AcDbEntity
  8
0
100
AcDbBlockEnd
  0
BLOCK
  5
EB
330
EA
100
AcDbEntity
  8
0
100
AcDbBlockBegin
  2
*D61
 70
    1
 10
0
 20
0
  3
*D61
  1

  0
LINE
  5
249
100
AcDbEntity
  8
dims
  6
ByBlock
 62
    0
370
   -2
100
AcDbLine
 10
155
 20
-1
 11
165
 21
-1
  0
SOLID
  5
24A
100
AcDbEntity
  8
dims
  6
ByBlock
 62
    0
370
   -2
100
AcDbTrace
 10
155
 20
-1
 30
0
 11
156
 21
-0.8334861368908639
 31
0
 12
156
 22
-1.166513863109136
 32
0
 13
156
 23
-1.166513863109136
 33
0
  0
SOLID
  5
24B
100
AcDbEntity
  8
dims
  6
ByBlock
 62
    0
370
   -2
100
AcDbTrace
 10
165
 20
-1
 30
0
 11
164
 21
-1.166513863109136
 31
0
 12
164
 22
-0.8334861368908638
 32
0
 13
164
 23
-0.8334861368908638
 33
0
  0
MTEXT
  5
24C
100
AcDbEntity
  8
dims
  6
CONTINUOUS
 62
    0
370
   -2
100
AcDbMText
 10
160
 20
0.5
 30
0
 40
1
 41
2.888888888888889
 71
    5
 72
    1
  1
10.00
  7
standard
210
0
220
0
230
1
 50
0
 73
    2
 44
1
  0
LINE
  5
24D
100
AcDbEntity
  8
dims
  6
ByBlock
 62
    0
370
   -2
100
AcDbLine
 10
155
 20
8.975
 11
155
 21
-1.05
  0
LINE
  5
24E
100
AcDbEntity
  8
dims
  6
ByBlock
 62
    0
370
   -2
100
AcDbLine
 10
165
 20
8.975
 11
165
 21
-1.05
  0
ENDBLK
  5
EC
330
EA
100
AcDbEntity
  8
0
100
AcDbBlockEnd
  0
BLOCK
  5
EE
330
ED
100
AcDbEntity
  8
0
100
AcDbBlockBegin
  2
*D15
 70
    1
 10
0
 20
0
  3
*D15
  1

  0
SOLID
  5
24F
100
AcDbEntity
  8
dims
  6
ByBlock
 62
    0
370
   -2
100
AcDbTrace
 10
42.68328157299976
 20
17.65835921350012
 30
0
 11
43.6521760274213
 21
17.36008014484341
 31
0
 12
43.50324150057805
 22
17.06221109115691
 32
0
 13
43.50324150057805
 23
17.06221109115691
 33
0
  0
LINE
  5
250
100
AcDbEntity
  8
dims
  6
ByBlock
 62
    0
370
   -2
100
AcDbLine
 10
40
 20
19
 11
46.55913273399945
 21
15.72043363300027
  0
MTEXT
  5
251
100
AcDbEntity
  8
dims
  6
CONTINUOUS
 62
    0
370
   -2
100
AcDbMText
 10
45.29202754674954
 20
18.03103720975007
 30
0
 40
1
 41
2.333333333333395
 71
    5
 72
    1
  1
3.00
  7
standard
210
0
220
0
230
1
 50
333.434948822922
 73
    2
 44
1
  0
ENDBLK
  5
EF
330
ED
100
AcDbEntity
  8
0
100
AcDbBlockEnd
  0
BLOCK
  5
F1
330
F0
100
AcDbEntity
  8
0
100
AcDbBlockBegin
  2
*D14
 70
    1
 10
0
 20
0
  3
*D14
  1

  0
LINE
  5
252
100
AcDbEntity
  8
dims
  6
ByBlock
 62
    0
370
   -2
100
AcDbLine
 10
78
 20
15
 11
78
 21
10
  0
SOLID
  5
253
100
AcDbEntity
  8
dims
  6
ByBlock
 62
    0
370
   -2
100
AcDbTrace
 10
78
 20
15
 30
0
 11
78.16651386310913
 21
14
 31
0
 12
77.83348613689087
 22
14
 32
0
 13
77.83348613689087
 23
14
 33
0
  0
SOLID
  5
254
100
AcDbEntity
  8
dims
  6
ByBlock
 62
    0
370
   -2
100
AcDbTrace
 10
78
 20
10
 30
0
 11
77.83348613689087
 21
11
 31
0
 12
78.16651386310913
 22
11
 32
0
 13
78.16651386310913
 23
11
 33
0
  0
MTEXT
  5
255
100
AcDbEntity
  8
dims
  6
CONTINUOUS
 62
    0
370
   -2
100
AcDbMText
 10
76.5
 20
12.5
 30
0
 40
1
 41
2.333333333333395
 71
    5
 72
    1
  1
5.00
  7
standard
210
0
220
0
230
1
 50
90
 73
    2
 44
1
  0
LINE
  5
256
100
AcDbEntity
  8
dims
  6
ByBlock
 62
    0
370
   -2
100
AcDbLine
 10
72.02500000000001
 20
15
 11
78.05
 21
15
  0
LINE
  5
257
100
AcDbEntity
  8
dims
  6
ByBlock
 62
    0
370
   -2
100
AcDbLine
 10
72.02500000000001
 20
10
 11
78.05
 21
10
  0
ENDBLK
  5
F2
330
F0
100
AcDbEntity
  8
0
100
AcDbBlockEnd
  0
BLOCK
  5
F4
330
F3
100
AcDbEntity
  8
0
100
AcDbBlockBegin
  2
*D19
 70
    1
 10
0
 20
0
  3
*D19
  1

  0
LINE
  5
258
100
AcDbEntity
  8
dims
  6
ByBlock
 62
    0
370
   -2
100
AcDbLine
 10
78
 20
19
 11
78
 21
15
  0
SOLID
  5
259
100
AcDbEntity
  8
dims
  6
ByBlock
 62
    0
370
   -2
100
AcDbTrace
 10
78
 20
19
 30
0
 11
78.16651386310913
 21
18
 31
0
 12
77.83348613689087
 22
18
 32
0
 13
77.83348613689087
 23
18
 33
0
  0
SOLID
  5
25A
100
AcDbEntity
  8
dims
  6
ByBlock
 62
    0
370
   -2
100
AcDbTrace
 10
78
 20
15
 30
0
 11
77.83348613689087
 21
16
 31
0
 12
78.16651386310913
 22
16
 32
0
 13
78.16651386310913
 23
16
 33
0
  0
MTEXT
  5
25B
100
AcDbEntity
  8
dims
  6
CONTINUOUS
 62
    0
370
   -2
100
AcDbMText
 10
76.5
 20
17
 30
0
 40
1
 41
2.444444444444444
 71
    5
 72
    1
  1
4.00
  7
standard
210
0
220
0
230
1
 50
90
 73
    2
 44
1
  0
LINE
  5
25C
100
AcDbEntity
  8
dims
  6
ByBlock
 62
    0
370
   -2
100
AcDbLine
 10
49.025
 20
19
 11
78.05
 21
19
  0
LINE
  5
25D
100
AcDbEntity
  8
dims
  6
ByBlock
 62
    0
370
   -2
100
AcDbLine
 10
72.02500000000001
 20
15
 11
78.05
 21
15
  0
ENDBLK
  5
F5
330
F3
100
AcDbEntity
  8
0
100
AcDbBlockEnd
  0
BLOCK
  5
F7
330
F6
100
AcDbEntity
  8
0
100
AcDbBlockBegin
  2
*D43
 70
    1
 10
0
 20
0
  3
*D43
  1

  0
LINE
  5
25E
100
AcDbEntity
  8
dims
  6
CONTINUOUS
 62
    7
370
    0
100
AcDbLine
 10
32.70710678118655
 20
72.70710678118655
 11
38
 21
76
  0
SOLID
  5
25F
100
AcDbEntity
  8
dims
  6
CONTINUOUS
 62
    7
370
    0
100
AcDbTrace
 10
32.70710678118655
 20
72.70710678118655
 30
0
 11
33.46823598789413
 21
73.37674041034821
 31
0
 12
33.64415734873668
 22
73.09396993588275
 32
0
 13
33.64415734873668
 23
73.09396993588275
 33
0
  0
LINE
  5
260
100
AcDbEntity
  8
dims
  6
CONTINUOUS
 62
    7
370
    0
100
AcDbLine
 10
38
 20
76
 11
42
 21
76
  0
ENDBLK
  5
F8
330
F6
100
AcDbEntity
  8
0
100
AcDbBlockEnd
  0
BLOCK
  5
FA
330
F9
100
AcDbEntity
  8
0
100
AcDbBlockBegin
  2
*D29
 70
    1
 10
0
 20
0
  3
*D29
  1

  0
ENDBLK
  5
FB
330
F9
100
AcDbEntity
  8
0
100
AcDbBlockEnd
  0
BLOCK
  5
FD
330
FC
100
AcDbEntity
  8
0
100
AcDbBlockBegin
  2
*D13
 70
    1
 10
0
 20
0
  3
*D13
  1

  0
LINE
  5
261
100
AcDbEntity
  8
dims
  6
ByBlock
 62
    0
370
   -2
100
AcDbLine
 10
9.25
 20
-4
 11
70.75
 21
-4
  0
SOLID
  5
262
100
AcDbEntity
  8
dims
  6
ByBlock
 62
    0
370
   -2
100
AcDbTrace
 10
9.25
 20
-4
 30
0
 11
10.25
 21
-3.833486136890864
 31
0
 12
10.25
 22
-4.166513863109136
 32
0
 13
10.25
 23
-4.166513863109136
 33
0
  0
SOLID
  5
263
100
AcDbEntity
  8
dims
  6
ByBlock
 62
    0
370
   -2
100
AcDbTrace
 10
70.75
 20
-4
 30
0
 11
69.75
 21
-4.166513863109136
 31
0
 12
69.75
 22
-3.833486136890864
 32
0
 13
69.75
 23
-3.833486136890864
 33
0
  0
MTEXT
  5
264
100
AcDbEntity
  8
dims
  6
CONTINUOUS
 62
    0
370
   -2
100
AcDbMText
 10
40
 20
-2.5
 30
0
 40
1
 41
2.888888888889013
 71
    5
 72
    1
  1
61.50
  7
standard
210
0
220
0
230
1
 50
0
 73
    2
 44
1
  0
LINE
  5
265
100
AcDbEntity
  8
dims
  6
ByBlock
 62
    0
370
   -2
100
AcDbLine
 10
9.25
 20
7.974999999999985
 11
9.25
 21
-4.05
  0
LINE
  5
266
100
AcDbEntity
  8
dims
  6
ByBlock
 62
    0
370
   -2
100
AcDbLine
 10
70.75
 20
7.974999999999985
 11
70.75
 21
-4.05
  0
ENDBLK
  5
FE
330
FC
100
AcDbEntity
  8
0
100
AcDbBlockEnd
  0
BLOCK
  5
100
330
FF
100
AcDbEntity
  8
0
100
AcDbBlockBegin
  2
*D47
 70
    1
 10
0
 20
0
  3
*D47
  1

  0
LINE
  5
267
100
AcDbEntity
  8
dims
  6
ByBlock
 62
    0
370
   -2
100
AcDbLine
 10
40
 20
57
 11
20
 21
57
  0
SOLID
  5
268
100
AcDbEntity
  8
dims
  6
ByBlock
 62
    0
370
   -2
100
AcDbTrace
 10
40
 20
57
 30
0
 11
39
 21
56.83348613689086
 31
0
 12
39
 22
57.16651386310914
 32
0
 13
39
 23
57.16651386310914
 33
0
  0
SOLID
  5
269
100
AcDbEntity
  8
dims
  6
ByBlock
 62
    0
370
   -2
100
AcDbTrace
 10
20
 20
57
 30
0
 11
21
 21
57.16651386310914
 31
0
 12
21
 22
56.83348613689086
 32
0
 13
21
 23
56.83348613689086
 33
0
  0
MTEXT
  5
26A
100
AcDbEntity
  8
dims
  6
CONTINUOUS
 62
    0
370
   -2
100
AcDbMText
 10
30
 20
58.5
 30
0
 40
1
 41
3.111111111111111
 71
    5
 72
    1
  1
20.00
  7
standard
210
0
220
0
230
1
 50
360
 73
    2
 44
1
  0
LINE
  5
26B
100
AcDbEntity
  8
dims
  6
ByBlock
 62
    0
370
   -2
100
AcDbLine
 10
40
 20
68.97499999999999
 11
40
 21
56.95
  0
LINE
  5
26C
100
AcDbEntity
  8
dims
  6
ByBlock
 62
    0
370
   -2
100
AcDbLine
 10
20
 20
68.97499999999999
 11
20
 21
56.95
  0
ENDBLK
  5
101
330
FF
100
AcDbEntity
  8
0
100
AcDbBlockEnd
  0
BLOCK
  5
103
330
102
100
AcDbEntity
  8
0
100
AcDbBlockBegin
  2
*D27
 70
    1
 10
0
 20
0
  3
*D27
  1

  0
LINE
  5
26D
100
AcDbEntity
  8
dims
  6
ByBlock
 62
    0
370
   -2
100
AcDbLine
 10
149
 20
49
 11
171
 21
49
  0
SOLID
  5
26E
100
AcDbEntity
  8
dims
  6
ByBlock
 62
    0
370
   -2
100
AcDbTrace
 10
149
 20
49
 30
0
 11
150
 21
49.16651386310914
 31
0
 12
150
 22
48.83348613689086
 32
0
 13
150
 23
48.83348613689086
 33
0
  0
SOLID
  5
26F
100
AcDbEntity
  8
dims
  6
ByBlock
 62
    0
370
   -2
100
AcDbTrace
 10
171
 20
49
 30
0
 11
170
 21
48.83348613689086
 31
0
 12
170
 22
49.16651386310914
 32
0
 13
170
 23
49.16651386310914
 33
0
  0
MTEXT
  5
270
100
AcDbEntity
  8
dims
  6
CONTINUOUS
 62
    0
370
   -2
100
AcDbMText
 10
160
 20
50.5
 30
0
 40
1
 41
3.111111111111111
 71
    5
 72
    1
  1
22.00
  7
standard
210
0
220
0
230
1
 50
0
 73
    2
 44
1
  0
LINE
  5
271
100
AcDbEntity
  8
dims
  6
ByBlock
 62
    0
370
   -2
100
AcDbLine
 10
149
 20
68.97499999999999
 11
149
 21
48.95
  0
LINE
  5
272
100
AcDbEntity
  8
dims
  6
ByBlock
 62
    0
370
   -2
100
AcDbLine
 10
171
 20
68.97499999999999
 11
171
 21
48.95
  0
ENDBLK
  5
104
330
102
100
AcDbEntity
  8
0
100
AcDbBlockEnd
  0
BLOCK
  5
106
330
105
100
AcDbEntity
  8
0
100
AcDbBlockBegin
  2
*D31
 70
    1
 10
0
 20
0
  3
*D31
  1

  0
LINE
  5
273
100
AcDbEntity
  8
dims
  6
ByBlock
 62
    0
370
   -2
100
AcDbLine
 10
140
 20
72
 11
140
 21
77
  0
SOLID
  5
274
100
AcDbEntity
  8
dims
  6
ByBlock
 62
    0
370
   -2
100
AcDbTrace
 10
140
 20
72
 30
0
 11
139.8334861368909
 21
73
 31
0
 12
140.1665138631091
 22
73
 32
0
 13
140.1665138631091
 23
73
 33
0
  0
SOLID
  5
275
100
AcDbEntity
  8
dims
  6
ByBlock
 62
    0
370
   -2
100
AcDbTrace
 10
140
 20
77
 30
0
 11
140.1665138631091
 21
76
 31
0
 12
139.8334861368909
 22
76
 32
0
 13
139.8334861368909
 23
76
 33
0
  0
MTEXT
  5
276
100
AcDbEntity
  8
dims
  6
CONTINUOUS
 62
    0
370
   -2
100
AcDbMText
 10
138.5
 20
74.5
 30
0
 40
1
 41
2.333333333333395
 71
    5
 72
    1
  1
5.00
  7
standard
210
0
220
0
230
1
 50
90
 73
    2
 44
1
  0
LINE
  5
277
100
AcDbEntity
  8
dims
  6
ByBlock
 62
    0
370
   -2
100
AcDbLine
 10
147.975
 20
72
 11
139.95
 21
72
  0
LINE
  5
278
100
AcDbEntity
  8
dims
  6
ByBlock
 62
    0
370
   -2
100
AcDbLine
 10
153.975
 20
77
 11
139.95
 21
77
  0
ENDBLK
  5
107
330
105
100
AcDbEntity
  8
0
100
AcDbBlockEnd
  0
BLOCK
  5
109
330
108
100
AcDbEntity
  8
0
100
AcDbBlockBegin
  2
*D38
 70
    1
 10
0
 20
0
  3
*D38
  1

  0
LINE
  5
279
100
AcDbEntity
  8
dims
  6
ByBlock
 62
    0
370
   -2
100
AcDbLine
 10
189
 20
68
 11
189
 21
74
  0
SOLID
  5
27A
100
AcDbEntity
  8
dims
  6
ByBlock
 62
    0
370
   -2
100
AcDbTrace
 10
189
 20
70
 30
0
 11
189.1665138631091
 21
69
 31
0
 12
188.8334861368909
 22
69
 32
0
 13
188.8334861368909
 23
69
 33
0
  0
SOLID
  5
27B
100
AcDbEntity
  8
dims
  6
ByBlock
 62
    0
370
   -2
100
AcDbTrace
 10
189
 20
72
 30
0
 11
188.8334861368909
 21
73
 31
0
 12
189.1665138631091
 22
73
 32
0
 13
189.1665138631091
 23
73
 33
0
  0
MTEXT
  5
27C
100
AcDbEntity
  8
dims
  6
CONTINUOUS
 62
    0
370
   -2
100
AcDbMText
 10
187.5
 20
74.16666666666667
 30
0
 40
1
 41
2.333333333333333
 71
    5
 72
    1
  1
2.00
  7
standard
210
0
220
0
230
1
 50
90
 73
    2
 44
1
  0
LINE
  5
27D
100
AcDbEntity
  8
dims
  6
ByBlock
 62
    0
370
   -2
100
AcDbLine
 10
198.975
 20
70
 11
188.95
 21
70
  0
LINE
  5
27E
100
AcDbEntity
  8
dims
  6
ByBlock
 62
    0
370
   -2
100
AcDbLine
 10
198.975
 20
72
 11
188.95
 21
72
  0
ENDBLK
  5
10A
330
108
100
AcDbEntity
  8
0
100
AcDbBlockEnd
  0
BLOCK
  5
10C
330
10B
100
AcDbEntity
  8
0
100
AcDbBlockBegin
  2
*D25
 70
    1
 10
0
 20
0
  3
*D25
  1

  0
LINE
  5
27F
100
AcDbEntity
  8
dims
  6
ByBlock
 62
    0
370
   -2
100
AcDbLine
 10
110
 20
97
 11
112.5
 21
97
  0
SOLID
  5
280
100
AcDbEntity
  8
dims
  6
ByBlock
 62
    0
370
   -2
100
AcDbTrace
 10
110
 20
97
 30
0
 11
111
 21
97.16651386310913
 31
0
 12
111
 22
96.83348613689087
 32
0
 13
111
 23
96.83348613689087
 33
0
  0
SOLID
  5
281
100
AcDbEntity
  8
dims
  6
ByBlock
 62
    0
370
   -2
100
AcDbTrace
 10
112.5
 20
97
 30
0
 11
111.5
 21
96.83348613689087
 31
0
 12
111.5
 22
97.16651386310913
 32
0
 13
111.5
 23
97.16651386310913
 33
0
  0
MTEXT
  5
282
100
AcDbEntity
  8
dims
  6
CONTINUOUS
 62
    0
370
   -2
100
AcDbMText
 10
111.25
 20
98.5
 30
0
 40
1
 41
2.333333333333396
 71
    5
 72
    1
  1
2.50
  7
standard
210
0
220
0
230
1
 50
0
 73
    2
 44
1
  0
LINE
  5
283
100
AcDbEntity
  8
dims
  6
ByBlock
 62
    0
370
   -2
100
AcDbLine
 10
110
 20
89.02500000000001
 11
110
 21
97.05
  0
LINE
  5
284
100
AcDbEntity
  8
dims
  6
ByBlock
 62
    0
370
   -2
100
AcDbLine
 10
112.5
 20
89.02500000000001
 11
112.5
 21
97.05
  0
ENDBLK
  5
10D
330
10B
100
AcDbEntity
  8
0
100
AcDbBlockEnd
  0
BLOCK
  5
10F
330
10E
100
AcDbEntity
  8
0
100
AcDbBlockBegin
  2
*D46
 70
    1
 10
0
 20
0
  3
*D46
  1

  0
LINE
  5
285
100
AcDbEntity
  8
dims
  6
ByBlock
 62
    0
370
   -2
100
AcDbLine
 10
40
 20
93
 11
53.25
 21
93
  0
SOLID
  5
286
100
AcDbEntity
  8
dims
  6
ByBlock
 62
    0
370
   -2
100
AcDbTrace
 10
40
 20
93
 30
0
 11
41
 21
93.16651386310913
 31
0
 12
41
 22
92.83348613689087
 32
0
 13
41
 23
92.83348613689087
 33
0
  0
SOLID
  5
287
100
AcDbEntity
  8
dims
  6
ByBlock
 62
    0
370
   -2
100
AcDbTrace
 10
53.25
 20
93
 30
0
 11
52.25
 21
92.83348613689087
 31
0
 12
52.25
 22
93.16651386310913
 32
0
 13
52.25
 23
93.16651386310913
 33
0
  0
MTEXT
  5
288
100
AcDbEntity
  8
dims
  6
CONTINUOUS
 62
    0
370
   -2
100
AcDbMText
 10
46.625
 20
94.5
 30
0
 40
1
 41
2.888888888889013
 71
    5
 72
    1
  1
13.25
  7
standard
210
0
220
0
230
1
 50
0
 73
    2
 44
1
  0
LINE
  5
289
100
AcDbEntity
  8
dims
  6
ByBlock
 62
    0
370
   -2
100
AcDbLine
 10
40
 20
75.02500000000001
 11
40
 21
93.05
  0
LINE
  5
28A
100
AcDbEntity
  8
dims
  6
ByBlock
 62
    0
370
   -2
100
AcDbLine
 10
53.25
 20
82.02500000000001
 11
53.25
 21
93.05
  0
ENDBLK
  5
110
330
10E
100
AcDbEntity
  8
0
100
AcDbBlockEnd
  0
BLOCK
  5
112
330
111
100
AcDbEntity
  8
0
100
AcDbBlockBegin
  2
*D28
 70
    1
 10
0
 20
0
  3
*D28
  1

  0
LINE
  5
28B
100
AcDbEntity
  8
dims
  6
ByBlock
 62
    0
370
   -2
100
AcDbLine
 10
152
 20
52
 11
160
 21
52
  0
SOLID
  5
28C
100
AcDbEntity
  8
dims
  6
ByBlock
 62
    0
370
   -2
100
AcDbTrace
 10
152
 20
52
 30
0
 11
153
 21
52.16651386310914
 31
0
 12
153
 22
51.83348613689086
 32
0
 13
153
 23
51.83348613689086
 33
0
  0
SOLID
  5
28D
100
AcDbEntity
  8
dims
  6
ByBlock
 62
    0
370
   -2
100
AcDbTrace
 10
160
 20
52
 30
0
 11
159
 21
51.83348613689086
 31
0
 12
159
 22
52.16651386310914
 32
0
 13
159
 23
52.16651386310914
 33
0
  0
MTEXT
  5
28E
100
AcDbEntity
  8
dims
  6
CONTINUOUS
 62
    0
370
   -2
100
AcDbMText
 10
156
 20
53.5
 30
0
 40
1
 41
2.333333333333333
 71
    5
 72
    1
  1
8.00
  7
standard
210
0
220
0
230
1
 50
0
 73
    2
 44
1
  0
LINE
  5
28F
100
AcDbEntity
  8
dims
  6
ByBlock
 62
    0
370
   -2
100
AcDbLine
 10
152
 20
68.97499999999999
 11
152
 21
51.95
  0
LINE
  5
290
100
AcDbEntity
  8
dims
  6
ByBlock
 62
    0
370
   -2
100
AcDbLine
 10
160
 20
68.97499999999999
 11
160
 21
51.95
  0
ENDBLK
  5
113
330
111
100
AcDbEntity
  8
0
100
AcDbBlockEnd
  0
BLOCK
  5
115
330
114
100
AcDbEntity
  8
0
100
AcDbBlockBegin
  2
*D65
 70
    1
 10
0
 20
0
  3
*D65
  1

  0
LINE
  5
291
100
AcDbEntity
  8
dims
  6
ByBlock
 62
    0
370
   -2
100
AcDbLine
 10
140
 20
15
 11
140
 21
10
  0
SOLID
  5
292
100
AcDbEntity
  8
dims
  6
ByBlock
 62
    0
370
   -2
100
AcDbTrace
 10
140
 20
15
 30
0
 11
140.1665138631091
 21
14
 31
0
 12
139.8334861368909
 22
14
 32
0
 13
139.8334861368909
 23
14
 33
0
  0
SOLID
  5
293
100
AcDbEntity
  8
dims
  6
ByBlock
 62
    0
370
   -2
100
AcDbTrace
 10
140
 20
10
 30
0
 11
139.8334861368909
 21
11
 31
0
 12
140.1665138631091
 22
11
 32
0
 13
140.1665138631091
 23
11
 33
0
  0
MTEXT
  5
294
100
AcDbEntity
  8
dims
  6
CONTINUOUS
 62
    0
370
   -2
100
AcDbMText
 10
138.5
 20
12.5
 30
0
 40
1
 41
2.333333333333395
 71
    5
 72
    1
  1
5.00
  7
standard
210
0
220
0
230
1
 50
90
 73
    2
 44
1
  0
LINE
  5
295
100
AcDbEntity
  8
dims
  6
ByBlock
 62
    0
370
   -2
100
AcDbLine
 10
147.975
 20
15
 11
139.95
 21
15
  0
LINE
  5
296
100
AcDbEntity
  8
dims
  6
ByBlock
 62
    0
370
   -2
100
AcDbLine
 10
147.975
 20
10
 11
139.95
 21
10
  0
ENDBLK
  5
116
330
114
100
AcDbEntity
  8
0
100
AcDbBlockEnd
  0
BLOCK
  5
118
330
117
100
AcDbEntity
  8
0
100
AcDbBlockBegin
  2
mount_old
 70
    0
 10
0
 20
0
  3
mount_old
  1

  0
LINE
  5
297
100
AcDbEntity
  8
0
  6
ByLayer
 62
  256
370
   -1
100
AcDbLine
 10
-13.25
 20
17.49999999999999
 11
13.25
 21
17.49999999999999
  0
LINE
  5
298
100
AcDbEntity
  8
0
  6
ByLayer
 62
  256
370
   -1
100
AcDbLine
 10
13.25
 20
17.49999999999999
 11
13.25
 21
18.49999999999999
  0
LINE
  5
299
100
AcDbEntity
  8
0
  6
ByLayer
 62
  256
370
   -1
100
AcDbLine
 10
13.25
 20
18.49999999999999
 11
13.25
 21
16.49999999999999
  0
LINE
  5
29A
100
AcDbEntity
  8
0
  6
ByLayer
 62
  256
370
   -1
100
AcDbLine
 10
-13.25
 20
18.49999999999999
 11
-13.25
 21
16.49999999999999
  0
LINE
  5
29B
100
AcDbEntity
  8
0
  6
ByLayer
 62
  256
370
   -1
100
AcDbLine
 10
-13.25
 20
3.999999999999993
 11
13.25
 21
3.999999999999993
  0
LINE
  5
29C
100
AcDbEntity
  8
0
  6
ByLayer
 62
  256
370
   -1
100
AcDbLine
 10
-13.25
 20
-7.105427357601002e-15
 11
13.25
 21
-7.105427357601002e-15
  0
ARC
  5
29D
100
AcDbEntity
  8
0
  6
ByLayer
 62
  256
370
   -1
100
AcDbCircle
 10
-13.25
 20
17.49999999999999
 40
13.5
100
AcDbArc
 50
180
 51
270
  0
ARC
  5
29E
100
AcDbEntity
  8
0
  6
ByLayer
 62
  256
370
   -1
100
AcDbCircle
 10
13.25
 20
17.49999999999999
 40
13.5
100
AcDbArc
 50
270
 51
0
  0
LINE
  5
29F
100
AcDbEntity
  8
0
  6
ByLayer
 62
  256
370
   -1
100
AcDbLine
 10
26.75
 20
17.49999999999999
 11
30.75000000000001
 21
17.49999999999999
  0
ARC
  5
2A0
100
AcDbEntity
  8
0
  6
ByLayer
 62
  256
370
   -1
100
AcDbCircle
 10
-13.25
 20
17.49999999999999
 40
17.5
100
AcDbArc
 50
180
 51
269.9999996496227
  0
LINE
  5
2A1
100
AcDbEntity
  8
0
  6
ByLayer
 62
  256
370
   -1
100
AcDbLine
 10
-30.75
 20
17.5
 11
-26.75
 21
17.49999999999999
  0
ARC
  5
2A2
100
AcDbEntity
  8
0
  6
ByLayer
 62
  256
370
   -1
100
AcDbCircle
 10
13.25
 20
17.49999999999999
 40
17.5
100
AcDbArc
 50
269.9999991649073
 51
360
  0
LINE
  5
2A3
100
AcDbEntity
  8
0
  6
ByLayer
 62
  256
370
   -1
100
AcDbLine
 10
-29.75
 20
17.49999999999999
 11
-29.75
 21
11.6690481051547
  0
LINE
  5
2A4
100
AcDbEntity
  8
0
  6
ByLayer
 62
  256
370
   -1
100
AcDbLine
 10
-27.75
 20
17.49999999999999
 11
-27.75
 21
7.702041028867281
  0
LINE
  5
2A5
100
AcDbEntity
  8
0
  6
ByLayer
 62
  256
370
   -1
100
AcDbLine
 10
27.75
 20
17.49999999999999
 11
27.75
 21
7.702041028867288
  0
LINE
  5
2A6
100
AcDbEntity
  8
0
  6
ByLayer
 62
  256
370
   -1
100
AcDbLine
 10
29.75
 20
17.49999999999999
 11
29.75
 21
11.66904810515475
  0
LINE
  5
2A7
100
AcDbEntity
  8
0
  6
ByLayer
 62
  256
370
   -1
100
AcDbLine
 10
0
 20
17.5
 11
0
 21
18.5
  0
LINE
  5
2A8
100
AcDbEntity
  8
0
  6
ByLayer
 62
  256
370
   -1
100
AcDbLine
 10
0
 20
18.5
 11
0
 21
16.5
  0
LINE
  5
2A9
100
AcDbEntity
  8
0
  6
ByLayer
 62
  256
370
   -1
100
AcDbLine
 10
3
 20
5
 11
3
 21
0
  0
LINE
  5
2AA
100
AcDbEntity
  8
0
  6
ByLayer
 62
  256
370
   -1
100
AcDbLine
 10
-3
 20
5
 11
-3
 21
0
  0
LINE
  5
2AB
100
AcDbEntity
  8
0
  6
ByLayer
 62
  256
370
   -1
100
AcDbLine
 10
-12
 20
5
 11
12
 21
5
  0
LINE
  5
2AC
100
AcDbEntity
  8
0
  6
ByLayer
 62
  256
370
   -1
100
AcDbLine
 10
12
 20
5
 11
12
 21
0
  0
LINE
  5
2AD
100
AcDbEntity
  8
0
  6
ByLayer
 62
  256
370
   -1
100
AcDbLine
 10
-12
 20
5
 11
-12
 21
0
  0
ENDBLK
  5
119
330
117
100
AcDbEntity
  8
0
100
AcDbBlockEnd
  0
BLOCK
  5
11B
330
11A
100
AcDbEntity
  8
0
100
AcDbBlockBegin
  2
laser_mount_t
 70
    0
 10
0
 20
0
  3
laser_mount_t
  1

  0
LINE
  5
2AE
100
AcDbEntity
  8
0
  6
ByLayer
 62
  256
370
   -1
100
AcDbLine
 10
-30.75
 20
0
 11
30.75000000000001
 21
0
  0
LINE
  5
2AF
100
AcDbEntity
  8
0
  6
ByLayer
 62
  256
370
   -1
100
AcDbLine
 10
30.75000000000001
 20
0
 11
30.75000000000001
 21
5
  0
LINE
  5
2B0
100
AcDbEntity
  8
0
  6
ByLayer
 62
  256
370
   -1
100
AcDbLine
 10
-30.75
 20
0
 11
-30.75
 21
0
  0
LINE
  5
2B1
100
AcDbEntity
  8
0
  6
ByLayer
 62
  256
370
   -1
100
AcDbLine
 10
-30.75
 20
5
 11
-30.75
 21
0
  0
LINE
  5
2B2
100
AcDbEntity
  8
0
  6
ByLayer
 62
  256
370
   -1
100
AcDbLine
 10
30.75000000000001
 20
0
 11
30.75000000000001
 21
0
  0
CIRCLE
  5
2B3
100
AcDbEntity
  8
0
  6
ByLayer
 62
  256
370
   -1
100
AcDbCircle
 10
-28.75
 20
2.5
 40
1
  0
CIRCLE
  5
2B4
100
AcDbEntity
  8
0
  6
ByLayer
 62
  256
370
   -1
100
AcDbCircle
 10
28.8
 20
2.499999999999996
 40
1
  0
LINE
  5
2B5
100
AcDbEntity
  8
0
  6
CONTINUOUS
 62
  256
370
   -1
100
AcDbLine
 10
-26.75
 20
5
 11
-26.75
 21
-3.55271e-15
  0
LINE
  5
2B6
100
AcDbEntity
  8
0
  6
CONTINUOUS
 62
  256
370
   -1
100
AcDbLine
 10
26.75
 20
5.000000000000001
 11
26.75
 21
-2.602085213965211e-17
  0
LINE
  5
2B7
100
AcDbEntity
  8
0
  6
DASHEDTINY
 62
  256
370
   -1
100
AcDbLine
 10
-20
 20
0
 11
-20
 21
5
  0
LINE
  5
2B8
100
AcDbEntity
  8
0
  6
DASHEDTINY
 62
  256
370
   -1
100
AcDbLine
 10
20
 20
0
 11
20
 21
5
  0
LINE
  5
2B9
100
AcDbEntity
  8
0
  6
ByLayer
 62
  256
370
   -1
100
AcDbLine
 10
-30.75
 20
5
 11
30.75000000000001
 21
5
  0
LINE
  5
2BA
100
AcDbEntity
  8
0
  6
DASHEDTINY
 62
  256
370
   -1
100
AcDbLine
 10
-9
 20
0
 11
-9
 21
5
  0
LINE
  5
2BB
100
AcDbEntity
  8
0
  6
DASHEDTINY
 62
  256
370
   -1
100
AcDbLine
 10
-7
 20
0
 11
-7
 21
5
  0
LINE
  5
2BC
100
AcDbEntity
  8
0
  6
DASHEDTINY
 62
  256
370
   -1
100
AcDbLine
 10
7
 20
0
 11
7
 21
5
  0
LINE
  5
2BD
100
AcDbEntity
  8
0
  6
DASHEDTINY
 62
  256
370
   -1
100
AcDbLine
 10
9
 20
0
 11
9
 21
5
  0
ENDBLK
  5
11C
330
11A
100
AcDbEntity
  8
0
100
AcDbBlockEnd
  0
BLOCK
  5
11E
330
11D
100
AcDbEntity
  8
0
100
AcDbBlockBegin
  2
laser_mount_s
 70
    0
 10
0
 20
0
  3
laser_mount_s
  1

  0
LINE
  5
2BE
100
AcDbEntity
  8
0
  6
ByLayer
 62
  256
370
   -1
100
AcDbLine
 10
5
 20
17.49999999999999
 11
5
 21
0
  0
LINE
  5
2BF
100
AcDbEntity
  8
0
  6
ByLayer
 62
  256
370
   -1
100
AcDbLine
 10
5
 20
0
 11
0
 21
0
  0
LINE
  5
2C0
100
AcDbEntity
  8
0
  6
ByLayer
 62
  256
370
   -1
100
AcDbLine
 10
0
 20
17.49999999999999
 11
5
 21
17.49999999999999
  0
LINE
  5
2C1
100
AcDbEntity
  8
0
  6
ByLayer
 62
  256
370
   -1
100
AcDbLine
 10
0
 20
0
 11
0
 21
17.49999999999999
  0
LINE
  5
2C2
100
AcDbEntity
  8
0
  6
ByLayer
 62
  256
370
   -1
100
AcDbLine
 10
5
 20
4
 11
5
 21
5
  0
LINE
  5
2C3
100
AcDbEntity
  8
0
  6
DASHEDTINY
 62
  256
370
   -1
100
AcDbLine
 10
0
 20
4
 11
5
 21
4
  0
LINE
  5
2C4
100
AcDbEntity
  8
0
  6
ByLayer
 62
  256
370
   -1
100
AcDbLine
 10
5.551115123125783e-17
 20
9.5
 11
5
 21
9.5
  0
ELLIPSE
  5
2C5
100
AcDbEntity
  8
0
  6
ByLayer
 62
  256
370
   -1
100
AcDbEllipse
 10
2.499999999999993
 20
7.731000000000007
 30
0
 11
0.9999999999999973
 21
-7.374573100485736e-15
 31
0
 40
0.8850000000000039
 41
0
 42
6.283185307179586
  0
LINE
  5
2C6
100
AcDbEntity
  8
0
  6
DASHEDTINY
 62
  256
370
   -1
100
AcDbLine
 10
1.500000199136746
 20
7.731558513822623
 11
1.5
 21
17.5
  0
LINE
  5
2C7
100
AcDbEntity
  8
0
  6
DASHEDTINY
 62
  256
370
   -1
100
AcDbLine
 10
3.499999062851305
 20
7.732211608788351
 11
3.5
 21
17.5
  0
ENDBLK
  5
11F
330
11D
100
AcDbEntity
  8
0
100
AcDbBlockEnd
  0
BLOCK
  5
121
330
120
100
AcDbEntity
  8
0
100
AcDbBlockBegin
  2
laser_mount_b
 70
    0
 10
0
 20
0
  3
laser_mount_b
  1

  0
LINE
  5
2C8
100
AcDbEntity
  8
0
  6
ByLayer
 62
  256
370
   -1
100
AcDbLine
 10
-30.75
 20
0
 11
30.75000000000001
 21
0
  0
LINE
  5
2C9
100
AcDbEntity
  8
0
  6
ByLayer
 62
  256
370
   -1
100
AcDbLine
 10
30.75000000000001
 20
0
 11
30.75000000000001
 21
5
  0
LINE
  5
2CA
100
AcDbEntity
  8
0
  6
ByLayer
 62
  256
370
   -1
100
AcDbLine
 10
-30.75
 20
0
 11
-30.75
 21
0
  0
LINE
  5
2CB
100
AcDbEntity
  8
0
  6
ByLayer
 62
  256
370
   -1
100
AcDbLine
 10
-30.75
 20
5
 11
-30.75
 21
0
  0
LINE
  5
2CC
100
AcDbEntity
  8
0
  6
ByLayer
 62
  256
370
   -1
100
AcDbLine
 10
30.75000000000001
 20
0
 11
30.75000000000001
 21
0
  0
CIRCLE
  5
2CD
100
AcDbEntity
  8
0
  6
ByLayer
 62
  256
370
   -1
100
AcDbCircle
 10
-28.75
 20
2.5
 40
1
  0
CIRCLE
  5
2CE
100
AcDbEntity
  8
0
  6
ByLayer
 62
  256
370
   -1
100
AcDbCircle
 10
28.8
 20
2.499999999999996
 40
1
  0
LINE
  5
2CF
100
AcDbEntity
  8
0
  6
DASHEDTINY
 62
  256
370
   -1
100
AcDbLine
 10
-26.75
 20
5
 11
-26.75
 21
-3.55271e-15
  0
LINE
  5
2D0
100
AcDbEntity
  8
0
  6
DASHEDTINY
 62
  256
370
   -1
100
AcDbLine
 10
26.75
 20
5
 11
26.75
 21
-3.469446951953614e-17
  0
LINE
  5
2D1
100
AcDbEntity
  8
0
  6
ByLayer
 62
  256
370
   -1
100
AcDbLine
 10
20
 20
0
 11
20
 21
5
  0
LINE
  5
2D2
100
AcDbEntity
  8
0
  6
CONTINUOUS
 62
  256
370
   -1
100
AcDbLine
 10
-20
 20
0
 11
-20
 21
5
  0
LINE
  5
2D3
100
AcDbEntity
  8
0
  6
ByLayer
 62
  256
370
   -1
100
AcDbLine
 10
30.75000000000001
 20
5
 11
-30.75
 21
5
  0
LINE
  5
2D4
100
AcDbEntity
  8
0
  6
DASHEDTINY
 62
  256
370
   -1
100
AcDbLine
 10
-9
 20
0
 11
-9
 21
5
  0
LINE
  5
2D5
100
AcDbEntity
  8
0
  6
DASHEDTINY
 62
  256
370
   -1
100
AcDbLine
 10
-7
 20
0
 11
-7
 21
5
  0
LINE
  5
2D6
100
AcDbEntity
  8
0
  6
DASHEDTINY
 62
  256
370
   -1
100
AcDbLine
 10
7
 20
0
 11
7
 21
5
  0
LINE
  5
2D7
100
AcDbEntity
  8
0
  6
DASHEDTINY
 62
  256
370
   -1
100
AcDbLine
 10
9
 20
0
 11
9
 21
5
  0
ENDBLK
  5
122
330
120
100
AcDbEntity
  8
0
100
AcDbBlockEnd
  0
BLOCK
  5
124
330
123
100
AcDbEntity
  8
0
100
AcDbBlockBegin
  2
laser_mount_r
 70
    0
 10
0
 20
0
  3
laser_mount_r
  1

  0
LINE
  5
2D8
100
AcDbEntity
  8
0
  6
ByLayer
 62
  256
370
   -1
100
AcDbLine
 10
-13.25
 20
4
 11
13.25
 21
4
  0
LINE
  5
2D9
100
AcDbEntity
  8
0
  6
ByLayer
 62
  256
370
   -1
100
AcDbLine
 10
-13.25
 20
0
 11
13.25
 21
0
  0
ARC
  5
2DA
100
AcDbEntity
  8
0
  6
ByLayer
 62
  256
370
   -1
100
AcDbCircle
 10
-13.25
 20
17.5
 40
13.5
100
AcDbArc
 50
180
 51
270
  0
ARC
  5
2DB
100
AcDbEntity
  8
0
  6
ByLayer
 62
  256
370
   -1
100
AcDbCircle
 10
13.25
 20
17.5
 40
13.5
100
AcDbArc
 50
270
 51
0
  0
LINE
  5
2DC
100
AcDbEntity
  8
0
  6
ByLayer
 62
  256
370
   -1
100
AcDbLine
 10
26.75
 20
17.5
 11
30.75000000000001
 21
17.5
  0
LINE
  5
2DD
100
AcDbEntity
  8
0
  6
ByLayer
 62
  256
370
   -1
100
AcDbLine
 10
-30.75
 20
17.5
 11
-26.75
 21
17.5
  0
INSERT
  5
2DE
100
AcDbEntity
  8
dims
  6
ByLayer
 62
  256
370
   -1
100
AcDbBlockReference
  2
cross_h
 10
-13.25
 20
17.5
 30
0
 41
1
 42
1
 43
0
 50
0
 70
    1
 71
    1
 44
1
 45
1
  0
INSERT
  5
2DF
100
AcDbEntity
  8
dims
  6
ByLayer
 62
  256
370
   -1
100
AcDbBlockReference
  2
cross_h
 10
13.25
 20
17.5
 30
0
 41
1
 42
1
 43
0
 50
0
 70
    1
 71
    1
 44
1
 45
1
  0
LINE
  5
2E0
100
AcDbEntity
  8
0
  6
ByLayer
 62
  256
370
   -1
100
AcDbLine
 10
12
 20
0
 11
20
 21
0
  0
LINE
  5
2E1
100
AcDbEntity
  8
0
  6
ByLayer
 62
  256
370
   -1
100
AcDbLine
 10
30.75
 20
17.5
 11
30.75
 21
9.5
  0
LINE
  5
2E2
100
AcDbEntity
  8
0
  6
ByLayer
 62
  256
370
   -1
100
AcDbLine
 10
30.75
 20
9.5
 11
20
 21
0
  0
LINE
  5
2E3
100
AcDbEntity
  8
0
  6
DASHEDTINY
 62
  256
370
   -1
100
AcDbLine
 10
27.75
 20
17.5
 11
27.75
 21
6.84884
  0
LINE
  5
2E4
100
AcDbEntity
  8
0
  6
DASHEDTINY
 62
  256
370
   -1
100
AcDbLine
 10
29.75
 20
17.5
 11
29.75
 21
8.61628
  0
LINE
  5
2E5
100
AcDbEntity
  8
0
  6
ByLayer
 62
  256
370
   -1
100
AcDbLine
 10
-12
 20
0
 11
-20
 21
0
  0
LINE
  5
2E6
100
AcDbEntity
  8
0
  6
ByLayer
 62
  256
370
   -1
100
AcDbLine
 10
-30.75
 20
17.5
 11
-30.75
 21
9.5
  0
LINE
  5
2E7
100
AcDbEntity
  8
0
  6
ByLayer
 62
  256
370
   -1
100
AcDbLine
 10
-30.75
 20
9.5
 11
-20
 21
0
  0
LINE
  5
2E8
100
AcDbEntity
  8
0
  6
DASHEDTINY
 62
  256
370
   -1
100
AcDbLine
 10
-29.75
 20
17.5
 11
-29.75
 21
8.61628
  0
LINE
  5
2E9
100
AcDbEntity
  8
0
  6
DASHEDTINY
 62
  256
370
   -1
100
AcDbLine
 10
-27.75
 20
17.5
 11
-27.75
 21
6.84884
  0
CIRCLE
  5
2EA
100
AcDbEntity
  8
0
  6
ByLayer
 62
  256
370
   -1
100
AcDbCircle
 10
-8
 20
2
 40
1
  0
CIRCLE
  5
2EB
100
AcDbEntity
  8
0
  6
ByLayer
 62
  256
370
   -1
100
AcDbCircle
 10
8
 20
2
 40
1
  0
ENDBLK
  5
125
330
123
100
AcDbEntity
  8
0
100
AcDbBlockEnd
  0
BLOCK
  5
127
330
126
100
AcDbEntity
  8
0
100
AcDbBlockBegin
  2
laser_mount_f
 70
    0
 10
0
 20
0
  3
laser_mount_f
  1

  0
ARC
  5
2EC
100
AcDbEntity
  8
0
  6
ByLayer
 62
  256
370
   -1
100
AcDbCircle
 10
-13.25
 20
17.5
 40
13.5
100
AcDbArc
 50
180
 51
270
  0
ARC
  5
2ED
100
AcDbEntity
  8
0
  6
ByLayer
 62
  256
370
   -1
100
AcDbCircle
 10
13.25
 20
17.5
 40
13.5
100
AcDbArc
 50
270
 51
0
  0
LINE
  5
2EE
100
AcDbEntity
  8
0
  6
ByLayer
 62
  256
370
   -1
100
AcDbLine
 10
26.75
 20
17.5
 11
30.75000000000001
 21
17.5
  0
LINE
  5
2EF
100
AcDbEntity
  8
0
  6
ByLayer
 62
  256
370
   -1
100
AcDbLine
 10
-30.75
 20
17.5
 11
-26.75
 21
17.5
  0
LINE
  5
2F0
100
AcDbEntity
  8
0
  6
ByLayer
 62
  256
370
   -1
100
AcDbLine
 10
30.75
 20
17.5
 11
30.75
 21
9.5
  0
LINE
  5
2F1
100
AcDbEntity
  8
0
  6
ByLayer
 62
  256
370
   -1
100
AcDbLine
 10
30.75
 20
9.5
 11
20
 21
0
  0
LINE
  5
2F2
100
AcDbEntity
  8
0
  6
ByLayer
 62
  256
370
   -1
100
AcDbLine
 10
-30.75
 20
17.5
 11
-30.75
 21
9.5
  0
LINE
  5
2F3
100
AcDbEntity
  8
0
  6
ByLayer
 62
  256
370
   -1
100
AcDbLine
 10
-30.75
 20
9.5
 11
-20
 21
0
  0
LINE
  5
2F4
100
AcDbEntity
  8
0
  6
ByLayer
 62
  256
370
   -1
100
AcDbLine
 10
-13.25
 20
4
 11
-12
 21
4
  0
LINE
  5
2F5
100
AcDbEntity
  8
0
  6
ByLayer
 62
  256
370
   -1
100
AcDbLine
 10
12
 20
4
 11
13.25
 21
4
  0
LINE
  5
2F6
100
AcDbEntity
  8
0
  6
DASHEDTINY
 62
  256
370
   -1
100
AcDbLine
 10
-29.75
 20
17.5
 11
-29.75
 21
8.61628
  0
LINE
  5
2F7
100
AcDbEntity
  8
0
  6
DASHEDTINY
 62
  256
370
   -1
100
AcDbLine
 10
-27.75
 20
17.5
 11
-27.75
 21
6.84884
  0
LINE
  5
2F8
100
AcDbEntity
  8
0
  6
DASHEDTINY
 62
  256
370
   -1
100
AcDbLine
 10
27.75
 20
17.5
 11
27.75
 21
6.84884
  0
LINE
  5
2F9
100
AcDbEntity
  8
0
  6
DASHEDTINY
 62
  256
370
   -1
100
AcDbLine
 10
29.75
 20
17.5
 11
29.75
 21
8.61628
  0
LINE
  5
2FA
100
AcDbEntity
  8
0
  6
ByLayer
 62
  256
370
   -1
100
AcDbLine
 10
-20
 20
0
 11
20
 21
0
  0
LINE
  5
2FB
100
AcDbEntity
  8
0
  6
CONTINUOUS
 62
  256
370
   -1
100
AcDbLine
 10
-12
 20
4
 11
12
 21
4
  0
CIRCLE
  5
2FC
100
AcDbEntity
  8
0
  6
ByLayer
 62
  256
370
   -1
100
AcDbCircle
 10
-8
 20
2
 40
1
  0
CIRCLE
  5
2FD
100
AcDbEntity
  8
0
  6
ByLayer
 62
  256
370
   -1
100
AcDbCircle
 10
8
 20
2
 40
1
  0
ENDBLK
  5
128
330
126
100
AcDbEntity
  8
0
100
AcDbBlockEnd
  0
BLOCK
  5
12A
330
129
100
AcDbEntity
  8
0
100
AcDbBlockBegin
  2
laser_mount_enc_f
 70
    0
 10
0
 20
0
  3
laser_mount_enc_f
  1

  0
CIRCLE
  5
2FE
100
AcDbEntity
  8
0
  6
ByLayer
 62
  256
370
   -1
100
AcDbCircle
 10
0
 20
2.5
 40
1
  0
CIRCLE
  5
2FF
100
AcDbEntity
  8
0
  6
ByLayer
 62
  256
370
   -1
100
AcDbCircle
 10
-8
 20
2
 40
1
  0
CIRCLE
  5
300
100
AcDbEntity
  8
0
  6
ByLayer
 62
  256
370
   -1
100
AcDbCircle
 10
8
 20
2
 40
1
  0
LINE
  5
301
100
AcDbEntity
  8
0
  6
ByLayer
 62
  256
370
   -1
100
AcDbLine
 10
-11
 20
5
 11
-11
 21
0
  0
LINE
  5
302
100
AcDbEntity
  8
0
  6
ByLayer
 62
  256
370
   -1
100
AcDbLine
 10
-11
 20
0
 11
11
 21
0
  0
LINE
  5
303
100
AcDbEntity
  8
0
  6
ByLayer
 62
  256
370
   -1
100
AcDbLine
 10
-11
 20
5
 11
11
 21
5
  0
LINE
  5
304
100
AcDbEntity
  8
0
  6
ByLayer
 62
  256
370
   -1
100
AcDbLine
 10
11
 20
5
 11
11
 21
0
  0
LINE
  5
305
100
AcDbEntity
  8
0
  6
ByLayer
 62
  256
370
   -1
100
AcDbLine
 10
-5
 20
0
 11
-5
 21
5
  0
LINE
  5
306
100
AcDbEntity
  8
0
  6
ByLayer
 62
  256
370
   -1
100
AcDbLine
 10
5
 20
0
 11
5
 21
5
  0
LINE
  5
307
100
AcDbEntity
  8
0
  6
DASHEDTINY
 62
  256
370
   -1
100
AcDbLine
 10
-3
 20
5
 11
-3
 21
0
  0
LINE
  5
308
100
AcDbEntity
  8
0
  6
DASHEDTINY
 62
  256
370
   -1
100
AcDbLine
 10
3
 20
5
 11
3
 21
0
  0
ENDBLK
  5
12B
330
129
100
AcDbEntity
  8
0
100
AcDbBlockEnd
  0
BLOCK
  5
12D
330
12C
100
AcDbEntity
  8
0
100
AcDbBlockBegin
  2
laser_mount_enc_s
 70
    0
 10
0
 20
0
  3
laser_mount_enc_s
  1

  0
LINE
  5
309
100
AcDbEntity
  8
0
  6
ByLayer
 62
  256
370
   -1
100
AcDbLine
 10
5
 20
-8.057620608681587e-16
 11
5
 21
9
  0
LINE
  5
30A
100
AcDbEntity
  8
0
  6
ByLayer
 62
  256
370
   -1
100
AcDbLine
 10
5
 20
9
 11
8.881784197001252e-16
 21
9
  0
LINE
  5
30B
100
AcDbEntity
  8
0
  6
ByLayer
 62
  256
370
   -1
100
AcDbLine
 10
0
 20
-4.996003610813204e-16
 11
8.881784197001252e-16
 21
9
  0
LINE
  5
30C
100
AcDbEntity
  8
0
  6
DASHEDTINY
 62
  256
370
   -1
100
AcDbLine
 10
0
 20
0.9999999999999996
 11
5
 21
0.9999999999999993
  0
LINE
  5
30D
100
AcDbEntity
  8
0
  6
DASHEDTINY
 62
  256
370
   -1
100
AcDbLine
 10
1.5
 20
9
 11
1.5
 21
6.999999999999999
  0
LINE
  5
30E
100
AcDbEntity
  8
0
  6
DASHEDTINY
 62
  256
370
   -1
100
AcDbLine
 10
3.5
 20
9
 11
3.5
 21
6.999999999999999
  0
LINE
  5
30F
100
AcDbEntity
  8
0
  6
ByLayer
 62
  256
370
   -1
100
AcDbLine
 10
0
 20
0
 11
5
 21
-3.061616997868383e-16
  0
LINE
  5
310
100
AcDbEntity
  8
0
  6
ByLayer
 62
  256
370
   -1
100
AcDbLine
 10
0
 20
2
 11
5
 21
2
  0
LINE
  5
311
100
AcDbEntity
  8
0
  6
DASHEDTINY
 62
  256
370
   -1
100
AcDbLine
 10
2
 20
-1.224650409960558e-16
 11
2
 21
2
  0
LINE
  5
312
100
AcDbEntity
  8
0
  6
DASHEDTINY
 62
  256
370
   -1
100
AcDbLine
 10
4
 20
-2.449297209107911e-16
 11
4
 21
1.999999999999999
  0
LINE
  5
313
100
AcDbEntity
  8
0
  6
CONTINUOUS
 62
  256
370
   -1
100
AcDbLine
 10
0
 20
7
 11
5
 21
7
  0
ENDBLK
  5
12E
330
12C
100
AcDbEntity
  8
0
100
AcDbBlockEnd
  0
BLOCK
  5
130
330
12F
100
AcDbEntity
  8
0
100
AcDbBlockBegin
  2
laser_mount_enc_b
 70
    0
 10
0
 20
0
  3
laser_mount_enc_b
  1

  0
CIRCLE
  5
314
100
AcDbEntity
  8
0
  6
ByLayer
 62
  256
370
   -1
100
AcDbCircle
 10
0
 20
4
 40
3
  0
LINE
  5
315
100
AcDbEntity
  8
0
  6
DASHEDTINY
 62
  256
370
   -1
100
AcDbLine
 10
1
 20
6.8284
 11
1
 21
9
  0
LINE
  5
316
100
AcDbEntity
  8
0
  6
DASHEDTINY
 62
  256
370
   -1
100
AcDbLine
 10
-1
 20
9
 11
-1
 21
6.8284
  0
LINE
  5
317
100
AcDbEntity
  8
0
  6
ByLayer
 62
  256
370
   -1
100
AcDbLine
 10
5
 20
2
 11
11
 21
2
  0
LINE
  5
318
100
AcDbEntity
  8
0
  6
ByLayer
 62
  256
370
   -1
100
AcDbLine
 10
11
 20
2
 11
11
 21
0
  0
LINE
  5
319
100
AcDbEntity
  8
0
  6
ByLayer
 62
  256
370
   -1
100
AcDbLine
 10
-11
 20
2
 11
-5
 21
2
  0
LINE
  5
31A
100
AcDbEntity
  8
0
  6
CONTINUOUS
 62
  256
370
   -1
100
AcDbLine
 10
11
 20
0
 11
-11
 21
0
  0
LINE
  5
31B
100
AcDbEntity
  8
0
  6
ByLayer
 62
  256
370
   -1
100
AcDbLine
 10
-11
 20
0
 11
-11
 21
2
  0
LINE
  5
31C
100
AcDbEntity
  8
0
  6
ByLayer
 62
  256
370
   -1
100
AcDbLine
 10
-5
 20
7
 11
-3
 21
9
  0
LINE
  5
31D
100
AcDbEntity
  8
0
  6
ByLayer
 62
  256
370
   -1
100
AcDbLine
 10
5
 20
7
 11
3
 21
9
  0
LINE
  5
31E
100
AcDbEntity
  8
0
  6
ByLayer
 62
  256
370
   -1
100
AcDbLine
 10
-5
 20
2
 11
-5
 21
7
  0
LINE
  5
31F
100
AcDbEntity
  8
0
  6
ByLayer
 62
  256
370
   -1
100
AcDbLine
 10
-3
 20
9
 11
3
 21
9
  0
LINE
  5
320
100
AcDbEntity
  8
0
  6
ByLayer
 62
  256
370
   -1
100
AcDbLine
 10
5
 20
7
 11
5
 21
2
  0
LINE
  5
321
100
AcDbEntity
  8
0
  6
DASHEDTINY
 62
  256
370
   -1
100
AcDbLine
 10
-9
 20
2
 11
-9
 21
0
  0
LINE
  5
322
100
AcDbEntity
  8
0
  6
DASHEDTINY
 62
  256
370
   -1
100
AcDbLine
 10
-7
 20
0
 11
-7
 21
2
  0
LINE
  5
323
100
AcDbEntity
  8
0
  6
DASHEDTINY
 62
  256
370
   -1
100
AcDbLine
 10
7
 20
2
 11
7
 21
0
  0
LINE
  5
324
100
AcDbEntity
  8
0
  6
DASHEDTINY
 62
  256
370
   -1
100
AcDbLine
 10
9
 20
0
 11
9
 21
2
  0
ENDBLK
  5
131
330
12F
100
AcDbEntity
  8
0
100
AcDbBlockEnd
  0
BLOCK
  5
133
330
132
100
AcDbEntity
  8
0
100
AcDbBlockBegin
  2
laser_mount_nad_f
 70
    0
 10
0
 20
0
  3
laser_mount_nad_f
  1

  0
CIRCLE
  5
325
100
AcDbEntity
  8
0
  6
ByLayer
 62
  256
370
   -1
100
AcDbCircle
 10
-8
 20
2
 40
1
  0
CIRCLE
  5
326
100
AcDbEntity
  8
0
  6
ByLayer
 62
  256
370
   -1
100
AcDbCircle
 10
8
 20
2
 40
1
  0
LINE
  5
327
100
AcDbEntity
  8
0
  6
ByLayer
 62
  256
370
   -1
100
AcDbLine
 10
-11
 20
5
 11
-11
 21
0
  0
LINE
  5
328
100
AcDbEntity
  8
0
  6
ByLayer
 62
  256
370
   -1
100
AcDbLine
 10
-11
 20
0
 11
11
 21
0
  0
LINE
  5
329
100
AcDbEntity
  8
0
  6
ByLayer
 62
  256
370
   -1
100
AcDbLine
 10
-11
 20
5
 11
11
 21
5
  0
LINE
  5
32A
100
AcDbEntity
  8
0
  6
ByLayer
 62
  256
370
   -1
100
AcDbLine
 10
11
 20
5
 11
11
 21
0
  0
LINE
  5
32B
100
AcDbEntity
  8
0
  6
ByLayer
 62
  256
370
   -1
100
AcDbLine
 10
-5
 20
0
 11
-5
 21
5
  0
LINE
  5
32C
100
AcDbEntity
  8
0
  6
ByLayer
 62
  256
370
   -1
100
AcDbLine
 10
5
 20
0
 11
5
 21
5
  0
LINE
  5
32D
100
AcDbEntity
  8
0
  6
ByLayer
 62
  256
370
   -1
100
AcDbLine
 10
-3
 20
5
 11
-3
 21
0
  0
LINE
  5
32E
100
AcDbEntity
  8
0
  6
ByLayer
 62
  256
370
   -1
100
AcDbLine
 10
3
 20
5
 11
3
 21
0
  0
LINE
  5
32F
100
AcDbEntity
  8
0
  6
DASHEDTINY
 62
  256
370
   -1
100
AcDbLine
 10
-5
 20
4
 11
-3
 21
4
  0
LINE
  5
330
100
AcDbEntity
  8
0
  6
DASHEDTINY
 62
  256
370
   -1
100
AcDbLine
 10
-5
 20
1
 11
-3
 21
1
  0
LINE
  5
331
100
AcDbEntity
  8
0
  6
DASHEDTINY
 62
  256
370
   -1
100
AcDbLine
 10
3
 20
4
 11
5
 21
4
  0
LINE
  5
332
100
AcDbEntity
  8
0
  6
DASHEDTINY
 62
  256
370
   -1
100
AcDbLine
 10
3
 20
1
 11
5
 21
1
  0
ENDBLK
  5
134
330
132
100
AcDbEntity
  8
0
100
AcDbBlockEnd
  0
BLOCK
  5
136
330
135
100
AcDbEntity
  8
0
100
AcDbBlockBegin
  2
laser_mount_nad_b
 70
    0
 10
0
 20
0
  3
laser_mount_nad_b
  1

  0
LINE
  5
333
100
AcDbEntity
  8
0
  6
ByLayer
 62
  256
370
   -1
100
AcDbLine
 10
5
 20
2
 11
11
 21
2
  0
LINE
  5
334
100
AcDbEntity
  8
0
  6
ByLayer
 62
  256
370
   -1
100
AcDbLine
 10
11
 20
2
 11
11
 21
0
  0
LINE
  5
335
100
AcDbEntity
  8
0
  6
ByLayer
 62
  256
370
   -1
100
AcDbLine
 10
-11
 20
2
 11
-5
 21
2
  0
LINE
  5
336
100
AcDbEntity
  8
0
  6
ByLayer
 62
  256
370
   -1
100
AcDbLine
 10
11
 20
0
 11
-11
 21
0
  0
LINE
  5
337
100
AcDbEntity
  8
0
  6
ByLayer
 62
  256
370
   -1
100
AcDbLine
 10
-11
 20
0
 11
-11
 21
2
  0
LINE
  5
338
100
AcDbEntity
  8
0
  6
ByLayer
 62
  256
370
   -1
100
AcDbLine
 10
5
 20
9
 11
5
 21
2
  0
LINE
  5
339
100
AcDbEntity
  8
0
  6
ByLayer
 62
  256
370
   -1
100
AcDbLine
 10
-5
 20
2
 11
-5
 21
9
  0
LINE
  5
33A
100
AcDbEntity
  8
0
  6
ByLayer
 62
  256
370
   -1
100
AcDbLine
 10
-5
 20
9
 11
-3
 21
9
  0
LINE
  5
33B
100
AcDbEntity
  8
0
  6
ByLayer
 62
  256
370
   -1
100
AcDbLine
 10
-3
 20
9
 11
-3
 21
2
  0
LINE
  5
33C
100
AcDbEntity
  8
0
  6
ByLayer
 62
  256
370
   -1
100
AcDbLine
 10
-3
 20
2
 11
3
 21
2
  0
LINE
  5
33D
100
AcDbEntity
  8
0
  6
ByLayer
 62
  256
370
   -1
100
AcDbLine
 10
3
 20
2
 11
3
 21
9
  0
LINE
  5
33E
100
AcDbEntity
  8
0
  6
ByLayer
 62
  256
370
   -1
100
AcDbLine
 10
3
 20
9
 11
5
 21
9
  0
LINE
  5
33F
100
AcDbEntity
  8
0
  6
DASHDOTTINY
 62
  256
370
   -1
100
AcDbLine
 10
-5
 20
7.5
 11
-3
 21
7.5
  0
LINE
  5
340
100
AcDbEntity
  8
0
  6
DASHEDTINY
 62
  256
370
   -1
100
AcDbLine
 10
-5
 20
4.5
 11
-3
 21
4.5
  0
LINE
  5
341
100
AcDbEntity
  8
0
  6
DASHEDTINY
 62
  256
370
   -1
100
AcDbLine
 10
3
 20
7.5
 11
5
 21
7.5
  0
LINE
  5
342
100
AcDbEntity
  8
0
  6
DASHEDTINY
 62
  256
370
   -1
100
AcDbLine
 10
3
 20
4.5
 11
5
 21
4.5
  0
LINE
  5
343
100
AcDbEntity
  8
0
  6
DASHEDTINY
 62
  256
370
   -1
100
AcDbLine
 10
-9
 20
2
 11
-9
 21
0
  0
LINE
  5
344
100
AcDbEntity
  8
0
  6
DASHEDTINY
 62
  256
370
   -1
100
AcDbLine
 10
-7
 20
0
 11
-7
 21
2
  0
LINE
  5
345
100
AcDbEntity
  8
0
  6
DASHEDTINY
 62
  256
370
   -1
100
AcDbLine
 10
7
 20
2
 11
7
 21
0
  0
LINE
  5
346
100
AcDbEntity
  8
0
  6
DASHEDTINY
 62
  256
370
   -1
100
AcDbLine
 10
9
 20
0
 11
9
 21
2
  0
ENDBLK
  5
137
330
135
100
AcDbEntity
  8
0
100
AcDbBlockEnd
  0
BLOCK
  5
139
330
138
100
AcDbEntity
  8
0
100
AcDbBlockBegin
  2
laser_mount_nad_s
 70
    0
 10
0
 20
0
  3
laser_mount_nad_s
  1

  0
LINE
  5
347
100
AcDbEntity
  8
0
  6
ByLayer
 62
  256
370
   -1
100
AcDbLine
 10
5
 20
-3.061616997868383e-16
 11
5
 21
9
  0
LINE
  5
348
100
AcDbEntity
  8
0
  6
ByLayer
 62
  256
370
   -1
100
AcDbLine
 10
5
 20
9
 11
8.881784197001252e-16
 21
9
  0
LINE
  5
349
100
AcDbEntity
  8
0
  6
ByLayer
 62
  256
370
   -1
100
AcDbLine
 10
0
 20
0
 11
8.881784197001252e-16
 21
9
  0
LINE
  5
34A
100
AcDbEntity
  8
0
  6
ByLayer
 62
  256
370
   -1
100
AcDbLine
 10
0
 20
0
 11
5
 21
-3.061616997868383e-16
  0
LINE
  5
34B
100
AcDbEntity
  8
0
  6
ByLayer
 62
  256
370
   -1
100
AcDbLine
 10
0
 20
2
 11
5
 21
2
  0
CIRCLE
  5
34C
100
AcDbEntity
  8
0
  6
ByLayer
 62
  256
370
   -1
100
AcDbCircle
 10
2.5
 20
6
 40
1.5
  0
LINE
  5
34D
100
AcDbEntity
  8
0
  6
DASHEDTINY
 62
  256
370
   -1
100
AcDbLine
 10
2
 20
-1.224646799147353e-16
 11
2
 21
2
  0
LINE
  5
34E
100
AcDbEntity
  8
0
  6
DASHEDTINY
 62
  256
370
   -1
100
AcDbLine
 10
4
 20
-2.449293598294706e-16
 11
4
 21
2
  0
ENDBLK
  5
13A
330
138
100
AcDbEntity
  8
0
100
AcDbBlockEnd
  0
ENDSEC
  0
SECTION
  2
ENTITIES
  0
DIMENSION
  5
34F
100
AcDbEntity
  8
dims
  6
ByLayer
 62
  256
370
   -1
100
AcDbDimension
  2
*D1
 10
53.25
 20
96
 30
0
 11
40
 21
97.5
 31
0
 70
   32
 71
    5
  3
Standard
 53
0
210
0
220
0
230
1
100
AcDbAlignedDimension
 13
26.75
 23
92.5
 33
0
 14
53.25
 24
92.5
 34
0
100
AcDbRotatedDimension
  0
DIMENSION
  5
350
100
AcDbEntity
  8
dims
  6
ByLayer
 62
  256
370
   -1
100
AcDbDimension
  2
*D2
 10
70.7500000000001
 20
96.50000000000001
 30
0
 11
68.75000000000006
 21
98.00000000000001
 31
0
 70
   33
 71
    5
  3
Standard
 53
0
210
0
220
0
230
1
100
AcDbAlignedDimension
 13
66.75
 23
88
 33
0
 14
70.7500000000001
 24
88
 34
0
  0
DIMENSION
  5
351
100
AcDbEntity
  8
dims
  6
ByLayer
 62
  256
370
   -1
100
AcDbDimension
  2
*D3
 10
11.25
 20
96.5
 30
0
 11
10.25000000000001
 21
98
 31
0
 70
   33
 71
    5
  3
Standard
 53
0
210
0
220
0
230
1
100
AcDbAlignedDimension
 13
9.250000000000028
 23
88
 33
0
 14
11.25
 24
88
 34
0
  0
MTEXT
  5
352
100
AcDbEntity
  8
dims
  6
ByLayer
 62
  256
370
   -1
100
AcDbMText
 10
75.80000000000001
 20
91.50000000000001
 30
0
 40
1
 41
4.222222222222222
 71
    1
 72
    1
  1
M2x0.4
  7

210
0
220
0
230
1
 50
0
 73
    2
 44
1
  0
MTEXT
  5
353
100
AcDbEntity
  8
dims
  6
ByLayer
 62
  256
370
   -1
100
AcDbMText
 10
0.1000000000000001
 20
93.50000000000001
 30
0
 40
1
 41
4.222222222222222
 71
    1
 72
    1
  1
M2x0.4
  7

210
0
220
0
230
1
 50
0
 73
    2
 44
1
  0
DIMENSION
  5
354
100
AcDbEntity
  8
dims
  6
ByLayer
 62
  256
370
   -1
100
AcDbDimension
  2
*D4
 10
11.14910416034011
 20
59.98451260249013
 30
0
 11
6.767400855047674
 21
65.85850623071184
 31
0
 70
   33
 71
    5
  3
Standard
 53
0
210
0
220
0
230
1
100
AcDbAlignedDimension
 13
9.25
 23
79.50000000000001
 33
0
 14
20.00000000000001
 24
70
 34
0
  0
DIMENSION
  5
355
100
AcDbEntity
  8
dims
  6
ByLayer
 62
  256
370
   -1
100
AcDbDimension
  2
*D5
 10
87
 20
87.5
 30
0
 11
85.5
 21
78.75
 31
0
 70
   32
 71
    5
  3
Standard
 53
0
210
0
220
0
230
1
100
AcDbAlignedDimension
 13
61
 23
70
 33
0
 14
72
 24
87.5
 34
0
 50
90
100
AcDbRotatedDimension
  0
DIMENSION
  5
356
100
AcDbEntity
  8
dims
  6
ByLayer
 62
  256
370
   -1
100
AcDbDimension
  2
*D6
 10
77
 20
74
 30
0
 11
75.5
 21
72
 31
0
 70
   32
 71
    5
  3
Standard
 53
0
210
0
220
0
230
1
100
AcDbAlignedDimension
 13
61
 23
70
 33
0
 14
56
 24
74
 34
0
 50
90
100
AcDbRotatedDimension
  0
DIMENSION
  5
357
100
AcDbEntity
  8
dims
  6
ByLayer
 62
  256
370
   -1
100
AcDbDimension
  2
*D7
 10
2
 20
79.50000000000001
 30
0
 11
0.5
 21
83.5
 31
0
 70
   32
 71
    5
  3
Standard
 53
0
210
0
220
0
230
1
100
AcDbAlignedDimension
 13
9
 23
87.5
 33
0
 14
9
 24
79.50000000000001
 34
0
 50
90
100
AcDbRotatedDimension
  0
DIMENSION
  5
358
100
AcDbEntity
  8
dims
  6
ByLayer
 62
  256
370
   -1
100
AcDbDimension
  2
*D8
 10
9.25
 20
57
 30
0
 11
55.375
 21
58.5
 31
0
 70
   32
 71
    5
  3
Standard
 53
0
210
0
220
0
230
1
100
AcDbAlignedDimension
 13
40
 23
69
 33
0
 14
70.75
 24
79
 34
0
100
AcDbRotatedDimension
  0
DIMENSION
  5
359
100
AcDbEntity
  8
dims
  6
ByLayer
 62
  256
370
   -1
100
AcDbDimension
  2
*D9
 10
26.75
 20
87.5
 30
0
 11
19.835675575495
 21
87.43204595160192
 31
0
 70
   36
  1
R13.50
 71
    5
  3
Standard
 53
0
210
0
220
0
230
1
100
AcDbRadialDimension
 15
13.60089163497084
 25
84.44206782208624
 35
0
 40
0
  0
INSERT
  5
35A
100
AcDbEntity
  8
dims
  6
ByLayer
 62
  256
370
   -1
100
AcDbBlockReference
  2
cross_h
 10
26.75
 20
87.5
 30
0
 41
1
 42
1
 43
0
 50
0
 70
    1
 71
    1
 44
1
 45
1
  0
INSERT
  5
35B
100
AcDbEntity
  8
dims
  6
ByLayer
 62
  256
370
   -1
100
AcDbBlockReference
  2
cross_h
 10
53.25
 20
87.5
 30
0
 41
1
 42
1
 43
0
 50
0
 70
    1
 71
    1
 44
1
 45
1
  0
INSERT
  5
35C
100
AcDbEntity
  8
0
  6
ByLayer
 62
  256
370
   -1
100
AcDbBlockReference
  2
laser_mount_r
 10
40
 20
70
 30
0
 41
1
 42
1
 43
0
 50
0
 70
    1
 71
    1
 44
1
 45
1
  0
DIMENSION
  5
35D
100
AcDbEntity
  8
dims
  6
ByLayer
 62
  256
370
   -1
100
AcDbDimension
  2
*D10
 10
9.250000000000004
 20
79.5
 30
0
 11
0
 21
0
 31
0
 70
   34
 71
    5
  3
Standard
 53
0
210
0
220
0
230
1
100
AcDb2LineAngularDimension
 13
20
 23
70
 33
0
 14
28
 24
70
 34
0
 15
20
 25
70
 35
0
 16
22
 26
72
 36
0
  0
INSERT
  5
35E
100
AcDbEntity
  8
0
  6
ByLayer
 62
  256
370
   -1
100
AcDbBlockReference
  2
laser_mount_t
 10
40
 20
10
 30
0
 41
1
 42
1
 43
0
 50
0
 70
    1
 71
    1
 44
1
 45
1
  0
DIMENSION
  5
35F
100
AcDbEntity
  8
dims
  6
ByLayer
 62
  256
370
   -1
100
AcDbDimension
  2
*D11
 10
11.25
 20
28.50000000000001
 30
0
 11
10.24999999999999
 21
30.00000000000001
 31
0
 70
   32
 71
    5
  3
Standard
 53
0
210
0
220
0
230
1
100
AcDbAlignedDimension
 13
9.249999999999986
 23
15.8
 33
0
 14
11.25
 24
12.5
 34
0
100
AcDbRotatedDimension
  0
DIMENSION
  5
360
100
AcDbEntity
  8
dims
  6
ByLayer
 62
  256
370
   -1
100
AcDbDimension
  2
*D12
 10
52
 20
38
 30
0
 11
40
 21
39.5
 31
0
 70
   32
 71
    5
  3
Standard
 53
0
210
0
220
0
230
1
100
AcDbAlignedDimension
 13
28
 23
16
 33
0
 14
52
 24
16
 34
0
100
AcDbRotatedDimension
  0
DIMENSION
  5
361
100
AcDbEntity
  8
dims
  6
ByLayer
 62
  256
370
   -1
100
AcDbDimension
  2
*D13
 10
70.75
 20
-4
 30
0
 11
40
 21
-2.5
 31
0
 70
   32
 71
    5
  3
Standard
 53
0
210
0
220
0
230
1
100
AcDbAlignedDimension
 13
9.25
 23
7.999999999999986
 33
0
 14
70.75
 24
7.999999999999986
 34
0
100
AcDbRotatedDimension
  0
DIMENSION
  5
362
100
AcDbEntity
  8
dims
  6
ByLayer
 62
  256
370
   -1
100
AcDbDimension
  2
*D14
 10
78
 20
10
 30
0
 11
76.5
 21
12.5
 31
0
 70
   32
 71
    5
  3
Standard
 53
0
210
0
220
0
230
1
100
AcDbAlignedDimension
 13
72
 23
15
 33
0
 14
72
 24
10
 34
0
 50
90
100
AcDbRotatedDimension
  0
DIMENSION
  5
363
100
AcDbEntity
  8
dims
  6
ByLayer
 62
  256
370
   -1
100
AcDbDimension
  2
*D15
 10
40
 20
19
 30
0
 11
45.29202754674954
 21
18.03103720975007
 31
0
 70
   36
 71
    5
  3
Standard
 53
0
210
0
220
0
230
1
100
AcDbRadialDimension
 15
42.68328157299976
 25
17.65835921350012
 35
0
 40
0
  0
LEADER
  5
364
100
AcDbEntity
  8
dims
  6
ByLayer
 62
  256
370
   -1
100
AcDbLeader
  3
Standard
 71
    1
 72
    0
 73
    3
 74
    0
 75
    0
 40
1
 41
10
 76
3
 76
3
 10
40
 20
23
 30
0
 10
45
 20
25
 30
0
 10
48
 20
25
 30
0
  0
LEADER
  5
365
100
AcDbEntity
  8
dims
  6
ByLayer
 62
  256
370
   -1
100
AcDbLeader
  3
Standard
 71
    1
 72
    0
 73
    3
 74
    0
 75
    0
 40
1
 41
10
 76
3
 76
3
 10
69
 20
13
 30
0
 10
71
 20
17
 30
0
 10
75
 20
17
 30
0
  0
LEADER
  5
366
100
AcDbEntity
  8
dims
  6
ByLayer
 62
  256
370
   -1
100
AcDbLeader
  3
Standard
 71
    1
 72
    0
 73
    3
 74
    0
 75
    0
 40
1
 41
10
 76
3
 76
3
 10
12
 20
13
 30
0
 10
16
 20
17
 30
0
 10
20
 20
17
 30
0
  0
DIMENSION
  5
367
100
AcDbEntity
  8
dims
  6
ByLayer
 62
  256
370
   -1
100
AcDbDimension
  2
*D19
 10
78
 20
15
 30
0
 11
76.5
 21
17
 31
0
 70
   32
 71
    5
  3
Standard
 53
0
210
0
220
0
230
1
100
AcDbAlignedDimension
 13
49
 23
19
 33
0
 14
72
 24
15
 34
0
 50
90
100
AcDbRotatedDimension
  0
DIMENSION
  5
368
100
AcDbEntity
  8
dims
  6
ByLayer
 62
  256
370
   -1
100
AcDbDimension
  2
*D20
 10
78
 20
23.99999999999999
 30
0
 11
76.5
 21
21.5
 31
0
 70
   32
 71
    5
  3
Standard
 53
0
210
0
220
0
230
1
100
AcDbAlignedDimension
 13
41
 23
19
 33
0
 14
44
 24
24
 34
0
 50
90
100
AcDbRotatedDimension
  0
DIMENSION
  5
369
100
AcDbEntity
  8
dims
  6
ByLayer
 62
  256
370
   -1
100
AcDbDimension
  2
*D21
 10
40
 20
-1
 30
0
 11
24.625
 21
0.5
 31
0
 70
   32
 71
    5
  3
Standard
 53
0
210
0
220
0
230
1
100
AcDbAlignedDimension
 13
9.25
 23
8
 33
0
 14
40
 24
8
 34
0
100
AcDbRotatedDimension
  0
DIMENSION
  5
36A
100
AcDbEntity
  8
dims
  6
ByLayer
 62
  256
370
   -1
100
AcDbDimension
  2
*D22
 10
43
 20
35
 30
0
 11
40
 21
36.5
 31
0
 70
   32
  1
%%C6.00
 71
    5
  3
Standard
 53
0
210
0
220
0
230
1
100
AcDbAlignedDimension
 13
37
 23
21
 33
0
 14
43
 24
21
 34
0
100
AcDbRotatedDimension
  0
DIMENSION
  5
36B
100
AcDbEntity
  8
dims
  6
ByLayer
 62
  256
370
   -1
100
AcDbDimension
  2
*D23
 10
42
 20
32
 30
0
 11
40
 21
33.5
 31
0
 70
   32
 71
    5
  3
Standard
 53
0
210
0
220
0
230
1
100
AcDbAlignedDimension
 13
38
 23
25
 33
0
 14
42
 24
25
 34
0
100
AcDbRotatedDimension
  0
INSERT
  5
36C
100
AcDbEntity
  8
0
  6
ByLayer
 62
  256
370
   -1
100
AcDbBlockReference
  2
laser_mount_s
 10
110
 20
70
 30
0
 41
1
 42
1
 43
0
 50
0
 70
    1
 71
    1
 44
0
 45
0
  0
DIMENSION
  5
36D
100
AcDbEntity
  8
dims
  6
ByLayer
 62
  256
370
   -1
100
AcDbDimension
  2
*D24
 10
115
 20
100
 30
0
 11
112.5
 21
101.5
 31
0
 70
   32
 71
    5
  3
Standard
 53
0
210
0
220
0
230
1
100
AcDbAlignedDimension
 13
110
 23
89
 33
0
 14
115
 24
89
 34
0
100
AcDbRotatedDimension
  0
DIMENSION
  5
36E
100
AcDbEntity
  8
dims
  6
ByLayer
 62
  256
370
   -1
100
AcDbDimension
  2
*D25
 10
112.5
 20
97
 30
0
 11
111.25
 21
98.5
 31
0
 70
   32
 71
    5
  3
Standard
 53
0
210
0
220
0
230
1
100
AcDbAlignedDimension
 13
110
 23
89
 33
0
 14
112.5
 24
89
 34
0
100
AcDbRotatedDimension
  0
DIMENSION
  5
36F
100
AcDbEntity
  8
dims
  6
ByLayer
 62
  256
370
   -1
100
AcDbDimension
  2
*D26
 10
96
 20
87.5
 30
0
 11
94.5
 21
78.75
 31
0
 70
   32
 71
    5
  3
Standard
 53
0
210
0
220
0
230
1
100
AcDbAlignedDimension
 13
109
 23
70
 33
0
 14
109
 24
87.5
 34
0
 50
90
100
AcDbRotatedDimension
  0
MTEXT
  5
370
100
AcDbEntity
  8
dims
  6
ByLayer
 62
  256
370
   -1
100
AcDbMText
 10
117.9
 20
89.5
 30
0
 40
1
 41
4.222222222222222
 71
    1
 72
    1
  1
M2x0.4
  7

210
0
220
0
230
1
 50
0
 73
    2
 44
1
  0
INSERT
  5
371
100
AcDbEntity
  8
0
  6
ByLayer
 62
  256
370
   -1
100
AcDbBlockReference
  2
laser_mount_enc_b
 10
160
 20
70
 30
0
 41
1
 42
1
 43
0
 50
0
 70
    1
 71
    1
 44
1
 45
1
  0
INSERT
  5
372
100
AcDbEntity
  8
0
  6
ByLayer
 62
  256
370
   -1
100
AcDbBlockReference
  2
laser_mount_enc_f
 10
160
 20
10
 30
0
 41
1
 42
1
 43
0
 50
0
 70
    1
 71
    1
 44
1
 45
1
  0
DIMENSION
  5
373
100
AcDbEntity
  8
dims
  6
ByLayer
 62
  256
370
   -1
100
AcDbDimension
  2
*D27
 10
171
 20
49
 30
0
 11
160
 21
50.5
 31
0
 70
   32
 71
    5
  3
Standard
 53
0
210
0
220
0
230
1
100
AcDbAlignedDimension
 13
149
 23
69
 33
0
 14
171
 24
69
 34
0
100
AcDbRotatedDimension
  0
DIMENSION
  5
374
100
AcDbEntity
  8
dims
  6
ByLayer
 62
  256
370
   -1
100
AcDbDimension
  2
*D28
 10
160
 20
52
 30
0
 11
156
 21
53.5
 31
0
 70
   32
 71
    5
  3
Standard
 53
0
210
0
220
0
230
1
100
AcDbAlignedDimension
 13
152
 23
69
 33
0
 14
160
 24
69
 34
0
100
AcDbRotatedDimension
  0
LEADER
  5
375
100
AcDbEntity
  8
dims
  6
ByLayer
 62
  256
370
   -1
100
AcDbLeader
  3
Standard
 71
    1
 72
    0
 73
    3
 74
    0
 75
    0
 40
1
 41
10
 76
0
 76
0
  0
INSERT
  5
376
100
AcDbEntity
  8
0
  6
ByLayer
 62
  256
370
   -1
100
AcDbBlockReference
  2
laser_mount_nad_s
 10
280
 20
70
 30
0
 41
1
 42
1
 43
0
 50
0
 70
    1
 71
    1
 44
0
 45
0
  0
INSERT
  5
377
100
AcDbEntity
  8
0
  6
ByLayer
 62
  256
370
   -1
100
AcDbBlockReference
  2
laser_mount_nad_f
 10
250
 20
10
 30
0
 41
1
 42
1
 43
0
 50
0
 70
    1
 71
    1
 44
0
 45
0
  0
INSERT
  5
378
100
AcDbEntity
  8
0
  6
ByLayer
 62
  256
370
   -1
100
AcDbBlockReference
  2
laser_mount_nad_b
 10
250
 20
70
 30
0
 41
1
 42
1
 43
0
 50
0
 70
    1
 71
    1
 44
0
 45
0
  0
DIMENSION
  5
379
100
AcDbEntity
  8
dims
  6
ByLayer
 62
  256
370
   -1
100
AcDbDimension
  2
*D30
 10
137
 20
74
 30
0
 11
135.5
 21
71
 31
0
 70
   32
 71
    5
  3
Standard
 53
0
210
0
220
0
230
1
100
AcDbAlignedDimension
 13
148
 23
70
 33
0
 14
148
 24
72
 34
0
 50
90
100
AcDbRotatedDimension
  0
DIMENSION
  5
37A
100
AcDbEntity
  8
dims
  6
ByLayer
 62
  256
370
   -1
100
AcDbDimension
  2
*D31
 10
140
 20
77
 30
0
 11
138.5
 21
74.5
 31
0
 70
   32
 71
    5
  3
Standard
 53
0
210
0
220
0
230
1
100
AcDbAlignedDimension
 13
148
 23
72
 33
0
 14
154
 24
77
 34
0
 50
90
100
AcDbRotatedDimension
  0
DIMENSION
  5
37B
100
AcDbEntity
  8
dims
  6
ByLayer
 62
  256
370
   -1
100
AcDbDimension
  2
*D32
 10
137
 20
79
 30
0
 11
135.5
 21
78
 31
0
 70
   32
 71
    5
  3
Standard
 53
0
210
0
220
0
230
1
100
AcDbAlignedDimension
 13
154
 23
77
 33
0
 14
156
 24
79
 34
0
 50
90
100
AcDbRotatedDimension
  0
DIMENSION
  5
37C
100
AcDbEntity
  8
dims
  6
ByLayer
 62
  256
370
   -1
100
AcDbDimension
  2
*D33
 10
157
 20
97
 30
0
 11
160
 21
98.5
 31
0
 70
   32
 71
    5
  3
Standard
 53
0
210
0
220
0
230
1
100
AcDbAlignedDimension
 13
163
 23
80
 33
0
 14
157
 24
80
 34
0
100
AcDbRotatedDimension
  0
DIMENSION
  5
37D
100
AcDbEntity
  8
dims
  6
ByLayer
 62
  256
370
   -1
100
AcDbDimension
  2
*D34
 10
155
 20
100
 30
0
 11
160
 21
101.5
 31
0
 70
   32
 71
    5
  3
Standard
 53
0
210
0
220
0
230
1
100
AcDbAlignedDimension
 13
165
 23
78
 33
0
 14
155
 24
78
 34
0
100
AcDbRotatedDimension
  0
DIMENSION
  5
37E
100
AcDbEntity
  8
dims
  6
ByLayer
 62
  256
370
   -1
100
AcDbDimension
  2
*D35
 10
182
 20
70
 30
0
 11
180.5
 21
72
 31
0
 70
   32
 71
    5
  3
Standard
 53
0
210
0
220
0
230
1
100
AcDbAlignedDimension
 13
160
 23
74
 33
0
 14
172
 24
70
 34
0
 50
90
100
AcDbRotatedDimension
  0
DIMENSION
  5
37F
100
AcDbEntity
  8
dims
  6
ByLayer
 62
  256
370
   -1
100
AcDbDimension
  2
*D36
 10
155
 20
100
 30
0
 11
152
 21
101.5
 31
0
 70
   32
 71
    5
  3
Standard
 53
0
210
0
220
0
230
1
100
AcDbAlignedDimension
 13
149
 23
73
 33
0
 14
155
 24
79
 34
0
100
AcDbRotatedDimension
  0
MTEXT
  5
380
100
AcDbEntity
  8
dims
  6
ByLayer
 62
  256
370
   -1
100
AcDbMText
 10
141
 20
67.60000000000001
 30
0
 40
1
 41
4.222222222222222
 71
    1
 72
    1
  1
M2x0.4
  7

210
0
220
0
230
1
 50
0
 73
    2
 44
1
  0
MTEXT
  5
381
100
AcDbEntity
  8
dims
  6
ByLayer
 62
  256
370
   -1
100
AcDbMText
 10
173.8
 20
67.5
 30
0
 40
1
 41
4.222222222222222
 71
    1
 72
    1
  1
M2x0.4
  7

210
0
220
0
230
1
 50
0
 73
    2
 44
1
  0
MTEXT
  5
382
100
AcDbEntity
  8
dims
  6
ByLayer
 62
  256
370
   -1
100
AcDbMText
 10
165.8
 20
83.5
 30
0
 40
1
 41
4.222222222222222
 71
    1
 72
    1
  1
M2x0.4
  7

210
0
220
0
230
1
 50
0
 73
    2
 44
1
  0
INSERT
  5
383
100
AcDbEntity
  8
0
  6
ByLayer
 62
  256
370
   -1
100
AcDbBlockReference
  2
laser_mount_enc_s
 10
200
 20
70
 30
0
 41
1
 42
1
 43
0
 50
0
 70
    1
 71
    1
 44
1
 45
1
  0
DIMENSION
  5
384
100
AcDbEntity
  8
dims
  6
ByLayer
 62
  256
370
   -1
100
AcDbDimension
  2
*D37
 10
186
 20
79
 30
0
 11
184.5
 21
74.5
 31
0
 70
   32
 71
    5
  3
Standard
 53
0
210
0
220
0
230
1
100
AcDbAlignedDimension
 13
199
 23
70
 33
0
 14
199
 24
79
 34
0
 50
90
100
AcDbRotatedDimension
  0
DIMENSION
  5
385
100
AcDbEntity
  8
dims
  6
ByLayer
 62
  256
370
   -1
100
AcDbDimension
  2
*D38
 10
189
 20
72
 30
0
 11
187.5
 21
71
 31
0
 70
   32
 71
    5
  3
Standard
 53
0
210
0
220
0
230
1
100
AcDbAlignedDimension
 13
199
 23
70
 33
0
 14
199
 24
72
 34
0
 50
90
100
AcDbRotatedDimension
  0
DIMENSION
  5
386
100
AcDbEntity
  8
dims
  6
ByLayer
 62
  256
370
   -1
100
AcDbDimension
  2
*D39
 10
189
 20
77
 30
0
 11
187.5
 21
78
 31
0
 70
   32
 71
    5
  3
Standard
 53
0
210
0
220
0
230
1
100
AcDbAlignedDimension
 13
199
 23
79
 33
0
 14
199
 24
77
 34
0
 50
90
100
AcDbRotatedDimension
  0
LEADER
  5
387
100
AcDbEntity
  8
dims
  6
ByLayer
 62
  256
370
   -1
100
AcDbLeader
  3
Standard
 71
    1
 72
    0
 73
    3
 74
    0
 75
    0
 40
1
 41
10
 76
3
 76
3
 10
162.7017251643036
 20
75.30410165883215
 30
0
 10
168
 20
78
 30
0
 10
174
 20
78
 30
0
  0
MTEXT
  5
388
100
AcDbEntity
  8
dims
  6
ByLayer
 62
  256
370
   -1
100
AcDbMText
 10
169.9
 20
79.40000000000001
 30
0
 40
1
 41
3.333333333333395
 71
    1
 72
    1
  1
%%C6.00
  7

210
0
220
0
230
1
 50
0
 73
    2
 44
1
  0
MTEXT
  5
389
100
AcDbEntity
  8
dims
  6
ByLayer
 62
  256
370
   -1
100
AcDbMText
 10
207.8
 20
82.5
 30
0
 40
1
 41
4.222222222222222
 71
    1
 72
    1
  1
M2x0.4
  7

210
0
220
0
230
1
 50
0
 73
    2
 44
1
  0
MTEXT
  5
38A
100
AcDbEntity
  8
dims
  6
ByLayer
 62
  256
370
   -1
100
AcDbMText
 10
209.8
 20
67.5
 30
0
 40
1
 41
4.222222222222222
 71
    1
 72
    1
  1
M2x0.4
  7

210
0
220
0
230
1
 50
0
 73
    2
 44
1
  0
DIMENSION
  5
38B
100
AcDbEntity
  8
dims
  6
ByLayer
 62
  256
370
   -1
100
AcDbDimension
  2
*D41
 10
202.5
 20
89
 30
0
 11
201.25
 21
90.5
 31
0
 70
   32
 71
    5
  3
Standard
 53
0
210
0
220
0
230
1
100
AcDbAlignedDimension
 13
200
 23
80
 33
0
 14
202.5
 24
80
 34
0
100
AcDbRotatedDimension
  0
DIMENSION
  5
38C
100
AcDbEntity
  8
dims
  6
ByLayer
 62
  256
370
   -1
100
AcDbDimension
  2
*D42
 10
203
 20
60
 30
0
 11
201.5
 21
61.5
 31
0
 70
   32
 71
    5
  3
Standard
 53
0
210
0
220
0
230
1
100
AcDbAlignedDimension
 13
200
 23
69
 33
0
 14
203
 24
69
 34
0
100
AcDbRotatedDimension
  0
LEADER
  5
38D
100
AcDbEntity
  8
dims
  6
ByLayer
 62
  256
370
   -1
100
AcDbLeader
  3
Standard
 71
    1
 72
    0
 73
    3
 74
    0
 75
    0
 40
1
 41
10
 76
3
 76
3
 10
32.70710678118655
 20
72.70710678118655
 30
0
 10
38
 20
76
 30
0
 10
42
 20
76
 30
0
  0
LEADER
  5
38E
100
AcDbEntity
  8
dims
  6
ByLayer
 62
  256
370
   -1
100
AcDbLeader
  3
Standard
 71
    1
 72
    0
 73
    3
 74
    0
 75
    0
 40
1
 41
10
 76
3
 76
3
 10
47.29289321881345
 20
72.70710678118655
 30
0
 10
42
 20
76
 30
0
 10
38
 20
76
 30
0
  0
MTEXT
  5
38F
100
AcDbEntity
  8
dims
  6
ByLayer
 62
  256
370
   -1
100
AcDbMText
 10
37.9
 20
77.50000000000001
 30
0
 40
1
 41
4.222222222222222
 71
    1
 72
    1
  1
M2x0.4
  7

210
0
220
0
230
1
 50
0
 73
    2
 44
1
  0
LEADER
  5
390
100
AcDbEntity
  8
dims
  6
ByLayer
 62
  256
370
   -1
100
AcDbLeader
  3
Standard
 71
    1
 72
    0
 73
    3
 74
    0
 75
    0
 40
1
 41
10
 76
3
 76
3
 10
10.25
 20
86.3294761860699
 30
0
 10
5
 20
92
 30
0
 10
0
 20
92
 30
0
  0
LINE
  5
391
100
AcDbEntity
  8
dims
  6
ByLayer
 62
  256
370
   -1
100
AcDbLine
 10
32
 20
72.50000000000001
 11
32
 21
71.50000000000001
  0
LINE
  5
392
100
AcDbEntity
  8
dims
  6
ByLayer
 62
  256
370
   -1
100
AcDbLine
 10
32.5
 20
72.00000000000001
 11
31.5
 21
72.00000000000001
  0
DIMENSION
  5
393
100
AcDbEntity
  8
dims
  6
ByLayer
 62
  256
370
   -1
100
AcDbDimension
  2
*D46
 10
53
 20
93
 30
0
 11
46.625
 21
94.5
 31
0
 70
   32
 71
    5
  3
Standard
 53
0
210
0
220
0
230
1
100
AcDbAlignedDimension
 13
40
 23
75
 33
0
 14
53.25
 24
82
 34
0
100
AcDbRotatedDimension
  0
DIMENSION
  5
394
100
AcDbEntity
  8
dims
  6
ByLayer
 62
  256
370
   -1
100
AcDbDimension
  2
*D47
 10
19
 20
57
 30
0
 11
30
 21
58.5
 31
0
 70
   32
 71
    5
  3
Standard
 53
0
210
0
220
0
230
1
100
AcDbAlignedDimension
 13
40
 23
69
 33
0
 14
20
 24
69
 34
0
100
AcDbRotatedDimension
  0
DIMENSION
  5
395
100
AcDbEntity
  8
dims
  6
ByLayer
 62
  256
370
   -1
100
AcDbDimension
  2
*D48
 10
40
 20
61
 30
0
 11
36
 21
62.5
 31
0
 70
   32
 71
    5
  3
Standard
 53
0
210
0
220
0
230
1
100
AcDbAlignedDimension
 13
32
 23
71.2
 33
0
 14
40
 24
69
 34
0
100
AcDbRotatedDimension
  0
LINE
  5
396
100
AcDbEntity
  8
dims
  6
ByLayer
 62
  256
370
   -1
100
AcDbLine
 10
48
 20
72.50000000000001
 11
48
 21
71.50000000000001
  0
LINE
  5
397
100
AcDbEntity
  8
dims
  6
ByLayer
 62
  256
370
   -1
100
AcDbLine
 10
48.5
 20
72.00000000000001
 11
47.5
 21
72.00000000000001
  0
DIMENSION
  5
398
100
AcDbEntity
  8
dims
  6
ByLayer
 62
  256
370
   -1
100
AcDbDimension
  2
*D49
 10
40
 20
61
 30
0
 11
44
 21
62.5
 31
0
 70
   32
 71
    5
  3
Standard
 53
0
210
0
220
0
230
1
100
AcDbAlignedDimension
 13
48
 23
71.20000000000002
 33
0
 14
40
 24
69
 34
0
100
AcDbRotatedDimension
  0
LEADER
  5
399
100
AcDbEntity
  8
dims
  6
ByLayer
 62
  256
370
   -1
100
AcDbLeader
  3
Standard
 71
    1
 72
    0
 73
    3
 74
    0
 75
    0
 40
1
 41
10
 76
3
 76
3
 10
69.75
 20
86.29129159188651
 30
0
 10
75
 20
90
 30
0
 10
80
 20
90
 30
0
  0
LEADER
  5
39A
100
AcDbEntity
  8
dims
  6
ByLayer
 62
  256
370
   -1
100
AcDbLeader
  3
Standard
 71
    1
 72
    0
 73
    3
 74
    0
 75
    0
 40
1
 41
10
 76
3
 76
3
 10
113.4999998210014
 20
85.63431865364538
 30
0
 10
117
 20
88
 30
0
 10
122
 20
88
 30
0
  0
LEADER
  5
39B
100
AcDbEntity
  8
dims
  6
ByLayer
 62
  256
370
   -1
100
AcDbLeader
  3
Standard
 71
    1
 72
    0
 73
    3
 74
    0
 75
    0
 40
1
 41
10
 76
3
 76
3
 10
161
 20
77.86222702495101
 30
0
 10
164
 20
82
 30
0
 10
170
 20
82
 30
0
  0
LEADER
  5
39C
100
AcDbEntity
  8
dims
  6
ByLayer
 62
  256
370
   -1
100
AcDbLeader
  3
Standard
 71
    1
 72
    0
 73
    3
 74
    0
 75
    0
 40
1
 41
10
 76
3
 76
3
 10
151
 20
70.74958559677944
 30
0
 10
146
 20
66
 30
0
 10
141
 20
66
 30
0
  0
LEADER
  5
39D
100
AcDbEntity
  8
dims
  6
ByLayer
 62
  256
370
   -1
100
AcDbLeader
  3
Standard
 71
    1
 72
    0
 73
    3
 74
    0
 75
    0
 40
1
 41
10
 76
3
 76
3
 10
169
 20
70.79668918239646
 30
0
 10
173
 20
66
 30
0
 10
178
 20
66
 30
0
  0
DIMENSION
  5
39E
100
AcDbEntity
  8
dims
  6
ByLayer
 62
  256
370
   -1
100
AcDbDimension
  2
*D55
 10
220
 20
74.50000000000001
 30
0
 11
218.5
 21
70.5
 31
0
 70
   32
 71
    5
  3
Standard
 53
0
210
0
220
0
230
1
100
AcDbAlignedDimension
 13
206
 23
70
 33
0
 14
206
 24
71
 34
0
 50
90
100
AcDbRotatedDimension
  0
DIMENSION
  5
39F
100
AcDbEntity
  8
dims
  6
ByLayer
 62
  256
370
   -1
100
AcDbDimension
  2
*D56
 10
217
 20
71
 30
0
 11
215.5
 21
74
 31
0
 70
   32
  1
%%C6.00
 71
    5
  3
Standard
 53
0
210
0
220
0
230
1
100
AcDbAlignedDimension
 13
206
 23
77
 33
0
 14
206
 24
71
 34
0
 50
90
100
AcDbRotatedDimension
  0
LEADER
  5
3A0
100
AcDbEntity
  8
dims
  6
ByLayer
 62
  256
370
   -1
100
AcDbLeader
  3
Standard
 71
    1
 72
    0
 73
    3
 74
    0
 75
    0
 40
1
 41
10
 76
3
 76
3
 10
203.5
 20
78.29883624994477
 30
0
 10
207
 20
81
 30
0
 10
212
 20
81
 30
0
  0
LEADER
  5
3A1
100
AcDbEntity
  8
dims
  6
ByLayer
 62
  256
370
   -1
100
AcDbLeader
  3
Standard
 71
    1
 72
    0
 73
    3
 74
    0
 75
    0
 40
1
 41
10
 76
3
 76
3
 10
204
 20
70.5932364920137
 30
0
 10
209
 20
66
 30
0
 10
214
 20
66
 30
0
  0
DIMENSION
  5
3A2
100
AcDbEntity
  8
dims
  6
ByLayer
 62
  256
370
   -1
100
AcDbDimension
  2
*D59
 10
205
 20
57
 30
0
 11
202.5
 21
58.5
 31
0
 70
   32
 71
    5
  3
Standard
 53
0
210
0
220
0
230
1
100
AcDbAlignedDimension
 13
200
 23
69
 33
0
 14
205
 24
69
 34
0
100
AcDbRotatedDimension
  0
DIMENSION
  5
3A3
100
AcDbEntity
  8
dims
  6
ByLayer
 62
  256
370
   -1
100
AcDbDimension
  2
*D60
 10
171
 20
-4
 30
0
 11
160
 21
-2.5
 31
0
 70
   32
 71
    5
  3
Standard
 53
0
210
0
220
0
230
1
100
AcDbAlignedDimension
 13
149
 23
9
 33
0
 14
171
 24
9
 34
0
100
AcDbRotatedDimension
  0
DIMENSION
  5
3A4
100
AcDbEntity
  8
dims
  6
ByLayer
 62
  256
370
   -1
100
AcDbDimension
  2
*D61
 10
165
 20
-1
 30
0
 11
160
 21
0.5
 31
0
 70
   32
 71
    5
  3
Standard
 53
0
210
0
220
0
230
1
100
AcDbAlignedDimension
 13
155
 23
9
 33
0
 14
165
 24
9
 34
0
100
AcDbRotatedDimension
  0
DIMENSION
  5
3A5
100
AcDbEntity
  8
dims
  6
ByLayer
 62
  256
370
   -1
100
AcDbDimension
  2
*D62
 10
160
 20
23
 30
0
 11
156
 21
24.5
 31
0
 70
   32
 71
    5
  3
Standard
 53
0
210
0
220
0
230
1
100
AcDbAlignedDimension
 13
152
 23
12.8
 33
0
 14
160
 24
16
 34
0
100
AcDbRotatedDimension
  0
DIMENSION
  5
3A6
100
AcDbEntity
  8
dims
  6
ByLayer
 62
  256
370
   -1
100
AcDbDimension
  2
*D63
 10
168
 20
23
 30
0
 11
164
 21
24.5
 31
0
 70
   32
 71
    5
  3
Standard
 53
0
210
0
220
0
230
1
100
AcDbAlignedDimension
 13
160
 23
16
 33
0
 14
168
 24
12.8
 34
0
100
AcDbRotatedDimension
  0
DIMENSION
  5
3A7
100
AcDbEntity
  8
dims
  6
ByLayer
 62
  256
370
   -1
100
AcDbDimension
  2
*D64
 10
163
 20
2
 30
0
 11
160
 21
3.5
 31
0
 70
   32
  1
%%C6.00
 71
    5
  3
Standard
 53
0
210
0
220
0
230
1
100
AcDbAlignedDimension
 13
157
 23
9
 33
0
 14
163
 24
9
 34
0
100
AcDbRotatedDimension
  0
DIMENSION
  5
3A8
100
AcDbEntity
  8
dims
  6
ByLayer
 62
  256
370
   -1
100
AcDbDimension
  2
*D65
 10
140
 20
10
 30
0
 11
138.5
 21
12.5
 31
0
 70
   32
 71
    5
  3
Standard
 53
0
210
0
220
0
230
1
100
AcDbAlignedDimension
 13
148
 23
15
 33
0
 14
148
 24
10
 34
0
 50
90
100
AcDbRotatedDimension
  0
DIMENSION
  5
3A9
100
AcDbEntity
  8
dims
  6
ByLayer
 62
  256
370
   -1
100
AcDbDimension
  2
*D66
 10
143
 20
15
 30
0
 11
141.5
 21
13.5
 31
0
 70
   32
 71
    5
  3
Standard
 53
0
210
0
220
0
230
1
100
AcDbAlignedDimension
 13
151.2
 23
12
 33
0
 14
147.9
 24
15
 34
0
 50
90
100
AcDbRotatedDimension
  0
LINE
  5
3AA
100
AcDbEntity
  8
dims
  6
ByLayer
 62
  256
370
   -1
100
AcDbLine
 10
152
 20
12.5
 11
152
 21
11.5
  0
LINE
  5
3AB
100
AcDbEntity
  8
dims
  6
ByLayer
 62
  256
370
   -1
100
AcDbLine
 10
152.6
 20
12
 11
151.5
 21
12
  0
LINE
  5
3AC
100
AcDbEntity
  8
dims
  6
ByLayer
 62
  256
370
   -1
100
AcDbLine
 10
160
 20
13
 11
160
 21
12
  0
LINE
  5
3AD
100
AcDbEntity
  8
dims
  6
ByLayer
 62
  256
370
   -1
100
AcDbLine
 10
160.5
 20
12.5
 11
159.5
 21
12.5
  0
LINE
  5
3AE
100
AcDbEntity
  8
dims
  6
ByLayer
 62
  256
370
   -1
100
AcDbLine
 10
168
 20
12.5
 11
168
 21
11.5
  0
LINE
  5
3AF
100
AcDbEntity
  8
dims
  6
ByLayer
 62
  256
370
   -1
100
AcDbLine
 10
168.5
 20
12
 11
167.5
 21
12
  0
DIMENSION
  5
3B0
100
AcDbEntity
  8
dims
  6
ByLayer
 62
  256
370
   -1
100
AcDbDimension
  2
*D67
 10
180
 20
15
 30
0
 11
178.5
 21
13.75
 31
0
 70
   32
 71
    5
  3
Standard
 53
0
210
0
220
0
230
1
100
AcDbAlignedDimension
 13
160.8
 23
12.5
 33
0
 14
172
 24
15
 34
0
 50
90
100
AcDbRotatedDimension
  0
ENDSEC
  0
SECTION
  2
OBJECTS
  0
DICTIONARY
  5
C
330
0
100
AcDbDictionary
281
    1
  3
ACAD_GROUP
350
D
  0
DICTIONARY
  5
D
330
C
100
AcDbDictionary
281
    1
  0
ENDSEC
  0
EOF
