999
dxfrw 0.6.3
  0
SECTION
  2
HEADER
  9
$ACADVER
  1
AC1021
  9
$DWGCODEPAGE
  3
ANSI_1252
  9
$INSBASE
 10
0
 20
0
 30
0
  9
$EXTMIN
 10
0.5
 20
0.5
 30
0
  9
$EXTMAX
 10
2
 20
2.5
 30
0
  9
$LIMMIN
 10
0
 20
0
  9
$LIMMAX
 10
420
 20
297
  9
$ORTHOMODE
 70
    0
  9
$REGENMODE
 70
    1
  9
$FILLMODE
 70
    1
  9
$QTEXTMODE
 70
    0
  9
$MIRRTEXT
 70
    0
  9
$LTSCALE
 40
1
  9
$ATTMODE
 70
    0
  9
$TEXTSIZE
 40
2.5
  9
$TRACEWID
 40
15.68
  9
$TEXTSTYLE
  7
STANDARD
  9
$CLAYER
  8
const
  9
$CELTYPE
  6
BYLAYER
  9
$CECOLOR
 62
  256
  9
$CELTSCALE
 40
1
  9
$DISPSILH
 70
    0
  9
$DIMSCALE
 40
1
  9
$DIMASZ
 40
0.01
  9
$DIMEXO
 40
0.01
  9
$DIMDLI
 40
3.75
  9
$DIMRND
 40
0
  9
$DIMDLE
 40
0
  9
$DIMEXE
 40
0.02
  9
$DIMTP
 40
0
  9
$DIMTM
 40
0
  9
$DIMTXT
 40
0.02
  9
$DIMCEN
 40
2.5
  9
$DIMTSZ
 40
0
  9
$DIMTOL
 70
    0
  9
$DIMLIM
 70
    0
  9
$DIMTIH
 70
    0
  9
$DIMTOH
 70
    0
  9
$DIMSE1
 70
    0
  9
$DIMSE2
 70
    0
  9
$DIMTAD
 70
    1
  9
$DIMZIN
 70
    1
  9
$DIMBLK
  1

  9
$DIMASO
 70
    1
  9
$DIMSHO
 70
    1
  9
$DIMPOST
  1

  9
$DIMAPOST
  1

  9
$DIMALT
 70
    0
  9
$DIMALTD
 70
    3
  9
$DIMALTF
 40
0.03937
  9
$DIMLFAC
 40
1
  9
$DIMTOFL
 70
    1
  9
$DIMTVP
 40
0
  9
$DIMTIX
 70
    0
  9
$DIMSOXD
 70
    0
  9
$DIMSAH
 70
    0
  9
$DIMBLK1
  1

  9
$DIMBLK2
  1

  9
$DIMSTYLE
  2
STANDARD
  9
$DIMCLRD
 70
    0
  9
$DIMCLRE
 70
    0
  9
$DIMCLRT
 70
    0
  9
$DIMTFAC
 40
1
  9
$DIMGAP
 40
0.01
  9
$DIMJUST
 70
    0
  9
$DIMSD1
 70
    0
  9
$DIMSD2
 70
    0
  9
$DIMTOLJ
 70
    0
  9
$DIMTZIN
 70
    8
  9
$DIMALTZ
 70
    0
  9
$DIMALTTZ
 70
    0
  9
$DIMUPT
 70
    0
  9
$DIMDEC
 70
    3
  9
$DIMTDEC
 70
    2
  9
$DIMALTU
 70
    2
  9
$DIMALTTD
 70
    3
  9
$DIMTXSTY
  7
standard
  9
$DIMAUNIT
 70
    0
  9
$DIMADEC
 70
    2
  9
$DIMALTRND
 40
0
  9
$DIMAZIN
 70
    0
  9
$DIMDSEP
 70
    0
  9
$DIMATFIT
 70
    3
  9
$DIMFRAC
 70
    0
  9
$DIMLDRBLK
  1
STANDARD
  9
$DIMLUNIT
 70
    2
  9
$DIMLWD
 70
   -2
  9
$DIMLWE
 70
   -2
  9
$DIMTMOVE
 70
    0
  9
$DIMFXL
 40
1
  9
$DIMFXLON
 70
    0
  9
$DIMJOGANG
 40
0.7854
  9
$DIMTFILL
 70
    0
  9
$DIMTFILLCLR
 70
    0
  9
$DIMARCSYM
 70
    0
  9
$DIMLTYPE
  6

  9
$DIMLTEX1
  6

  9
$DIMLTEX2
  6

  9
$LUNITS
 70
    2
  9
$LUPREC
 70
    3
  9
$SKETCHINC
 40
1
  9
$FILLETRAD
 40
0
  9
$AUNITS
 70
    0
  9
$AUPREC
 70
    2
  9
$MENU
  1
.
  9
$ELEVATION
 40
0
  9
$PELEVATION
 40
0
  9
$THICKNESS
 40
0
  9
$LIMCHECK
 70
    0
  9
$CHAMFERA
 40
0
  9
$CHAMFERB
 40
0
  9
$CHAMFERC
 40
0
  9
$CHAMFERD
 40
0
  9
$SKPOLY
 70
    0
  9
$USRTIMER
 70
    1
  9
$ANGBASE
 50
0
  9
$ANGDIR
 70
    0
  9
$PDMODE
 70
   34
  9
$PDSIZE
 40
0
  9
$PLINEWID
 40
0
  9
$SPLFRAME
 70
    0
  9
$SPLINETYPE
 70
    2
  9
$SPLINESEGS
 70
    8
  9
$HANDSEED
  5
20000
  9
$SURFTAB1
 70
    6
  9
$SURFTAB2
 70
    6
  9
$SURFTYPE
 70
    6
  9
$SURFU
 70
    6
  9
$SURFV
 70
    6
  9
$UCSBASE
  2

  9
$UCSNAME
  2

  9
$UCSORG
 10
0
 20
0
 30
0
  9
$UCSXDIR
 10
1
 20
0
 30
0
  9
$UCSYDIR
 10
0
 20
1
 30
0
  9
$UCSORTHOREF
  2

  9
$UCSORTHOVIEW
 70
    0
  9
$UCSORGTOP
 10
0
 20
0
 30
0
  9
$UCSORGBOTTOM
 10
0
 20
0
 30
0
  9
$UCSORGLEFT
 10
0
 20
0
 30
0
  9
$UCSORGRIGHT
 10
0
 20
0
 30
0
  9
$UCSORGFRONT
 10
0
 20
0
 30
0
  9
$UCSORGBACK
 10
0
 20
0
 30
0
  9
$PUCSBASE
  2

  9
$PUCSNAME
  2

  9
$PUCSORG
 10
0
 20
0
 30
0
  9
$PUCSXDIR
 10
1
 20
0
 30
0
  9
$PUCSYDIR
 10
0
 20
1
 30
0
  9
$PUCSORTHOREF
  2

  9
$PUCSORTHOVIEW
 70
    0
  9
$PUCSORGTOP
 10
0
 20
0
 30
0
  9
$PUCSORGBOTTOM
 10
0
 20
0
 30
0
  9
$PUCSORGLEFT
 10
0
 20
0
 30
0
  9
$PUCSORGRIGHT
 10
0
 20
0
 30
0
  9
$PUCSORGFRONT
 10
0
 20
0
 30
0
  9
$PUCSORGBACK
 10
0
 20
0
 30
0
  9
$USERI1
 70
    0
  9
$USERI2
 70
    0
  9
$USERI3
 70
    0
  9
$USERI4
 70
    0
  9
$USERI5
 70
    0
  9
$USERR1
 40
0
  9
$USERR2
 40
0
  9
$USERR3
 40
0
  9
$USERR4
 40
0
  9
$USERR5
 40
0
  9
$WORLDVIEW
 70
    1
  9
$SHADEDGE
 70
    3
  9
$SHADEDIF
 70
   70
  9
$TILEMODE
 70
    1
  9
$MAXACTVP
 70
   64
  9
$PINSBASE
 10
-2.009842519685039
 20
-2.011811023622047
 30
0
  9
$PLIMCHECK
 70
    0
  9
$PEXTMIN
 10
0
 20
0
 30
0
  9
$PEXTMAX
 10
0
 20
0
 30
0
  9
$GRIDMODE
 70
    1
  9
$SNAPSTYLE
 70
    0
  9
$GRIDUNIT
 10
0
 20
0
  9
$PLIMMIN
 10
0
 20
0
  9
$PLIMMAX
 10
8.5
 20
11
  9
$UNITMODE
 70
    0
  9
$VISRETAIN
 70
    1
  9
$PLINEGEN
 70
    0
  9
$PSLTSCALE
 70
    1
  9
$TREEDEPTH
 70
 3020
  9
$CMLSTYLE
  2
Standard
  9
$CMLJUST
 70
    0
  9
$CMLSCALE
 40
20
  9
$PROXYGRAPHICS
 70
    1
  9
$MEASUREMENT
 70
    1
  9
$CELWEIGHT
370
   -1
  9
$ENDCAPS
280
    0
  9
$JOINSTYLE
280
    0
  9
$LWDISPLAY
290
    0
  9
$INSUNITS
 70
    1
  9
$HYPERLINKBASE
  1

  9
$STYLESHEET
  1

  9
$XEDIT
290
    1
  9
$CEPSNTYPE
380
    0
  9
$PSTYLEMODE
290
    1
  9
$EXTNAMES
290
    1
  9
$PSVPSCALE
 40
5.00787
  9
$OLESTARTUP
290
    0
  9
$SORTENTS
280
  127
  9
$INDEXCTL
280
    0
  9
$HIDETEXT
280
    1
  9
$XCLIPFRAME
290
    0
  9
$HALOGAP
280
    0
  9
$OBSCOLOR
 70
  257
  9
$OBSLTYPE
280
    0
  9
$INTERSECTIONDISPLAY
280
    0
  9
$INTERSECTIONCOLOR
 70
  257
  9
$DIMASSOC
280
    1
  9
$PROJECTNAME
  1

  9
$CAMERADISPLAY
290
    0
  9
$LENSLENGTH
 40
50
  9
$CAMERAHEIGHT
 40
0
  9
$STEPSPERSEC
 40
2
  9
$STEPSIZE
 40
50
  9
$3DDWFPREC
 40
2
  9
$PSOLWIDTH
 40
5
  9
$PSOLHEIGHT
 40
80
  9
$LOFTANG1
 40
1.570796326794897
  9
$LOFTANG2
 40
1.570796326794897
  9
$LOFTMAG1
 40
0
  9
$LOFTMAG2
 40
0
  9
$LOFTPARAM
 70
    7
  9
$LOFTNORMALS
280
    1
  9
$LATITUDE
 40
1
  9
$LONGITUDE
 40
1
  9
$NORTHDIRECTION
 40
0
  9
$TIMEZONE
 70
-8000
  9
$LIGHTGLYPHDISPLAY
280
    1
  9
$TILEMODELIGHTSYNCH
280
    1
  9
$SOLIDHIST
280
    1
  9
$SHOWHIST
280
    1
  9
$DWFFRAME
280
    2
  9
$DGNFRAME
280
    0
  9
$REALWORLDSCALE
290
    1
  9
$INTERFERECOLOR
 62
    1
  9
$CSHADOW
280
    0
  9
$SHADOWPLANELOCATION
 40
0
  0
ENDSEC
  0
SECTION
  2
CLASSES
  0
ENDSEC
  0
SECTION
  2
TABLES
  0
TABLE
  2
VPORT
  5
8
330
0
100
AcDbSymbolTable
 70
    1
  0
VPORT
  5
31
330
2
100
AcDbSymbolTableRecord
100
AcDbViewportTableRecord
  2
*ACTIVE
 70
    0
 10
0
 20
0
 11
1
 21
1
 12
1.744079166190031
 22
1.267509115984701
 13
0
 23
0
 14
10
 24
10
 15
10
 25
10
 16
0
 26
0
 36
1
 17
0
 27
0
 37
0
 40
2.252420553075716
 41
1.654046028210839
 42
50
 43
0
 44
0
 50
0
 51
0
 71
    0
 72
  100
 73
    1
 74
    3
 75
    0
 76
    1
 77
    0
 78
    0
281
    0
 65
    1
110
0
120
0
130
0
111
1
121
0
131
0
112
0
122
1
132
0
 79
    0
146
0
348
10020
 60
    7
 61
    5
292
1
282
    1
141
0
142
0
 63
  250
421
3358443
  0
ENDTAB
  0
TABLE
  2
LTYPE
  5
5
330
0
100
AcDbSymbolTable
 70
    4
  0
LTYPE
  5
14
330
5
100
AcDbSymbolTableRecord
100
AcDbLinetypeTableRecord
  2
ByBlock
 70
    0
  3

 72
   65
 73
    0
 40
0
  0
LTYPE
  5
15
330
5
100
AcDbSymbolTableRecord
100
AcDbLinetypeTableRecord
  2
ByLayer
 70
    0
  3

 72
   65
 73
    0
 40
0
  0
LTYPE
  5
16
330
5
100
AcDbSymbolTableRecord
100
AcDbLinetypeTableRecord
  2
Continuous
 70
    0
  3
Solid line
 72
   65
 73
    0
 40
0
  0
LTYPE
  5
32
330
5
100
AcDbSymbolTableRecord
100
AcDbLinetypeTableRecord
  2
DOT
 70
    0
  3
Dot . . . . . . . . . . . . . . . . . . . . . .
 72
   65
 73
    2
 40
6.35
 49
0
 74
    0
 49
-6.35
 74
    0
  0
LTYPE
  5
33
330
5
100
AcDbSymbolTableRecord
100
AcDbLinetypeTableRecord
  2
DOTTINY
 70
    0
  3
Dot (.15x) .....................................
 72
   65
 73
    2
 40
0.9525
 49
0
 74
    0
 49
-0.9525
 74
    0
  0
LTYPE
  5
34
330
5
100
AcDbSymbolTableRecord
100
AcDbLinetypeTableRecord
  2
DOT2
 70
    0
  3
Dot (.5x) .....................................
 72
   65
 73
    2
 40
3.175
 49
0
 74
    0
 49
-3.175
 74
    0
  0
LTYPE
  5
35
330
5
100
AcDbSymbolTableRecord
100
AcDbLinetypeTableRecord
  2
DOTX2
 70
    0
  3
Dot (2x) .  .  .  .  .  .  .  .  .  .  .  .  .
 72
   65
 73
    2
 40
12.7
 49
0
 74
    0
 49
-12.7
 74
    0
  0
LTYPE
  5
36
330
5
100
AcDbSymbolTableRecord
100
AcDbLinetypeTableRecord
  2
DASHED
 70
    0
  3
Dashed _ _ _ _ _ _ _ _ _ _ _ _ _ _ _ _ _
 72
   65
 73
    2
 40
19.05
 49
12.7
 74
    0
 49
-6.35
 74
    0
  0
LTYPE
  5
37
330
5
100
AcDbSymbolTableRecord
100
AcDbLinetypeTableRecord
  2
DASHEDTINY
 70
    0
  3
Dashed (.15x) _ _ _ _ _ _ _ _ _ _ _ _ _ _ _ _ _
 72
   65
 73
    2
 40
2.8575
 49
1.905
 74
    0
 49
-0.9525
 74
    0
  0
LTYPE
  5
38
330
5
100
AcDbSymbolTableRecord
100
AcDbLinetypeTableRecord
  2
DASHED2
 70
    0
  3
Dashed (.5x) _ _ _ _ _ _ _ _ _ _ _ _ _ _ _ _ _
 72
   65
 73
    2
 40
9.524999999999999
 49
6.35
 74
    0
 49
-3.175
 74
    0
  0
LTYPE
  5
39
330
5
100
AcDbSymbolTableRecord
100
AcDbLinetypeTableRecord
  2
DASHEDX2
 70
    0
  3
Dashed (2x) ____  ____  ____  ____  ____  ___
 72
   65
 73
    2
 40
38.09999999999999
 49
25.4
 74
    0
 49
-12.7
 74
    0
  0
LTYPE
  5
3A
330
5
100
AcDbSymbolTableRecord
100
AcDbLinetypeTableRecord
  2
DASHDOT
 70
    0
  3
Dash dot __ . __ . __ . __ . __ . __ . __ . __
 72
   65
 73
    4
 40
25.4
 49
12.7
 74
    0
 49
-6.35
 74
    0
 49
0
 74
    0
 49
-6.35
 74
    0
  0
LTYPE
  5
3B
330
5
100
AcDbSymbolTableRecord
100
AcDbLinetypeTableRecord
  2
DASHDOTTINY
 70
    0
  3
Dash dot (.15x) _._._._._._._._._._._._._._._.
 72
   65
 73
    4
 40
3.81
 49
1.905
 74
    0
 49
-0.9525
 74
    0
 49
0
 74
    0
 49
-0.9525
 74
    0
  0
LTYPE
  5
3C
330
5
100
AcDbSymbolTableRecord
100
AcDbLinetypeTableRecord
  2
DASHDOT2
 70
    0
  3
Dash dot (.5x) _._._._._._._._._._._._._._._.
 72
   65
 73
    4
 40
12.7
 49
6.35
 74
    0
 49
-3.175
 74
    0
 49
0
 74
    0
 49
-3.175
 74
    0
  0
LTYPE
  5
3D
330
5
100
AcDbSymbolTableRecord
100
AcDbLinetypeTableRecord
  2
DASHDOTX2
 70
    0
  3
Dash dot (2x) ____  .  ____  .  ____  .  ___
 72
   65
 73
    4
 40
50.8
 49
25.4
 74
    0
 49
-12.7
 74
    0
 49
0
 74
    0
 49
-12.7
 74
    0
  0
LTYPE
  5
3E
330
5
100
AcDbSymbolTableRecord
100
AcDbLinetypeTableRecord
  2
DIVIDE
 70
    0
  3
Divide ____ . . ____ . . ____ . . ____ . . ____
 72
   65
 73
    6
 40
31.75
 49
12.7
 74
    0
 49
-6.35
 74
    0
 49
0
 74
    0
 49
-6.35
 74
    0
 49
0
 74
    0
 49
-6.35
 74
    0
  0
LTYPE
  5
3F
330
5
100
AcDbSymbolTableRecord
100
AcDbLinetypeTableRecord
  2
DIVIDETINY
 70
    0
  3
Divide (.15x) __..__..__..__..__..__..__..__.._
 72
   65
 73
    6
 40
4.7625
 49
1.905
 74
    0
 49
-0.9525
 74
    0
 49
0
 74
    0
 49
-0.9525
 74
    0
 49
0
 74
    0
 49
-0.9525
 74
    0
  0
LTYPE
  5
40
330
5
100
AcDbSymbolTableRecord
100
AcDbLinetypeTableRecord
  2
DIVIDE2
 70
    0
  3
Divide (.5x) __..__..__..__..__..__..__..__.._
 72
   65
 73
    6
 40
15.875
 49
6.35
 74
    0
 49
-3.175
 74
    0
 49
0
 74
    0
 49
-3.175
 74
    0
 49
0
 74
    0
 49
-3.175
 74
    0
  0
LTYPE
  5
41
330
5
100
AcDbSymbolTableRecord
100
AcDbLinetypeTableRecord
  2
DIVIDEX2
 70
    0
  3
Divide (2x) ________  .  .  ________  .  .  _
 72
   65
 73
    6
 40
63.5
 49
25.4
 74
    0
 49
-12.7
 74
    0
 49
0
 74
    0
 49
-12.7
 74
    0
 49
0
 74
    0
 49
-12.7
 74
    0
  0
LTYPE
  5
42
330
5
100
AcDbSymbolTableRecord
100
AcDbLinetypeTableRecord
  2
BORDER
 70
    0
  3
Border __ __ . __ __ . __ __ . __ __ . __ __ .
 72
   65
 73
    6
 40
44.45
 49
12.7
 74
    0
 49
-6.35
 74
    0
 49
12.7
 74
    0
 49
-6.35
 74
    0
 49
0
 74
    0
 49
-6.35
 74
    0
  0
LTYPE
  5
43
330
5
100
AcDbSymbolTableRecord
100
AcDbLinetypeTableRecord
  2
BORDERTINY
 70
    0
  3
Border (.15x) __.__.__.__.__.__.__.__.__.__.__.
 72
   65
 73
    6
 40
6.6675
 49
1.905
 74
    0
 49
-0.9525
 74
    0
 49
1.905
 74
    0
 49
-0.9525
 74
    0
 49
0
 74
    0
 49
-0.9525
 74
    0
  0
LTYPE
  5
44
330
5
100
AcDbSymbolTableRecord
100
AcDbLinetypeTableRecord
  2
BORDER2
 70
    0
  3
Border (.5x) __.__.__.__.__.__.__.__.__.__.__.
 72
   65
 73
    6
 40
22.225
 49
6.35
 74
    0
 49
-3.175
 74
    0
 49
6.35
 74
    0
 49
-3.175
 74
    0
 49
0
 74
    0
 49
-3.175
 74
    0
  0
LTYPE
  5
45
330
5
100
AcDbSymbolTableRecord
100
AcDbLinetypeTableRecord
  2
BORDERX2
 70
    0
  3
Border (2x) ____  ____  .  ____  ____  .  ___
 72
   65
 73
    6
 40
88.89999999999999
 49
25.4
 74
    0
 49
-12.7
 74
    0
 49
25.4
 74
    0
 49
-12.7
 74
    0
 49
0
 74
    0
 49
-12.7
 74
    0
  0
LTYPE
  5
46
330
5
100
AcDbSymbolTableRecord
100
AcDbLinetypeTableRecord
  2
CENTER
 70
    0
  3
Center ____ _ ____ _ ____ _ ____ _ ____ _ ____
 72
   65
 73
    4
 40
50.8
 49
31.75
 74
    0
 49
-6.35
 74
    0
 49
6.35
 74
    0
 49
-6.35
 74
    0
  0
LTYPE
  5
47
330
5
100
AcDbSymbolTableRecord
100
AcDbLinetypeTableRecord
  2
CENTERTINY
 70
    0
  3
Center (.15x) ___ _ ___ _ ___ _ ___ _ ___ _ ___
 72
   65
 73
    4
 40
7.619999999999999
 49
4.7625
 74
    0
 49
-0.9525
 74
    0
 49
0.9525
 74
    0
 49
-0.9525
 74
    0
  0
LTYPE
  5
48
330
5
100
AcDbSymbolTableRecord
100
AcDbLinetypeTableRecord
  2
CENTER2
 70
    0
  3
Center (.5x) ___ _ ___ _ ___ _ ___ _ ___ _ ___
 72
   65
 73
    4
 40
28.575
 49
19.05
 74
    0
 49
-3.175
 74
    0
 49
3.175
 74
    0
 49
-3.175
 74
    0
  0
LTYPE
  5
49
330
5
100
AcDbSymbolTableRecord
100
AcDbLinetypeTableRecord
  2
CENTERX2
 70
    0
  3
Center (2x) ________  __  ________  __  _____
 72
   65
 73
    4
 40
101.6
 49
63.5
 74
    0
 49
-12.7
 74
    0
 49
12.7
 74
    0
 49
-12.7
 74
    0
  0
ENDTAB
  0
TABLE
  2
LAYER
  5
2
330
0
100
AcDbSymbolTable
 70
    1
  0
LAYER
  5
10
330
2
100
AcDbSymbolTableRecord
100
AcDbLayerTableRecord
  2
0
 70
    0
 62
    7
  6
CONTINUOUS
370
    0
390
F
  0
LAYER
  5
4A
330
2
100
AcDbSymbolTableRecord
100
AcDbLayerTableRecord
  2
const
 70
    0
 62
    7
  6
CONTINUOUS
370
    0
390
F
1001
LibreCad
1070
    1
  0
LAYER
  5
4B
330
2
100
AcDbSymbolTableRecord
100
AcDbLayerTableRecord
  2
hidden
 70
    0
 62
    7
  6
DASHEDTINY
370
    0
390
F
  0
LAYER
  5
4C
330
2
100
AcDbSymbolTableRecord
100
AcDbLayerTableRecord
  2
noname
 70
    0
 62
    6
  6
CONTINUOUS
370
    0
390
F
  0
ENDTAB
  0
TABLE
  2
STYLE
  5
3
330
0
100
AcDbSymbolTable
 70
    3
  0
STYLE
  5
4D
330
2
100
AcDbSymbolTableRecord
100
AcDbTextStyleTableRecord
  2
STANDARD
 70
    0
 40
0
 41
1
 50
0
 71
    0
 42
1
  3
STANDARD
  4

  0
ENDTAB
  0
TABLE
  2
VIEW
  5
6
330
0
100
AcDbSymbolTable
 70
    0
  0
ENDTAB
  0
TABLE
  2
UCS
  5
7
330
0
100
AcDbSymbolTable
 70
    0
  0
ENDTAB
  0
TABLE
  2
APPID
  5
9
330
0
100
AcDbSymbolTable
 70
    1
  0
APPID
  5
12
330
9
100
AcDbSymbolTableRecord
100
AcDbRegAppTableRecord
  2
ACAD
 70
    0
  0
APPID
  5
4E
330
9
100
AcDbSymbolTableRecord
100
AcDbRegAppTableRecord
  2
LibreCad
 70
    0
  0
ENDTAB
  0
TABLE
  2
DIMSTYLE
  5
A
330
0
100
AcDbSymbolTable
 70
    1
100
AcDbDimStyleTable
 71
    1
  0
DIMSTYLE
105
4F
330
A
100
AcDbSymbolTableRecord
100
AcDbDimStyleTableRecord
  2
Standard
 70
    0
 40
1
 41
0.01
 42
0.01
 43
0.38
 44
0.02
 45
0
 46
0
 47
0
 48
0
 49
1
140
0.02
141
0.09
142
0
143
25.4
144
1
145
0
146
1
147
0.01
148
0
 71
    0
 72
    0
 73
    0
 74
    1
 75
    0
 76
    0
 77
    0
 78
    1
 79
    0
170
    0
171
    2
172
    0
173
    0
174
    0
175
    0
176
    0
177
    0
178
    0
179
    2
271
    3
272
    4
273
    2
274
    2
275
    0
276
    0
277
    2
278
    0
279
    0
280
    0
281
    0
282
    0
283
    1
284
    0
285
    0
286
    0
288
    0
289
    3
340
standard
341

371
   -2
372
   -2
  0
ENDTAB
  0
TABLE
  2
BLOCK_RECORD
  5
1
330
0
100
AcDbSymbolTable
 70
    2
  0
BLOCK_RECORD
  5
1F
330
1
100
AcDbSymbolTableRecord
100
AcDbBlockTableRecord
  2
*Model_Space
 70
    0
280
    1
281
    0
  0
BLOCK_RECORD
  5
1E
330
1
100
AcDbSymbolTableRecord
100
AcDbBlockTableRecord
  2
*Paper_Space
 70
    0
280
    1
281
    0
  0
BLOCK_RECORD
  5
50
330
1
100
AcDbSymbolTableRecord
100
AcDbBlockTableRecord
  2
*D3
 70
    0
280
    1
281
    0
  0
BLOCK_RECORD
  5
53
330
1
100
AcDbSymbolTableRecord
100
AcDbBlockTableRecord
  2
*D8
 70
    0
280
    1
281
    0
  0
BLOCK_RECORD
  5
56
330
1
100
AcDbSymbolTableRecord
100
AcDbBlockTableRecord
  2
*D4
 70
    0
280
    1
281
    0
  0
BLOCK_RECORD
  5
59
330
1
100
AcDbSymbolTableRecord
100
AcDbBlockTableRecord
  2
*D6
 70
    0
280
    1
281
    0
  0
BLOCK_RECORD
  5
5C
330
1
100
AcDbSymbolTableRecord
100
AcDbBlockTableRecord
  2
*D1
 70
    0
280
    1
281
    0
  0
BLOCK_RECORD
  5
5F
330
1
100
AcDbSymbolTableRecord
100
AcDbBlockTableRecord
  2
*D5
 70
    0
280
    1
281
    0
  0
BLOCK_RECORD
  5
62
330
1
100
AcDbSymbolTableRecord
100
AcDbBlockTableRecord
  2
*D2
 70
    0
280
    1
281
    0
  0
BLOCK_RECORD
  5
65
330
1
100
AcDbSymbolTableRecord
100
AcDbBlockTableRecord
  2
*D7
 70
    0
280
    1
281
    0
  0
BLOCK_RECORD
  5
68
330
1
100
AcDbSymbolTableRecord
100
AcDbBlockTableRecord
  2
*D9
 70
    0
280
    1
281
    0
  0
ENDTAB
  0
ENDSEC
  0
SECTION
  2
BLOCKS
  0
BLOCK
  5
20
330
1F
100
AcDbEntity
  8
0
100
AcDbBlockBegin
  2
*Model_Space
 70
    0
 10
0
 20
0
 30
0
  3
*Model_Space
  1

  0
ENDBLK
  5
21
330
1F
100
AcDbEntity
  8
0
100
AcDbBlockEnd
  0
BLOCK
  5
1C
330
1B
100
AcDbEntity
  8
0
100
AcDbBlockBegin
  2
*Paper_Space
 70
    0
 10
0
 20
0
 30
0
  3
*Paper_Space
  1

  0
ENDBLK
  5
1D
330
1F
100
AcDbEntity
  8
0
100
AcDbBlockEnd
  0
BLOCK
  5
51
330
50
100
AcDbEntity
  8
0
100
AcDbBlockBegin
  2
*D3
 70
    1
 10
0
 20
0
  3
*D3
  1

  0
LINE
  5
6B
100
AcDbEntity
  8
0
  6
ByBlock
 62
    0
370
   -2
100
AcDbLine
 10
1
 20
1.04
 11
1.1
 21
1.04
  0
SOLID
  5
6C
100
AcDbEntity
  8
0
  6
ByBlock
 62
    0
370
   -2
100
AcDbTrace
 10
1
 20
1.04
 30
0
 11
1.01
 21
1.041665138631091
 31
0
 12
1.01
 22
1.038334861368909
 32
0
 13
1.01
 23
1.038334861368909
 33
0
  0
SOLID
  5
6D
100
AcDbEntity
  8
0
  6
ByBlock
 62
    0
370
   -2
100
AcDbTrace
 10
1.1
 20
1.04
 30
0
 11
1.09
 21
1.038334861368909
 31
0
 12
1.09
 22
1.041665138631091
 32
0
 13
1.09
 23
1.041665138631091
 33
0
  0
MTEXT
  5
6E
100
AcDbEntity
  8
0
  6
CONTINUOUS
 62
    0
370
   -2
100
AcDbMText
 10
1.05
 20
1.06
 30
0
 40
0.02
 41
0.05777777777777778
 71
    5
 72
    1
  1
0.100
  7
standard
210
0
220
0
230
1
 50
0
 73
    2
 44
1
  0
LINE
  5
6F
100
AcDbEntity
  8
0
  6
ByBlock
 62
    0
370
   -2
100
AcDbLine
 10
1
 20
1.03
 11
1
 21
1.06
  0
LINE
  5
70
100
AcDbEntity
  8
0
  6
ByBlock
 62
    0
370
   -2
100
AcDbLine
 10
1.1
 20
1.03
 11
1.1
 21
1.06
  0
ENDBLK
  5
52
330
50
100
AcDbEntity
  8
0
100
AcDbBlockEnd
  0
BLOCK
  5
54
330
53
100
AcDbEntity
  8
0
100
AcDbBlockBegin
  2
*D8
 70
    1
 10
0
 20
0
  3
*D8
  1

  0
LINE
  5
71
100
AcDbEntity
  8
0
  6
ByBlock
 62
    0
370
   -2
100
AcDbLine
 10
1.003086738533874
 20
2.118720825564969
 11
1.496763203582164
 21
2.118720825564969
  0
SOLID
  5
72
100
AcDbEntity
  8
0
  6
ByBlock
 62
    0
370
   -2
100
AcDbTrace
 10
1.003086738533874
 20
2.118720825564969
 30
0
 11
1.013086738533874
 21
2.120385964196061
 31
0
 12
1.013086738533874
 22
2.117055686933877
 32
0
 13
1.013086738533874
 23
2.117055686933877
 33
0
  0
SOLID
  5
73
100
AcDbEntity
  8
0
  6
ByBlock
 62
    0
370
   -2
100
AcDbTrace
 10
1.496763203582164
 20
2.118720825564969
 30
0
 11
1.486763203582164
 21
2.117055686933877
 31
0
 12
1.486763203582164
 22
2.120385964196061
 32
0
 13
1.486763203582164
 23
2.120385964196061
 33
0
  0
MTEXT
  5
74
100
AcDbEntity
  8
0
  6
CONTINUOUS
 62
    0
370
   -2
100
AcDbMText
 10
1.249924971058019
 20
2.138720825564969
 30
0
 40
0.02
 41
0.06666666666666667
 71
    5
 72
    1
  1
0.494
  7
standard
210
0
220
0
230
1
 50
0
 73
    2
 44
1
  0
LINE
  5
75
100
AcDbEntity
  8
0
  6
ByBlock
 62
    0
370
   -2
100
AcDbLine
 10
1.003086738533874
 20
1.98264187155781
 11
1.003086738533874
 21
2.138720825564969
  0
LINE
  5
76
100
AcDbEntity
  8
0
  6
ByBlock
 62
    0
370
   -2
100
AcDbLine
 10
1.496763203582164
 20
1.98264187155781
 11
1.496763203582164
 21
2.138720825564969
  0
ENDBLK
  5
55
330
53
100
AcDbEntity
  8
0
100
AcDbBlockEnd
  0
BLOCK
  5
57
330
56
100
AcDbEntity
  8
0
100
AcDbBlockBegin
  2
*D4
 70
    1
 10
0
 20
0
  3
*D4
  1

  0
LINE
  5
77
100
AcDbEntity
  8
0
  6
ByBlock
 62
    0
370
   -2
100
AcDbLine
 10
0.9534138966535574
 20
1.9409
 11
0.9534138966535574
 21
1.8409
  0
SOLID
  5
78
100
AcDbEntity
  8
0
  6
ByBlock
 62
    0
370
   -2
100
AcDbTrace
 10
0.9534138966535574
 20
1.9409
 30
0
 11
0.9550790352846488
 21
1.9309
 31
0
 12
0.9517487580224659
 22
1.9309
 32
0
 13
0.9517487580224659
 23
1.9309
 33
0
  0
SOLID
  5
79
100
AcDbEntity
  8
0
  6
ByBlock
 62
    0
370
   -2
100
AcDbTrace
 10
0.9534138966535574
 20
1.8409
 30
0
 11
0.9517487580224659
 21
1.8509
 31
0
 12
0.9550790352846488
 22
1.8509
 32
0
 13
0.9550790352846488
 23
1.8509
 33
0
  0
MTEXT
  5
7A
100
AcDbEntity
  8
0
  6
CONTINUOUS
 62
    0
370
   -2
100
AcDbMText
 10
0.9334138966535573
 20
1.8909
 30
0
 40
0.02
 41
0.05777777777777778
 71
    5
 72
    1
  1
0.100
  7
standard
210
0
220
0
230
1
 50
90
 73
    2
 44
1
  0
LINE
  5
7B
100
AcDbEntity
  8
0
  6
ByBlock
 62
    0
370
   -2
100
AcDbLine
 10
0.9734138966535574
 20
1.9409
 11
0.9334138966535573
 21
1.9409
  0
LINE
  5
7C
100
AcDbEntity
  8
0
  6
ByBlock
 62
    0
370
   -2
100
AcDbLine
 10
0.9734138966535574
 20
1.8409
 11
0.9334138966535573
 21
1.8409
  0
ENDBLK
  5
58
330
56
100
AcDbEntity
  8
0
100
AcDbBlockEnd
  0
BLOCK
  5
5A
330
59
100
AcDbEntity
  8
0
100
AcDbBlockBegin
  2
*D6
 70
    1
 10
0
 20
0
  3
*D6
  1

  0
LINE
  5
7D
100
AcDbEntity
  8
0
  6
ByBlock
 62
    0
370
   -2
100
AcDbLine
 10
1.003413896653557
 20
1.990900000000001
 11
1.103413896653557
 21
1.990900000000001
  0
SOLID
  5
7E
100
AcDbEntity
  8
0
  6
ByBlock
 62
    0
370
   -2
100
AcDbTrace
 10
1.003413896653557
 20
1.990900000000001
 30
0
 11
1.013413896653557
 21
1.992565138631092
 31
0
 12
1.013413896653557
 22
1.98923486136891
 32
0
 13
1.013413896653557
 23
1.98923486136891
 33
0
  0
SOLID
  5
7F
100
AcDbEntity
  8
0
  6
ByBlock
 62
    0
370
   -2
100
AcDbTrace
 10
1.103413896653557
 20
1.990900000000001
 30
0
 11
1.093413896653557
 21
1.98923486136891
 31
0
 12
1.093413896653557
 22
1.992565138631092
 32
0
 13
1.093413896653557
 23
1.992565138631092
 33
0
  0
MTEXT
  5
80
100
AcDbEntity
  8
0
  6
CONTINUOUS
 62
    0
370
   -2
100
AcDbMText
 10
1.053413896653557
 20
2.010900000000001
 30
0
 40
0.02
 41
0.05777777777777778
 71
    5
 72
    1
  1
0.100
  7
standard
210
0
220
0
230
1
 50
0
 73
    2
 44
1
  0
LINE
  5
81
100
AcDbEntity
  8
0
  6
ByBlock
 62
    0
370
   -2
100
AcDbLine
 10
1.003413896653557
 20
1.9709
 11
1.003413896653557
 21
2.010900000000001
  0
LINE
  5
82
100
AcDbEntity
  8
0
  6
ByBlock
 62
    0
370
   -2
100
AcDbLine
 10
1.103413896653557
 20
1.9709
 11
1.103413896653557
 21
2.010900000000001
  0
ENDBLK
  5
5B
330
59
100
AcDbEntity
  8
0
100
AcDbBlockEnd
  0
BLOCK
  5
5D
330
5C
100
AcDbEntity
  8
0
100
AcDbBlockBegin
  2
*D1
 70
    1
 10
0
 20
0
  3
*D1
  1

  0
LINE
  5
83
100
AcDbEntity
  8
0
  6
ByBlock
 62
    0
370
   -2
100
AcDbLine
 10
0.96
 20
1
 11
0.96
 21
0.925
  0
SOLID
  5
84
100
AcDbEntity
  8
0
  6
ByBlock
 62
    0
370
   -2
100
AcDbTrace
 10
0.96
 20
1
 30
0
 11
0.9616651386310914
 21
0.99
 31
0
 12
0.9583348613689086
 22
0.99
 32
0
 13
0.9583348613689086
 23
0.99
 33
0
  0
SOLID
  5
85
100
AcDbEntity
  8
0
  6
ByBlock
 62
    0
370
   -2
100
AcDbTrace
 10
0.96
 20
0.925
 30
0
 11
0.9583348613689086
 21
0.9350000000000001
 31
0
 12
0.9616651386310914
 22
0.9350000000000001
 32
0
 13
0.9616651386310914
 23
0.9350000000000001
 33
0
  0
MTEXT
  5
86
100
AcDbEntity
  8
0
  6
CONTINUOUS
 62
    0
370
   -2
100
AcDbMText
 10
0.9399999999999999
 20
0.9625
 30
0
 40
0.02
 41
0.06222222222222346
 71
    5
 72
    1
  1
0.075
  7
standard
210
0
220
0
230
1
 50
90
 73
    2
 44
1
  0
LINE
  5
87
100
AcDbEntity
  8
0
  6
ByBlock
 62
    0
370
   -2
100
AcDbLine
 10
0.9700000000000001
 20
1
 11
0.9399999999999999
 21
1
  0
LINE
  5
88
100
AcDbEntity
  8
0
  6
ByBlock
 62
    0
370
   -2
100
AcDbLine
 10
0.97
 20
0.925
 11
0.9399999999999999
 21
0.925
  0
ENDBLK
  5
5E
330
5C
100
AcDbEntity
  8
0
100
AcDbBlockEnd
  0
BLOCK
  5
60
330
5F
100
AcDbEntity
  8
0
100
AcDbBlockBegin
  2
*D5
 70
    1
 10
0
 20
0
  3
*D5
  1

  0
LINE
  5
89
100
AcDbEntity
  8
0
  6
ByBlock
 62
    0
370
   -2
100
AcDbLine
 10
0.8934138966535574
 20
1.9409
 11
0.8934138966535574
 21
1.740900000000001
  0
SOLID
  5
8A
100
AcDbEntity
  8
0
  6
ByBlock
 62
    0
370
   -2
100
AcDbTrace
 10
0.8934138966535574
 20
1.9409
 30
0
 11
0.8950790352846488
 21
1.9309
 31
0
 12
0.891748758022466
 22
1.9309
 32
0
 13
0.891748758022466
 23
1.9309
 33
0
  0
SOLID
  5
8B
100
AcDbEntity
  8
0
  6
ByBlock
 62
    0
370
   -2
100
AcDbTrace
 10
0.8934138966535574
 20
1.740900000000001
 30
0
 11
0.891748758022466
 21
1.750900000000001
 31
0
 12
0.8950790352846488
 22
1.750900000000001
 32
0
 13
0.8950790352846488
 23
1.750900000000001
 33
0
  0
MTEXT
  5
8C
100
AcDbEntity
  8
0
  6
CONTINUOUS
 62
    0
370
   -2
100
AcDbMText
 10
0.8734138966535574
 20
1.8409
 30
0
 40
0.02
 41
0.06222222222222222
 71
    5
 72
    1
  1
0.200
  7
standard
210
0
220
0
230
1
 50
90
 73
    2
 44
1
  0
LINE
  5
8D
100
AcDbEntity
  8
0
  6
ByBlock
 62
    0
370
   -2
100
AcDbLine
 10
0.9734138966535574
 20
1.9409
 11
0.8734138966535574
 21
1.9409
  0
LINE
  5
8E
100
AcDbEntity
  8
0
  6
ByBlock
 62
    0
370
   -2
100
AcDbLine
 10
0.9734138966535574
 20
1.740900000000001
 11
0.8734138966535574
 21
1.740900000000001
  0
ENDBLK
  5
61
330
5F
100
AcDbEntity
  8
0
100
AcDbBlockEnd
  0
BLOCK
  5
63
330
62
100
AcDbEntity
  8
0
100
AcDbBlockBegin
  2
*D2
 70
    1
 10
0
 20
0
  3
*D2
  1

  0
LINE
  5
8F
100
AcDbEntity
  8
0
  6
ByBlock
 62
    0
370
   -2
100
AcDbLine
 10
0.9
 20
1
 11
0.9
 21
0.85
  0
SOLID
  5
90
100
AcDbEntity
  8
0
  6
ByBlock
 62
    0
370
   -2
100
AcDbTrace
 10
0.9
 20
1
 30
0
 11
0.9016651386310914
 21
0.99
 31
0
 12
0.8983348613689086
 22
0.99
 32
0
 13
0.8983348613689086
 23
0.99
 33
0
  0
SOLID
  5
91
100
AcDbEntity
  8
0
  6
ByBlock
 62
    0
370
   -2
100
AcDbTrace
 10
0.9
 20
0.85
 30
0
 11
0.8983348613689086
 21
0.86
 31
0
 12
0.9016651386310914
 22
0.86
 32
0
 13
0.9016651386310914
 23
0.86
 33
0
  0
MTEXT
  5
92
100
AcDbEntity
  8
0
  6
CONTINUOUS
 62
    0
370
   -2
100
AcDbMText
 10
0.88
 20
0.925
 30
0
 40
0.02
 41
0.05777777777777902
 71
    5
 72
    1
  1
0.150
  7
standard
210
0
220
0
230
1
 50
90
 73
    2
 44
1
  0
LINE
  5
93
100
AcDbEntity
  8
0
  6
ByBlock
 62
    0
370
   -2
100
AcDbLine
 10
0.97
 20
1
 11
0.88
 21
1
  0
LINE
  5
94
100
AcDbEntity
  8
0
  6
ByBlock
 62
    0
370
   -2
100
AcDbLine
 10
0.97
 20
0.85
 11
0.88
 21
0.85
  0
ENDBLK
  5
64
330
62
100
AcDbEntity
  8
0
100
AcDbBlockEnd
  0
BLOCK
  5
66
330
65
100
AcDbEntity
  8
0
100
AcDbBlockBegin
  2
*D7
 70
    1
 10
0
 20
0
  3
*D7
  1

  0
LINE
  5
95
100
AcDbEntity
  8
0
  6
ByBlock
 62
    0
370
   -2
100
AcDbLine
 10
1.003086738533874
 20
2.052721298152096
 11
1.300524608741222
 21
2.052721298152096
  0
SOLID
  5
96
100
AcDbEntity
  8
0
  6
ByBlock
 62
    0
370
   -2
100
AcDbTrace
 10
1.003086738533874
 20
2.052721298152096
 30
0
 11
1.013086738533874
 21
2.054386436783187
 31
0
 12
1.013086738533874
 22
2.051056159521004
 32
0
 13
1.013086738533874
 23
2.051056159521004
 33
0
  0
SOLID
  5
97
100
AcDbEntity
  8
0
  6
ByBlock
 62
    0
370
   -2
100
AcDbTrace
 10
1.300524608741222
 20
2.052721298152096
 30
0
 11
1.290524608741222
 21
2.051056159521004
 31
0
 12
1.290524608741222
 22
2.054386436783187
 32
0
 13
1.290524608741222
 23
2.054386436783187
 33
0
  0
MTEXT
  5
98
100
AcDbEntity
  8
0
  6
CONTINUOUS
 62
    0
370
   -2
100
AcDbMText
 10
1.151805673637548
 20
2.072721298152096
 30
0
 40
0.02
 41
0.06222222222222222
 71
    5
 72
    1
  1
0.297
  7
standard
210
0
220
0
230
1
 50
0
 73
    2
 44
1
  0
LINE
  5
99
100
AcDbEntity
  8
0
  6
ByBlock
 62
    0
370
   -2
100
AcDbLine
 10
1.003086738533874
 20
1.981761877858971
 11
1.003086738533874
 21
2.072721298152096
  0
LINE
  5
9A
100
AcDbEntity
  8
0
  6
ByBlock
 62
    0
370
   -2
100
AcDbLine
 10
1.300524608741222
 20
1.981761877858971
 11
1.300524608741222
 21
2.072721298152096
  0
ENDBLK
  5
67
330
65
100
AcDbEntity
  8
0
100
AcDbBlockEnd
  0
BLOCK
  5
69
330
68
100
AcDbEntity
  8
0
100
AcDbBlockBegin
  2
*D9
 70
    1
 10
0
 20
0
  3
*D9
  1

  0
LINE
  5
9B
100
AcDbEntity
  8
0
  6
ByBlock
 62
    0
370
   -2
100
AcDbLine
 10
0.9999999999999999
 20
1.11
 11
1.59
 21
1.11
  0
SOLID
  5
9C
100
AcDbEntity
  8
0
  6
ByBlock
 62
    0
370
   -2
100
AcDbTrace
 10
0.9999999999999999
 20
1.11
 30
0
 11
1.01
 21
1.111665138631091
 31
0
 12
1.01
 22
1.108334861368909
 32
0
 13
1.01
 23
1.108334861368909
 33
0
  0
SOLID
  5
9D
100
AcDbEntity
  8
0
  6
ByBlock
 62
    0
370
   -2
100
AcDbTrace
 10
1.59
 20
1.11
 30
0
 11
1.58
 21
1.108334861368909
 31
0
 12
1.58
 22
1.111665138631091
 32
0
 13
1.58
 23
1.111665138631091
 33
0
  0
MTEXT
  5
9E
100
AcDbEntity
  8
0
  6
CONTINUOUS
 62
    0
370
   -2
100
AcDbMText
 10
1.295
 20
1.13
 30
0
 40
0.02
 41
0.06222222222222347
 71
    5
 72
    1
  1
0.590
  7
standard
210
0
220
0
230
1
 50
0
 73
    2
 44
1
  0
LINE
  5
9F
100
AcDbEntity
  8
0
  6
ByBlock
 62
    0
370
   -2
100
AcDbLine
 10
0.9999999999999999
 20
1.04
 11
0.9999999999999999
 21
1.13
  0
LINE
  5
A0
100
AcDbEntity
  8
0
  6
ByBlock
 62
    0
370
   -2
100
AcDbLine
 10
1.59
 20
1.04
 11
1.59
 21
1.13
  0
ENDBLK
  5
6A
330
68
100
AcDbEntity
  8
0
100
AcDbBlockEnd
  0
ENDSEC
  0
SECTION
  2
ENTITIES
  0
LINE
  5
A1
100
AcDbEntity
  8
0
  6
ByLayer
 62
  256
370
   -1
100
AcDbLine
 10
1
 20
1
 11
1.59
 21
1
  0
LINE
  5
A2
100
AcDbEntity
  8
0
  6
ByLayer
 62
  256
370
   -1
100
AcDbLine
 10
1.59
 20
1
 11
1.59
 21
0.8500000000000001
  0
LINE
  5
A3
100
AcDbEntity
  8
0
  6
ByLayer
 62
  256
370
   -1
100
AcDbLine
 10
1.59
 20
0.8500000000000001
 11
1
 21
0.8500000000000001
  0
LINE
  5
A4
100
AcDbEntity
  8
0
  6
ByLayer
 62
  256
370
   -1
100
AcDbLine
 10
1
 20
0.8500000000000001
 11
1
 21
1
  0
LINE
  5
A5
100
AcDbEntity
  8
hidden
  6
ByLayer
 62
  256
370
   -1
100
AcDbLine
 10
1.0409
 20
0.8500000000000001
 11
1.0409
 21
1
  0
LINE
  5
A6
100
AcDbEntity
  8
hidden
  6
ByLayer
 62
  256
370
   -1
100
AcDbLine
 10
1.1591
 20
0.8500000000000001
 11
1.1591
 21
1
  0
LINE
  5
A7
100
AcDbEntity
  8
hidden
  6
ByLayer
 62
  256
370
   -1
100
AcDbLine
 10
1.237486103346443
 20
0.8500000000000001
 11
1.237486103346443
 21
1
  0
LINE
  5
A8
100
AcDbEntity
  8
hidden
  6
ByLayer
 62
  256
370
   -1
100
AcDbLine
 10
1.355686103346442
 20
0.8500000000000001
 11
1.355686103346442
 21
1
  0
LINE
  5
A9
100
AcDbEntity
  8
hidden
  6
ByLayer
 62
  256
370
   -1
100
AcDbLine
 10
1.434846167729682
 20
0.8500000000000001
 11
1.434846167729682
 21
1
  0
LINE
  5
AA
100
AcDbEntity
  8
hidden
  6
ByLayer
 62
  256
370
   -1
100
AcDbLine
 10
1.553046167729682
 20
0.8500000000000001
 11
1.553046167729682
 21
1
  0
CIRCLE
  5
AB
100
AcDbEntity
  8
0
  6
ByLayer
 62
  256
370
   -1
100
AcDbCircle
 10
1.1
 20
0.925
 40
0.03949999999999987
  0
LINE
  5
AC
100
AcDbEntity
  8
0
  6
ByLayer
 62
  256
370
   -1
100
AcDbLine
 10
1.09
 20
0.925
 11
1.11
 21
0.925
  0
LINE
  5
AD
100
AcDbEntity
  8
0
  6
ByLayer
 62
  256
370
   -1
100
AcDbLine
 10
1.1
 20
0.9349999999999999
 11
1.1
 21
0.915
  0
DIMENSION
  5
AE
100
AcDbEntity
  8
0
  6
ByLayer
 62
  256
370
   -1
100
AcDbDimension
  2
*D1
 10
0.96
 20
0.925
 30
0
 11
0.9399999999999999
 21
0.9625
 31
0
 70
   32
 71
    5
 72
    0
  3
Standard
 53
0
210
0
220
0
230
1
100
AcDbAlignedDimension
 13
0.9800000000000001
 23
1
 33
0
 14
0.98
 24
0.925
 34
0
 50
90
100
AcDbRotatedDimension
  0
DIMENSION
  5
AF
100
AcDbEntity
  8
0
  6
ByLayer
 62
  256
370
   -1
100
AcDbDimension
  2
*D2
 10
0.9
 20
0.85
 30
0
 11
0.88
 21
0.925
 31
0
 70
   32
 71
    5
 72
    0
  3
Standard
 53
0
210
0
220
0
230
1
100
AcDbAlignedDimension
 13
0.98
 23
1
 33
0
 14
0.98
 24
0.85
 34
0
 50
90
100
AcDbRotatedDimension
  0
DIMENSION
  5
B0
100
AcDbEntity
  8
0
  6
ByLayer
 62
  256
370
   -1
100
AcDbDimension
  2
*D3
 10
1.1
 20
1.04
 30
0
 11
1.05
 21
1.06
 31
0
 70
   32
 71
    5
 72
    0
  3
Standard
 53
0
210
0
220
0
230
1
100
AcDbAlignedDimension
 13
1
 23
1.02
 33
0
 14
1.1
 24
1.02
 34
0
100
AcDbRotatedDimension
  0
LINE
  5
B1
100
AcDbEntity
  8
0
  6
ByLayer
 62
  256
370
   -1
100
AcDbLine
 10
1.11
 20
0.91
 11
1.19
 21
0.78
  0
MTEXT
  5
B2
100
AcDbEntity
  8
0
  6
ByLayer
 62
  256
370
   -1
100
AcDbMText
 10
1.22
 20
0.8
 30
0
 40
0.02
 41
0.08444444444444445
 71
    1
 72
    1
  1
M2x0.4
  7
STANDARD
210
0
220
0
230
1
 50
0
 73
    2
 44
1
  0
LINE
  5
B3
100
AcDbEntity
  8
0
  6
ByLayer
 62
  256
370
   -1
100
AcDbLine
 10
1.19
 20
0.78
 11
1.21
 21
0.78
  0
LINE
  5
B4
100
AcDbEntity
  8
noname
  6
ByLayer
 62
  256
370
   -1
100
AcDbLine
 10
1.237486103346443
 20
0.9974860633464427
 11
1.24000004
 21
1
  0
LINE
  5
B5
100
AcDbEntity
  8
hidden
  6
ByLayer
 62
  256
370
   -1
100
AcDbLine
 10
1.35000004
 20
0.8500000000000001
 11
1.355686103346442
 21
0.8556860633464425
  0
LINE
  5
B6
100
AcDbEntity
  8
hidden
  6
ByLayer
 62
  256
370
   -1
100
AcDbLine
 10
1.33000004
 20
0.8500000000000001
 11
1.355686103346442
 21
0.8756860633464423
  0
LINE
  5
B7
100
AcDbEntity
  8
hidden
  6
ByLayer
 62
  256
370
   -1
100
AcDbLine
 10
1.31000004
 20
0.8500000000000001
 11
1.355686103346442
 21
0.8956860633464423
  0
LINE
  5
B8
100
AcDbEntity
  8
hidden
  6
ByLayer
 62
  256
370
   -1
100
AcDbLine
 10
1.29000004
 20
0.8500000000000001
 11
1.355686103346442
 21
0.9156860633464428
  0
LINE
  5
B9
100
AcDbEntity
  8
hidden
  6
ByLayer
 62
  256
370
   -1
100
AcDbLine
 10
1.27000004
 20
0.8500000000000001
 11
1.355686103346442
 21
0.9356860633464423
  0
LINE
  5
BA
100
AcDbEntity
  8
hidden
  6
ByLayer
 62
  256
370
   -1
100
AcDbLine
 10
1.25000004
 20
0.8500000000000001
 11
1.355686103346442
 21
0.9556860633464426
  0
LINE
  5
BB
100
AcDbEntity
  8
hidden
  6
ByLayer
 62
  256
370
   -1
100
AcDbLine
 10
1.237486103346443
 20
0.8574860633464427
 11
1.355686103346442
 21
0.9756860633464426
  0
LINE
  5
BC
100
AcDbEntity
  8
hidden
  6
ByLayer
 62
  256
370
   -1
100
AcDbLine
 10
1.237486103346442
 20
0.8774860633464425
 11
1.355686103346442
 21
0.9956860633464425
  0
LINE
  5
BD
100
AcDbEntity
  8
hidden
  6
ByLayer
 62
  256
370
   -1
100
AcDbLine
 10
1.237486103346443
 20
0.8974860633464429
 11
1.34000004
 21
1
  0
LINE
  5
BE
100
AcDbEntity
  8
hidden
  6
ByLayer
 62
  256
370
   -1
100
AcDbLine
 10
1.237486103346443
 20
0.9174860633464426
 11
1.32000004
 21
1
  0
LINE
  5
BF
100
AcDbEntity
  8
hidden
  6
ByLayer
 62
  256
370
   -1
100
AcDbLine
 10
1.237486103346443
 20
0.9374860633464427
 11
1.30000004
 21
1
  0
LINE
  5
C0
100
AcDbEntity
  8
hidden
  6
ByLayer
 62
  256
370
   -1
100
AcDbLine
 10
1.237486103346443
 20
0.9574860633464425
 11
1.28000004
 21
1
  0
LINE
  5
C1
100
AcDbEntity
  8
hidden
  6
ByLayer
 62
  256
370
   -1
100
AcDbLine
 10
1.237486103346443
 20
0.9774860633464424
 11
1.26000004
 21
1
  0
LINE
  5
C2
100
AcDbEntity
  8
hidden
  6
ByLayer
 62
  256
370
   -1
100
AcDbLine
 10
1.54736010438324
 20
0.8500000000000001
 11
1.553046167729682
 21
0.8556860633464425
  0
LINE
  5
C3
100
AcDbEntity
  8
hidden
  6
ByLayer
 62
  256
370
   -1
100
AcDbLine
 10
1.52736010438324
 20
0.8500000000000001
 11
1.553046167729682
 21
0.8756860633464423
  0
LINE
  5
C4
100
AcDbEntity
  8
hidden
  6
ByLayer
 62
  256
370
   -1
100
AcDbLine
 10
1.50736010438324
 20
0.8500000000000001
 11
1.553046167729682
 21
0.8956860633464423
  0
LINE
  5
C5
100
AcDbEntity
  8
hidden
  6
ByLayer
 62
  256
370
   -1
100
AcDbLine
 10
1.48736010438324
 20
0.8500000000000001
 11
1.553046167729682
 21
0.9156860633464428
  0
LINE
  5
C6
100
AcDbEntity
  8
hidden
  6
ByLayer
 62
  256
370
   -1
100
AcDbLine
 10
1.46736010438324
 20
0.8500000000000001
 11
1.553046167729682
 21
0.9356860633464423
  0
LINE
  5
C7
100
AcDbEntity
  8
hidden
  6
ByLayer
 62
  256
370
   -1
100
AcDbLine
 10
1.44736010438324
 20
0.8500000000000001
 11
1.553046167729682
 21
0.9556860633464426
  0
LINE
  5
C8
100
AcDbEntity
  8
hidden
  6
ByLayer
 62
  256
370
   -1
100
AcDbLine
 10
1.434846167729682
 20
0.8574860633464427
 11
1.553046167729682
 21
0.9756860633464426
  0
LINE
  5
C9
100
AcDbEntity
  8
hidden
  6
ByLayer
 62
  256
370
   -1
100
AcDbLine
 10
1.434846167729682
 20
0.8774860633464425
 11
1.553046167729682
 21
0.9956860633464425
  0
LINE
  5
CA
100
AcDbEntity
  8
hidden
  6
ByLayer
 62
  256
370
   -1
100
AcDbLine
 10
1.434846167729683
 20
0.8974860633464429
 11
1.53736010438324
 21
1
  0
LINE
  5
CB
100
AcDbEntity
  8
hidden
  6
ByLayer
 62
  256
370
   -1
100
AcDbLine
 10
1.434846167729682
 20
0.9174860633464426
 11
1.51736010438324
 21
1
  0
LINE
  5
CC
100
AcDbEntity
  8
hidden
  6
ByLayer
 62
  256
370
   -1
100
AcDbLine
 10
1.434846167729682
 20
0.9374860633464427
 11
1.49736010438324
 21
1
  0
LINE
  5
CD
100
AcDbEntity
  8
hidden
  6
ByLayer
 62
  256
370
   -1
100
AcDbLine
 10
1.434846167729682
 20
0.9574860633464425
 11
1.47736010438324
 21
1
  0
LINE
  5
CE
100
AcDbEntity
  8
hidden
  6
ByLayer
 62
  256
370
   -1
100
AcDbLine
 10
1.434846167729682
 20
0.9774860633464424
 11
1.45736010438324
 21
1
  0
CIRCLE
  5
CF
100
AcDbEntity
  8
0
  6
ByLayer
 62
  256
370
   -1
100
AcDbCircle
 10
1.103413896653558
 20
1.8409
 40
0.05909999999999996
  0
CIRCLE
  5
D0
100
AcDbEntity
  8
0
  6
ByLayer
 62
  256
370
   -1
100
AcDbCircle
 10
1.3
 20
1.8409
 40
0.05909999999999996
  0
CIRCLE
  5
D1
100
AcDbEntity
  8
0
  6
ByLayer
 62
  256
370
   -1
100
AcDbCircle
 10
1.49736006438324
 20
1.8409
 40
0.05909999999999996
  0
LINE
  5
D2
100
AcDbEntity
  8
0
  6
ByLayer
 62
  256
370
   -1
100
AcDbLine
 10
1.003413896653558
 20
1.9409
 11
1.593413896653558
 21
1.9409
  0
LINE
  5
D3
100
AcDbEntity
  8
0
  6
ByLayer
 62
  256
370
   -1
100
AcDbLine
 10
1.593413896653558
 20
1.9409
 11
1.593413896653558
 21
1.7409
  0
LINE
  5
D4
100
AcDbEntity
  8
0
  6
ByLayer
 62
  256
370
   -1
100
AcDbLine
 10
1.593413896653558
 20
1.7409
 11
1.003413896653558
 21
1.7409
  0
LINE
  5
D5
100
AcDbEntity
  8
0
  6
ByLayer
 62
  256
370
   -1
100
AcDbLine
 10
1.003413896653558
 20
1.7409
 11
1.003413896653558
 21
1.9409
  0
LINE
  5
D6
100
AcDbEntity
  8
hidden
  6
ByLayer
 62
  256
370
   -1
100
AcDbLine
 10
1.142913896653558
 20
1.7409
 11
1.142913896653558
 21
1.796939108289309
  0
LINE
  5
D7
100
AcDbEntity
  8
hidden
  6
ByLayer
 62
  256
370
   -1
100
AcDbLine
 10
1.063913896653558
 20
1.7409
 11
1.063913896653558
 21
1.79693910828929
  0
LINE
  5
D8
100
AcDbEntity
  8
0
  6
ByLayer
 62
  256
370
   -1
100
AcDbLine
 10
1.093413896653557
 20
1.8409
 11
1.113413896653557
 21
1.8409
  0
LINE
  5
D9
100
AcDbEntity
  8
0
  6
ByLayer
 62
  256
370
   -1
100
AcDbLine
 10
1.103413896653557
 20
1.8509
 11
1.103413896653557
 21
1.8309
  0
LINE
  5
DA
100
AcDbEntity
  8
0
  6
ByLayer
 62
  256
370
   -1
100
AcDbLine
 10
1.29
 20
1.8409
 11
1.31
 21
1.8409
  0
LINE
  5
DB
100
AcDbEntity
  8
0
  6
ByLayer
 62
  256
370
   -1
100
AcDbLine
 10
1.3
 20
1.8509
 11
1.3
 21
1.8309
  0
LINE
  5
DC
100
AcDbEntity
  8
0
  6
ByLayer
 62
  256
370
   -1
100
AcDbLine
 10
1.48736006438324
 20
1.8409
 11
1.50736006438324
 21
1.8409
  0
LINE
  5
DD
100
AcDbEntity
  8
0
  6
ByLayer
 62
  256
370
   -1
100
AcDbLine
 10
1.49736006438324
 20
1.8509
 11
1.49736006438324
 21
1.8309
  0
DIMENSION
  5
DE
100
AcDbEntity
  8
0
  6
ByLayer
 62
  256
370
   -1
100
AcDbDimension
  2
*D4
 10
0.9534138966535574
 20
1.8409
 30
0
 11
0.9334138966535573
 21
1.8909
 31
0
 70
   32
 71
    5
 72
    0
  3
Standard
 53
0
210
0
220
0
230
1
100
AcDbAlignedDimension
 13
0.9834138966535574
 23
1.9409
 33
0
 14
0.9834138966535574
 24
1.8409
 34
0
 50
90
100
AcDbRotatedDimension
  0
DIMENSION
  5
DF
100
AcDbEntity
  8
0
  6
ByLayer
 62
  256
370
   -1
100
AcDbDimension
  2
*D5
 10
0.8934138966535574
 20
1.740900000000001
 30
0
 11
0.8734138966535574
 21
1.8409
 31
0
 70
   32
 71
    5
 72
    0
  3
Standard
 53
0
210
0
220
0
230
1
100
AcDbAlignedDimension
 13
0.9834138966535574
 23
1.9409
 33
0
 14
0.9834138966535574
 24
1.740900000000001
 34
0
 50
90
100
AcDbRotatedDimension
  0
DIMENSION
  5
E0
100
AcDbEntity
  8
0
  6
ByLayer
 62
  256
370
   -1
100
AcDbDimension
  2
*D6
 10
1.103413896653557
 20
1.990900000000001
 30
0
 11
1.053413896653557
 21
2.010900000000001
 31
0
 70
   32
 71
    5
 72
    0
  3
Standard
 53
0
210
0
220
0
230
1
100
AcDbAlignedDimension
 13
1.003413896653557
 23
1.9609
 33
0
 14
1.103413896653557
 24
1.9609
 34
0
100
AcDbRotatedDimension
  0
DIMENSION
  5
E1
100
AcDbEntity
  8
0
  6
ByLayer
 62
  256
370
   -1
100
AcDbDimension
  2
*D7
 10
1.300524608741222
 20
2.052721298152096
 30
0
 11
1.151805673637548
 21
2.072721298152096
 31
0
 70
   32
 71
    5
 72
    0
  3
Standard
 53
0
210
0
220
0
230
1
100
AcDbAlignedDimension
 13
1.003086738533874
 23
1.971761877858971
 33
0
 14
1.300524608741222
 24
1.971761877858971
 34
0
100
AcDbRotatedDimension
  0
DIMENSION
  5
E2
100
AcDbEntity
  8
0
  6
ByLayer
 62
  256
370
   -1
100
AcDbDimension
  2
*D8
 10
1.496763203582164
 20
2.118720825564969
 30
0
 11
1.249924971058019
 21
2.138720825564969
 31
0
 70
   32
 71
    5
 72
    0
  3
Standard
 53
0
210
0
220
0
230
1
100
AcDbAlignedDimension
 13
1.003086738533874
 23
1.97264187155781
 33
0
 14
1.496763203582164
 24
1.97264187155781
 34
0
100
AcDbRotatedDimension
  0
LINE
  5
E3
100
AcDbEntity
  8
0
  6
ByLayer
 62
  256
370
   -1
100
AcDbLine
 10
1.513413896653557
 20
1.8309
 11
1.643413896653557
 21
1.7509
  0
LINE
  5
E4
100
AcDbEntity
  8
0
  6
ByLayer
 62
  256
370
   -1
100
AcDbLine
 10
1.643413896653557
 20
1.7509
 11
1.663413896653557
 21
1.7509
  0
LINE
  5
E5
100
AcDbEntity
  8
0
  6
ByLayer
 62
  256
370
   -1
100
AcDbLine
 10
1.313413896653557
 20
1.8209
 11
1.393413896653557
 21
1.6609
  0
LINE
  5
E6
100
AcDbEntity
  8
0
  6
ByLayer
 62
  256
370
   -1
100
AcDbLine
 10
1.393413896653557
 20
1.6609
 11
1.413413896653557
 21
1.6609
  0
LINE
  5
E7
100
AcDbEntity
  8
0
  6
ByLayer
 62
  256
370
   -1
100
AcDbLine
 10
1.093413896653557
 20
1.820900000000001
 11
0.9134138966535573
 21
1.6409
  0
LINE
  5
E8
100
AcDbEntity
  8
0
  6
ByLayer
 62
  256
370
   -1
100
AcDbLine
 10
0.9134138966535573
 20
1.6409
 11
0.9034138966535573
 21
1.6409
  0
MTEXT
  5
E9
100
AcDbEntity
  8
0
  6
ByLayer
 62
  256
370
   -1
100
AcDbMText
 10
1.423413896653557
 20
1.680900000000001
 30
0
 40
0.02
 41
0.08222222222222471
 71
    1
 72
    1
  1
M3x0.5
  7
STANDARD
210
0
220
0
230
1
 50
0
 73
    2
 44
1
  0
MTEXT
  5
EA
100
AcDbEntity
  8
0
  6
ByLayer
 62
  256
370
   -1
100
AcDbMText
 10
1.673413896653557
 20
1.7709
 30
0
 40
0.02
 41
0.08222222222222471
 71
    1
 72
    1
  1
M3x0.5
  7
STANDARD
210
0
220
0
230
1
 50
0
 73
    2
 44
1
  0
MTEXT
  5
EB
100
AcDbEntity
  8
0
  6
ByLayer
 62
  256
370
   -1
100
AcDbMText
 10
0.7034138966535572
 20
1.6609
 30
0
 40
0.02
 41
0.191111108888892
 71
    1
 72
    1
  1
%%C 0.118" (3mm)
  7
STANDARD
210
0
220
0
230
1
 50
0
 73
    2
 44
1
  0
LINE
  5
EC
100
AcDbEntity
  8
hidden
  6
ByLayer
 62
  256
370
   -1
100
AcDbLine
 10
1.10341387415356
 20
1.7409
 11
1.142846091113571
 21
1.780332217945817
  0
LINE
  5
ED
100
AcDbEntity
  8
hidden
  6
ByLayer
 62
  256
370
   -1
100
AcDbLine
 10
1.123413856653558
 20
1.7409
 11
1.142846091113571
 21
1.760332234460013
  0
LINE
  5
EE
100
AcDbEntity
  8
hidden
  6
ByLayer
 62
  256
370
   -1
100
AcDbLine
 10
1.06387279942556
 20
1.741358942772003
 11
1.104320815625171
 21
1.781806958971614
  0
LINE
  5
EF
100
AcDbEntity
  8
hidden
  6
ByLayer
 62
  256
370
   -1
100
AcDbLine
 10
1.083413820756113
 20
1.7409
 11
1.131313945154847
 21
1.788800121942317
  0
LINE
  5
F0
100
AcDbEntity
  8
hidden
  6
ByLayer
 62
  256
370
   -1
100
AcDbLine
 10
1.06387279942556
 20
1.761358942772002
 11
1.086720473976785
 21
1.784206617323228
  0
LINE
  5
F1
100
AcDbEntity
  8
hidden
  6
ByLayer
 62
  256
370
   -1
100
AcDbLine
 10
1.063872799425559
 20
1.781358906130826
 11
1.072837977747538
 21
1.79032408495087
  0
LWPOLYLINE
  5
F2
100
AcDbEntity
  8
const
  6
ByLayer
 62
  256
370
   -1
100
AcDbPolyline
 90
    4
 70
    1
 43
0
 10
0.5
 20
2.5
 10
2
 20
2.5
 10
2
 20
0.5
 10
0.5
 20
0.5
  0
DIMENSION
  5
F3
100
AcDbEntity
  8
0
  6
ByLayer
 62
  256
370
   -1
100
AcDbDimension
  2
*D9
 10
1.59
 20
1.11
 30
0
 11
1.295
 21
1.13
 31
0
 70
   32
 71
    5
 72
    0
  3
Standard
 53
0
210
0
220
0
230
1
100
AcDbAlignedDimension
 13
0.9999999999999999
 23
1.03
 33
0
 14
1.59
 24
1.03
 34
0
100
AcDbRotatedDimension
  0
ENDSEC
  0
SECTION
  2
OBJECTS
  0
DICTIONARY
  5
C
330
0
100
AcDbDictionary
281
    1
  3
ACAD_GROUP
350
D
  0
DICTIONARY
  5
D
330
C
100
AcDbDictionary
281
    1
  0
ENDSEC
  0
EOF
