999
dxfrw 0.6.3
  0
SECTION
  2
HEADER
  9
$ACADVER
  1
AC1021
  9
$DWGCODEPAGE
  3
ANSI_1252
  9
$INSBASE
 10
0
 20
0
 30
0
  9
$EXTMIN
 10
0
 20
-6.60000000000001
 30
0
  9
$EXTMAX
 10
10.38036905030533
 20
0
 30
0
  9
$LIMMIN
 10
0
 20
0
  9
$LIMMAX
 10
420
 20
297
  9
$ORTHOMODE
 70
    0
  9
$REGENMODE
 70
    1
  9
$FILLMODE
 70
    1
  9
$QTEXTMODE
 70
    0
  9
$MIRRTEXT
 70
    0
  9
$LTSCALE
 40
1
  9
$ATTMODE
 70
    0
  9
$TEXTSIZE
 40
2.5
  9
$TRACEWID
 40
15.68
  9
$TEXTSTYLE
  7
STANDARD
  9
$CLAYER
  8
1.5_dims2
  9
$CELTYPE
  6
BYLAYER
  9
$CECOLOR
 62
  256
  9
$CELTSCALE
 40
1
  9
$DISPSILH
 70
    0
  9
$DIMSCALE
 40
1
  9
$DIMASZ
 40
0.1
  9
$DIMEXO
 40
0.025
  9
$DIMDLI
 40
3.75
  9
$DIMRND
 40
0
  9
$DIMDLE
 40
0
  9
$DIMEXE
 40
0.05
  9
$DIMTP
 40
0
  9
$DIMTM
 40
0
  9
$DIMTXT
 40
0.1
  9
$DIMCEN
 40
2.5
  9
$DIMTSZ
 40
0
  9
$DIMTOL
 70
    0
  9
$DIMLIM
 70
    0
  9
$DIMTIH
 70
    0
  9
$DIMTOH
 70
    0
  9
$DIMSE1
 70
    0
  9
$DIMSE2
 70
    0
  9
$DIMTAD
 70
    1
  9
$DIMZIN
 70
    1
  9
$DIMBLK
  1

  9
$DIMASO
 70
    1
  9
$DIMSHO
 70
    1
  9
$DIMPOST
  1

  9
$DIMAPOST
  1

  9
$DIMALT
 70
    0
  9
$DIMALTD
 70
    3
  9
$DIMALTF
 40
0.03937
  9
$DIMLFAC
 40
1
  9
$DIMTOFL
 70
    1
  9
$DIMTVP
 40
0
  9
$DIMTIX
 70
    0
  9
$DIMSOXD
 70
    0
  9
$DIMSAH
 70
    0
  9
$DIMBLK1
  1

  9
$DIMBLK2
  1

  9
$DIMSTYLE
  2
STANDARD
  9
$DIMCLRD
 70
    0
  9
$DIMCLRE
 70
    0
  9
$DIMCLRT
 70
    0
  9
$DIMTFAC
 40
1
  9
$DIMGAP
 40
0.1
  9
$DIMJUST
 70
    0
  9
$DIMSD1
 70
    0
  9
$DIMSD2
 70
    0
  9
$DIMTOLJ
 70
    0
  9
$DIMTZIN
 70
    8
  9
$DIMALTZ
 70
    0
  9
$DIMALTTZ
 70
    0
  9
$DIMUPT
 70
    0
  9
$DIMDEC
 70
    3
  9
$DIMTDEC
 70
    2
  9
$DIMALTU
 70
    2
  9
$DIMALTTD
 70
    3
  9
$DIMTXSTY
  7
standard
  9
$DIMAUNIT
 70
    0
  9
$DIMADEC
 70
    2
  9
$DIMALTRND
 40
0
  9
$DIMAZIN
 70
    0
  9
$DIMDSEP
 70
    0
  9
$DIMATFIT
 70
    3
  9
$DIMFRAC
 70
    0
  9
$DIMLDRBLK
  1
STANDARD
  9
$DIMLUNIT
 70
    2
  9
$DIMLWD
 70
   -2
  9
$DIMLWE
 70
   -2
  9
$DIMTMOVE
 70
    0
  9
$DIMFXL
 40
0.04
  9
$DIMFXLON
 70
    0
  9
$DIMJOGANG
 40
0.7854
  9
$DIMTFILL
 70
    0
  9
$DIMTFILLCLR
 70
    0
  9
$DIMARCSYM
 70
    0
  9
$DIMLTYPE
  6

  9
$DIMLTEX1
  6

  9
$DIMLTEX2
  6

  9
$LUNITS
 70
    2
  9
$LUPREC
 70
    3
  9
$SKETCHINC
 40
1
  9
$FILLETRAD
 40
0
  9
$AUNITS
 70
    0
  9
$AUPREC
 70
    2
  9
$MENU
  1
.
  9
$ELEVATION
 40
0
  9
$PELEVATION
 40
0
  9
$THICKNESS
 40
0
  9
$LIMCHECK
 70
    0
  9
$CHAMFERA
 40
0
  9
$CHAMFERB
 40
0
  9
$CHAMFERC
 40
0
  9
$CHAMFERD
 40
0
  9
$SKPOLY
 70
    0
  9
$USRTIMER
 70
    1
  9
$ANGBASE
 50
0
  9
$ANGDIR
 70
    0
  9
$PDMODE
 70
   34
  9
$PDSIZE
 40
0
  9
$PLINEWID
 40
0
  9
$SPLFRAME
 70
    0
  9
$SPLINETYPE
 70
    2
  9
$SPLINESEGS
 70
    8
  9
$HANDSEED
  5
20000
  9
$SURFTAB1
 70
    6
  9
$SURFTAB2
 70
    6
  9
$SURFTYPE
 70
    6
  9
$SURFU
 70
    6
  9
$SURFV
 70
    6
  9
$UCSBASE
  2

  9
$UCSNAME
  2

  9
$UCSORG
 10
0
 20
0
 30
0
  9
$UCSXDIR
 10
1
 20
0
 30
0
  9
$UCSYDIR
 10
0
 20
1
 30
0
  9
$UCSORTHOREF
  2

  9
$UCSORTHOVIEW
 70
    0
  9
$UCSORGTOP
 10
0
 20
0
 30
0
  9
$UCSORGBOTTOM
 10
0
 20
0
 30
0
  9
$UCSORGLEFT
 10
0
 20
0
 30
0
  9
$UCSORGRIGHT
 10
0
 20
0
 30
0
  9
$UCSORGFRONT
 10
0
 20
0
 30
0
  9
$UCSORGBACK
 10
0
 20
0
 30
0
  9
$PUCSBASE
  2

  9
$PUCSNAME
  2

  9
$PUCSORG
 10
0
 20
0
 30
0
  9
$PUCSXDIR
 10
1
 20
0
 30
0
  9
$PUCSYDIR
 10
0
 20
1
 30
0
  9
$PUCSORTHOREF
  2

  9
$PUCSORTHOVIEW
 70
    0
  9
$PUCSORGTOP
 10
0
 20
0
 30
0
  9
$PUCSORGBOTTOM
 10
0
 20
0
 30
0
  9
$PUCSORGLEFT
 10
0
 20
0
 30
0
  9
$PUCSORGRIGHT
 10
0
 20
0
 30
0
  9
$PUCSORGFRONT
 10
0
 20
0
 30
0
  9
$PUCSORGBACK
 10
0
 20
0
 30
0
  9
$USERI1
 70
    0
  9
$USERI2
 70
    0
  9
$USERI3
 70
    0
  9
$USERI4
 70
    0
  9
$USERI5
 70
    0
  9
$USERR1
 40
0
  9
$USERR2
 40
0
  9
$USERR3
 40
0
  9
$USERR4
 40
0
  9
$USERR5
 40
0
  9
$WORLDVIEW
 70
    1
  9
$SHADEDGE
 70
    3
  9
$SHADEDIF
 70
   70
  9
$TILEMODE
 70
    1
  9
$MAXACTVP
 70
   64
  9
$PINSBASE
 10
0.3098154748473334
 20
7.550000000000005
 30
0
  9
$PLIMCHECK
 70
    0
  9
$PEXTMIN
 10
0
 20
0
 30
0
  9
$PEXTMAX
 10
0
 20
0
 30
0
  9
$GRIDMODE
 70
    1
  9
$SNAPSTYLE
 70
    0
  9
$GRIDUNIT
 10
0
 20
0
  9
$PLIMMIN
 10
0
 20
0
  9
$PLIMMAX
 10
11
 20
8.5
  9
$UNITMODE
 70
    0
  9
$VISRETAIN
 70
    1
  9
$PLINEGEN
 70
    0
  9
$PSLTSCALE
 70
    1
  9
$TREEDEPTH
 70
 3020
  9
$CMLSTYLE
  2
Standard
  9
$CMLJUST
 70
    0
  9
$CMLSCALE
 40
20
  9
$PROXYGRAPHICS
 70
    1
  9
$MEASUREMENT
 70
    1
  9
$CELWEIGHT
370
   -1
  9
$ENDCAPS
280
    0
  9
$JOINSTYLE
280
    0
  9
$LWDISPLAY
290
    0
  9
$INSUNITS
 70
    1
  9
$HYPERLINKBASE
  1

  9
$STYLESHEET
  1

  9
$XEDIT
290
    1
  9
$CEPSNTYPE
380
    0
  9
$PSTYLEMODE
290
    1
  9
$EXTNAMES
290
    1
  9
$PSVPSCALE
 40
1
  9
$OLESTARTUP
290
    0
  9
$SORTENTS
280
  127
  9
$INDEXCTL
280
    0
  9
$HIDETEXT
280
    1
  9
$XCLIPFRAME
290
    0
  9
$HALOGAP
280
    0
  9
$OBSCOLOR
 70
  257
  9
$OBSLTYPE
280
    0
  9
$INTERSECTIONDISPLAY
280
    0
  9
$INTERSECTIONCOLOR
 70
  257
  9
$DIMASSOC
280
    1
  9
$PROJECTNAME
  1

  9
$CAMERADISPLAY
290
    0
  9
$LENSLENGTH
 40
50
  9
$CAMERAHEIGHT
 40
0
  9
$STEPSPERSEC
 40
2
  9
$STEPSIZE
 40
50
  9
$3DDWFPREC
 40
2
  9
$PSOLWIDTH
 40
5
  9
$PSOLHEIGHT
 40
80
  9
$LOFTANG1
 40
1.570796326794897
  9
$LOFTANG2
 40
1.570796326794897
  9
$LOFTMAG1
 40
0
  9
$LOFTMAG2
 40
0
  9
$LOFTPARAM
 70
    7
  9
$LOFTNORMALS
280
    1
  9
$LATITUDE
 40
1
  9
$LONGITUDE
 40
1
  9
$NORTHDIRECTION
 40
0
  9
$TIMEZONE
 70
-8000
  9
$LIGHTGLYPHDISPLAY
280
    1
  9
$TILEMODELIGHTSYNCH
280
    1
  9
$SOLIDHIST
280
    1
  9
$SHOWHIST
280
    1
  9
$DWFFRAME
280
    2
  9
$DGNFRAME
280
    0
  9
$REALWORLDSCALE
290
    1
  9
$INTERFERECOLOR
 62
    1
  9
$CSHADOW
280
    0
  9
$SHADOWPLANELOCATION
 40
0
  0
ENDSEC
  0
SECTION
  2
CLASSES
  0
ENDSEC
  0
SECTION
  2
TABLES
  0
TABLE
  2
VPORT
  5
8
330
0
100
AcDbSymbolTable
 70
    1
  0
VPORT
  5
31
330
2
100
AcDbSymbolTableRecord
100
AcDbViewportTableRecord
  2
*ACTIVE
 70
    0
 10
0
 20
0
 11
1
 21
1
 12
-4.340708099093016
 22
-4.898722490076542
 13
0
 23
0
 14
10
 24
10
 15
10
 25
10
 16
0
 26
0
 36
1
 17
0
 27
0
 37
0
 40
0.5794764829444322
 41
1.814814814814815
 42
50
 43
0
 44
0
 50
0
 51
0
 71
    0
 72
  100
 73
    1
 74
    3
 75
    0
 76
    1
 77
    0
 78
    0
281
    0
 65
    1
110
0
120
0
130
0
111
1
121
0
131
0
112
0
122
1
132
0
 79
    0
146
0
348
10020
 60
    7
 61
    5
292
1
282
    1
141
0
142
0
 63
  250
421
3358443
  0
ENDTAB
  0
TABLE
  2
LTYPE
  5
5
330
0
100
AcDbSymbolTable
 70
    4
  0
LTYPE
  5
14
330
5
100
AcDbSymbolTableRecord
100
AcDbLinetypeTableRecord
  2
ByBlock
 70
    0
  3

 72
   65
 73
    0
 40
0
  0
LTYPE
  5
15
330
5
100
AcDbSymbolTableRecord
100
AcDbLinetypeTableRecord
  2
ByLayer
 70
    0
  3

 72
   65
 73
    0
 40
0
  0
LTYPE
  5
16
330
5
100
AcDbSymbolTableRecord
100
AcDbLinetypeTableRecord
  2
Continuous
 70
    0
  3
Solid line
 72
   65
 73
    0
 40
0
  0
LTYPE
  5
32
330
5
100
AcDbSymbolTableRecord
100
AcDbLinetypeTableRecord
  2
DOT
 70
    0
  3
Dot . . . . . . . . . . . . . . . . . . . . . .
 72
   65
 73
    2
 40
6.35
 49
0
 74
    0
 49
-6.35
 74
    0
  0
LTYPE
  5
33
330
5
100
AcDbSymbolTableRecord
100
AcDbLinetypeTableRecord
  2
DOTTINY
 70
    0
  3
Dot (.15x) .....................................
 72
   65
 73
    2
 40
0.9525
 49
0
 74
    0
 49
-0.9525
 74
    0
  0
LTYPE
  5
34
330
5
100
AcDbSymbolTableRecord
100
AcDbLinetypeTableRecord
  2
DOT2
 70
    0
  3
Dot (.5x) .....................................
 72
   65
 73
    2
 40
3.175
 49
0
 74
    0
 49
-3.175
 74
    0
  0
LTYPE
  5
35
330
5
100
AcDbSymbolTableRecord
100
AcDbLinetypeTableRecord
  2
DOTX2
 70
    0
  3
Dot (2x) .  .  .  .  .  .  .  .  .  .  .  .  .
 72
   65
 73
    2
 40
12.7
 49
0
 74
    0
 49
-12.7
 74
    0
  0
LTYPE
  5
36
330
5
100
AcDbSymbolTableRecord
100
AcDbLinetypeTableRecord
  2
DASHED
 70
    0
  3
Dashed _ _ _ _ _ _ _ _ _ _ _ _ _ _ _ _ _
 72
   65
 73
    2
 40
19.05
 49
12.7
 74
    0
 49
-6.35
 74
    0
  0
LTYPE
  5
37
330
5
100
AcDbSymbolTableRecord
100
AcDbLinetypeTableRecord
  2
DASHEDTINY
 70
    0
  3
Dashed (.15x) _ _ _ _ _ _ _ _ _ _ _ _ _ _ _ _ _
 72
   65
 73
    2
 40
2.8575
 49
1.905
 74
    0
 49
-0.9525
 74
    0
  0
LTYPE
  5
38
330
5
100
AcDbSymbolTableRecord
100
AcDbLinetypeTableRecord
  2
DASHED2
 70
    0
  3
Dashed (.5x) _ _ _ _ _ _ _ _ _ _ _ _ _ _ _ _ _
 72
   65
 73
    2
 40
9.524999999999999
 49
6.35
 74
    0
 49
-3.175
 74
    0
  0
LTYPE
  5
39
330
5
100
AcDbSymbolTableRecord
100
AcDbLinetypeTableRecord
  2
DASHEDX2
 70
    0
  3
Dashed (2x) ____  ____  ____  ____  ____  ___
 72
   65
 73
    2
 40
38.09999999999999
 49
25.4
 74
    0
 49
-12.7
 74
    0
  0
LTYPE
  5
3A
330
5
100
AcDbSymbolTableRecord
100
AcDbLinetypeTableRecord
  2
DASHDOT
 70
    0
  3
Dash dot __ . __ . __ . __ . __ . __ . __ . __
 72
   65
 73
    4
 40
25.4
 49
12.7
 74
    0
 49
-6.35
 74
    0
 49
0
 74
    0
 49
-6.35
 74
    0
  0
LTYPE
  5
3B
330
5
100
AcDbSymbolTableRecord
100
AcDbLinetypeTableRecord
  2
DASHDOTTINY
 70
    0
  3
Dash dot (.15x) _._._._._._._._._._._._._._._.
 72
   65
 73
    4
 40
3.81
 49
1.905
 74
    0
 49
-0.9525
 74
    0
 49
0
 74
    0
 49
-0.9525
 74
    0
  0
LTYPE
  5
3C
330
5
100
AcDbSymbolTableRecord
100
AcDbLinetypeTableRecord
  2
DASHDOT2
 70
    0
  3
Dash dot (.5x) _._._._._._._._._._._._._._._.
 72
   65
 73
    4
 40
12.7
 49
6.35
 74
    0
 49
-3.175
 74
    0
 49
0
 74
    0
 49
-3.175
 74
    0
  0
LTYPE
  5
3D
330
5
100
AcDbSymbolTableRecord
100
AcDbLinetypeTableRecord
  2
DASHDOTX2
 70
    0
  3
Dash dot (2x) ____  .  ____  .  ____  .  ___
 72
   65
 73
    4
 40
50.8
 49
25.4
 74
    0
 49
-12.7
 74
    0
 49
0
 74
    0
 49
-12.7
 74
    0
  0
LTYPE
  5
3E
330
5
100
AcDbSymbolTableRecord
100
AcDbLinetypeTableRecord
  2
DIVIDE
 70
    0
  3
Divide ____ . . ____ . . ____ . . ____ . . ____
 72
   65
 73
    6
 40
31.75
 49
12.7
 74
    0
 49
-6.35
 74
    0
 49
0
 74
    0
 49
-6.35
 74
    0
 49
0
 74
    0
 49
-6.35
 74
    0
  0
LTYPE
  5
3F
330
5
100
AcDbSymbolTableRecord
100
AcDbLinetypeTableRecord
  2
DIVIDETINY
 70
    0
  3
Divide (.15x) __..__..__..__..__..__..__..__.._
 72
   65
 73
    6
 40
4.7625
 49
1.905
 74
    0
 49
-0.9525
 74
    0
 49
0
 74
    0
 49
-0.9525
 74
    0
 49
0
 74
    0
 49
-0.9525
 74
    0
  0
LTYPE
  5
40
330
5
100
AcDbSymbolTableRecord
100
AcDbLinetypeTableRecord
  2
DIVIDE2
 70
    0
  3
Divide (.5x) __..__..__..__..__..__..__..__.._
 72
   65
 73
    6
 40
15.875
 49
6.35
 74
    0
 49
-3.175
 74
    0
 49
0
 74
    0
 49
-3.175
 74
    0
 49
0
 74
    0
 49
-3.175
 74
    0
  0
LTYPE
  5
41
330
5
100
AcDbSymbolTableRecord
100
AcDbLinetypeTableRecord
  2
DIVIDEX2
 70
    0
  3
Divide (2x) ________  .  .  ________  .  .  _
 72
   65
 73
    6
 40
63.5
 49
25.4
 74
    0
 49
-12.7
 74
    0
 49
0
 74
    0
 49
-12.7
 74
    0
 49
0
 74
    0
 49
-12.7
 74
    0
  0
LTYPE
  5
42
330
5
100
AcDbSymbolTableRecord
100
AcDbLinetypeTableRecord
  2
BORDER
 70
    0
  3
Border __ __ . __ __ . __ __ . __ __ . __ __ .
 72
   65
 73
    6
 40
44.45
 49
12.7
 74
    0
 49
-6.35
 74
    0
 49
12.7
 74
    0
 49
-6.35
 74
    0
 49
0
 74
    0
 49
-6.35
 74
    0
  0
LTYPE
  5
43
330
5
100
AcDbSymbolTableRecord
100
AcDbLinetypeTableRecord
  2
BORDERTINY
 70
    0
  3
Border (.15x) __.__.__.__.__.__.__.__.__.__.__.
 72
   65
 73
    6
 40
6.6675
 49
1.905
 74
    0
 49
-0.9525
 74
    0
 49
1.905
 74
    0
 49
-0.9525
 74
    0
 49
0
 74
    0
 49
-0.9525
 74
    0
  0
LTYPE
  5
44
330
5
100
AcDbSymbolTableRecord
100
AcDbLinetypeTableRecord
  2
BORDER2
 70
    0
  3
Border (.5x) __.__.__.__.__.__.__.__.__.__.__.
 72
   65
 73
    6
 40
22.225
 49
6.35
 74
    0
 49
-3.175
 74
    0
 49
6.35
 74
    0
 49
-3.175
 74
    0
 49
0
 74
    0
 49
-3.175
 74
    0
  0
LTYPE
  5
45
330
5
100
AcDbSymbolTableRecord
100
AcDbLinetypeTableRecord
  2
BORDERX2
 70
    0
  3
Border (2x) ____  ____  .  ____  ____  .  ___
 72
   65
 73
    6
 40
88.89999999999999
 49
25.4
 74
    0
 49
-12.7
 74
    0
 49
25.4
 74
    0
 49
-12.7
 74
    0
 49
0
 74
    0
 49
-12.7
 74
    0
  0
LTYPE
  5
46
330
5
100
AcDbSymbolTableRecord
100
AcDbLinetypeTableRecord
  2
CENTER
 70
    0
  3
Center ____ _ ____ _ ____ _ ____ _ ____ _ ____
 72
   65
 73
    4
 40
50.8
 49
31.75
 74
    0
 49
-6.35
 74
    0
 49
6.35
 74
    0
 49
-6.35
 74
    0
  0
LTYPE
  5
47
330
5
100
AcDbSymbolTableRecord
100
AcDbLinetypeTableRecord
  2
CENTERTINY
 70
    0
  3
Center (.15x) ___ _ ___ _ ___ _ ___ _ ___ _ ___
 72
   65
 73
    4
 40
7.619999999999999
 49
4.7625
 74
    0
 49
-0.9525
 74
    0
 49
0.9525
 74
    0
 49
-0.9525
 74
    0
  0
LTYPE
  5
48
330
5
100
AcDbSymbolTableRecord
100
AcDbLinetypeTableRecord
  2
CENTER2
 70
    0
  3
Center (.5x) ___ _ ___ _ ___ _ ___ _ ___ _ ___
 72
   65
 73
    4
 40
28.575
 49
19.05
 74
    0
 49
-3.175
 74
    0
 49
3.175
 74
    0
 49
-3.175
 74
    0
  0
LTYPE
  5
49
330
5
100
AcDbSymbolTableRecord
100
AcDbLinetypeTableRecord
  2
CENTERX2
 70
    0
  3
Center (2x) ________  __  ________  __  _____
 72
   65
 73
    4
 40
101.6
 49
63.5
 74
    0
 49
-12.7
 74
    0
 49
12.7
 74
    0
 49
-12.7
 74
    0
  0
ENDTAB
  0
TABLE
  2
LAYER
  5
2
330
0
100
AcDbSymbolTable
 70
    1
  0
LAYER
  5
10
330
2
100
AcDbSymbolTableRecord
100
AcDbLayerTableRecord
  2
0
 70
    0
 62
    7
  6
CONTINUOUS
370
    0
390
F
  0
LAYER
  5
4A
330
2
100
AcDbSymbolTableRecord
100
AcDbLayerTableRecord
  2
1.5_dims2
 70
    0
 62
    8
  6
CONTINUOUS
370
    0
390
F
  0
ENDTAB
  0
TABLE
  2
STYLE
  5
3
330
0
100
AcDbSymbolTable
 70
    3
  0
STYLE
  5
4B
330
2
100
AcDbSymbolTableRecord
100
AcDbTextStyleTableRecord
  2
standard
 70
    0
 40
0
 41
1
 50
0
 71
    0
 42
1
  3
standard
  4

  0
ENDTAB
  0
TABLE
  2
VIEW
  5
6
330
0
100
AcDbSymbolTable
 70
    0
  0
ENDTAB
  0
TABLE
  2
UCS
  5
7
330
0
100
AcDbSymbolTable
 70
    0
  0
ENDTAB
  0
TABLE
  2
APPID
  5
9
330
0
100
AcDbSymbolTable
 70
    1
  0
APPID
  5
12
330
9
100
AcDbSymbolTableRecord
100
AcDbRegAppTableRecord
  2
ACAD
 70
    0
  0
APPID
  5
4C
330
9
100
AcDbSymbolTableRecord
100
AcDbRegAppTableRecord
  2
LibreCad
 70
    0
  0
ENDTAB
  0
TABLE
  2
DIMSTYLE
  5
A
330
0
100
AcDbSymbolTable
 70
    1
100
AcDbDimStyleTable
 71
    1
  0
DIMSTYLE
105
4D
330
A
100
AcDbSymbolTableRecord
100
AcDbDimStyleTableRecord
  2
Standard
 70
    0
 40
1
 41
0.1
 42
0.025
 43
0.38
 44
0.05
 45
0
 46
0
 47
0
 48
0
 49
0.04
140
0.1
141
0.09
142
0
143
25.4
144
1
145
0
146
1
147
0.1
148
0
 71
    0
 72
    0
 73
    0
 74
    1
 75
    0
 76
    0
 77
    0
 78
    1
 79
    0
170
    0
171
    2
172
    0
173
    0
174
    0
175
    0
176
    0
177
    0
178
    0
179
    2
271
    3
272
    4
273
    2
274
    2
275
    0
276
    0
277
    2
278
    0
279
    0
280
    0
281
    0
282
    0
283
    1
284
    0
285
    0
286
    0
288
    0
289
    3
340
standard
341

371
   -2
372
   -2
  0
ENDTAB
  0
TABLE
  2
BLOCK_RECORD
  5
1
330
0
100
AcDbSymbolTable
 70
    2
  0
BLOCK_RECORD
  5
1F
330
1
100
AcDbSymbolTableRecord
100
AcDbBlockTableRecord
  2
*Model_Space
 70
    0
280
    1
281
    0
  0
BLOCK_RECORD
  5
1E
330
1
100
AcDbSymbolTableRecord
100
AcDbBlockTableRecord
  2
*Paper_Space
 70
    0
280
    1
281
    0
  0
BLOCK_RECORD
  5
4E
330
1
100
AcDbSymbolTableRecord
100
AcDbBlockTableRecord
  2
*D4
 70
    0
280
    1
281
    0
  0
BLOCK_RECORD
  5
51
330
1
100
AcDbSymbolTableRecord
100
AcDbBlockTableRecord
  2
*D2
 70
    0
280
    1
281
    0
  0
BLOCK_RECORD
  5
54
330
1
100
AcDbSymbolTableRecord
100
AcDbBlockTableRecord
  2
*D5
 70
    0
280
    1
281
    0
  0
BLOCK_RECORD
  5
57
330
1
100
AcDbSymbolTableRecord
100
AcDbBlockTableRecord
  2
*D6
 70
    0
280
    1
281
    0
  0
BLOCK_RECORD
  5
5A
330
1
100
AcDbSymbolTableRecord
100
AcDbBlockTableRecord
  2
*D1
 70
    0
280
    1
281
    0
  0
BLOCK_RECORD
  5
5D
330
1
100
AcDbSymbolTableRecord
100
AcDbBlockTableRecord
  2
*D3
 70
    0
280
    1
281
    0
  0
BLOCK_RECORD
  5
60
330
1
100
AcDbSymbolTableRecord
100
AcDbBlockTableRecord
  2
mount_old
 70
    0
280
    1
281
    0
  0
BLOCK_RECORD
  5
63
330
1
100
AcDbSymbolTableRecord
100
AcDbBlockTableRecord
  2
laser_mount_t
 70
    0
280
    1
281
    0
  0
BLOCK_RECORD
  5
66
330
1
100
AcDbSymbolTableRecord
100
AcDbBlockTableRecord
  2
laser_mount_s
 70
    0
280
    1
281
    0
  0
BLOCK_RECORD
  5
69
330
1
100
AcDbSymbolTableRecord
100
AcDbBlockTableRecord
  2
laser_mount_b
 70
    0
280
    1
281
    0
  0
BLOCK_RECORD
  5
6C
330
1
100
AcDbSymbolTableRecord
100
AcDbBlockTableRecord
  2
laser_mount_r
 70
    0
280
    1
281
    0
  0
BLOCK_RECORD
  5
6F
330
1
100
AcDbSymbolTableRecord
100
AcDbBlockTableRecord
  2
laser_mount_f
 70
    0
280
    1
281
    0
  0
BLOCK_RECORD
  5
72
330
1
100
AcDbSymbolTableRecord
100
AcDbBlockTableRecord
  2
laser_mount_enc_f
 70
    0
280
    1
281
    0
  0
BLOCK_RECORD
  5
75
330
1
100
AcDbSymbolTableRecord
100
AcDbBlockTableRecord
  2
laser_mount_enc_s
 70
    0
280
    1
281
    0
  0
BLOCK_RECORD
  5
78
330
1
100
AcDbSymbolTableRecord
100
AcDbBlockTableRecord
  2
laser_mount_enc_b
 70
    0
280
    1
281
    0
  0
BLOCK_RECORD
  5
7B
330
1
100
AcDbSymbolTableRecord
100
AcDbBlockTableRecord
  2
laser_mount_nad_f
 70
    0
280
    1
281
    0
  0
BLOCK_RECORD
  5
7E
330
1
100
AcDbSymbolTableRecord
100
AcDbBlockTableRecord
  2
laser_mount_nad_b
 70
    0
280
    1
281
    0
  0
BLOCK_RECORD
  5
81
330
1
100
AcDbSymbolTableRecord
100
AcDbBlockTableRecord
  2
laser_mount_nad_s
 70
    0
280
    1
281
    0
  0
BLOCK_RECORD
  5
84
330
1
100
AcDbSymbolTableRecord
100
AcDbBlockTableRecord
  2
cross_iso
 70
    0
280
    1
281
    0
  0
BLOCK_RECORD
  5
87
330
1
100
AcDbSymbolTableRecord
100
AcDbBlockTableRecord
  2
laser_mount_iso
 70
    0
280
    1
281
    0
  0
BLOCK_RECORD
  5
8A
330
1
100
AcDbSymbolTableRecord
100
AcDbBlockTableRecord
  2
laser_mount_enc_iso
 70
    0
280
    1
281
    0
  0
BLOCK_RECORD
  5
8D
330
1
100
AcDbSymbolTableRecord
100
AcDbBlockTableRecord
  2
laser_mount_nad_iso
 70
    0
280
    1
281
    0
  0
BLOCK_RECORD
  5
90
330
1
100
AcDbSymbolTableRecord
100
AcDbBlockTableRecord
  2
cross
 70
    0
280
    1
281
    0
  0
BLOCK_RECORD
  5
93
330
1
100
AcDbSymbolTableRecord
100
AcDbBlockTableRecord
  2
laser_mount_cap_f
 70
    0
280
    1
281
    0
  0
BLOCK_RECORD
  5
96
330
1
100
AcDbSymbolTableRecord
100
AcDbBlockTableRecord
  2
laser_mount_cap_b
 70
    0
280
    1
281
    0
  0
BLOCK_RECORD
  5
99
330
1
100
AcDbSymbolTableRecord
100
AcDbBlockTableRecord
  2
laser_mount_cap_iso
 70
    0
280
    1
281
    0
  0
BLOCK_RECORD
  5
9C
330
1
100
AcDbSymbolTableRecord
100
AcDbBlockTableRecord
  2
encoder_s
 70
    0
280
    1
281
    0
  0
BLOCK_RECORD
  5
9F
330
1
100
AcDbSymbolTableRecord
100
AcDbBlockTableRecord
  2
enc_motor_s
 70
    0
280
    1
281
    0
  0
BLOCK_RECORD
  5
A2
330
1
100
AcDbSymbolTableRecord
100
AcDbBlockTableRecord
  2
laser_ss
 70
    0
280
    1
281
    0
  0
BLOCK_RECORD
  5
A5
330
1
100
AcDbSymbolTableRecord
100
AcDbBlockTableRecord
  2
laser_tt
 70
    0
280
    1
281
    0
  0
BLOCK_RECORD
  5
A8
330
1
100
AcDbSymbolTableRecord
100
AcDbBlockTableRecord
  2
encoder_t
 70
    0
280
    1
281
    0
  0
BLOCK_RECORD
  5
AB
330
1
100
AcDbSymbolTableRecord
100
AcDbBlockTableRecord
  2
enc_motor_t
 70
    0
280
    1
281
    0
  0
BLOCK_RECORD
  5
AE
330
1
100
AcDbSymbolTableRecord
100
AcDbBlockTableRecord
  2
link_enc_t
 70
    0
280
    1
281
    0
  0
BLOCK_RECORD
  5
B1
330
1
100
AcDbSymbolTableRecord
100
AcDbBlockTableRecord
  2
link_enc_motor_t
 70
    0
280
    1
281
    0
  0
BLOCK_RECORD
  5
B4
330
1
100
AcDbSymbolTableRecord
100
AcDbBlockTableRecord
  2
mount_plate_s
 70
    0
280
    1
281
    0
  0
BLOCK_RECORD
  5
B7
330
1
100
AcDbSymbolTableRecord
100
AcDbBlockTableRecord
  2
stepper_s
 70
    0
280
    1
281
    0
  0
BLOCK_RECORD
  5
BA
330
1
100
AcDbSymbolTableRecord
100
AcDbBlockTableRecord
  2
mount_arm_s
 70
    0
280
    1
281
    0
  0
BLOCK_RECORD
  5
BD
330
1
100
AcDbSymbolTableRecord
100
AcDbBlockTableRecord
  2
stepper_mount_cap_s
 70
    0
280
    1
281
    0
  0
BLOCK_RECORD
  5
C0
330
1
100
AcDbSymbolTableRecord
100
AcDbBlockTableRecord
  2
stepper_mount_s
 70
    0
280
    1
281
    0
  0
BLOCK_RECORD
  5
C3
330
1
100
AcDbSymbolTableRecord
100
AcDbBlockTableRecord
  2
stepper_mount_cap_r
 70
    0
280
    1
281
    0
  0
BLOCK_RECORD
  5
C6
330
1
100
AcDbSymbolTableRecord
100
AcDbBlockTableRecord
  2
stepper_mount_f
 70
    0
280
    1
281
    0
  0
BLOCK_RECORD
  5
C9
330
1
100
AcDbSymbolTableRecord
100
AcDbBlockTableRecord
  2
stepper_screw_arm_s
 70
    0
280
    1
281
    0
  0
BLOCK_RECORD
  5
CC
330
1
100
AcDbSymbolTableRecord
100
AcDbBlockTableRecord
  2
stepper_screw_arm_f
 70
    0
280
    1
281
    0
  0
BLOCK_RECORD
  5
CF
330
1
100
AcDbSymbolTableRecord
100
AcDbBlockTableRecord
  2
stepper_screw_arm_t
 70
    0
280
    1
281
    0
  0
BLOCK_RECORD
  5
D2
330
1
100
AcDbSymbolTableRecord
100
AcDbBlockTableRecord
  2
stepper_t
 70
    0
280
    1
281
    0
  0
BLOCK_RECORD
  5
D5
330
1
100
AcDbSymbolTableRecord
100
AcDbBlockTableRecord
  2
stepper_mount_t
 70
    0
280
    1
281
    0
  0
BLOCK_RECORD
  5
D8
330
1
100
AcDbSymbolTableRecord
100
AcDbBlockTableRecord
  2
mount_arm_t
 70
    0
280
    1
281
    0
  0
BLOCK_RECORD
  5
DB
330
1
100
AcDbSymbolTableRecord
100
AcDbBlockTableRecord
  2
mount_plate_t
 70
    0
280
    1
281
    0
  0
BLOCK_RECORD
  5
DE
330
1
100
AcDbSymbolTableRecord
100
AcDbBlockTableRecord
  2
mount_arm_cross_t
 70
    0
280
    1
281
    0
  0
BLOCK_RECORD
  5
E1
330
1
100
AcDbSymbolTableRecord
100
AcDbBlockTableRecord
  2
mount_arm_cross_s
 70
    0
280
    1
281
    0
  0
BLOCK_RECORD
  5
E4
330
1
100
AcDbSymbolTableRecord
100
AcDbBlockTableRecord
  2
stepper_f
 70
    0
280
    1
281
    0
  0
BLOCK_RECORD
  5
E7
330
1
100
AcDbSymbolTableRecord
100
AcDbBlockTableRecord
  2
stepper_mount_iso
 70
    0
280
    1
281
    0
  0
BLOCK_RECORD
  5
EA
330
1
100
AcDbSymbolTableRecord
100
AcDbBlockTableRecord
  2
stepper_mount_cap_iso
 70
    0
280
    1
281
    0
  0
BLOCK_RECORD
  5
ED
330
1
100
AcDbSymbolTableRecord
100
AcDbBlockTableRecord
  2
stepper_mount_cap_b
 70
    0
280
    1
281
    0
  0
BLOCK_RECORD
  5
F0
330
1
100
AcDbSymbolTableRecord
100
AcDbBlockTableRecord
  2
cross_m2
 70
    0
280
    1
281
    0
  0
BLOCK_RECORD
  5
F3
330
1
100
AcDbSymbolTableRecord
100
AcDbBlockTableRecord
  2
laser_mount_cap_s
 70
    0
280
    1
281
    0
  0
BLOCK_RECORD
  5
F6
330
1
100
AcDbSymbolTableRecord
100
AcDbBlockTableRecord
  2
mount_plate_f
 70
    0
280
    1
281
    0
  0
BLOCK_RECORD
  5
F9
330
1
100
AcDbSymbolTableRecord
100
AcDbBlockTableRecord
  2
stepper_screw_f
 70
    0
280
    1
281
    0
  0
ENDTAB
  0
ENDSEC
  0
SECTION
  2
BLOCKS
  0
BLOCK
  5
20
330
1F
100
AcDbEntity
  8
0
100
AcDbBlockBegin
  2
*Model_Space
 70
    0
 10
0
 20
0
 30
0
  3
*Model_Space
  1

  0
ENDBLK
  5
21
330
1F
100
AcDbEntity
  8
0
100
AcDbBlockEnd
  0
BLOCK
  5
1C
330
1B
100
AcDbEntity
  8
0
100
AcDbBlockBegin
  2
*Paper_Space
 70
    0
 10
0
 20
0
 30
0
  3
*Paper_Space
  1

  0
ENDBLK
  5
1D
330
1F
100
AcDbEntity
  8
0
100
AcDbBlockEnd
  0
BLOCK
  5
4F
330
4E
100
AcDbEntity
  8
0
100
AcDbBlockBegin
  2
*D4
 70
    1
 10
0
 20
0
  3
*D4
  1

  0
LINE
  5
FC
100
AcDbEntity
  8
1.5_dims2
  6
CONTINUOUS
 62
    7
370
    0
100
AcDbLine
 10
2.597113693454017
 20
-6.129819771217241
 11
3.2
 21
-6.56
  0
LINE
  5
FD
100
AcDbEntity
  8
1.5_dims2
  6
CONTINUOUS
 62
    7
370
    0
100
AcDbLine
 10
3.2
 20
-6.56
 11
3.27
 21
-6.56
  0
SOLID
  5
FE
100
AcDbEntity
  8
1.5_dims2
  6
CONTINUOUS
 62
    7
370
    0
100
AcDbTrace
 10
2.597113693454017
 20
-6.129819771217241
 30
0
 11
2.688187628726967
 21
-6.174348492060914
 31
0
 12
2.668844271061258
 22
-6.201457700432195
 32
0
 13
2.668844271061258
 23
-6.201457700432195
 33
0
  0
ENDBLK
  5
50
330
4E
100
AcDbEntity
  8
0
100
AcDbBlockEnd
  0
BLOCK
  5
52
330
51
100
AcDbEntity
  8
0
100
AcDbBlockBegin
  2
*D2
 70
    1
 10
0
 20
0
  3
*D2
  1

  0
SOLID
  5
FF
100
AcDbEntity
  8
1.5_dims2
  6
ByBlock
 62
    0
370
   -2
100
AcDbTrace
 10
2.72882564870127
 20
-3.265987535675229
 30
0
 11
2.807068961275573
 21
-3.201526286048223
 31
0
 12
2.823735354037741
 22
-3.230358663969551
 32
0
 13
2.823735354037741
 23
-3.230358663969551
 33
0
  0
LINE
  5
100
100
AcDbEntity
  8
1.5_dims2
  6
ByBlock
 62
    0
370
   -2
100
AcDbLine
 10
3.1889764
 20
-3
 11
2.72882564870127
 21
-3.265987535675229
  0
MTEXT
  5
101
100
AcDbEntity
  8
1.5_dims2
  6
CONTINUOUS
 62
    0
370
   -2
100
AcDbMText
 10
2.883833433351122
 20
-3.00312900440453
 30
0
 40
0.1
 41
0.2888888888889014
 71
    5
 72
    1
  1
0.531
  7
standard
210
0
220
0
230
1
 50
30.0298163773863
 73
    2
 44
1
  0
ENDBLK
  5
53
330
51
100
AcDbEntity
  8
0
100
AcDbBlockEnd
  0
BLOCK
  5
55
330
54
100
AcDbEntity
  8
0
100
AcDbBlockBegin
  2
*D5
 70
    1
 10
0
 20
0
  3
*D5
  1

  0
LINE
  5
102
100
AcDbEntity
  8
1.5_dims2
  6
ByBlock
 62
    0
370
   -2
100
AcDbLine
 10
1.5
 20
-5.8
 11
1.5
 21
-6.390000000000001
  0
SOLID
  5
103
100
AcDbEntity
  8
1.5_dims2
  6
ByBlock
 62
    0
370
   -2
100
AcDbTrace
 10
1.5
 20
-6
 30
0
 11
1.483348613689086
 21
-5.9
 31
0
 12
1.516651386310914
 22
-5.9
 32
0
 13
1.516651386310914
 23
-5.9
 33
0
  0
SOLID
  5
104
100
AcDbEntity
  8
1.5_dims2
  6
ByBlock
 62
    0
370
   -2
100
AcDbTrace
 10
1.5
 20
-6.19
 30
0
 11
1.516651386310914
 21
-6.29
 31
0
 12
1.483348613689086
 22
-6.29
 32
0
 13
1.483348613689086
 23
-6.29
 33
0
  0
MTEXT
  5
105
100
AcDbEntity
  8
1.5_dims2
  6
CONTINUOUS
 62
    0
370
   -2
100
AcDbMText
 10
1.35
 20
-6.095000000000001
 30
0
 40
0.1
 41
0
 71
    5
 72
    1
  1

  7
standard
210
0
220
0
230
1
 50
90
 73
    2
 44
1
  0
LINE
  5
106
100
AcDbEntity
  8
1.5_dims2
  6
ByBlock
 62
    0
370
   -2
100
AcDbLine
 10
2.375
 20
-6
 11
1.45
 21
-6
  0
LINE
  5
107
100
AcDbEntity
  8
1.5_dims2
  6
ByBlock
 62
    0
370
   -2
100
AcDbLine
 10
2.375
 20
-6.19
 11
1.45
 21
-6.19
  0
ENDBLK
  5
56
330
54
100
AcDbEntity
  8
0
100
AcDbBlockEnd
  0
BLOCK
  5
58
330
57
100
AcDbEntity
  8
0
100
AcDbBlockBegin
  2
*D6
 70
    1
 10
0
 20
0
  3
*D6
  1

  0
LINE
  5
108
100
AcDbEntity
  8
1.5_dims2
  6
ByBlock
 62
    0
370
   -2
100
AcDbLine
 10
7.3
 20
-2
 11
7.89
 21
-2
  0
SOLID
  5
109
100
AcDbEntity
  8
1.5_dims2
  6
ByBlock
 62
    0
370
   -2
100
AcDbTrace
 10
7.5
 20
-2
 30
0
 11
7.4
 21
-2.016651386310913
 31
0
 12
7.4
 22
-1.983348613689086
 32
0
 13
7.4
 23
-1.983348613689086
 33
0
  0
SOLID
  5
10A
100
AcDbEntity
  8
1.5_dims2
  6
ByBlock
 62
    0
370
   -2
100
AcDbTrace
 10
7.69
 20
-2
 30
0
 11
7.789999999999999
 21
-1.983348613689086
 31
0
 12
7.789999999999999
 22
-2.016651386310913
 32
0
 13
7.789999999999999
 23
-2.016651386310913
 33
0
  0
MTEXT
  5
10B
100
AcDbEntity
  8
1.5_dims2
  6
CONTINUOUS
 62
    0
370
   -2
100
AcDbMText
 10
7.594999999999999
 20
-1.85
 30
0
 40
0.1
 41
0
 71
    5
 72
    1
  1

  7
standard
210
0
220
0
230
1
 50
0
 73
    2
 44
1
  0
LINE
  5
10C
100
AcDbEntity
  8
1.5_dims2
  6
ByBlock
 62
    0
370
   -2
100
AcDbLine
 10
7.5
 20
-2.875
 11
7.5
 21
-1.95
  0
LINE
  5
10D
100
AcDbEntity
  8
1.5_dims2
  6
ByBlock
 62
    0
370
   -2
100
AcDbLine
 10
7.69
 20
-2.875
 11
7.69
 21
-1.95
  0
ENDBLK
  5
59
330
57
100
AcDbEntity
  8
0
100
AcDbBlockEnd
  0
BLOCK
  5
5B
330
5A
100
AcDbEntity
  8
0
100
AcDbBlockBegin
  2
*D1
 70
    1
 10
0
 20
0
  3
*D1
  1

  0
SOLID
  5
10E
100
AcDbEntity
  8
1.5_dims2
  6
ByBlock
 62
    0
370
   -2
100
AcDbTrace
 10
4.700445433376631
 20
-3.251619764563319
 30
0
 11
4.604478574616604
 21
-3.218945146190515
 31
0
 12
4.620244703703407
 22
-3.189610800485875
 32
0
 13
4.620244703703407
 23
-3.189610800485875
 33
0
  0
LINE
  5
10F
100
AcDbEntity
  8
1.5_dims2
  6
ByBlock
 62
    0
370
   -2
100
AcDbLine
 10
4.232283520000001
 20
-3
 11
4.700445433376631
 21
-3.25161976456332
  0
MTEXT
  5
110
100
AcDbEntity
  8
1.5_dims2
  6
CONTINUOUS
 62
    0
370
   -2
100
AcDbMText
 10
4.537377163526002
 20
-2.993684190956721
 30
0
 40
0.1
 41
0.2888888888889014
 71
    5
 72
    1
  1
0.531
  7
standard
210
0
220
0
230
1
 50
331.7436096542907
 73
    2
 44
1
  0
ENDBLK
  5
5C
330
5A
100
AcDbEntity
  8
0
100
AcDbBlockEnd
  0
BLOCK
  5
5E
330
5D
100
AcDbEntity
  8
0
100
AcDbBlockBegin
  2
*D3
 70
    1
 10
0
 20
0
  3
*D3
  1

  0
LINE
  5
111
100
AcDbEntity
  8
1.5_dims2
  6
CONTINUOUS
 62
    7
370
    0
100
AcDbLine
 10
4.818316581152102
 20
-6.1260517202883
 11
4.3
 21
-6.550000000000001
  0
LINE
  5
112
100
AcDbEntity
  8
1.5_dims2
  6
CONTINUOUS
 62
    7
370
    0
100
AcDbLine
 10
4.3
 20
-6.550000000000001
 11
4.2
 21
-6.550000000000001
  0
SOLID
  5
113
100
AcDbEntity
  8
1.5_dims2
  6
CONTINUOUS
 62
    7
370
    0
100
AcDbTrace
 10
4.818316581152102
 20
-6.1260517202883
 30
0
 11
4.751453782626341
 21
-6.202252998751189
 31
0
 12
4.73036904949925
 22
-6.176474932623947
 32
0
 13
4.73036904949925
 23
-6.176474932623947
 33
0
  0
ENDBLK
  5
5F
330
5D
100
AcDbEntity
  8
0
100
AcDbBlockEnd
  0
BLOCK
  5
61
330
60
100
AcDbEntity
  8
0
100
AcDbBlockBegin
  2
mount_old
 70
    0
 10
0
 20
0
  3
mount_old
  1

  0
LINE
  5
114
100
AcDbEntity
  8
0
  6
ByLayer
 62
  256
370
   -1
100
AcDbLine
 10
-13.25
 20
17.49999999999999
 11
13.25
 21
17.49999999999999
  0
LINE
  5
115
100
AcDbEntity
  8
0
  6
ByLayer
 62
  256
370
   -1
100
AcDbLine
 10
13.25
 20
17.49999999999999
 11
13.25
 21
18.49999999999999
  0
LINE
  5
116
100
AcDbEntity
  8
0
  6
ByLayer
 62
  256
370
   -1
100
AcDbLine
 10
13.25
 20
18.49999999999999
 11
13.25
 21
16.49999999999999
  0
LINE
  5
117
100
AcDbEntity
  8
0
  6
ByLayer
 62
  256
370
   -1
100
AcDbLine
 10
-13.25
 20
18.49999999999999
 11
-13.25
 21
16.49999999999999
  0
LINE
  5
118
100
AcDbEntity
  8
0
  6
ByLayer
 62
  256
370
   -1
100
AcDbLine
 10
-13.25
 20
3.999999999999993
 11
13.25
 21
3.999999999999993
  0
LINE
  5
119
100
AcDbEntity
  8
0
  6
ByLayer
 62
  256
370
   -1
100
AcDbLine
 10
-13.25
 20
-7.105427357601002e-15
 11
13.25
 21
-7.105427357601002e-15
  0
ARC
  5
11A
100
AcDbEntity
  8
0
  6
ByLayer
 62
  256
370
   -1
100
AcDbCircle
 10
-13.25
 20
17.49999999999999
 40
13.5
100
AcDbArc
 50
180
 51
270
  0
ARC
  5
11B
100
AcDbEntity
  8
0
  6
ByLayer
 62
  256
370
   -1
100
AcDbCircle
 10
13.25
 20
17.49999999999999
 40
13.5
100
AcDbArc
 50
270
 51
0
  0
LINE
  5
11C
100
AcDbEntity
  8
0
  6
ByLayer
 62
  256
370
   -1
100
AcDbLine
 10
26.75
 20
17.49999999999999
 11
30.75000000000001
 21
17.49999999999999
  0
ARC
  5
11D
100
AcDbEntity
  8
0
  6
ByLayer
 62
  256
370
   -1
100
AcDbCircle
 10
-13.25
 20
17.49999999999999
 40
17.5
100
AcDbArc
 50
180
 51
269.9999996496227
  0
LINE
  5
11E
100
AcDbEntity
  8
0
  6
ByLayer
 62
  256
370
   -1
100
AcDbLine
 10
-30.75
 20
17.5
 11
-26.75
 21
17.49999999999999
  0
ARC
  5
11F
100
AcDbEntity
  8
0
  6
ByLayer
 62
  256
370
   -1
100
AcDbCircle
 10
13.25
 20
17.49999999999999
 40
17.5
100
AcDbArc
 50
269.9999991649073
 51
360
  0
LINE
  5
120
100
AcDbEntity
  8
0
  6
ByLayer
 62
  256
370
   -1
100
AcDbLine
 10
-29.75
 20
17.49999999999999
 11
-29.75
 21
11.6690481051547
  0
LINE
  5
121
100
AcDbEntity
  8
0
  6
ByLayer
 62
  256
370
   -1
100
AcDbLine
 10
-27.75
 20
17.49999999999999
 11
-27.75
 21
7.702041028867281
  0
LINE
  5
122
100
AcDbEntity
  8
0
  6
ByLayer
 62
  256
370
   -1
100
AcDbLine
 10
27.75
 20
17.49999999999999
 11
27.75
 21
7.702041028867288
  0
LINE
  5
123
100
AcDbEntity
  8
0
  6
ByLayer
 62
  256
370
   -1
100
AcDbLine
 10
29.75
 20
17.49999999999999
 11
29.75
 21
11.66904810515475
  0
LINE
  5
124
100
AcDbEntity
  8
0
  6
ByLayer
 62
  256
370
   -1
100
AcDbLine
 10
0
 20
17.5
 11
0
 21
18.5
  0
LINE
  5
125
100
AcDbEntity
  8
0
  6
ByLayer
 62
  256
370
   -1
100
AcDbLine
 10
0
 20
18.5
 11
0
 21
16.5
  0
LINE
  5
126
100
AcDbEntity
  8
0
  6
ByLayer
 62
  256
370
   -1
100
AcDbLine
 10
3
 20
5
 11
3
 21
0
  0
LINE
  5
127
100
AcDbEntity
  8
0
  6
ByLayer
 62
  256
370
   -1
100
AcDbLine
 10
-3
 20
5
 11
-3
 21
0
  0
LINE
  5
128
100
AcDbEntity
  8
0
  6
ByLayer
 62
  256
370
   -1
100
AcDbLine
 10
-12
 20
5
 11
12
 21
5
  0
LINE
  5
129
100
AcDbEntity
  8
0
  6
ByLayer
 62
  256
370
   -1
100
AcDbLine
 10
12
 20
5
 11
12
 21
0
  0
LINE
  5
12A
100
AcDbEntity
  8
0
  6
ByLayer
 62
  256
370
   -1
100
AcDbLine
 10
-12
 20
5
 11
-12
 21
0
  0
ENDBLK
  5
62
330
60
100
AcDbEntity
  8
0
100
AcDbBlockEnd
  0
BLOCK
  5
64
330
63
100
AcDbEntity
  8
0
100
AcDbBlockBegin
  2
laser_mount_t
 70
    0
 10
0
 20
0
  3
laser_mount_t
  1

  0
LINE
  5
12B
100
AcDbEntity
  8
0
  6
ByLayer
 62
  256
370
   -1
100
AcDbLine
 10
0
 20
-0.1968504
 11
0
 21
-0.1968504
  0
LINE
  5
12C
100
AcDbEntity
  8
0
  6
ByLayer
 62
  256
370
   -1
100
AcDbLine
 10
2.421259920000001
 20
-0.1968504
 11
2.421259920000001
 21
-0.1968504
  0
LINE
  5
12D
100
AcDbEntity
  8
0
  6
ByLayer
 62
  256
370
   -1
100
AcDbLine
 10
0
 20
0
 11
2.421259920000001
 21
0
  0
LINE
  5
12E
100
AcDbEntity
  8
0
  6
ByLayer
 62
  256
370
   -1
100
AcDbLine
 10
-3.469446951953614e-18
 20
-0.19
 11
2.421259920000001
 21
-0.19
  0
LINE
  5
12F
100
AcDbEntity
  8
0
  6
ByLayer
 62
  256
370
   -1
100
AcDbLine
 10
0
 20
0
 11
-3.469446951953614e-18
 21
-0.19
  0
LINE
  5
130
100
AcDbEntity
  8
0
  6
CONTINUOUS
 62
  256
370
   -1
100
AcDbLine
 10
0.15748032
 20
0
 11
0.15748032
 21
-0.19
  0
LINE
  5
131
100
AcDbEntity
  8
0
  6
CONTINUOUS
 62
  256
370
   -1
100
AcDbLine
 10
2.2637796
 20
3.496765543786751e-17
 11
2.2637796
 21
-0.19
  0
LINE
  5
132
100
AcDbEntity
  8
0
  6
ByLayer
 62
  256
370
   -1
100
AcDbLine
 10
2.421259920000001
 20
-0.19
 11
2.421259920000001
 21
0
  0
CIRCLE
  5
133
100
AcDbEntity
  8
0
  6
ByLayer
 62
  256
370
   -1
100
AcDbCircle
 10
2.34251976
 20
-0.09500000000000001
 40
0.03937008
  0
CIRCLE
  5
134
100
AcDbEntity
  8
0
  6
ByLayer
 62
  256
370
   -1
100
AcDbCircle
 10
0.07874016
 20
-0.09499999999999999
 40
0.03937008
  0
LINE
  5
135
100
AcDbEntity
  8
0
  6
DASHEDTINY
 62
  256
370
   -1
100
AcDbLine
 10
1.565
 20
8.67362e-19
 11
1.565
 21
-0.19
  0
LINE
  5
136
100
AcDbEntity
  8
0
  6
DASHEDTINY
 62
  256
370
   -1
100
AcDbLine
 10
1.486
 20
-5.20417e-18
 11
1.486
 21
-0.19
  0
LINE
  5
137
100
AcDbEntity
  8
0
  6
DASHEDTINY
 62
  256
370
   -1
100
AcDbLine
 10
0.9350000000000001
 20
2.60209e-18
 11
0.9350000000000001
 21
-0.19
  0
LINE
  5
138
100
AcDbEntity
  8
0
  6
DASHEDTINY
 62
  256
370
   -1
100
AcDbLine
 10
0.856
 20
-3.46945e-18
 11
0.856
 21
-0.19
  0
ENDBLK
  5
65
330
63
100
AcDbEntity
  8
0
100
AcDbBlockEnd
  0
BLOCK
  5
67
330
66
100
AcDbEntity
  8
0
100
AcDbBlockBegin
  2
laser_mount_s
 70
    0
 10
0
 20
0
  3
laser_mount_s
  1

  0
LINE
  5
139
100
AcDbEntity
  8
0
  6
ByLayer
 62
  256
370
   -1
100
AcDbLine
 10
0
 20
-0.6889763999999996
 11
0
 21
0
  0
LINE
  5
13A
100
AcDbEntity
  8
0
  6
ByLayer
 62
  256
370
   -1
100
AcDbLine
 10
0.19
 20
-3.469446951953614e-18
 11
0.19
 21
-0.6889763999999996
  0
LINE
  5
13B
100
AcDbEntity
  8
0
  6
ByLayer
 62
  256
370
   -1
100
AcDbLine
 10
0
 20
0
 11
0.19
 21
-3.469446951953614e-18
  0
LINE
  5
13C
100
AcDbEntity
  8
0
  6
ByLayer
 62
  256
370
   -1
100
AcDbLine
 10
2.185478464866719e-18
 20
-0.3149606399999996
 11
0.19
 21
-0.3149606399999996
  0
LINE
  5
13D
100
AcDbEntity
  8
0
  6
ByLayer
 62
  256
370
   -1
100
AcDbLine
 10
0.19
 20
-0.6889763999999996
 11
0
 21
-0.6889763999999996
  0
ELLIPSE
  5
13E
100
AcDbEntity
  8
0
  6
ByLayer
 62
  256
370
   -1
100
AcDbEllipse
 10
0.095
 20
-0.3846063115199993
 30
0
 11
0.0393700799999999
 21
-2.903375329319715e-16
 31
0
 40
0.8850000000000039
 41
0
 42
6.283185307179586
  0
LINE
  5
13F
100
AcDbEntity
  8
0
  6
DASHEDTINY
 62
  256
370
   -1
100
AcDbLine
 10
0.13437
 20
-0.384606
 11
0.13437
 21
2.25514e-17
  0
LINE
  5
140
100
AcDbEntity
  8
0
  6
DASHEDTINY
 62
  256
370
   -1
100
AcDbLine
 10
0.0556299
 20
-0.384606
 11
0.0556299
 21
2.25514e-17
  0
ENDBLK
  5
68
330
66
100
AcDbEntity
  8
0
100
AcDbBlockEnd
  0
BLOCK
  5
6A
330
69
100
AcDbEntity
  8
0
100
AcDbBlockBegin
  2
laser_mount_b
 70
    0
 10
0
 20
0
  3
laser_mount_b
  1

  0
LINE
  5
141
100
AcDbEntity
  8
0
  6
ByLayer
 62
  256
370
   -1
100
AcDbLine
 10
2.421259920000001
 20
-0.1968504
 11
2.421259920000001
 21
-0.1968504
  0
LINE
  5
142
100
AcDbEntity
  8
0
  6
ByLayer
 62
  256
370
   -1
100
AcDbLine
 10
2.421259920000001
 20
0
 11
0
 21
0
  0
LINE
  5
143
100
AcDbEntity
  8
0
  6
ByLayer
 62
  256
370
   -1
100
AcDbLine
 10
-1.561251128379126e-17
 20
-0.19
 11
2.421259920000001
 21
-0.19
  0
LINE
  5
144
100
AcDbEntity
  8
0
  6
ByLayer
 62
  256
370
   -1
100
AcDbLine
 10
0
 20
0
 11
0
 21
-0.19
  0
LINE
  5
145
100
AcDbEntity
  8
0
  6
CONTINUOUS
 62
  256
370
   -1
100
AcDbLine
 10
0.4232283600000001
 20
-0.19
 11
0.42322836
 21
0
  0
LINE
  5
146
100
AcDbEntity
  8
0
  6
ByLayer
 62
  256
370
   -1
100
AcDbLine
 10
2.421259920000001
 20
-0.19
 11
2.421259920000001
 21
0
  0
LINE
  5
147
100
AcDbEntity
  8
0
  6
ByLayer
 62
  256
370
   -1
100
AcDbLine
 10
1.99803156
 20
-0.19
 11
1.99803156
 21
0
  0
CIRCLE
  5
148
100
AcDbEntity
  8
0
  6
ByLayer
 62
  256
370
   -1
100
AcDbCircle
 10
2.34251976
 20
-0.095
 40
0.03937008
  0
CIRCLE
  5
149
100
AcDbEntity
  8
0
  6
ByLayer
 62
  256
370
   -1
100
AcDbCircle
 10
0.07874016
 20
-0.09500000000000003
 40
0.03937008
  0
LINE
  5
14A
100
AcDbEntity
  8
0
  6
DASHEDTINY
 62
  256
370
   -1
100
AcDbLine
 10
0.856
 20
-4.33681e-18
 11
0.856
 21
-0.19
  0
LINE
  5
14B
100
AcDbEntity
  8
0
  6
DASHEDTINY
 62
  256
370
   -1
100
AcDbLine
 10
0.9350000000000001
 20
1.73472e-18
 11
0.9350000000000001
 21
-0.19
  0
LINE
  5
14C
100
AcDbEntity
  8
0
  6
DASHEDTINY
 62
  256
370
   -1
100
AcDbLine
 10
1.486
 20
-2.60209e-18
 11
1.486
 21
-0.19
  0
LINE
  5
14D
100
AcDbEntity
  8
0
  6
DASHEDTINY
 62
  256
370
   -1
100
AcDbLine
 10
1.565
 20
3.46945e-18
 11
1.565
 21
-0.19
  0
ENDBLK
  5
6B
330
69
100
AcDbEntity
  8
0
100
AcDbBlockEnd
  0
BLOCK
  5
6D
330
6C
100
AcDbEntity
  8
0
100
AcDbBlockBegin
  2
laser_mount_r
 70
    0
 10
0
 20
0
  3
laser_mount_r
  1

  0
LINE
  5
14E
100
AcDbEntity
  8
0
  6
ByLayer
 62
  256
370
   -1
100
AcDbLine
 10
-13.25
 20
4
 11
13.25
 21
4
  0
LINE
  5
14F
100
AcDbEntity
  8
0
  6
ByLayer
 62
  256
370
   -1
100
AcDbLine
 10
-13.25
 20
0
 11
13.25
 21
0
  0
ARC
  5
150
100
AcDbEntity
  8
0
  6
ByLayer
 62
  256
370
   -1
100
AcDbCircle
 10
-13.25
 20
17.5
 40
13.5
100
AcDbArc
 50
180
 51
270
  0
ARC
  5
151
100
AcDbEntity
  8
0
  6
ByLayer
 62
  256
370
   -1
100
AcDbCircle
 10
13.25
 20
17.5
 40
13.5
100
AcDbArc
 50
270
 51
0
  0
LINE
  5
152
100
AcDbEntity
  8
0
  6
ByLayer
 62
  256
370
   -1
100
AcDbLine
 10
26.75
 20
17.5
 11
30.75000000000001
 21
17.5
  0
LINE
  5
153
100
AcDbEntity
  8
0
  6
ByLayer
 62
  256
370
   -1
100
AcDbLine
 10
-30.75
 20
17.5
 11
-26.75
 21
17.5
  0
LINE
  5
154
100
AcDbEntity
  8
0
  6
ByLayer
 62
  256
370
   -1
100
AcDbLine
 10
12
 20
0
 11
20
 21
0
  0
LINE
  5
155
100
AcDbEntity
  8
0
  6
ByLayer
 62
  256
370
   -1
100
AcDbLine
 10
30.75
 20
17.5
 11
30.75
 21
9.5
  0
LINE
  5
156
100
AcDbEntity
  8
0
  6
ByLayer
 62
  256
370
   -1
100
AcDbLine
 10
30.75
 20
9.5
 11
20
 21
0
  0
LINE
  5
157
100
AcDbEntity
  8
0
  6
ByLayer
 62
  256
370
   -1
100
AcDbLine
 10
-12
 20
0
 11
-20
 21
0
  0
LINE
  5
158
100
AcDbEntity
  8
0
  6
ByLayer
 62
  256
370
   -1
100
AcDbLine
 10
-30.75
 20
17.5
 11
-30.75
 21
9.5
  0
LINE
  5
159
100
AcDbEntity
  8
0
  6
ByLayer
 62
  256
370
   -1
100
AcDbLine
 10
-30.75
 20
9.5
 11
-20
 21
0
  0
CIRCLE
  5
15A
100
AcDbEntity
  8
0
  6
ByLayer
 62
  256
370
   -1
100
AcDbCircle
 10
-8
 20
2
 40
1
  0
CIRCLE
  5
15B
100
AcDbEntity
  8
0
  6
ByLayer
 62
  256
370
   -1
100
AcDbCircle
 10
8
 20
2
 40
1
  0
ENDBLK
  5
6E
330
6C
100
AcDbEntity
  8
0
100
AcDbBlockEnd
  0
BLOCK
  5
70
330
6F
100
AcDbEntity
  8
0
100
AcDbBlockBegin
  2
laser_mount_f
 70
    0
 10
0
 20
0
  3
laser_mount_f
  1

  0
ARC
  5
15C
100
AcDbEntity
  8
0
  6
ByLayer
 62
  256
370
   -1
100
AcDbCircle
 10
0.6889764
 20
0
 40
0.53149608
100
AcDbArc
 50
180
 51
270
  0
ARC
  5
15D
100
AcDbEntity
  8
0
  6
ByLayer
 62
  256
370
   -1
100
AcDbCircle
 10
1.73228352
 20
0
 40
0.53149608
100
AcDbArc
 50
270
 51
0
  0
LINE
  5
15E
100
AcDbEntity
  8
0
  6
ByLayer
 62
  256
370
   -1
100
AcDbLine
 10
2.2637796
 20
0
 11
2.421259920000001
 21
0
  0
LINE
  5
15F
100
AcDbEntity
  8
0
  6
ByLayer
 62
  256
370
   -1
100
AcDbLine
 10
0
 20
0
 11
0.15748032
 21
0
  0
LINE
  5
160
100
AcDbEntity
  8
0
  6
ByLayer
 62
  256
370
   -1
100
AcDbLine
 10
2.42125992
 20
0
 11
2.42125992
 21
-0.31496064
  0
LINE
  5
161
100
AcDbEntity
  8
0
  6
ByLayer
 62
  256
370
   -1
100
AcDbLine
 10
2.42125992
 20
-0.31496064
 11
1.99803156
 21
-0.6889764
  0
LINE
  5
162
100
AcDbEntity
  8
0
  6
ByLayer
 62
  256
370
   -1
100
AcDbLine
 10
0
 20
0
 11
0
 21
-0.31496064
  0
LINE
  5
163
100
AcDbEntity
  8
0
  6
ByLayer
 62
  256
370
   -1
100
AcDbLine
 10
0
 20
-0.31496064
 11
0.42322836
 21
-0.6889764
  0
LINE
  5
164
100
AcDbEntity
  8
0
  6
ByLayer
 62
  256
370
   -1
100
AcDbLine
 10
0.6889764
 20
-0.53149608
 11
0.738189
 21
-0.53149608
  0
LINE
  5
165
100
AcDbEntity
  8
0
  6
ByLayer
 62
  256
370
   -1
100
AcDbLine
 10
1.68307092
 20
-0.53149608
 11
1.73228352
 21
-0.53149608
  0
LINE
  5
166
100
AcDbEntity
  8
0
  6
ByLayer
 62
  256
370
   -1
100
AcDbLine
 10
0.42322836
 20
-0.6889764
 11
1.99803156
 21
-0.6889764
  0
LINE
  5
167
100
AcDbEntity
  8
0
  6
CONTINUOUS
 62
  256
370
   -1
100
AcDbLine
 10
0.738189
 20
-0.53149608
 11
1.68307092
 21
-0.53149608
  0
CIRCLE
  5
168
100
AcDbEntity
  8
0
  6
ByLayer
 62
  256
370
   -1
100
AcDbCircle
 10
0.89566932
 20
-0.61023624
 40
0.03937008
  0
CIRCLE
  5
169
100
AcDbEntity
  8
0
  6
ByLayer
 62
  256
370
   -1
100
AcDbCircle
 10
1.5255906
 20
-0.61023624
 40
0.03937008
  0
LINE
  5
16A
100
AcDbEntity
  8
0
  6
ByLayer
 62
  256
370
   -1
100
AcDbLine
 10
2.303
 20
0.0009999999999999966
 11
2.303
 21
0
  0
LINE
  5
16B
100
AcDbEntity
  8
0
  6
DASHEDTINY
 62
  256
370
   -1
100
AcDbLine
 10
2.382
 20
-6.07153e-18
 11
2.382
 21
-0.349655
  0
LINE
  5
16C
100
AcDbEntity
  8
0
  6
DASHEDTINY
 62
  256
370
   -1
100
AcDbLine
 10
2.303
 20
0
 11
2.303
 21
-0.419469
  0
LINE
  5
16D
100
AcDbEntity
  8
0
  6
DASHEDTINY
 62
  256
370
   -1
100
AcDbLine
 10
0.118
 20
-2.60209e-18
 11
0.118
 21
-0.41924
  0
LINE
  5
16E
100
AcDbEntity
  8
0
  6
DASHEDTINY
 62
  256
370
   -1
100
AcDbLine
 10
0.039
 20
-0.349426
 11
0.039
 21
-3.29597e-17
  0
ENDBLK
  5
71
330
6F
100
AcDbEntity
  8
0
100
AcDbBlockEnd
  0
BLOCK
  5
73
330
72
100
AcDbEntity
  8
0
100
AcDbBlockBegin
  2
laser_mount_enc_f
 70
    0
 10
0
 20
0
  3
laser_mount_enc_f
  1

  0
LINE
  5
16F
100
AcDbEntity
  8
0
  6
ByLayer
 62
  256
370
   -1
100
AcDbLine
 10
0
 20
0
 11
0.8661417600000001
 21
0
  0
LINE
  5
170
100
AcDbEntity
  8
0
  6
ByLayer
 62
  256
370
   -1
100
AcDbLine
 10
-1.214306433183765e-17
 20
-0.25
 11
0.8661417600000001
 21
-0.25
  0
CIRCLE
  5
171
100
AcDbEntity
  8
0
  6
ByLayer
 62
  256
370
   -1
100
AcDbCircle
 10
0.43307088
 20
-0.125
 40
0.03937008
  0
CIRCLE
  5
172
100
AcDbEntity
  8
0
  6
ByLayer
 62
  256
370
   -1
100
AcDbCircle
 10
0.11811024
 20
-0.155
 40
0.03937008
  0
LINE
  5
173
100
AcDbEntity
  8
0
  6
ByLayer
 62
  256
370
   -1
100
AcDbLine
 10
2.775557561562891e-17
 20
5.551115123125783e-17
 11
-1.214306433183765e-17
 21
-0.25
  0
LINE
  5
174
100
AcDbEntity
  8
0
  6
ByLayer
 62
  256
370
   -1
100
AcDbLine
 10
0.23622048
 20
-0.25
 11
0.2362204800000001
 21
0
  0
LINE
  5
175
100
AcDbEntity
  8
0
  6
ByLayer
 62
  256
370
   -1
100
AcDbLine
 10
0.62992128
 20
-0.25
 11
0.62992128
 21
0
  0
LINE
  5
176
100
AcDbEntity
  8
0
  6
ByLayer
 62
  256
370
   -1
100
AcDbLine
 10
0.8661417600000001
 20
0
 11
0.8661417600000001
 21
-0.25
  0
CIRCLE
  5
177
100
AcDbEntity
  8
0
  6
ByLayer
 62
  256
370
   -1
100
AcDbCircle
 10
0.748
 20
-0.155
 40
0.03937008
  0
LINE
  5
178
100
AcDbEntity
  8
0
  6
DASHEDTINY
 62
  256
370
   -1
100
AcDbLine
 10
0.315
 20
-2.60209e-18
 11
0.315
 21
-0.25
  0
LINE
  5
179
100
AcDbEntity
  8
0
  6
DASHEDTINY
 62
  256
370
   -1
100
AcDbLine
 10
0.551
 20
2.60209e-18
 11
0.551
 21
-0.25
  0
ENDBLK
  5
74
330
72
100
AcDbEntity
  8
0
100
AcDbBlockEnd
  0
BLOCK
  5
76
330
75
100
AcDbEntity
  8
0
100
AcDbBlockBegin
  2
laser_mount_enc_s
 70
    0
 10
0
 20
0
  3
laser_mount_enc_s
  1

  0
LINE
  5
17A
100
AcDbEntity
  8
0
  6
ByLayer
 62
  256
370
   -1
100
AcDbLine
 10
-3.496765543786758e-17
 20
-0.3543307200000001
 11
-7.395570986446986e-32
 21
0
  0
LINE
  5
17B
100
AcDbEntity
  8
0
  6
ByLayer
 62
  256
370
   -1
100
AcDbLine
 10
0.25
 20
-0.3543307200000002
 11
0.25
 21
-5.204170427930421e-17
  0
LINE
  5
17C
100
AcDbEntity
  8
0
  6
ByLayer
 62
  256
370
   -1
100
AcDbLine
 10
0.25
 20
-5.204170427930421e-17
 11
-7.395570986446986e-32
 21
0
  0
LINE
  5
17D
100
AcDbEntity
  8
0
  6
ByLayer
 62
  256
370
   -1
100
AcDbLine
 10
-3.496765543786758e-17
 20
-0.2755905599999995
 11
0.25
 21
-0.2755905599999995
  0
LINE
  5
17E
100
AcDbEntity
  8
0
  6
ByLayer
 62
  256
370
   -1
100
AcDbLine
 10
-3.496765543786758e-17
 20
-0.3543307200000001
 11
0.25
 21
-0.3543307200000001
  0
LINE
  5
17F
100
AcDbEntity
  8
0
  6
DASHEDTINY
 62
  256
370
   -1
100
AcDbLine
 10
0.115
 20
-0.275591
 11
0.115
 21
-0.354331
  0
LINE
  5
180
100
AcDbEntity
  8
0
  6
DASHEDTINY
 62
  256
370
   -1
100
AcDbLine
 10
0.195
 20
-0.275591
 11
0.195
 21
-0.354331
  0
LINE
  5
181
100
AcDbEntity
  8
0
  6
DASHEDTINY
 62
  256
370
   -1
100
AcDbLine
 10
-6.93889e-18
 20
-0.29
 11
0.25
 21
-0.29
  0
LINE
  5
182
100
AcDbEntity
  8
0
  6
DASHEDTINY
 62
  256
370
   -1
100
AcDbLine
 10
-6.07153e-18
 20
-0.054
 11
0.25
 21
-0.054
  0
LINE
  5
183
100
AcDbEntity
  8
0
  6
DASHEDTINY
 62
  256
370
   -1
100
AcDbLine
 10
0.164
 20
8.67362e-19
 11
0.164
 21
-0.054
  0
LINE
  5
184
100
AcDbEntity
  8
0
  6
DASHEDTINY
 62
  256
370
   -1
100
AcDbLine
 10
0.08400000000000001
 20
3.46945e-18
 11
0.08400000000000001
 21
-0.054
  0
ENDBLK
  5
77
330
75
100
AcDbEntity
  8
0
100
AcDbBlockEnd
  0
BLOCK
  5
79
330
78
100
AcDbEntity
  8
0
100
AcDbBlockBegin
  2
laser_mount_enc_b
 70
    0
 10
0
 20
0
  3
laser_mount_enc_b
  1

  0
LINE
  5
185
100
AcDbEntity
  8
0
  6
ByLayer
 62
  256
370
   -1
100
AcDbLine
 10
0.6299212799999996
 20
0.0787401600000002
 11
0.8661417599999996
 21
0.0787401600000002
  0
LINE
  5
186
100
AcDbEntity
  8
0
  6
ByLayer
 62
  256
370
   -1
100
AcDbLine
 10
0.8661417599999996
 20
0.0787401600000002
 11
0.8661417599999996
 21
1.942890293094024e-16
  0
LINE
  5
187
100
AcDbEntity
  8
0
  6
ByLayer
 62
  256
370
   -1
100
AcDbLine
 10
0
 20
0.0787401600000002
 11
0.2362204800000001
 21
0.0787401600000002
  0
LINE
  5
188
100
AcDbEntity
  8
0
  6
CONTINUOUS
 62
  256
370
   -1
100
AcDbLine
 10
0.8661417599999996
 20
1.942890293094024e-16
 11
0
 21
1.942890293094024e-16
  0
LINE
  5
189
100
AcDbEntity
  8
0
  6
ByLayer
 62
  256
370
   -1
100
AcDbLine
 10
0
 20
1.942890293094024e-16
 11
0
 21
0.0787401600000002
  0
LINE
  5
18A
100
AcDbEntity
  8
0
  6
ByLayer
 62
  256
370
   -1
100
AcDbLine
 10
0.2362204800000001
 20
0.0787401600000002
 11
0.2362204800000001
 21
0.3543307200000002
  0
LINE
  5
18B
100
AcDbEntity
  8
0
  6
ByLayer
 62
  256
370
   -1
100
AcDbLine
 10
0.6299212799999997
 20
0.3543307200000002
 11
0.6299212799999996
 21
0.0787401600000002
  0
LINE
  5
18C
100
AcDbEntity
  8
0
  6
ByLayer
 62
  256
370
   -1
100
AcDbLine
 10
0.2362204800000001
 20
0.3543307200000002
 11
0.6299212799999997
 21
0.3543307200000002
  0
CIRCLE
  5
18D
100
AcDbEntity
  8
0
  6
ByLayer
 62
  256
370
   -1
100
AcDbCircle
 10
0.4330708800000007
 20
0.18188976
 40
0.11811024
  0
LINE
  5
18E
100
AcDbEntity
  8
0
  6
DASHEDTINY
 62
  256
370
   -1
100
AcDbLine
 10
0.078
 20
0.0787402
 11
0.078
 21
0
  0
LINE
  5
18F
100
AcDbEntity
  8
0
  6
DASHEDTINY
 62
  256
370
   -1
100
AcDbLine
 10
0.158
 20
0.0787402
 11
0.158
 21
0
  0
LINE
  5
190
100
AcDbEntity
  8
0
  6
DASHEDTINY
 62
  256
370
   -1
100
AcDbLine
 10
0.708
 20
0.0787402
 11
0.708
 21
0
  0
LINE
  5
191
100
AcDbEntity
  8
0
  6
DASHEDTINY
 62
  256
370
   -1
100
AcDbLine
 10
0.788
 20
0.0787402
 11
0.788
 21
0
  0
ENDBLK
  5
7A
330
78
100
AcDbEntity
  8
0
100
AcDbBlockEnd
  0
BLOCK
  5
7C
330
7B
100
AcDbEntity
  8
0
100
AcDbBlockBegin
  2
laser_mount_nad_f
 70
    0
 10
0
 20
0
  3
laser_mount_nad_f
  1

  0
CIRCLE
  5
192
100
AcDbEntity
  8
0
  6
ByLayer
 62
  256
370
   -1
100
AcDbCircle
 10
-8
 20
2
 40
1
  0
CIRCLE
  5
193
100
AcDbEntity
  8
0
  6
ByLayer
 62
  256
370
   -1
100
AcDbCircle
 10
8
 20
2
 40
1
  0
LINE
  5
194
100
AcDbEntity
  8
0
  6
ByLayer
 62
  256
370
   -1
100
AcDbLine
 10
-11
 20
5
 11
-11
 21
0
  0
LINE
  5
195
100
AcDbEntity
  8
0
  6
ByLayer
 62
  256
370
   -1
100
AcDbLine
 10
-11
 20
5
 11
11
 21
5
  0
LINE
  5
196
100
AcDbEntity
  8
0
  6
ByLayer
 62
  256
370
   -1
100
AcDbLine
 10
11
 20
5
 11
11
 21
0
  0
LINE
  5
197
100
AcDbEntity
  8
0
  6
ByLayer
 62
  256
370
   -1
100
AcDbLine
 10
-5
 20
5
 11
-5
 21
-5
  0
LINE
  5
198
100
AcDbEntity
  8
0
  6
ByLayer
 62
  256
370
   -1
100
AcDbLine
 10
-5
 20
-5
 11
-3
 21
-5
  0
LINE
  5
199
100
AcDbEntity
  8
0
  6
ByLayer
 62
  256
370
   -1
100
AcDbLine
 10
-3
 20
5
 11
-3
 21
-5
  0
LINE
  5
19A
100
AcDbEntity
  8
0
  6
ByLayer
 62
  256
370
   -1
100
AcDbLine
 10
3
 20
5
 11
3
 21
-5
  0
LINE
  5
19B
100
AcDbEntity
  8
0
  6
ByLayer
 62
  256
370
   -1
100
AcDbLine
 10
3
 20
-5
 11
5
 21
-5
  0
LINE
  5
19C
100
AcDbEntity
  8
0
  6
ByLayer
 62
  256
370
   -1
100
AcDbLine
 10
5
 20
-5
 11
5
 21
5
  0
LINE
  5
19D
100
AcDbEntity
  8
0
  6
ByLayer
 62
  256
370
   -1
100
AcDbLine
 10
-11
 20
0
 11
-5
 21
-5
  0
LINE
  5
19E
100
AcDbEntity
  8
0
  6
ByLayer
 62
  256
370
   -1
100
AcDbLine
 10
-3
 20
-5
 11
3
 21
-5
  0
LINE
  5
19F
100
AcDbEntity
  8
0
  6
ByLayer
 62
  256
370
   -1
100
AcDbLine
 10
5
 20
-5
 11
11
 21
0
  0
ENDBLK
  5
7D
330
7B
100
AcDbEntity
  8
0
100
AcDbBlockEnd
  0
BLOCK
  5
7F
330
7E
100
AcDbEntity
  8
0
100
AcDbBlockBegin
  2
laser_mount_nad_b
 70
    0
 10
0
 20
0
  3
laser_mount_nad_b
  1

  0
LINE
  5
1A0
100
AcDbEntity
  8
0
  6
ByLayer
 62
  256
370
   -1
100
AcDbLine
 10
5
 20
2
 11
11
 21
2
  0
LINE
  5
1A1
100
AcDbEntity
  8
0
  6
ByLayer
 62
  256
370
   -1
100
AcDbLine
 10
11
 20
2
 11
11
 21
0
  0
LINE
  5
1A2
100
AcDbEntity
  8
0
  6
ByLayer
 62
  256
370
   -1
100
AcDbLine
 10
-11
 20
2
 11
-5
 21
2
  0
LINE
  5
1A3
100
AcDbEntity
  8
0
  6
ByLayer
 62
  256
370
   -1
100
AcDbLine
 10
11
 20
0
 11
-11
 21
0
  0
LINE
  5
1A4
100
AcDbEntity
  8
0
  6
ByLayer
 62
  256
370
   -1
100
AcDbLine
 10
-11
 20
0
 11
-11
 21
2
  0
LINE
  5
1A5
100
AcDbEntity
  8
0
  6
ByLayer
 62
  256
370
   -1
100
AcDbLine
 10
-3
 20
2
 11
3
 21
2
  0
LINE
  5
1A6
100
AcDbEntity
  8
0
  6
ByLayer
 62
  256
370
   -1
100
AcDbLine
 10
-5
 20
0
 11
-5
 21
12
  0
LINE
  5
1A7
100
AcDbEntity
  8
0
  6
ByLayer
 62
  256
370
   -1
100
AcDbLine
 10
-5
 20
12
 11
-3
 21
12
  0
LINE
  5
1A8
100
AcDbEntity
  8
0
  6
ByLayer
 62
  256
370
   -1
100
AcDbLine
 10
-3
 20
12
 11
-3
 21
2
  0
LINE
  5
1A9
100
AcDbEntity
  8
0
  6
ByLayer
 62
  256
370
   -1
100
AcDbLine
 10
5
 20
0
 11
5
 21
12
  0
LINE
  5
1AA
100
AcDbEntity
  8
0
  6
ByLayer
 62
  256
370
   -1
100
AcDbLine
 10
5
 20
12
 11
3
 21
12
  0
LINE
  5
1AB
100
AcDbEntity
  8
0
  6
ByLayer
 62
  256
370
   -1
100
AcDbLine
 10
3
 20
12
 11
3
 21
2
  0
ENDBLK
  5
80
330
7E
100
AcDbEntity
  8
0
100
AcDbBlockEnd
  0
BLOCK
  5
82
330
81
100
AcDbEntity
  8
0
100
AcDbBlockBegin
  2
laser_mount_nad_s
 70
    0
 10
0
 20
0
  3
laser_mount_nad_s
  1

  0
LINE
  5
1AC
100
AcDbEntity
  8
0
  6
ByLayer
 62
  256
370
   -1
100
AcDbLine
 10
0
 20
2
 11
5
 21
2
  0
LINE
  5
1AD
100
AcDbEntity
  8
0
  6
ByLayer
 62
  256
370
   -1
100
AcDbLine
 10
0
 20
2
 11
0
 21
12
  0
LINE
  5
1AE
100
AcDbEntity
  8
0
  6
ByLayer
 62
  256
370
   -1
100
AcDbLine
 10
0
 20
12
 11
10
 21
12
  0
LINE
  5
1AF
100
AcDbEntity
  8
0
  6
ByLayer
 62
  256
370
   -1
100
AcDbLine
 10
10
 20
12
 11
10
 21
2
  0
LINE
  5
1B0
100
AcDbEntity
  8
0
  6
ByLayer
 62
  256
370
   -1
100
AcDbLine
 10
10
 20
2
 11
5
 21
2
  0
LINE
  5
1B1
100
AcDbEntity
  8
0
  6
ByLayer
 62
  256
370
   -1
100
AcDbLine
 10
0
 20
0
 11
0
 21
2
  0
CIRCLE
  5
1B2
100
AcDbEntity
  8
0
  6
ByLayer
 62
  256
370
   -1
100
AcDbCircle
 10
5
 20
7
 40
3
  0
LINE
  5
1B3
100
AcDbEntity
  8
0
  6
ByLayer
 62
  256
370
   -1
100
AcDbLine
 10
10
 20
2
 11
10
 21
0
  0
LINE
  5
1B4
100
AcDbEntity
  8
0
  6
ByLayer
 62
  256
370
   -1
100
AcDbLine
 10
10
 20
0
 11
0
 21
0
  0
LINE
  5
1B5
100
AcDbEntity
  8
0
  6
ByLayer
 62
  256
370
   -1
100
AcDbLine
 10
6
 20
2
 11
6
 21
0
  0
ENDBLK
  5
83
330
81
100
AcDbEntity
  8
0
100
AcDbBlockEnd
  0
BLOCK
  5
85
330
84
100
AcDbEntity
  8
0
100
AcDbBlockBegin
  2
cross_iso
 70
    0
 10
0
 20
0
  3
cross_iso
  1

  0
ENDBLK
  5
86
330
84
100
AcDbEntity
  8
0
100
AcDbBlockEnd
  0
BLOCK
  5
88
330
87
100
AcDbEntity
  8
0
100
AcDbBlockBegin
  2
laser_mount_iso
 70
    0
 10
0
 20
0
  3
laser_mount_iso
  1

  0
LINE
  5
1B6
100
AcDbEntity
  8
0
  6
ByLayer
 62
  256
370
   -1
100
AcDbLine
 10
0
 20
0
 11
-17.32050807568876
 21
10
  0
LINE
  5
1B7
100
AcDbEntity
  8
0
  6
ByLayer
 62
  256
370
   -1
100
AcDbLine
 10
-26.63028116637147
 20
32.875
 11
-26.63028116637147
 21
24.875
  0
LINE
  5
1B8
100
AcDbEntity
  8
0
  6
ByLayer
 62
  256
370
   -1
100
AcDbLine
 10
-26.63028116637149
 20
32.875
 11
-22.30015414744928
 21
35.375
  0
LINE
  5
1B9
100
AcDbEntity
  8
0
  6
ByLayer
 62
  256
370
   -1
100
AcDbLine
 10
-22.30015414744928
 20
35.375
 11
-18.83605253231154
 21
33.375
  0
LINE
  5
1BA
100
AcDbEntity
  8
0
  6
ByLayer
 62
  256
370
   -1
100
AcDbLine
 10
-18.83605253231154
 20
33.375
 11
-23.16617955123372
 21
30.875
  0
LINE
  5
1BB
100
AcDbEntity
  8
0
  6
ByLayer
 62
  256
370
   -1
100
AcDbLine
 10
-23.16617955123372
 20
30.875
 11
-26.63028116637147
 21
32.875
  0
ELLIPSE
  5
1BC
100
AcDbEntity
  8
0
  6
ByLayer
 62
  256
370
   -1
100
AcDbEllipse
 10
-22.73316684934152
 20
33.125
 30
0
 11
-1.224744871391589
 21
-2.220446049250313e-16
 31
0
 40
0.5773502691896258
 41
0
 42
6.283185307179586
  0
LINE
  5
1BD
100
AcDbEntity
  8
0
  6
ByLayer
 62
  256
370
   -1
100
AcDbLine
 10
23.16617955123371
 20
4.125
 11
26.63028116637152
 21
2.125
  0
LINE
  5
1BE
100
AcDbEntity
  8
0
  6
ByLayer
 62
  256
370
   -1
100
AcDbLine
 10
26.63028116637152
 20
2.125
 11
30.9604081852937
 21
4.625
  0
LINE
  5
1BF
100
AcDbEntity
  8
0
  6
ByLayer
 62
  256
370
   -1
100
AcDbLine
 10
30.9604081852937
 20
4.625
 11
27.49630657015591
 21
6.625
  0
LINE
  5
1C0
100
AcDbEntity
  8
0
  6
ByLayer
 62
  256
370
   -1
100
AcDbLine
 10
27.49630657015591
 20
6.625
 11
23.16617955123371
 21
4.125
  0
LINE
  5
1C1
100
AcDbEntity
  8
0
  6
ByLayer
 62
  256
370
   -1
100
AcDbLine
 10
30.9604081852937
 20
-3.375
 11
26.63028116637152
 21
-5.875
  0
LINE
  5
1C2
100
AcDbEntity
  8
0
  6
ByLayer
 62
  256
370
   -1
100
AcDbLine
 10
30.96040818529362
 20
4.625
 11
30.9604081852937
 21
-3.375
  0
LINE
  5
1C3
100
AcDbEntity
  8
0
  6
ByLayer
 62
  256
370
   -1
100
AcDbLine
 10
26.63028116637152
 20
-5.875
 11
26.63028116637152
 21
2.125
  0
ELLIPSE
  5
1C4
100
AcDbEntity
  8
0
  6
ByLayer
 62
  256
370
   -1
100
AcDbEllipse
 10
27.0632938682637
 20
4.375
 30
0
 11
-1.224744871391592
 21
-3.33066907387547e-16
 31
0
 40
0.5773502691896242
 41
0
 42
6.283185307179586
  0
LINE
  5
1C5
100
AcDbEntity
  8
0
  6
ByLayer
 62
  256
370
   -1
100
AcDbLine
 10
0
 20
0
 11
17.32050807568881
 21
-10
  0
LINE
  5
1C6
100
AcDbEntity
  8
0
  6
ByLayer
 62
  256
370
   -1
100
AcDbLine
 10
-26.63028116637147
 20
24.875
 11
-17.32050807568876
 21
10
  0
LINE
  5
1C7
100
AcDbEntity
  8
0
  6
ByLayer
 62
  256
370
   -1
100
AcDbLine
 10
26.63028116637152
 20
-5.875
 11
17.32050807568881
 21
-10
  0
ELLIPSE
  5
1C8
100
AcDbEntity
  8
0
  6
ByLayer
 62
  256
370
   -1
100
AcDbEllipse
 10
-11.4748366001438
 20
24.125
 30
0
 11
-8.267027881893199
 21
14.3189123190276
 31
0
 40
0.5773502691896267
 41
0.7853981633974416
 42
2.356194665878018
  0
ELLIPSE
  5
1C9
100
AcDbEntity
  8
0
  6
ByLayer
 62
  256
370
   -1
100
AcDbEllipse
 10
11.4748366001438
 20
10.875
 30
0
 11
-8.267027881893199
 21
14.3189123190276
 31
0
 40
0.5773502691896267
 41
2.356194700293111
 42
3.926990816987245
  0
LINE
  5
1CA
100
AcDbEntity
  8
0
  6
ByLayer
 62
  256
370
   -1
100
AcDbLine
 10
11.47483414378371
 20
-2.624998581819909
 11
-11.47483865414526
 21
10.62500118587829
  0
ELLIPSE
  5
1CB
100
AcDbEntity
  8
0
  6
ByLayer
 62
  256
370
   -1
100
AcDbEllipse
 10
15.8049636190658
 20
13.37500000000011
 30
0
 11
-8.267027881893199
 21
14.3189123190276
 31
0
 40
0.5773502691896267
 41
2.356194700293111
 42
2.876611167530448
  0
ELLIPSE
  5
1CC
100
AcDbEntity
  8
0
  6
ByLayer
 62
  256
370
   -1
100
AcDbEllipse
 10
-7.144709581221719
 20
26.62499999999989
 30
0
 11
-8.267027881893199
 21
14.3189123190276
 31
0
 40
0.5773502691896267
 41
0.7853981633974416
 42
2.356194665878018
  0
LINE
  5
1CD
100
AcDbEntity
  8
0
  6
ByLayer
 62
  256
370
   -1
100
AcDbLine
 10
15.80496607542581
 20
-0.1250014181798065
 11
-7.144707527220305
 21
13.1249988141218
  0
ELLIPSE
  5
1CE
100
AcDbEntity
  8
0
  6
ByLayer
 62
  256
370
   -1
100
AcDbEllipse
 10
6.9282032302755
 20
-2
 30
0
 11
-0.612372435695782
 21
1.060660171779829
 31
0
 40
0.5773502691895981
 41
0
 42
6.283185307179586
  0
ELLIPSE
  5
1CF
100
AcDbEntity
  8
0
  6
ByLayer
 62
  256
370
   -1
100
AcDbEllipse
 10
-6.928203230275528
 20
6
 30
0
 11
-0.612372435695782
 21
1.060660171779829
 31
0
 40
0.5773502691895981
 41
0
 42
6.283185307179586
  0
ENDBLK
  5
89
330
87
100
AcDbEntity
  8
0
100
AcDbBlockEnd
  0
BLOCK
  5
8B
330
8A
100
AcDbEntity
  8
0
100
AcDbBlockBegin
  2
laser_mount_enc_iso
 70
    0
 10
0
 20
0
  3
laser_mount_enc_iso
  1

  0
LINE
  5
1D0
100
AcDbEntity
  8
0
  6
ByLayer
 62
  256
370
   -1
100
AcDbLine
 10
9.527385602301024
 20
-7.5
 11
13.85751262122318
 21
-5
  0
LINE
  5
1D1
100
AcDbEntity
  8
0
  6
ByLayer
 62
  256
370
   -1
100
AcDbLine
 10
-5.195046262034396
 20
6
 11
-9.525173280956608
 21
3.5
  0
LINE
  5
1D2
100
AcDbEntity
  8
0
  6
ByLayer
 62
  256
370
   -1
100
AcDbLine
 10
-9.525173280956608
 20
3.5
 11
-9.525173280956608
 21
1.5
  0
LINE
  5
1D3
100
AcDbEntity
  8
0
  6
ByLayer
 62
  256
370
   -1
100
AcDbLine
 10
-9.525173280956608
 20
1.5
 11
9.527385602301024
 21
-9.5
  0
LINE
  5
1D4
100
AcDbEntity
  8
0
  6
ByLayer
 62
  256
370
   -1
100
AcDbLine
 10
9.527385602301024
 20
-9.5
 11
9.527385602301024
 21
-7.5
  0
LINE
  5
1D5
100
AcDbEntity
  8
0
  6
ByLayer
 62
  256
370
   -1
100
AcDbLine
 10
13.85751262122318
 20
-7
 11
9.527385602301024
 21
-9.5
  0
LINE
  5
1D6
100
AcDbEntity
  8
0
  6
ByLayer
 62
  256
370
   -1
100
AcDbLine
 10
13.85751262122318
 20
-5
 11
13.85751262122318
 21
-7
  0
LINE
  5
1D7
100
AcDbEntity
  8
0
  6
ByLayer
 62
  256
370
   -1
100
AcDbLine
 10
-4.329020858249976
 20
0.5
 11
-4.329020858249976
 21
5.5
  0
LINE
  5
1D8
100
AcDbEntity
  8
0
  6
ByLayer
 62
  256
370
   -1
100
AcDbLine
 10
-2.59697005068108
 20
6.5
 11
2.599182372025496
 21
3.5
  0
LINE
  5
1D9
100
AcDbEntity
  8
0
  6
ByLayer
 62
  256
370
   -1
100
AcDbLine
 10
4.331233179594392
 20
0.5
 11
4.331233179594392
 21
-4.5
  0
LINE
  5
1DA
100
AcDbEntity
  8
0
  6
ByLayer
 62
  256
370
   -1
100
AcDbLine
 10
4.331233179594392
 20
-4.5
 11
8.661360198516604
 21
-2
  0
LINE
  5
1DB
100
AcDbEntity
  8
0
  6
ByLayer
 62
  256
370
   -1
100
AcDbLine
 10
8.661360198516604
 20
-2
 11
8.661360198516604
 21
3
  0
LINE
  5
1DC
100
AcDbEntity
  8
0
  6
ByLayer
 62
  256
370
   -1
100
AcDbLine
 10
6.929309390947708
 20
6
 11
1.733156968241133
 21
9
  0
LINE
  5
1DD
100
AcDbEntity
  8
0
  6
ByLayer
 62
  256
370
   -1
100
AcDbLine
 10
-9.525173280956608
 20
3.5
 11
-4.329020858249976
 21
0.5
  0
LINE
  5
1DE
100
AcDbEntity
  8
0
  6
ByLayer
 62
  256
370
   -1
100
AcDbLine
 10
4.331233179594392
 20
-4.5
 11
9.527385602301024
 21
-7.5
  0
LINE
  5
1DF
100
AcDbEntity
  8
0
  6
ByLayer
 62
  256
370
   -1
100
AcDbLine
 10
13.85751262122318
 20
-5
 11
8.661360198516604
 21
-2
  0
LINE
  5
1E0
100
AcDbEntity
  8
0
  6
ByLayer
 62
  256
370
   -1
100
AcDbLine
 10
-4.329020858249976
 20
5.5
 11
-5.195046262034396
 21
6
  0
ELLIPSE
  5
1E1
100
AcDbEntity
  8
0
  6
ByLayer
 62
  256
370
   -1
100
AcDbEllipse
 10
0.001106160672122769
 20
0
 30
0
 11
-1.837117307087327
 21
3.181980515339497
 31
0
 40
0.5773502691896123
 41
0
 42
6.283185307179586
  0
ELLIPSE
  5
1E2
100
AcDbEntity
  8
0
  6
ByLayer
 62
  256
370
   -1
100
AcDbEllipse
 10
2.166169670133286
 20
6.25
 30
0
 11
-1.224744871391562
 21
0
 31
0
 40
0.5773502691896384
 41
0
 42
6.283185307179586
  0
ELLIPSE
  5
1E3
100
AcDbEntity
  8
0
  6
ByLayer
 62
  256
370
   -1
100
AcDbEllipse
 10
8.661360198516604
 20
-5
 30
0
 11
-1.224744871391562
 21
0
 31
0
 40
0.5773502691896384
 41
0
 42
6.283185307179586
  0
ELLIPSE
  5
1E4
100
AcDbEntity
  8
0
  6
ByLayer
 62
  256
370
   -1
100
AcDbEllipse
 10
-5.195046262034396
 20
3
 30
0
 11
-1.224744871391562
 21
0
 31
0
 40
0.5773502691896384
 41
3.926990816987241
 42
8.639379797371932
  0
LINE
  5
1E5
100
AcDbEntity
  8
0
  6
ByLayer
 62
  256
370
   -1
100
AcDbLine
 10
2.598076211353316
 20
3.5
 11
4.330127018922191
 21
2.5
  0
LINE
  5
1E6
100
AcDbEntity
  8
0
  6
ByLayer
 62
  256
370
   -1
100
AcDbLine
 10
4.330127018922191
 20
2.5
 11
4.330127018922191
 21
0.5
  0
LINE
  5
1E7
100
AcDbEntity
  8
0
  6
ByLayer
 62
  256
370
   -1
100
AcDbLine
 10
6.928203230275507
 20
6
 11
8.660254037844386
 21
5
  0
LINE
  5
1E8
100
AcDbEntity
  8
0
  6
ByLayer
 62
  256
370
   -1
100
AcDbLine
 10
8.660254037844386
 20
5
 11
8.660254037844386
 21
3
  0
LINE
  5
1E9
100
AcDbEntity
  8
0
  6
ByLayer
 62
  256
370
   -1
100
AcDbLine
 10
4.330127018922191
 20
2.5
 11
8.660254037844386
 21
5
  0
LINE
  5
1EA
100
AcDbEntity
  8
0
  6
ByLayer
 62
  256
370
   -1
100
AcDbLine
 10
-4.330127018922191
 20
5.5
 11
-4.330127018922191
 21
7.5
  0
LINE
  5
1EB
100
AcDbEntity
  8
0
  6
ByLayer
 62
  256
370
   -1
100
AcDbLine
 10
-4.330127018922191
 20
7.5
 11
-2.598076211353314
 21
6.5
  0
LINE
  5
1EC
100
AcDbEntity
  8
0
  6
ByLayer
 62
  256
370
   -1
100
AcDbLine
 10
1.732050807568879
 20
9
 11
0
 21
10
  0
LINE
  5
1ED
100
AcDbEntity
  8
0
  6
ByLayer
 62
  256
370
   -1
100
AcDbLine
 10
0
 20
10
 11
-4.330127018922191
 21
7.5
  0
ENDBLK
  5
8C
330
8A
100
AcDbEntity
  8
0
100
AcDbBlockEnd
  0
BLOCK
  5
8E
330
8D
100
AcDbEntity
  8
0
100
AcDbBlockBegin
  2
laser_mount_nad_iso
 70
    0
 10
0
 20
0
  3
laser_mount_nad_iso
  1

  0
LINE
  5
1EE
100
AcDbEntity
  8
0
  6
ByLayer
 62
  256
370
   -1
100
AcDbLine
 10
-10.39230484541324
 20
3.5
 11
-10.39230484541324
 21
1.5
  0
LINE
  5
1EF
100
AcDbEntity
  8
0
  6
ByLayer
 62
  256
370
   -1
100
AcDbLine
 10
12.99038105676648
 20
-7
 11
12.99038105676648
 21
-5
  0
LINE
  5
1F0
100
AcDbEntity
  8
0
  6
ByLayer
 62
  256
370
   -1
100
AcDbLine
 10
12.99038105676648
 20
-5
 11
7.794228634059851
 21
-2
  0
LINE
  5
1F1
100
AcDbEntity
  8
0
  6
ByLayer
 62
  256
370
   -1
100
AcDbLine
 10
8.660254037844386
 20
-9.5
 11
12.99038105676648
 21
-7
  0
LINE
  5
1F2
100
AcDbEntity
  8
0
  6
ByLayer
 62
  256
370
   -1
100
AcDbLine
 10
8.660254037844386
 20
-7.5
 11
12.99038105676648
 21
-5
  0
LINE
  5
1F3
100
AcDbEntity
  8
0
  6
ByLayer
 62
  256
370
   -1
100
AcDbLine
 10
8.660254037844386
 20
-9.5
 11
8.660254037844386
 21
-7.5
  0
ELLIPSE
  5
1F4
100
AcDbEntity
  8
0
  6
ByLayer
 62
  256
370
   -1
100
AcDbEllipse
 10
7.794228634059966
 20
-5
 30
0
 11
-1.224744871391562
 21
0
 31
0
 40
0.5773502691896384
 41
0
 42
6.283185307179586
  0
LINE
  5
1F5
100
AcDbEntity
  8
0
  6
ByLayer
 62
  256
370
   -1
100
AcDbLine
 10
-10.39230484541324
 20
3.5
 11
-9.526279441628827
 21
3.000000000000012
  0
LINE
  5
1F6
100
AcDbEntity
  8
0
  6
ByLayer
 62
  256
370
   -1
100
AcDbLine
 10
7.794228634059851
 20
-2
 11
-0.8660254037844384
 21
-7.000000000000001
  0
LINE
  5
1F7
100
AcDbEntity
  8
0
  6
ByLayer
 62
  256
370
   -1
100
AcDbLine
 10
7.794228634059852
 20
-1.999999999999999
 11
7.794228634059948
 21
6
  0
LINE
  5
1F8
100
AcDbEntity
  8
0
  6
ByLayer
 62
  256
370
   -1
100
AcDbLine
 10
8.660254037844382
 20
-9.499999999999998
 11
-0.8660254037844384
 21
-9
  0
LINE
  5
1F9
100
AcDbEntity
  8
0
  6
ByLayer
 62
  256
370
   -1
100
AcDbLine
 10
8.660254037844386
 20
-7.5
 11
-0.8660254037844384
 21
-7
  0
LINE
  5
1FA
100
AcDbEntity
  8
0
  6
ByLayer
 62
  256
370
   -1
100
AcDbLine
 10
-10.39230484541326
 20
1.5
 11
-9.526279441628825
 21
-3.999999999999999
  0
LINE
  5
1FB
100
AcDbEntity
  8
0
  6
ByLayer
 62
  256
370
   -1
100
AcDbLine
 10
-10.39230484541324
 20
3.5
 11
-9.526279441628823
 21
-2
  0
LINE
  5
1FC
100
AcDbEntity
  8
0
  6
ByLayer
 62
  256
370
   -1
100
AcDbLine
 10
-10.39230484541324
 20
3.5
 11
-9.526279441628825
 21
3.999999999999992
  0
LINE
  5
1FD
100
AcDbEntity
  8
0
  6
ByLayer
 62
  256
370
   -1
100
AcDbLine
 10
-9.526279441628825
 20
-3.999999999999996
 11
-0.8660254037844384
 21
-9
  0
LINE
  5
1FE
100
AcDbEntity
  8
0
  6
ByLayer
 62
  256
370
   -1
100
AcDbLine
 10
-7.794228634059946
 20
-2.999999999999996
 11
-2.598076211353316
 21
-8.881784197001252e-16
  0
LINE
  5
1FF
100
AcDbEntity
  8
0
  6
ByLayer
 62
  256
370
   -1
100
AcDbLine
 10
-7.794228634059945
 20
-2.999999999999996
 11
-2.598076211353314
 21
-6.000000000000001
  0
LINE
  5
200
100
AcDbEntity
  8
0
  6
ByLayer
 62
  256
370
   -1
100
AcDbLine
 10
7.794228634059852
 20
-2
 11
7.794228634059948
 21
8
  0
LINE
  5
201
100
AcDbEntity
  8
0
  6
ByLayer
 62
  256
370
   -1
100
AcDbLine
 10
7.794228634059948
 20
8
 11
-0.8660254037844384
 21
3
  0
LINE
  5
202
100
AcDbEntity
  8
0
  6
ByLayer
 62
  256
370
   -1
100
AcDbLine
 10
-0.8660254037844384
 20
3
 11
-2.598076211353316
 21
4
  0
LINE
  5
203
100
AcDbEntity
  8
0
  6
ByLayer
 62
  256
370
   -1
100
AcDbLine
 10
-2.598076211353316
 20
4
 11
6.062177826491071
 21
9
  0
LINE
  5
204
100
AcDbEntity
  8
0
  6
ByLayer
 62
  256
370
   -1
100
AcDbLine
 10
6.062177826491071
 20
9
 11
7.794228634059948
 21
8
  0
LINE
  5
205
100
AcDbEntity
  8
0
  6
ByLayer
 62
  256
370
   -1
100
AcDbLine
 10
-0.8660254037844384
 20
3
 11
-0.8660254037844384
 21
-9
  0
LINE
  5
206
100
AcDbEntity
  8
0
  6
ByLayer
 62
  256
370
   -1
100
AcDbLine
 10
-2.598076211353316
 20
4
 11
-2.598076211353316
 21
-6
  0
LINE
  5
207
100
AcDbEntity
  8
0
  6
ByLayer
 62
  256
370
   -1
100
AcDbLine
 10
0.8660254037844393
 20
12
 11
-0.8660254037844384
 21
13
  0
LINE
  5
208
100
AcDbEntity
  8
0
  6
ByLayer
 62
  256
370
   -1
100
AcDbLine
 10
-0.8660254037844384
 20
13
 11
-9.526279441628825
 21
8
  0
LINE
  5
209
100
AcDbEntity
  8
0
  6
ByLayer
 62
  256
370
   -1
100
AcDbLine
 10
-9.526279441628827
 20
8
 11
-7.794228634059948
 21
7.000000000000001
  0
LINE
  5
20A
100
AcDbEntity
  8
0
  6
ByLayer
 62
  256
370
   -1
100
AcDbLine
 10
-7.794228634059948
 20
7.000000000000001
 11
0.8660254037844375
 21
12
  0
LINE
  5
20B
100
AcDbEntity
  8
0
  6
ByLayer
 62
  256
370
   -1
100
AcDbLine
 10
-7.794228634059947
 20
7
 11
-7.794228634059948
 21
-3
  0
LINE
  5
20C
100
AcDbEntity
  8
0
  6
ByLayer
 62
  256
370
   -1
100
AcDbLine
 10
-9.526279441628825
 20
8
 11
-9.526279441628825
 21
-4
  0
LINE
  5
20D
100
AcDbEntity
  8
0
  6
ByLayer
 62
  256
370
   -1
100
AcDbLine
 10
0.8660254037844388
 20
12
 11
0.8660254037844393
 21
6
  0
ELLIPSE
  5
20E
100
AcDbEntity
  8
0
  6
ByLayer
 62
  256
370
   -1
100
AcDbEllipse
 10
3.464101615137756
 20
0.4999999999999997
 30
0
 11
-1.837117307087385
 21
-3.181980515339464
 31
0
 40
0.5773502691896256
 41
0
 42
6.283185307179586
  0
ELLIPSE
  5
20F
100
AcDbEntity
  8
0
  6
ByLayer
 62
  256
370
   -1
100
AcDbEllipse
 10
1.732050807568878
 20
1.5
 30
0
 11
-1.837117307087385
 21
-3.181980515339464
 31
0
 40
0.5773502691896256
 41
0.4908826782893119
 42
2.650709975300482
  0
ELLIPSE
  5
210
100
AcDbEntity
  8
0
  6
ByLayer
 62
  256
370
   -1
100
AcDbEllipse
 10
-5.196152422706634
 20
6
 30
0
 11
-1.837117307087385
 21
-3.181980515339464
 31
0
 40
0.5773502691896256
 41
0.4908826782893128
 42
2.650709975300482
  0
ELLIPSE
  5
211
100
AcDbEntity
  8
0
  6
ByLayer
 62
  256
370
   -1
100
AcDbEllipse
 10
-3.464101615137756
 20
5
 30
0
 11
-1.837117307087385
 21
-3.181980515339464
 31
0
 40
0.5773502691896256
 41
1.832595714594046
 42
1.125235072851571
  0
ENDBLK
  5
8F
330
8D
100
AcDbEntity
  8
0
100
AcDbBlockEnd
  0
BLOCK
  5
91
330
90
100
AcDbEntity
  8
0
100
AcDbBlockBegin
  2
cross
 70
    0
 10
0
 20
0
  3
cross
  1

  0
LINE
  5
212
100
AcDbEntity
  8
0
  6
ByLayer
 62
  256
370
   -1
100
AcDbLine
 10
0
 20
0
 11
0.5
 21
0
  0
LINE
  5
213
100
AcDbEntity
  8
0
  6
ByLayer
 62
  256
370
   -1
100
AcDbLine
 10
0
 20
-0.5
 11
0
 21
0.5
  0
LINE
  5
214
100
AcDbEntity
  8
0
  6
ByLayer
 62
  256
370
   -1
100
AcDbLine
 10
-0.5
 20
0
 11
0
 21
0
  0
LINE
  5
215
100
AcDbEntity
  8
0
  6
ByLayer
 62
  256
370
   -1
100
AcDbLine
 10
0
 20
0.7000000000000028
 11
0
 21
2.700000000000003
  0
LINE
  5
216
100
AcDbEntity
  8
0
  6
ByLayer
 62
  256
370
   -1
100
AcDbLine
 10
0.6999999999999886
 20
0
 11
2.700000000000003
 21
0
  0
LINE
  5
217
100
AcDbEntity
  8
0
  6
ByLayer
 62
  256
370
   -1
100
AcDbLine
 10
-1.4210854715202e-14
 20
-0.7000000000000028
 11
0
 21
-2.700000000000003
  0
LINE
  5
218
100
AcDbEntity
  8
0
  6
ByLayer
 62
  256
370
   -1
100
AcDbLine
 10
-0.7000000000000028
 20
-1.4210854715202e-14
 11
-2.700000000000003
 21
0
  0
ENDBLK
  5
92
330
90
100
AcDbEntity
  8
0
100
AcDbBlockEnd
  0
BLOCK
  5
94
330
93
100
AcDbEntity
  8
0
100
AcDbBlockBegin
  2
laser_mount_cap_f
 70
    0
 10
0
 20
0
  3
laser_mount_cap_f
  1

  0
ARC
  5
219
100
AcDbEntity
  8
0
  6
ByLayer
 62
  256
370
   -1
100
AcDbCircle
 10
1.73228352
 20
2.09805932627205e-16
 40
0.53149608
100
AcDbArc
 50
270
 51
360
  0
ARC
  5
21A
100
AcDbEntity
  8
0
  6
ByLayer
 62
  256
370
   -1
100
AcDbCircle
 10
0.6889764
 20
6.9935310875735e-17
 40
0.53149608
100
AcDbArc
 50
180
 51
270
  0
LINE
  5
21B
100
AcDbEntity
  8
0
  6
ByLayer
 62
  256
370
   -1
100
AcDbLine
 10
0.15748032
 20
0
 11
0
 21
0
  0
LINE
  5
21C
100
AcDbEntity
  8
0
  6
ByLayer
 62
  256
370
   -1
100
AcDbLine
 10
2.42125992
 20
2.797412435029401e-16
 11
2.2637796
 21
2.797412435029401e-16
  0
LINE
  5
21D
100
AcDbEntity
  8
0
  6
ByLayer
 62
  256
370
   -1
100
AcDbLine
 10
1.73228352
 20
-0.5314960799999996
 11
1.68307092
 21
-0.5314960799999996
  0
LINE
  5
21E
100
AcDbEntity
  8
0
  6
ByLayer
 62
  256
370
   -1
100
AcDbLine
 10
0.738189
 20
-0.53149608
 11
0.6889764
 21
-0.53149608
  0
LINE
  5
21F
100
AcDbEntity
  8
0
  6
ByLayer
 62
  256
370
   -1
100
AcDbLine
 10
1.68307092
 20
-0.5314960799999996
 11
0.738189
 21
-0.53149608
  0
LINE
  5
220
100
AcDbEntity
  8
0
  6
ByLayer
 62
  256
370
   -1
100
AcDbLine
 10
2.42125992
 20
-0.6502362399999997
 11
0
 21
-0.65023624
  0
LINE
  5
221
100
AcDbEntity
  8
0
  6
ByLayer
 62
  256
370
   -1
100
AcDbLine
 10
0
 20
0
 11
4.336808689942018e-17
 21
-0.6500000000000001
  0
LINE
  5
222
100
AcDbEntity
  8
0
  6
ByLayer
 62
  256
370
   -1
100
AcDbLine
 10
2.42125992
 20
2.797412435029401e-16
 11
2.42125992
 21
-0.6502362399999997
  0
LINE
  5
223
100
AcDbEntity
  8
0
  6
DASHEDTINY
 62
  256
370
   -1
100
AcDbLine
 10
2.382
 20
-6.93889e-18
 11
2.382
 21
-0.650236
  0
LINE
  5
224
100
AcDbEntity
  8
0
  6
DASHEDTINY
 62
  256
370
   -1
100
AcDbLine
 10
2.303
 20
-1.73472e-18
 11
2.303
 21
-0.65
  0
LINE
  5
225
100
AcDbEntity
  8
0
  6
DASHEDTINY
 62
  256
370
   -1
100
AcDbLine
 10
0.039
 20
-6.07153e-18
 11
0.039
 21
-0.65
  0
LINE
  5
226
100
AcDbEntity
  8
0
  6
DASHEDTINY
 62
  256
370
   -1
100
AcDbLine
 10
0.118
 20
-0.65
 11
0.118
 21
-2.77556e-17
  0
ENDBLK
  5
95
330
93
100
AcDbEntity
  8
0
100
AcDbBlockEnd
  0
BLOCK
  5
97
330
96
100
AcDbEntity
  8
0
100
AcDbBlockBegin
  2
laser_mount_cap_b
 70
    0
 10
0
 20
0
  3
laser_mount_cap_b
  1

  0
LINE
  5
227
100
AcDbEntity
  8
0
  6
ByLayer
 62
  256
370
   -1
100
AcDbLine
 10
0
 20
-0.1968504
 11
0
 21
-0.1968504
  0
LINE
  5
228
100
AcDbEntity
  8
0
  6
ByLayer
 62
  256
370
   -1
100
AcDbLine
 10
2.42125992
 20
-0.1968504
 11
2.42125992
 21
-0.1968504
  0
LINE
  5
229
100
AcDbEntity
  8
0
  6
ByLayer
 62
  256
370
   -1
100
AcDbLine
 10
2.42125992
 20
0
 11
0
 21
0
  0
LINE
  5
22A
100
AcDbEntity
  8
0
  6
ByLayer
 62
  256
370
   -1
100
AcDbLine
 10
0
 20
-0.19
 11
2.42125992
 21
-0.19
  0
CIRCLE
  5
22B
100
AcDbEntity
  8
0
  6
ByLayer
 62
  256
370
   -1
100
AcDbCircle
 10
0.07874016
 20
-0.095
 40
0.03937008
  0
CIRCLE
  5
22C
100
AcDbEntity
  8
0
  6
ByLayer
 62
  256
370
   -1
100
AcDbCircle
 10
2.34251976
 20
-0.095
 40
0.03937008
  0
LINE
  5
22D
100
AcDbEntity
  8
0
  6
ByLayer
 62
  256
370
   -1
100
AcDbLine
 10
2.42125992
 20
-0.19
 11
2.42125992
 21
0
  0
LINE
  5
22E
100
AcDbEntity
  8
0
  6
CONTINUOUS
 62
  256
370
   -1
100
AcDbLine
 10
2.2637796
 20
0
 11
2.2637796
 21
-0.19
  0
LINE
  5
22F
100
AcDbEntity
  8
0
  6
ByLayer
 62
  256
370
   -1
100
AcDbLine
 10
0
 20
0
 11
6.938893903907228e-18
 21
-0.19
  0
LINE
  5
230
100
AcDbEntity
  8
0
  6
CONTINUOUS
 62
  256
370
   -1
100
AcDbLine
 10
0.15748032
 20
0
 11
0.15748032
 21
-0.19
  0
ENDBLK
  5
98
330
96
100
AcDbEntity
  8
0
100
AcDbBlockEnd
  0
BLOCK
  5
9A
330
99
100
AcDbEntity
  8
0
100
AcDbBlockBegin
  2
laser_mount_cap_iso
 70
    0
 10
0
 20
0
  3
laser_mount_cap_iso
  1

  0
LINE
  5
231
100
AcDbEntity
  8
0
  6
ByLayer
 62
  256
370
   -1
100
AcDbLine
 10
-25.19237886466851
 20
15
 11
28.06818346807461
 21
-15.75
  0
LINE
  5
232
100
AcDbEntity
  8
0
  6
ByLayer
 62
  256
370
   -1
100
AcDbLine
 10
28.06818346807461
 20
-15.75
 11
32.39831048699676
 21
-13.25
  0
LINE
  5
233
100
AcDbEntity
  8
0
  6
ByLayer
 62
  256
370
   -1
100
AcDbLine
 10
32.39831048699676
 20
-13.25
 11
-20.86225184574619
 21
17.5
  0
LINE
  5
234
100
AcDbEntity
  8
0
  6
ByLayer
 62
  256
370
   -1
100
AcDbLine
 10
-20.86225184574619
 20
17.5
 11
-25.1923788646684
 21
15
  0
LINE
  5
235
100
AcDbEntity
  8
0
  6
ByLayer
 62
  256
370
   -1
100
AcDbLine
 10
-25.1923788646684
 20
15
 11
-25.1923788646684
 21
-0.5
  0
LINE
  5
236
100
AcDbEntity
  8
0
  6
ByLayer
 62
  256
370
   -1
100
AcDbLine
 10
-25.1923788646684
 20
-0.5
 11
-21.72827724953066
 21
-2.500000000000014
  0
LINE
  5
237
100
AcDbEntity
  8
0
  6
ByLayer
 62
  256
370
   -1
100
AcDbLine
 10
-21.72827724953066
 20
-2.500000000000014
 11
-17.39815023060845
 21
-1.4210854715202e-14
  0
LINE
  5
238
100
AcDbEntity
  8
0
  6
ByLayer
 62
  256
370
   -1
100
AcDbLine
 10
28.06818346807455
 20
-15.75
 11
28.06818346807455
 21
-31.25
  0
LINE
  5
239
100
AcDbEntity
  8
0
  6
ByLayer
 62
  256
370
   -1
100
AcDbLine
 10
28.06818346807455
 20
-31.25
 11
32.39831048699676
 21
-28.75000000000001
  0
LINE
  5
23A
100
AcDbEntity
  8
0
  6
ByLayer
 62
  256
370
   -1
100
AcDbLine
 10
32.39831048699676
 20
-28.75000000000001
 11
32.39831048699676
 21
-13.25
  0
LINE
  5
23B
100
AcDbEntity
  8
0
  6
ByLayer
 62
  256
370
   -1
100
AcDbLine
 10
24.60408185293682
 20
-29.25000000000001
 11
28.06818346807455
 21
-31.25000000000001
  0
ELLIPSE
  5
23C
100
AcDbEntity
  8
0
  6
ByLayer
 62
  256
370
   -1
100
AcDbEllipse
 10
-10.03693429844077
 20
-9.250000000000043
 30
0
 11
-8.267027881893235
 21
14.31891231902755
 31
0
 40
0.5773502691896238
 41
5.497787143782134
 42
7.068583470577031
  0
ELLIPSE
  5
23D
100
AcDbEntity
  8
0
  6
ByLayer
 62
  256
370
   -1
100
AcDbEllipse
 10
12.91273890184698
 20
-22.49999999999996
 30
0
 11
-8.267027881893242
 21
14.31891231902762
 31
0
 40
0.5773502691896318
 41
3.926990816987228
 42
5.497786802551852
  0
LINE
  5
23E
100
AcDbEntity
  8
0
  6
ByLayer
 62
  256
370
   -1
100
AcDbLine
 10
12.91274289128734
 20
-9.000002303304555
 11
-10.03693429844077
 21
4.249999999999901
  0
ELLIPSE
  5
23F
100
AcDbEntity
  8
0
  6
ByLayer
 62
  256
370
   -1
100
AcDbEllipse
 10
-5.706807279518216
 20
-6.750000000000242
 30
0
 11
-8.267027881893235
 21
14.31891231902755
 31
0
 40
0.5773502691896238
 41
0.2649814860594413
 42
0.7853981633974447
  0
ELLIPSE
  5
240
100
AcDbEntity
  8
0
  6
ByLayer
 62
  256
370
   -1
100
AcDbEllipse
 10
-21.29526454763845
 20
15.25
 30
0
 11
-1.224744871391562
 21
-7.438494264988549e-15
 31
0
 40
0.5773502691896343
 41
0
 42
6.283185307179586
  0
ELLIPSE
  5
241
100
AcDbEntity
  8
0
  6
ByLayer
 62
  256
370
   -1
100
AcDbEllipse
 10
28.50119616996676
 20
-13.50000000000001
 30
0
 11
-1.224744871391562
 21
-7.438494264988549e-15
 31
0
 40
0.5773502691896343
 41
0
 42
6.283185307179586
  0
ENDBLK
  5
9B
330
99
100
AcDbEntity
  8
0
100
AcDbBlockEnd
  0
BLOCK
  5
9D
330
9C
100
AcDbEntity
  8
0
100
AcDbBlockBegin
  2
encoder_s
 70
    0
 10
0
 20
0
  3
encoder_s
  1

  0
LWPOLYLINE
  5
242
100
AcDbEntity
  8
0
  6
ByLayer
 62
  256
370
   -1
100
AcDbPolyline
 90
    4
 70
    1
 43
0
 10
-6
 20
0
 10
6
 20
0
 10
6
 20
1
 10
-6
 20
1
  0
LINE
  5
243
100
AcDbEntity
  8
0
  6
ByLayer
 62
  256
370
   -1
100
AcDbLine
 10
-9
 20
-2
 11
-9
 21
-4
  0
LINE
  5
244
100
AcDbEntity
  8
0
  6
ByLayer
 62
  256
370
   -1
100
AcDbLine
 10
9
 20
-2
 11
9
 21
-4
  0
LINE
  5
245
100
AcDbEntity
  8
0
  6
ByLayer
 62
  256
370
   -1
100
AcDbLine
 10
-11
 20
0
 11
11
 21
0
  0
LINE
  5
246
100
AcDbEntity
  8
0
  6
ByLayer
 62
  256
370
   -1
100
AcDbLine
 10
11
 20
-21
 11
-11
 21
-21
  0
LINE
  5
247
100
AcDbEntity
  8
0
  6
ByLayer
 62
  256
370
   -1
100
AcDbLine
 10
-11
 20
-2
 11
11
 21
-2
  0
LINE
  5
248
100
AcDbEntity
  8
0
  6
ByLayer
 62
  256
370
   -1
100
AcDbLine
 10
11
 20
-4
 11
-11
 21
-4
  0
LINE
  5
249
100
AcDbEntity
  8
0
  6
ByLayer
 62
  256
370
   -1
100
AcDbLine
 10
-11
 20
-2
 11
-11
 21
0
  0
LINE
  5
24A
100
AcDbEntity
  8
0
  6
ByLayer
 62
  256
370
   -1
100
AcDbLine
 10
-11
 20
-21
 11
-11
 21
-4
  0
LINE
  5
24B
100
AcDbEntity
  8
0
  6
ByLayer
 62
  256
370
   -1
100
AcDbLine
 10
11
 20
0
 11
11
 21
-2
  0
LINE
  5
24C
100
AcDbEntity
  8
0
  6
ByLayer
 62
  256
370
   -1
100
AcDbLine
 10
11
 20
-4
 11
11
 21
-21
  0
LWPOLYLINE
  5
24D
100
AcDbEntity
  8
0
  6
ByLayer
 62
  256
370
   -1
100
AcDbPolyline
 90
    4
 70
    1
 43
0
 10
-3
 20
1
 10
3
 20
1
 10
3
 20
19
 10
-3
 20
19
  0
ENDBLK
  5
9E
330
9C
100
AcDbEntity
  8
0
100
AcDbBlockEnd
  0
BLOCK
  5
A0
330
9F
100
AcDbEntity
  8
0
100
AcDbBlockBegin
  2
enc_motor_s
 70
    0
 10
0
 20
0
  3
enc_motor_s
  1

  0
LWPOLYLINE
  5
24E
100
AcDbEntity
  8
0
  6
ByLayer
 62
  256
370
   -1
100
AcDbPolyline
 90
    4
 70
    1
 43
0
 10
-1.5
 20
2
 10
1.5
 20
2
 10
1.5
 20
10
 10
-1.5
 20
10
  0
LWPOLYLINE
  5
24F
100
AcDbEntity
  8
0
  6
ByLayer
 62
  256
370
   -1
100
AcDbPolyline
 90
    4
 70
    1
 43
0
 10
-2
 20
2
 10
2
 20
2
 10
2
 20
0
 10
-2
 20
0
  0
LINE
  5
250
100
AcDbEntity
  8
0
  6
ByLayer
 62
  256
370
   -1
100
AcDbLine
 10
7.75
 20
0
 11
7.75
 21
-30
  0
LINE
  5
251
100
AcDbEntity
  8
0
  6
ByLayer
 62
  256
370
   -1
100
AcDbLine
 10
-7.750000000000001
 20
-1.387778780781446e-17
 11
-7.750000000000001
 21
-30
  0
LINE
  5
252
100
AcDbEntity
  8
0
  6
ByLayer
 62
  256
370
   -1
100
AcDbLine
 10
-7.750000000000001
 20
-1.387778780781446e-17
 11
7.75
 21
0
  0
LINE
  5
253
100
AcDbEntity
  8
0
  6
ByLayer
 62
  256
370
   -1
100
AcDbLine
 10
-7.750000000000001
 20
-30
 11
7.75
 21
-30
  0
ENDBLK
  5
A1
330
9F
100
AcDbEntity
  8
0
100
AcDbBlockEnd
  0
BLOCK
  5
A3
330
A2
100
AcDbEntity
  8
0
100
AcDbBlockBegin
  2
laser_ss
 70
    0
 10
0
 20
0
  3
laser_ss
  1

  0
ENDBLK
  5
A4
330
A2
100
AcDbEntity
  8
0
100
AcDbBlockEnd
  0
BLOCK
  5
A6
330
A5
100
AcDbEntity
  8
0
100
AcDbBlockBegin
  2
laser_tt
 70
    0
 10
0
 20
0
  3
laser_tt
  1

  0
ENDBLK
  5
A7
330
A5
100
AcDbEntity
  8
0
100
AcDbBlockEnd
  0
BLOCK
  5
A9
330
A8
100
AcDbEntity
  8
0
100
AcDbBlockBegin
  2
encoder_t
 70
    0
 10
0
 20
0
  3
encoder_t
  1

  0
CIRCLE
  5
254
100
AcDbEntity
  8
0
  6
ByLayer
 62
  256
370
   -1
100
AcDbCircle
 10
0
 20
0
 40
6
  0
CIRCLE
  5
255
100
AcDbEntity
  8
0
  6
ByLayer
 62
  256
370
   -1
100
AcDbCircle
 10
0
 20
7.5
 40
1
  0
CIRCLE
  5
256
100
AcDbEntity
  8
0
  6
ByLayer
 62
  256
370
   -1
100
AcDbCircle
 10
-6.494863254417112
 20
-3.750566798021694
 40
1
  0
CIRCLE
  5
257
100
AcDbEntity
  8
0
  6
ByLayer
 62
  256
370
   -1
100
AcDbCircle
 10
6.494863254417112
 20
-3.750566798021694
 40
1
  0
CIRCLE
  5
258
100
AcDbEntity
  8
0
  6
CONTINUOUS
 62
  256
370
   -1
100
AcDbCircle
 10
0
 20
0
 40
11
  0
ENDBLK
  5
AA
330
A8
100
AcDbEntity
  8
0
100
AcDbBlockEnd
  0
BLOCK
  5
AC
330
AB
100
AcDbEntity
  8
0
100
AcDbBlockBegin
  2
enc_motor_t
 70
    0
 10
0
 20
0
  3
enc_motor_t
  1

  0
CIRCLE
  5
259
100
AcDbEntity
  8
0
  6
ByLayer
 62
  256
370
   -1
100
AcDbCircle
 10
0
 20
0
 40
2
  0
CIRCLE
  5
25A
100
AcDbEntity
  8
0
  6
ByLayer
 62
  256
370
   -1
100
AcDbCircle
 10
4.5
 20
0
 40
1
  0
CIRCLE
  5
25B
100
AcDbEntity
  8
0
  6
ByLayer
 62
  256
370
   -1
100
AcDbCircle
 10
-4.500000000000114
 20
0
 40
1.004987562112091
  0
CIRCLE
  5
25C
100
AcDbEntity
  8
0
  6
CONTINUOUS
 62
  256
370
   -1
100
AcDbCircle
 10
0
 20
0
 40
7.75
  0
ENDBLK
  5
AD
330
AB
100
AcDbEntity
  8
0
100
AcDbBlockEnd
  0
BLOCK
  5
AF
330
AE
100
AcDbEntity
  8
0
100
AcDbBlockBegin
  2
link_enc_t
 70
    0
 10
0
 20
0
  3
link_enc_t
  1

  0
CIRCLE
  5
25D
100
AcDbEntity
  8
0
  6
ByLayer
 62
  256
370
   -1
100
AcDbCircle
 10
0
 20
0
 40
3
  0
CIRCLE
  5
25E
100
AcDbEntity
  8
0
  6
ByLayer
 62
  256
370
   -1
100
AcDbCircle
 10
-33
 20
0
 40
2
  0
CIRCLE
  5
25F
100
AcDbEntity
  8
0
  6
ByLayer
 62
  256
370
   -1
100
AcDbCircle
 10
-24
 20
0
 40
2
  0
LINE
  5
260
100
AcDbEntity
  8
0
  6
ByLayer
 62
  256
370
   -1
100
AcDbLine
 10
5.000000000000001
 20
4.5
 11
-37
 21
4.5
  0
LINE
  5
261
100
AcDbEntity
  8
0
  6
ByLayer
 62
  256
370
   -1
100
AcDbLine
 10
-37
 20
4.5
 11
-37.00000000000001
 21
-4.5
  0
LINE
  5
262
100
AcDbEntity
  8
0
  6
ByLayer
 62
  256
370
   -1
100
AcDbLine
 10
-37.00000000000001
 20
-4.5
 11
5
 21
-4.5
  0
LINE
  5
263
100
AcDbEntity
  8
0
  6
ByLayer
 62
  256
370
   -1
100
AcDbLine
 10
5
 20
-4.5
 11
5
 21
4.5
  0
ENDBLK
  5
B0
330
AE
100
AcDbEntity
  8
0
100
AcDbBlockEnd
  0
BLOCK
  5
B2
330
B1
100
AcDbEntity
  8
0
100
AcDbBlockBegin
  2
link_enc_motor_t
 70
    0
 10
0
 20
0
  3
link_enc_motor_t
  1

  0
CIRCLE
  5
264
100
AcDbEntity
  8
0
  6
ByLayer
 62
  256
370
   -1
100
AcDbCircle
 10
0
 20
7.105427357601002e-15
 40
1.5
  0
CIRCLE
  5
265
100
AcDbEntity
  8
0
  6
ByLayer
 62
  256
370
   -1
100
AcDbCircle
 10
-10
 20
0
 40
1.503329637837291
  0
LINE
  5
266
100
AcDbEntity
  8
0
  6
ByLayer
 62
  256
370
   -1
100
AcDbLine
 10
2.5
 20
2.5
 11
2.5
 21
-2.5
  0
LINE
  5
267
100
AcDbEntity
  8
0
  6
ByLayer
 62
  256
370
   -1
100
AcDbLine
 10
2.5
 20
-2.5
 11
-12.5
 21
-2.5
  0
LINE
  5
268
100
AcDbEntity
  8
0
  6
ByLayer
 62
  256
370
   -1
100
AcDbLine
 10
-12.5
 20
-2.5
 11
-12.5
 21
2.5
  0
LINE
  5
269
100
AcDbEntity
  8
0
  6
ByLayer
 62
  256
370
   -1
100
AcDbLine
 10
-12.5
 20
2.5
 11
2.5
 21
2.5
  0
ENDBLK
  5
B3
330
B1
100
AcDbEntity
  8
0
100
AcDbBlockEnd
  0
BLOCK
  5
B5
330
B4
100
AcDbEntity
  8
0
100
AcDbBlockBegin
  2
mount_plate_s
 70
    0
 10
0
 20
0
  3
mount_plate_s
  1

  0
CIRCLE
  5
26A
100
AcDbEntity
  8
0
  6
ByLayer
 62
  256
370
   -1
100
AcDbCircle
 10
0
 20
0
 40
2
  0
LINE
  5
26B
100
AcDbEntity
  8
0
  6
ByLayer
 62
  256
370
   -1
100
AcDbLine
 10
-40
 20
3
 11
-40
 21
-5
  0
LINE
  5
26C
100
AcDbEntity
  8
0
  6
ByLayer
 62
  256
370
   -1
100
AcDbLine
 10
-40
 20
-5
 11
50
 21
-5
  0
LINE
  5
26D
100
AcDbEntity
  8
0
  6
ByLayer
 62
  256
370
   -1
100
AcDbLine
 10
50
 20
-5
 11
50
 21
3
  0
LINE
  5
26E
100
AcDbEntity
  8
0
  6
ByLayer
 62
  256
370
   -1
100
AcDbLine
 10
50
 20
3
 11
-40
 21
3
  0
LINE
  5
26F
100
AcDbEntity
  8
0
  6
DASHEDTINY
 62
  256
370
   -1
100
AcDbLine
 10
-40
 20
-3
 11
50
 21
-3
  0
CIRCLE
  5
270
100
AcDbEntity
  8
0
  6
ByLayer
 62
  256
370
   -1
100
AcDbCircle
 10
-24
 20
0
 40
2
  0
ENDBLK
  5
B6
330
B4
100
AcDbEntity
  8
0
100
AcDbBlockEnd
  0
BLOCK
  5
B8
330
B7
100
AcDbEntity
  8
0
100
AcDbBlockBegin
  2
stepper_s
 70
    0
 10
0
 20
0
  3
stepper_s
  1

  0
LINE
  5
271
100
AcDbEntity
  8
0
  6
CONTINUOUS
 62
  176
420
  128
370
    0
100
AcDbLine
 10
0.2000000000000455
 20
1
 11
33
 21
1
  0
LINE
  5
272
100
AcDbEntity
  8
0
  6
CONTINUOUS
 62
    7
370
    0
100
AcDbLine
 10
33
 20
1
 11
33
 21
-1
  0
LINE
  5
273
100
AcDbEntity
  8
0
  6
CONTINUOUS
 62
    7
370
    0
100
AcDbLine
 10
33
 20
-1
 11
0.2000000000000455
 21
-1
  0
LINE
  5
274
100
AcDbEntity
  8
0
  6
CONTINUOUS
 62
    7
370
    0
100
AcDbLine
 10
0.2000000000000455
 20
-1
 11
0.2000000000000455
 21
1
  0
LINE
  5
275
100
AcDbEntity
  8
0
  6
CONTINUOUS
 62
  176
420
  128
370
    0
100
AcDbLine
 10
0.2000000000000455
 20
-4
 11
-7
 21
-4
  0
LINE
  5
276
100
AcDbEntity
  8
0
  6
CONTINUOUS
 62
    7
370
    0
100
AcDbLine
 10
-7
 20
-4
 11
-7
 21
4
  0
LINE
  5
277
100
AcDbEntity
  8
0
  6
CONTINUOUS
 62
    7
370
    0
100
AcDbLine
 10
-7
 20
4
 11
0.2000000000000455
 21
4
  0
LINE
  5
278
100
AcDbEntity
  8
0
  6
CONTINUOUS
 62
    7
370
    0
100
AcDbLine
 10
0.2000000000000455
 20
4
 11
0.2000000000000455
 21
-4
  0
ENDBLK
  5
B9
330
B7
100
AcDbEntity
  8
0
100
AcDbBlockEnd
  0
BLOCK
  5
BB
330
BA
100
AcDbEntity
  8
0
100
AcDbBlockBegin
  2
mount_arm_s
 70
    0
 10
0
 20
0
  3
mount_arm_s
  1

  0
CIRCLE
  5
279
100
AcDbEntity
  8
0
  6
ByLayer
 62
  256
370
   -1
100
AcDbCircle
 10
30
 20
30
 40
4.5
  0
LINE
  5
27A
100
AcDbEntity
  8
0
  6
ByLayer
 62
  256
370
   -1
100
AcDbLine
 10
36
 20
36
 11
36
 21
0
  0
LINE
  5
27B
100
AcDbEntity
  8
0
  6
ByLayer
 62
  256
370
   -1
100
AcDbLine
 10
36
 20
36
 11
0
 21
36
  0
LINE
  5
27C
100
AcDbEntity
  8
0
  6
ByLayer
 62
  256
370
   -1
100
AcDbLine
 10
0
 20
36
 11
0
 21
0
  0
LINE
  5
27D
100
AcDbEntity
  8
0
  6
ByLayer
 62
  256
370
   -1
100
AcDbLine
 10
0
 20
0
 11
36
 21
0
  0
ENDBLK
  5
BC
330
BA
100
AcDbEntity
  8
0
100
AcDbBlockEnd
  0
BLOCK
  5
BE
330
BD
100
AcDbEntity
  8
0
100
AcDbBlockBegin
  2
stepper_mount_cap_s
 70
    0
 10
0
 20
0
  3
stepper_mount_cap_s
  1

  0
LINE
  5
27E
100
AcDbEntity
  8
0
  6
CONTINUOUS
 62
    7
370
    0
100
AcDbLine
 10
0
 20
-5
 11
0
 21
0
  0
LINE
  5
27F
100
AcDbEntity
  8
0
  6
ByLayer
 62
  256
370
   -1
100
AcDbLine
 10
0
 20
0
 11
7
 21
0
  0
LINE
  5
280
100
AcDbEntity
  8
0
  6
ByLayer
 62
  256
370
   -1
100
AcDbLine
 10
7
 20
0
 11
7
 21
-5
  0
LINE
  5
281
100
AcDbEntity
  8
0
  6
ByLayer
 62
  256
370
   -1
100
AcDbLine
 10
7
 20
-5
 11
0
 21
-5
  0
ENDBLK
  5
BF
330
BD
100
AcDbEntity
  8
0
100
AcDbBlockEnd
  0
BLOCK
  5
C1
330
C0
100
AcDbEntity
  8
0
100
AcDbBlockBegin
  2
stepper_mount_s
 70
    0
 10
0
 20
0
  3
stepper_mount_s
  1

  0
LINE
  5
282
100
AcDbEntity
  8
0
  6
ByLayer
 62
  256
370
   -1
100
AcDbLine
 10
0
 20
0
 11
9
 21
0
  0
CIRCLE
  5
283
100
AcDbEntity
  8
0
  6
ByLayer
 62
  256
370
   -1
100
AcDbCircle
 10
6.5
 20
-4.5
 40
1.5
  0
LINE
  5
284
100
AcDbEntity
  8
0
  6
ByLayer
 62
  256
370
   -1
100
AcDbLine
 10
4.718447854656915e-16
 20
-7
 11
9
 21
-7
  0
LINE
  5
285
100
AcDbEntity
  8
0
  6
ByLayer
 62
  256
370
   -1
100
AcDbLine
 10
0
 20
0
 11
4.718447854656915e-16
 21
-7
  0
LINE
  5
286
100
AcDbEntity
  8
0
  6
ByLayer
 62
  256
370
   -1
100
AcDbLine
 10
9
 20
0
 11
9
 21
-7
  0
ENDBLK
  5
C2
330
C0
100
AcDbEntity
  8
0
100
AcDbBlockEnd
  0
BLOCK
  5
C4
330
C3
100
AcDbEntity
  8
0
100
AcDbBlockBegin
  2
stepper_mount_cap_r
 70
    0
 10
0
 20
0
  3
stepper_mount_cap_r
  1

  0
LINE
  5
287
100
AcDbEntity
  8
0
  6
CONTINUOUS
 62
  176
420
  128
370
    0
100
AcDbLine
 10
0
 20
0
 11
16
 21
0
  0
LINE
  5
288
100
AcDbEntity
  8
0
  6
CONTINUOUS
 62
    7
370
    0
100
AcDbLine
 10
0
 20
-5
 11
0
 21
0
  0
ARC
  5
289
100
AcDbEntity
  8
0
  6
ByLayer
 62
  256
370
   -1
100
AcDbCircle
 10
8
 20
-5
 40
4
100
AcDbArc
 50
0
 51
180
  0
LINE
  5
28A
100
AcDbEntity
  8
0
  6
CONTINUOUS
 62
    7
370
    0
100
AcDbLine
 10
16
 20
0
 11
16
 21
-5
  0
LINE
  5
28B
100
AcDbEntity
  8
0
  6
ByLayer
 62
  256
370
   -1
100
AcDbLine
 10
0
 20
-5
 11
4
 21
-5
  0
LINE
  5
28C
100
AcDbEntity
  8
0
  6
ByLayer
 62
  256
370
   -1
100
AcDbLine
 10
12
 20
-5
 11
16
 21
-5
  0
ENDBLK
  5
C5
330
C3
100
AcDbEntity
  8
0
100
AcDbBlockEnd
  0
BLOCK
  5
C7
330
C6
100
AcDbEntity
  8
0
100
AcDbBlockBegin
  2
stepper_mount_f
 70
    0
 10
0
 20
0
  3
stepper_mount_f
  1

  0
LINE
  5
28D
100
AcDbEntity
  8
0
  6
CONTINUOUS
 62
  256
370
   -1
100
AcDbLine
 10
0
 20
0
 11
4
 21
0
  0
ARC
  5
28E
100
AcDbEntity
  8
0
  6
CONTINUOUS
 62
  256
370
   -1
100
AcDbCircle
 10
8
 20
0
 40
4
100
AcDbArc
 50
180
 51
0
  0
LINE
  5
28F
100
AcDbEntity
  8
0
  6
CONTINUOUS
 62
  256
370
   -1
100
AcDbLine
 10
12
 20
0
 11
16
 21
0
  0
LINE
  5
290
100
AcDbEntity
  8
0
  6
ByLayer
 62
  256
370
   -1
100
AcDbLine
 10
0
 20
0
 11
0
 21
-9
  0
LINE
  5
291
100
AcDbEntity
  8
0
  6
ByLayer
 62
  256
370
   -1
100
AcDbLine
 10
0
 20
-9
 11
16
 21
-9
  0
LINE
  5
292
100
AcDbEntity
  8
0
  6
ByLayer
 62
  256
370
   -1
100
AcDbLine
 10
16
 20
-9
 11
16
 21
0
  0
ENDBLK
  5
C8
330
C6
100
AcDbEntity
  8
0
100
AcDbBlockEnd
  0
BLOCK
  5
CA
330
C9
100
AcDbEntity
  8
0
100
AcDbBlockBegin
  2
stepper_screw_arm_s
 70
    0
 10
0
 20
0
  3
stepper_screw_arm_s
  1

  0
CIRCLE
  5
293
100
AcDbEntity
  8
0
  6
ByLayer
 62
  256
370
   -1
100
AcDbCircle
 10
0
 20
0
 40
2
  0
LINE
  5
294
100
AcDbEntity
  8
0
  6
ByLayer
 62
  256
370
   -1
100
AcDbLine
 10
3
 20
0
 11
3
 21
10
  0
LINE
  5
295
100
AcDbEntity
  8
0
  6
ByLayer
 62
  256
370
   -1
100
AcDbLine
 10
-3
 20
0
 11
-3
 21
10
  0
ARC
  5
296
100
AcDbEntity
  8
0
  6
ByLayer
 62
  256
370
   -1
100
AcDbCircle
 10
0
 20
0
 40
3
100
AcDbArc
 50
180
 51
360
  0
LINE
  5
297
100
AcDbEntity
  8
0
  6
ByLayer
 62
  256
370
   -1
100
AcDbLine
 10
-3
 20
10
 11
3
 21
10
  0
LINE
  5
298
100
AcDbEntity
  8
0
  6
DASHEDTINY
 62
  256
370
   -1
100
AcDbLine
 10
-3
 20
9
 11
3
 21
9
  0
LINE
  5
299
100
AcDbEntity
  8
0
  6
DASHEDTINY
 62
  256
370
   -1
100
AcDbLine
 10
-1.73205
 20
-1
 11
1.73205
 21
-1
  0
LINE
  5
29A
100
AcDbEntity
  8
0
  6
DASHEDTINY
 62
  256
370
   -1
100
AcDbLine
 10
-1.73205
 20
1
 11
1.73205
 21
1
  0
LINE
  5
29B
100
AcDbEntity
  8
0
  6
DASHEDTINY
 62
  256
370
   -1
100
AcDbLine
 10
-1
 20
10
 11
-1
 21
9
  0
LINE
  5
29C
100
AcDbEntity
  8
0
  6
DASHEDTINY
 62
  256
370
   -1
100
AcDbLine
 10
1
 20
10
 11
1
 21
9
  0
ENDBLK
  5
CB
330
C9
100
AcDbEntity
  8
0
100
AcDbBlockEnd
  0
BLOCK
  5
CD
330
CC
100
AcDbEntity
  8
0
100
AcDbBlockBegin
  2
stepper_screw_arm_f
 70
    0
 10
0
 20
0
  3
stepper_screw_arm_f
  1

  0
LINE
  5
29D
100
AcDbEntity
  8
0
  6
ByLayer
 62
  256
370
   -1
100
AcDbLine
 10
-2
 20
-3
 11
-2
 21
10
  0
LINE
  5
29E
100
AcDbEntity
  8
0
  6
ByLayer
 62
  256
370
   -1
100
AcDbLine
 10
2
 20
10
 11
2
 21
-3
  0
LINE
  5
29F
100
AcDbEntity
  8
0
  6
ByLayer
 62
  256
370
   -1
100
AcDbLine
 10
2
 20
-3
 11
1
 21
-3
  0
LINE
  5
2A0
100
AcDbEntity
  8
0
  6
ByLayer
 62
  256
370
   -1
100
AcDbLine
 10
-1
 20
-3
 11
-2
 21
-3
  0
LINE
  5
2A1
100
AcDbEntity
  8
0
  6
ByLayer
 62
  256
370
   -1
100
AcDbLine
 10
-1
 20
8
 11
-1
 21
-3
  0
LINE
  5
2A2
100
AcDbEntity
  8
0
  6
ByLayer
 62
  256
370
   -1
100
AcDbLine
 10
1
 20
-3
 11
1
 21
8
  0
LINE
  5
2A3
100
AcDbEntity
  8
0
  6
ByLayer
 62
  256
370
   -1
100
AcDbLine
 10
1
 20
8
 11
-1
 21
8
  0
LINE
  5
2A4
100
AcDbEntity
  8
0
  6
DASHEDTINY
 62
  256
370
   -1
100
AcDbLine
 10
-1
 20
10
 11
-1
 21
8
  0
LINE
  5
2A5
100
AcDbEntity
  8
0
  6
DASHEDTINY
 62
  256
370
   -1
100
AcDbLine
 10
1
 20
10
 11
1
 21
8
  0
LINE
  5
2A6
100
AcDbEntity
  8
0
  6
ByLayer
 62
  256
370
   -1
100
AcDbLine
 10
1
 20
2
 11
-1
 21
2
  0
LINE
  5
2A7
100
AcDbEntity
  8
0
  6
ByLayer
 62
  256
370
   -1
100
AcDbLine
 10
1
 20
-2
 11
-1
 21
-2
  0
LINE
  5
2A8
100
AcDbEntity
  8
0
  6
DASHEDTINY
 62
  256
370
   -1
100
AcDbLine
 10
-2
 20
2
 11
-1
 21
2
  0
LINE
  5
2A9
100
AcDbEntity
  8
0
  6
DASHEDTINY
 62
  256
370
   -1
100
AcDbLine
 10
-2
 20
-2
 11
-1
 21
-2
  0
LINE
  5
2AA
100
AcDbEntity
  8
0
  6
DASHEDTINY
 62
  256
370
   -1
100
AcDbLine
 10
1
 20
2
 11
2
 21
2
  0
LINE
  5
2AB
100
AcDbEntity
  8
0
  6
DASHEDTINY
 62
  256
370
   -1
100
AcDbLine
 10
1
 20
-2
 11
2
 21
-2
  0
CIRCLE
  5
2AC
100
AcDbEntity
  8
0
  6
ByLayer
 62
  256
370
   -1
100
AcDbCircle
 10
0
 20
0
 40
1
  0
LINE
  5
2AD
100
AcDbEntity
  8
0
  6
ByLayer
 62
  256
370
   -1
100
AcDbLine
 10
-2
 20
10
 11
2
 21
10
  0
ENDBLK
  5
CE
330
CC
100
AcDbEntity
  8
0
100
AcDbBlockEnd
  0
BLOCK
  5
D0
330
CF
100
AcDbEntity
  8
0
100
AcDbBlockBegin
  2
stepper_screw_arm_t
 70
    0
 10
0
 20
0
  3
stepper_screw_arm_t
  1

  0
LINE
  5
2AE
100
AcDbEntity
  8
0
  6
ByLayer
 62
  256
370
   -1
100
AcDbLine
 10
-2
 20
3
 11
2
 21
3
  0
LINE
  5
2AF
100
AcDbEntity
  8
0
  6
ByLayer
 62
  256
370
   -1
100
AcDbLine
 10
2
 20
3
 11
2
 21
-3
  0
LINE
  5
2B0
100
AcDbEntity
  8
0
  6
ByLayer
 62
  256
370
   -1
100
AcDbLine
 10
2
 20
-3
 11
-2
 21
-3
  0
LINE
  5
2B1
100
AcDbEntity
  8
0
  6
ByLayer
 62
  256
370
   -1
100
AcDbLine
 10
-2
 20
-3
 11
-2
 21
3
  0
CIRCLE
  5
2B2
100
AcDbEntity
  8
0
  6
ByLayer
 62
  256
370
   -1
100
AcDbCircle
 10
0
 20
0
 40
1
  0
LINE
  5
2B3
100
AcDbEntity
  8
0
  6
DASHEDTINY
 62
  256
370
   -1
100
AcDbLine
 10
-2
 20
2
 11
-1
 21
2
  0
LINE
  5
2B4
100
AcDbEntity
  8
0
  6
DASHEDTINY
 62
  256
370
   -1
100
AcDbLine
 10
-1
 20
2
 11
1
 21
2
  0
LINE
  5
2B5
100
AcDbEntity
  8
0
  6
DASHEDTINY
 62
  256
370
   -1
100
AcDbLine
 10
1
 20
2
 11
2
 21
2
  0
LINE
  5
2B6
100
AcDbEntity
  8
0
  6
DASHEDTINY
 62
  256
370
   -1
100
AcDbLine
 10
-2
 20
-2
 11
-1
 21
-2
  0
LINE
  5
2B7
100
AcDbEntity
  8
0
  6
DASHEDTINY
 62
  256
370
   -1
100
AcDbLine
 10
-1
 20
-2
 11
1
 21
-2
  0
LINE
  5
2B8
100
AcDbEntity
  8
0
  6
DASHEDTINY
 62
  256
370
   -1
100
AcDbLine
 10
1
 20
-2
 11
2
 21
-2
  0
LINE
  5
2B9
100
AcDbEntity
  8
0
  6
DASHEDTINY
 62
  256
370
   -1
100
AcDbLine
 10
-1
 20
3
 11
-1
 21
-3
  0
LINE
  5
2BA
100
AcDbEntity
  8
0
  6
DASHEDTINY
 62
  256
370
   -1
100
AcDbLine
 10
1
 20
3
 11
1
 21
-3
  0
ENDBLK
  5
D1
330
CF
100
AcDbEntity
  8
0
100
AcDbBlockEnd
  0
BLOCK
  5
D3
330
D2
100
AcDbEntity
  8
0
100
AcDbBlockBegin
  2
stepper_t
 70
    0
 10
0
 20
0
  3
stepper_t
  1

  0
LINE
  5
2BB
100
AcDbEntity
  8
0
  6
CONTINUOUS
 62
  176
420
  128
370
    0
100
AcDbLine
 10
0.2000000000000455
 20
1
 11
33
 21
1
  0
LINE
  5
2BC
100
AcDbEntity
  8
0
  6
CONTINUOUS
 62
    7
370
    0
100
AcDbLine
 10
33
 20
1
 11
33
 21
-1
  0
LINE
  5
2BD
100
AcDbEntity
  8
0
  6
CONTINUOUS
 62
    7
370
    0
100
AcDbLine
 10
33
 20
-1
 11
0.2000000000000455
 21
-1
  0
LINE
  5
2BE
100
AcDbEntity
  8
0
  6
CONTINUOUS
 62
    7
370
    0
100
AcDbLine
 10
0.2000000000000455
 20
-1
 11
0.2000000000000455
 21
1
  0
LINE
  5
2BF
100
AcDbEntity
  8
0
  6
CONTINUOUS
 62
  176
420
  128
370
    0
100
AcDbLine
 10
0.2000000000000455
 20
-4
 11
-7
 21
-4
  0
LINE
  5
2C0
100
AcDbEntity
  8
0
  6
CONTINUOUS
 62
    7
370
    0
100
AcDbLine
 10
-7
 20
-4
 11
-7
 21
4
  0
LINE
  5
2C1
100
AcDbEntity
  8
0
  6
CONTINUOUS
 62
    7
370
    0
100
AcDbLine
 10
-7
 20
4
 11
0.2000000000000455
 21
4
  0
LINE
  5
2C2
100
AcDbEntity
  8
0
  6
CONTINUOUS
 62
    7
370
    0
100
AcDbLine
 10
0.2000000000000455
 20
4
 11
0.2000000000000455
 21
-4
  0
ENDBLK
  5
D4
330
D2
100
AcDbEntity
  8
0
100
AcDbBlockEnd
  0
BLOCK
  5
D6
330
D5
100
AcDbEntity
  8
0
100
AcDbBlockBegin
  2
stepper_mount_t
 70
    0
 10
0
 20
0
  3
stepper_mount_t
  1

  0
LINE
  5
2C3
100
AcDbEntity
  8
0
  6
ByLayer
 62
  256
370
   -1
100
AcDbLine
 10
7
 20
0
 11
7
 21
-16
  0
CIRCLE
  5
2C4
100
AcDbEntity
  8
0
  6
ByLayer
 62
  256
370
   -1
100
AcDbCircle
 10
3.5
 20
-2
 40
1
  0
CIRCLE
  5
2C5
100
AcDbEntity
  8
0
  6
ByLayer
 62
  256
370
   -1
100
AcDbCircle
 10
3.5
 20
-14
 40
1
  0
LINE
  5
2C6
100
AcDbEntity
  8
0
  6
ByLayer
 62
  256
370
   -1
100
AcDbLine
 10
7
 20
-4
 11
0
 21
-4
  0
LINE
  5
2C7
100
AcDbEntity
  8
0
  6
ByLayer
 62
  256
370
   -1
100
AcDbLine
 10
0
 20
-4
 11
0
 21
-12
  0
LINE
  5
2C8
100
AcDbEntity
  8
0
  6
ByLayer
 62
  256
370
   -1
100
AcDbLine
 10
0
 20
-12
 11
7
 21
-12
  0
LINE
  5
2C9
100
AcDbEntity
  8
0
  6
ByLayer
 62
  256
370
   -1
100
AcDbLine
 10
0
 20
0
 11
7
 21
0
  0
LINE
  5
2CA
100
AcDbEntity
  8
0
  6
ByLayer
 62
  256
370
   -1
100
AcDbLine
 10
7
 20
-16
 11
0
 21
-16
  0
LINE
  5
2CB
100
AcDbEntity
  8
0
  6
ByLayer
 62
  256
370
   -1
100
AcDbLine
 10
0
 20
0
 11
0
 21
-16
  0
ENDBLK
  5
D7
330
D5
100
AcDbEntity
  8
0
100
AcDbBlockEnd
  0
BLOCK
  5
D9
330
D8
100
AcDbEntity
  8
0
100
AcDbBlockBegin
  2
mount_arm_t
 70
    0
 10
0
 20
0
  3
mount_arm_t
  1

  0
LINE
  5
2CC
100
AcDbEntity
  8
0
  6
ByLayer
 62
  256
370
   -1
100
AcDbLine
 10
0
 20
2
 11
35.5
 21
1.999999999999986
  0
LINE
  5
2CD
100
AcDbEntity
  8
0
  6
ByLayer
 62
  256
370
   -1
100
AcDbLine
 10
35.5
 20
1.999999999999986
 11
35.5
 21
0
  0
LINE
  5
2CE
100
AcDbEntity
  8
0
  6
ByLayer
 62
  256
370
   -1
100
AcDbLine
 10
35.5
 20
0
 11
0
 21
0
  0
LINE
  5
2CF
100
AcDbEntity
  8
0
  6
ByLayer
 62
  256
370
   -1
100
AcDbLine
 10
0
 20
0
 11
0
 21
2
  0
LINE
  5
2D0
100
AcDbEntity
  8
0
  6
DASHEDTINY
 62
  256
370
   -1
100
AcDbLine
 10
20
 20
2
 11
20
 21
0
  0
LINE
  5
2D1
100
AcDbEntity
  8
0
  6
DASHEDTINY
 62
  256
370
   -1
100
AcDbLine
 10
25.5
 20
2
 11
25.5
 21
0
  0
LINE
  5
2D2
100
AcDbEntity
  8
0
  6
DASHEDTINY
 62
  256
370
   -1
100
AcDbLine
 10
28
 20
2
 11
28
 21
0
  0
LINE
  5
2D3
100
AcDbEntity
  8
0
  6
DASHEDTINY
 62
  256
370
   -1
100
AcDbLine
 10
32
 20
2
 11
32
 21
0
  0
LINE
  5
2D4
100
AcDbEntity
  8
0
  6
DASHEDTINY
 62
  256
370
   -1
100
AcDbLine
 10
34.5
 20
2
 11
34.5
 21
0
  0
LINE
  5
2D5
100
AcDbEntity
  8
0
  6
DASHEDTINY
 62
  256
370
   -1
100
AcDbLine
 10
14
 20
2
 11
14
 21
0
  0
LINE
  5
2D6
100
AcDbEntity
  8
0
  6
DASHEDTINY
 62
  256
370
   -1
100
AcDbLine
 10
16
 20
2
 11
16
 21
0
  0
ENDBLK
  5
DA
330
D8
100
AcDbEntity
  8
0
100
AcDbBlockEnd
  0
BLOCK
  5
DC
330
DB
100
AcDbEntity
  8
0
100
AcDbBlockBegin
  2
mount_plate_t
 70
    0
 10
0
 20
0
  3
mount_plate_t
  1

  0
CIRCLE
  5
2D7
100
AcDbEntity
  8
0
  6
ByLayer
 62
  256
370
   -1
100
AcDbCircle
 10
14
 20
-50
 40
6
  0
CIRCLE
  5
2D8
100
AcDbEntity
  8
0
  6
ByLayer
 62
  256
370
   -1
100
AcDbCircle
 10
14
 20
-42.5
 40
1
  0
CIRCLE
  5
2D9
100
AcDbEntity
  8
0
  6
ByLayer
 62
  256
370
   -1
100
AcDbCircle
 10
20.49486325441723
 20
-53.75056679802169
 40
1
  0
CIRCLE
  5
2DA
100
AcDbEntity
  8
0
  6
ByLayer
 62
  256
370
   -1
100
AcDbCircle
 10
7.505136745582774
 20
-53.75056679802169
 40
1
  0
ARC
  5
2DB
100
AcDbEntity
  8
0
  6
ByLayer
 62
  256
370
   -1
100
AcDbCircle
 10
9.5
 20
-4
 40
1
100
AcDbArc
 50
359.9997625778385
 51
540.0000000000002
  0
ARC
  5
2DC
100
AcDbEntity
  8
0
  6
ByLayer
 62
  256
370
   -1
100
AcDbCircle
 10
14
 20
-4
 40
2
100
AcDbArc
 50
359.9999999999999
 51
540
  0
ARC
  5
2DD
100
AcDbEntity
  8
0
  6
ByLayer
 62
  256
370
   -1
100
AcDbCircle
 10
18.5
 20
-4.000000000000007
 40
1
100
AcDbArc
 50
359.9996329322632
 51
540
  0
ARC
  5
2DE
100
AcDbEntity
  8
0
  6
ByLayer
 62
  256
370
   -1
100
AcDbCircle
 10
9.5
 20
-34
 40
1
100
AcDbArc
 50
179.9999999999992
 51
8.142219984546603e-13
  0
ARC
  5
2DF
100
AcDbEntity
  8
0
  6
ByLayer
 62
  256
370
   -1
100
AcDbCircle
 10
14
 20
-34
 40
2
100
AcDbArc
 50
179.9999999999998
 51
2.035554996136651e-13
  0
ARC
  5
2E0
100
AcDbEntity
  8
0
  6
ByLayer
 62
  256
370
   -1
100
AcDbCircle
 10
18.5
 20
-34
 40
1
100
AcDbArc
 50
179.9999999999992
 51
0.0006493347063806081
  0
LINE
  5
2E1
100
AcDbEntity
  8
0
  6
ByLayer
 62
  256
370
   -1
100
AcDbLine
 10
19.5
 20
-4.000000000000007
 11
19.5
 21
-34
  0
LINE
  5
2E2
100
AcDbEntity
  8
0
  6
ByLayer
 62
  256
370
   -1
100
AcDbLine
 10
17.5
 20
-34
 11
17.5
 21
-4.000000000000007
  0
LINE
  5
2E3
100
AcDbEntity
  8
0
  6
ByLayer
 62
  256
370
   -1
100
AcDbLine
 10
12
 20
-4
 11
12
 21
-34
  0
LINE
  5
2E4
100
AcDbEntity
  8
0
  6
ByLayer
 62
  256
370
   -1
100
AcDbLine
 10
16
 20
-34
 11
16
 21
-4
  0
LINE
  5
2E5
100
AcDbEntity
  8
0
  6
ByLayer
 62
  256
370
   -1
100
AcDbLine
 10
8.5
 20
-4
 11
8.5
 21
-34
  0
LINE
  5
2E6
100
AcDbEntity
  8
0
  6
ByLayer
 62
  256
370
   -1
100
AcDbLine
 10
10.5
 20
-34
 11
10.5
 21
-4
  0
LINE
  5
2E7
100
AcDbEntity
  8
0
  6
ByLayer
 62
  256
370
   -1
100
AcDbLine
 10
0
 20
0
 11
0
 21
-90
  0
LINE
  5
2E8
100
AcDbEntity
  8
0
  6
ByLayer
 62
  256
370
   -1
100
AcDbLine
 10
2
 20
0
 11
2
 21
-90
  0
LINE
  5
2E9
100
AcDbEntity
  8
0
  6
ByLayer
 62
  256
370
   -1
100
AcDbLine
 10
28
 20
-90
 11
28
 21
0
  0
LINE
  5
2EA
100
AcDbEntity
  8
0
  6
ByLayer
 62
  256
370
   -1
100
AcDbLine
 10
26
 20
0
 11
26
 21
-90
  0
LINE
  5
2EB
100
AcDbEntity
  8
0
  6
ByLayer
 62
  256
370
   -1
100
AcDbLine
 10
0
 20
0
 11
28
 21
0
  0
LINE
  5
2EC
100
AcDbEntity
  8
0
  6
ByLayer
 62
  256
370
   -1
100
AcDbLine
 10
0
 20
-90
 11
28
 21
-90
  0
ENDBLK
  5
DD
330
DB
100
AcDbEntity
  8
0
100
AcDbBlockEnd
  0
BLOCK
  5
DF
330
DE
100
AcDbEntity
  8
0
100
AcDbBlockBegin
  2
mount_arm_cross_t
 70
    0
 10
0
 20
0
  3
mount_arm_cross_t
  1

  0
LINE
  5
2ED
100
AcDbEntity
  8
0
  6
ByLayer
 62
  256
370
   -1
100
AcDbLine
 10
36
 20
0
 11
-36
 21
0
  0
LINE
  5
2EE
100
AcDbEntity
  8
0
  6
ByLayer
 62
  256
370
   -1
100
AcDbLine
 10
-36
 20
0
 11
-36
 21
16
  0
LINE
  5
2EF
100
AcDbEntity
  8
0
  6
ByLayer
 62
  256
370
   -1
100
AcDbLine
 10
-36
 20
16
 11
36
 21
16
  0
LINE
  5
2F0
100
AcDbEntity
  8
0
  6
ByLayer
 62
  256
370
   -1
100
AcDbLine
 10
36
 20
16
 11
36
 21
0
  0
LINE
  5
2F1
100
AcDbEntity
  8
0
  6
DASHEDTINY
 62
  256
370
   -1
100
AcDbLine
 10
-36
 20
14
 11
-30
 21
14
  0
LINE
  5
2F2
100
AcDbEntity
  8
0
  6
DASHEDTINY
 62
  256
370
   -1
100
AcDbLine
 10
-30
 20
12
 11
-36
 21
12
  0
LINE
  5
2F3
100
AcDbEntity
  8
0
  6
DASHEDTINY
 62
  256
370
   -1
100
AcDbLine
 10
-30
 20
14
 11
-30
 21
12
  0
LINE
  5
2F4
100
AcDbEntity
  8
0
  6
DASHEDTINY
 62
  256
370
   -1
100
AcDbLine
 10
-36
 20
4
 11
-30
 21
4
  0
LINE
  5
2F5
100
AcDbEntity
  8
0
  6
DASHEDTINY
 62
  256
370
   -1
100
AcDbLine
 10
-30
 20
4
 11
-30
 21
2
  0
LINE
  5
2F6
100
AcDbEntity
  8
0
  6
DASHEDTINY
 62
  256
370
   -1
100
AcDbLine
 10
-30
 20
2
 11
-36
 21
2
  0
LINE
  5
2F7
100
AcDbEntity
  8
0
  6
DASHEDTINY
 62
  256
370
   -1
100
AcDbLine
 10
36
 20
14
 11
30
 21
14
  0
LINE
  5
2F8
100
AcDbEntity
  8
0
  6
DASHEDTINY
 62
  256
370
   -1
100
AcDbLine
 10
30
 20
12
 11
36
 21
12
  0
LINE
  5
2F9
100
AcDbEntity
  8
0
  6
DASHEDTINY
 62
  256
370
   -1
100
AcDbLine
 10
30
 20
14
 11
30
 21
12
  0
LINE
  5
2FA
100
AcDbEntity
  8
0
  6
DASHEDTINY
 62
  256
370
   -1
100
AcDbLine
 10
36
 20
4
 11
30
 21
4
  0
LINE
  5
2FB
100
AcDbEntity
  8
0
  6
DASHEDTINY
 62
  256
370
   -1
100
AcDbLine
 10
30
 20
4
 11
30
 21
2
  0
LINE
  5
2FC
100
AcDbEntity
  8
0
  6
DASHEDTINY
 62
  256
370
   -1
100
AcDbLine
 10
30
 20
2
 11
36
 21
2
  0
ENDBLK
  5
E0
330
DE
100
AcDbEntity
  8
0
100
AcDbBlockEnd
  0
BLOCK
  5
E2
330
E1
100
AcDbEntity
  8
0
100
AcDbBlockBegin
  2
mount_arm_cross_s
 70
    0
 10
0
 20
0
  3
mount_arm_cross_s
  1

  0
LINE
  5
2FD
100
AcDbEntity
  8
0
  6
ByLayer
 62
  256
370
   -1
100
AcDbLine
 10
0
 20
-4
 11
16
 21
-4
  0
LINE
  5
2FE
100
AcDbEntity
  8
0
  6
ByLayer
 62
  256
370
   -1
100
AcDbLine
 10
0
 20
0
 11
0
 21
-4
  0
LINE
  5
2FF
100
AcDbEntity
  8
0
  6
ByLayer
 62
  256
370
   -1
100
AcDbLine
 10
16
 20
0
 11
0
 21
0
  0
LINE
  5
300
100
AcDbEntity
  8
0
  6
ByLayer
 62
  256
370
   -1
100
AcDbLine
 10
16
 20
-4
 11
16
 21
0
  0
CIRCLE
  5
301
100
AcDbEntity
  8
0
  6
ByLayer
 62
  256
370
   -1
100
AcDbCircle
 10
3
 20
-2
 40
1
  0
CIRCLE
  5
302
100
AcDbEntity
  8
0
  6
ByLayer
 62
  256
370
   -1
100
AcDbCircle
 10
13
 20
-2
 40
1
  0
ENDBLK
  5
E3
330
E1
100
AcDbEntity
  8
0
100
AcDbBlockEnd
  0
BLOCK
  5
E5
330
E4
100
AcDbEntity
  8
0
100
AcDbBlockBegin
  2
stepper_f
 70
    0
 10
0
 20
0
  3
stepper_f
  1

  0
CIRCLE
  5
303
100
AcDbEntity
  8
0
  6
ByLayer
 62
  256
370
   -1
100
AcDbCircle
 10
0
 20
0
 40
4.123105625617661
  0
CIRCLE
  5
304
100
AcDbEntity
  8
0
  6
ByLayer
 62
  256
370
   -1
100
AcDbCircle
 10
0
 20
0
 40
1
  0
ENDBLK
  5
E6
330
E4
100
AcDbEntity
  8
0
100
AcDbBlockEnd
  0
BLOCK
  5
E8
330
E7
100
AcDbEntity
  8
0
100
AcDbBlockBegin
  2
stepper_mount_iso
 70
    0
 10
0
 20
0
  3
stepper_mount_iso
  1

  0
LINE
  5
305
100
AcDbEntity
  8
0
  6
ByLayer
 62
  256
370
   -1
100
AcDbLine
 10
3.464101615137679
 20
-2
 11
9.526279441628787
 21
1.5
  0
LINE
  5
306
100
AcDbEntity
  8
0
  6
ByLayer
 62
  256
370
   -1
100
AcDbLine
 10
10.39230484541332
 20
-6
 11
16.45448267190432
 21
-2.5
  0
LINE
  5
307
100
AcDbEntity
  8
0
  6
ByLayer
 62
  256
370
   -1
100
AcDbLine
 10
16.45448267190432
 20
-2.5
 11
19.91858428704211
 21
-4.5
  0
LINE
  5
308
100
AcDbEntity
  8
0
  6
ByLayer
 62
  256
370
   -1
100
AcDbLine
 10
6.062177826491109
 20
3.5
 11
9.526279441628787
 21
1.5
  0
LINE
  5
309
100
AcDbEntity
  8
0
  6
ByLayer
 62
  256
370
   -1
100
AcDbLine
 10
6.062177826491109
 20
3.5
 11
0
 21
0
  0
LINE
  5
30A
100
AcDbEntity
  8
0
  6
ByLayer
 62
  256
370
   -1
100
AcDbLine
 10
13.856406460551
 20
-8
 11
19.91858428704211
 21
-4.5
  0
LINE
  5
30B
100
AcDbEntity
  8
0
  6
ByLayer
 62
  256
370
   -1
100
AcDbLine
 10
0
 20
0
 11
3.464101615137679
 21
-2
  0
LINE
  5
30C
100
AcDbEntity
  8
0
  6
ByLayer
 62
  256
370
   -1
100
AcDbLine
 10
10.39230484541332
 20
-6
 11
13.856406460551
 21
-8
  0
ELLIPSE
  5
30D
100
AcDbEntity
  8
0
  6
ByLayer
 62
  256
370
   -1
100
AcDbEllipse
 10
6.928203230275471
 20
-3.999999999999972
 30
0
 11
-2.449489742783141
 21
4.242640687119299
 31
0
 40
0.5773502691896263
 41
0.7853981633974612
 42
3.92699081698724
  0
ELLIPSE
  5
30E
100
AcDbEntity
  8
0
  6
ByLayer
 62
  256
370
   -1
100
AcDbEllipse
 10
12.99038105676652
 20
-0.4999999999999716
 30
0
 11
-2.449489742783141
 21
4.242640687119299
 31
0
 40
0.5773502691896263
 41
0.7853981633974612
 42
2.356194490192354
  0
ELLIPSE
  5
30F
100
AcDbEntity
  8
0
  6
ByLayer
 62
  256
370
   -1
100
AcDbEllipse
 10
15.15544456622752
 20
-5.25
 30
0
 11
-1.224744871391361
 21
-2.720046410331634e-14
 31
0
 40
0.5773502691897372
 41
0
 42
6.283185307179586
  0
ELLIPSE
  5
310
100
AcDbEntity
  8
0
  6
ByLayer
 62
  256
370
   -1
100
AcDbEllipse
 10
4.763139720814308
 20
0.75
 30
0
 11
-1.224744871391361
 21
-2.720046410331634e-14
 31
0
 40
0.5773502691897372
 41
0
 42
6.283185307179586
  0
LINE
  5
311
100
AcDbEntity
  8
0
  6
ByLayer
 62
  256
370
   -1
100
AcDbLine
 10
0
 20
-9
 11
13.85640646055102
 21
-17
  0
LINE
  5
312
100
AcDbEntity
  8
0
  6
ByLayer
 62
  256
370
   -1
100
AcDbLine
 10
13.85640646055102
 20
-17
 11
19.91858428704209
 21
-13.5
  0
LINE
  5
313
100
AcDbEntity
  8
0
  6
ByLayer
 62
  256
370
   -1
100
AcDbLine
 10
19.91858428704209
 20
-4.5
 11
19.91858428704209
 21
-13.5
  0
LINE
  5
314
100
AcDbEntity
  8
0
  6
ByLayer
 62
  256
370
   -1
100
AcDbLine
 10
13.856406460551
 20
-8
 11
13.85640646055102
 21
-17
  0
LINE
  5
315
100
AcDbEntity
  8
0
  6
ByLayer
 62
  256
370
   -1
100
AcDbLine
 10
0
 20
0
 11
0
 21
-9
  0
ELLIPSE
  5
316
100
AcDbEntity
  8
0
  6
ByLayer
 62
  256
370
   -1
100
AcDbEllipse
 10
17.753520777581
 20
-12.25
 30
0
 11
-0.9185586535436914
 21
-1.590990257669735
 31
0
 40
0.5773502691896251
 41
0
 42
6.283185307179586
  0
ENDBLK
  5
E9
330
E7
100
AcDbEntity
  8
0
100
AcDbBlockEnd
  0
BLOCK
  5
EB
330
EA
100
AcDbEntity
  8
0
100
AcDbBlockBegin
  2
stepper_mount_cap_iso
 70
    0
 10
0
 20
0
  3
stepper_mount_cap_iso
  1

  0
LINE
  5
317
100
AcDbEntity
  8
0
  6
ByLayer
 62
  256
370
   -1
100
AcDbLine
 10
3.464101615137793
 20
3
 11
9.526279441628844
 21
6.5
  0
LINE
  5
318
100
AcDbEntity
  8
0
  6
ByLayer
 62
  256
370
   -1
100
AcDbLine
 10
10.39230484541332
 20
-1
 11
16.45448267190443
 21
2.5
  0
LINE
  5
319
100
AcDbEntity
  8
0
  6
ByLayer
 62
  256
370
   -1
100
AcDbLine
 10
16.45448267190443
 20
2.5
 11
19.91858428704211
 21
0.5
  0
LINE
  5
31A
100
AcDbEntity
  8
0
  6
ByLayer
 62
  256
370
   -1
100
AcDbLine
 10
6.062177826491109
 20
8.5
 11
9.526279441628844
 21
6.5
  0
LINE
  5
31B
100
AcDbEntity
  8
0
  6
ByLayer
 62
  256
370
   -1
100
AcDbLine
 10
6.062177826491109
 20
8.5
 11
0
 21
5
  0
LINE
  5
31C
100
AcDbEntity
  8
0
  6
ByLayer
 62
  256
370
   -1
100
AcDbLine
 10
0
 20
5
 11
0
 21
0
  0
LINE
  5
31D
100
AcDbEntity
  8
0
  6
ByLayer
 62
  256
370
   -1
100
AcDbLine
 10
0
 20
0
 11
13.856406460551
 21
-8
  0
LINE
  5
31E
100
AcDbEntity
  8
0
  6
ByLayer
 62
  256
370
   -1
100
AcDbLine
 10
13.856406460551
 20
-8
 11
13.856406460551
 21
-3
  0
LINE
  5
31F
100
AcDbEntity
  8
0
  6
ByLayer
 62
  256
370
   -1
100
AcDbLine
 10
13.856406460551
 20
-3
 11
19.91858428704211
 21
0.5
  0
LINE
  5
320
100
AcDbEntity
  8
0
  6
ByLayer
 62
  256
370
   -1
100
AcDbLine
 10
0
 20
5
 11
3.464101615137793
 21
3
  0
LINE
  5
321
100
AcDbEntity
  8
0
  6
ByLayer
 62
  256
370
   -1
100
AcDbLine
 10
10.39230484541332
 20
-1
 11
13.856406460551
 21
-3
  0
ELLIPSE
  5
322
100
AcDbEntity
  8
0
  6
ByLayer
 62
  256
370
   -1
100
AcDbEllipse
 10
6.928203230275528
 20
1.000000000000028
 30
0
 11
-2.449489742783141
 21
4.242640687119299
 31
0
 40
0.5773502691896263
 41
0.7853981633974612
 42
3.92699081698724
  0
ELLIPSE
  5
323
100
AcDbEntity
  8
0
  6
ByLayer
 62
  256
370
   -1
100
AcDbEllipse
 10
12.99038105676664
 20
4.500000000000028
 30
0
 11
-2.449489742783141
 21
4.242640687119299
 31
0
 40
0.5773502691896263
 41
0.7853981633974612
 42
2.356194490192354
  0
ELLIPSE
  5
324
100
AcDbEntity
  8
0
  6
ByLayer
 62
  256
370
   -1
100
AcDbEllipse
 10
15.15544456622763
 20
-0.25
 30
0
 11
-1.224744871391361
 21
-2.720046410331634e-14
 31
0
 40
0.5773502691897372
 41
0
 42
6.283185307179586
  0
ELLIPSE
  5
325
100
AcDbEntity
  8
0
  6
ByLayer
 62
  256
370
   -1
100
AcDbEllipse
 10
4.763139720814308
 20
5.75
 30
0
 11
-1.224744871391361
 21
-2.720046410331634e-14
 31
0
 40
0.5773502691897372
 41
0
 42
6.283185307179586
  0
LINE
  5
326
100
AcDbEntity
  8
0
  6
ByLayer
 62
  256
370
   -1
100
AcDbLine
 10
19.91858428704222
 20
0.5
 11
19.91858428704222
 21
-4.5
  0
LINE
  5
327
100
AcDbEntity
  8
0
  6
ByLayer
 62
  256
370
   -1
100
AcDbLine
 10
13.856406460551
 20
-8
 11
19.91858428704222
 21
-4.5
  0
ENDBLK
  5
EC
330
EA
100
AcDbEntity
  8
0
100
AcDbBlockEnd
  0
BLOCK
  5
EE
330
ED
100
AcDbEntity
  8
0
100
AcDbBlockBegin
  2
stepper_mount_cap_b
 70
    0
 10
0
 20
0
  3
stepper_mount_cap_b
  1

  0
LINE
  5
328
100
AcDbEntity
  8
0
  6
ByLayer
 62
  256
370
   -1
100
AcDbLine
 10
0
 20
0
 11
0
 21
-7
  0
LINE
  5
329
100
AcDbEntity
  8
0
  6
ByLayer
 62
  256
370
   -1
100
AcDbLine
 10
0
 20
-7
 11
16
 21
-7
  0
LINE
  5
32A
100
AcDbEntity
  8
0
  6
ByLayer
 62
  256
370
   -1
100
AcDbLine
 10
16
 20
-7
 11
16
 21
0
  0
LINE
  5
32B
100
AcDbEntity
  8
0
  6
ByLayer
 62
  256
370
   -1
100
AcDbLine
 10
16
 20
0
 11
0
 21
0
  0
CIRCLE
  5
32C
100
AcDbEntity
  8
0
  6
ByLayer
 62
  256
370
   -1
100
AcDbCircle
 10
2
 20
-3.5
 40
1
  0
CIRCLE
  5
32D
100
AcDbEntity
  8
0
  6
ByLayer
 62
  256
370
   -1
100
AcDbCircle
 10
14
 20
-3.5
 40
1
  0
LINE
  5
32E
100
AcDbEntity
  8
0
  6
CONTINUOUS
 62
  256
370
   -1
100
AcDbLine
 10
4
 20
0
 11
4
 21
-7
  0
LINE
  5
32F
100
AcDbEntity
  8
0
  6
CONTINUOUS
 62
  256
370
   -1
100
AcDbLine
 10
12
 20
0
 11
12
 21
-7
  0
ENDBLK
  5
EF
330
ED
100
AcDbEntity
  8
0
100
AcDbBlockEnd
  0
BLOCK
  5
F1
330
F0
100
AcDbEntity
  8
0
100
AcDbBlockBegin
  2
cross_m2
 70
    0
 10
0
 20
0
  3
cross_m2
  1

  0
LINE
  5
330
100
AcDbEntity
  8
1.5_dims2
  6
ByLayer
 62
  256
370
   -1
100
AcDbLine
 10
7.06346625634069e-16
 20
-0.03346456800000034
 11
4.266053821311289e-16
 21
0
  0
LINE
  5
331
100
AcDbEntity
  8
1.5_dims2
  6
ByLayer
 62
  256
370
   -1
100
AcDbLine
 10
4.266053821311289e-16
 20
0
 11
-0.03346456799999935
 21
0
  0
LINE
  5
332
100
AcDbEntity
  8
1.5_dims2
  6
ByLayer
 62
  256
370
   -1
100
AcDbLine
 10
4.266053821311289e-16
 20
0
 11
0.03346456800000049
 21
0
  0
LINE
  5
333
100
AcDbEntity
  8
1.5_dims2
  6
ByLayer
 62
  256
370
   -1
100
AcDbLine
 10
0.04527559200000039
 20
0
 11
0.05314960800000047
 21
0
  0
LINE
  5
334
100
AcDbEntity
  8
1.5_dims2
  6
ByLayer
 62
  256
370
   -1
100
AcDbLine
 10
-0.04527559199999954
 20
-5.5948248700588e-16
 11
-0.05314960799999934
 21
-5.5948248700588e-16
  0
LINE
  5
335
100
AcDbEntity
  8
1.5_dims2
  6
ByLayer
 62
  256
370
   -1
100
AcDbLine
 10
4.266053821311289e-16
 20
0.04527559199999965
 11
4.266053821311289e-16
 21
0.05314960799999977
  0
LINE
  5
336
100
AcDbEntity
  8
1.5_dims2
  6
ByLayer
 62
  256
370
   -1
100
AcDbLine
 10
4.266053821311289e-16
 20
-0.04527559200000023
 11
4.266053821311289e-16
 21
-0.05314960800000035
  0
LINE
  5
337
100
AcDbEntity
  8
1.5_dims2
  6
ByLayer
 62
  256
370
   -1
100
AcDbLine
 10
4.440892098500626e-16
 20
0
 11
1.643479663471226e-16
 21
0.03346456800000034
  0
ENDBLK
  5
F2
330
F0
100
AcDbEntity
  8
0
100
AcDbBlockEnd
  0
BLOCK
  5
F4
330
F3
100
AcDbEntity
  8
0
100
AcDbBlockBegin
  2
laser_mount_cap_s
 70
    0
 10
0
 20
0
  3
laser_mount_cap_s
  1

  0
LINE
  5
338
100
AcDbEntity
  8
0
  6
ByLayer
 62
  256
370
   -1
100
AcDbLine
 10
0
 20
0
 11
0.1899999999999999
 21
-4.510281037539698e-17
  0
LINE
  5
339
100
AcDbEntity
  8
0
  6
ByLayer
 62
  256
370
   -1
100
AcDbLine
 10
0
 20
-0.65023624
 11
0.1899999999999999
 21
-0.65023624
  0
LINE
  5
33A
100
AcDbEntity
  8
0
  6
ByLayer
 62
  256
370
   -1
100
AcDbLine
 10
0
 20
-0.65023624
 11
0
 21
0
  0
LINE
  5
33B
100
AcDbEntity
  8
0
  6
ByLayer
 62
  256
370
   -1
100
AcDbLine
 10
0.19
 20
-0.65
 11
0.1899999999999999
 21
-4.510281037539698e-17
  0
LINE
  5
33C
100
AcDbEntity
  8
0
  6
DASHEDTINY
 62
  256
370
   -1
100
AcDbLine
 10
0.058
 20
-8.67362e-19
 11
0.058
 21
-0.65
  0
LINE
  5
33D
100
AcDbEntity
  8
0
  6
DASHEDTINY
 62
  256
370
   -1
100
AcDbLine
 10
0.137
 20
-8.67362e-19
 11
0.137
 21
-0.65
  0
ENDBLK
  5
F5
330
F3
100
AcDbEntity
  8
0
100
AcDbBlockEnd
  0
BLOCK
  5
F7
330
F6
100
AcDbEntity
  8
0
100
AcDbBlockBegin
  2
mount_plate_f
 70
    0
 10
0
 20
0
  3
mount_plate_f
  1

  0
LINE
  5
33E
100
AcDbEntity
  8
0
  6
ByLayer
 62
  256
370
   -1
100
AcDbLine
 10
0
 20
0
 11
0
 21
8
  0
LINE
  5
33F
100
AcDbEntity
  8
0
  6
ByLayer
 62
  256
370
   -1
100
AcDbLine
 10
0
 20
8
 11
2
 21
8
  0
LINE
  5
340
100
AcDbEntity
  8
0
  6
ByLayer
 62
  256
370
   -1
100
AcDbLine
 10
2
 20
8
 11
2
 21
2
  0
LINE
  5
341
100
AcDbEntity
  8
0
  6
ByLayer
 62
  256
370
   -1
100
AcDbLine
 10
2
 20
2
 11
27
 21
2
  0
LINE
  5
342
100
AcDbEntity
  8
0
  6
ByLayer
 62
  256
370
   -1
100
AcDbLine
 10
27
 20
2
 11
27
 21
8
  0
LINE
  5
343
100
AcDbEntity
  8
0
  6
ByLayer
 62
  256
370
   -1
100
AcDbLine
 10
27
 20
8
 11
29
 21
8
  0
LINE
  5
344
100
AcDbEntity
  8
0
  6
ByLayer
 62
  256
370
   -1
100
AcDbLine
 10
29
 20
8
 11
29
 21
0
  0
LINE
  5
345
100
AcDbEntity
  8
0
  6
ByLayer
 62
  256
370
   -1
100
AcDbLine
 10
29
 20
0
 11
0
 21
0
  0
ENDBLK
  5
F8
330
F6
100
AcDbEntity
  8
0
100
AcDbBlockEnd
  0
BLOCK
  5
FA
330
F9
100
AcDbEntity
  8
0
100
AcDbBlockBegin
  2
stepper_screw_f
 70
    0
 10
0
 20
0
  3
stepper_screw_f
  1

  0
LINE
  5
346
100
AcDbEntity
  8
0
  6
ByLayer
 62
  256
370
   -1
100
AcDbLine
 10
0
 20
0
 11
0
 21
-4
  0
LINE
  5
347
100
AcDbEntity
  8
0
  6
ByLayer
 62
  256
370
   -1
100
AcDbLine
 10
0
 20
-4
 11
30
 21
-4
  0
LINE
  5
348
100
AcDbEntity
  8
0
  6
ByLayer
 62
  256
370
   -1
100
AcDbLine
 10
30
 20
-4
 11
30
 21
0
  0
LINE
  5
349
100
AcDbEntity
  8
0
  6
ByLayer
 62
  256
370
   -1
100
AcDbLine
 10
30
 20
0
 11
0
 21
0
  0
CIRCLE
  5
34A
100
AcDbEntity
  8
0
  6
ByLayer
 62
  256
370
   -1
100
AcDbCircle
 10
15
 20
-2
 40
1
  0
ENDBLK
  5
FB
330
F9
100
AcDbEntity
  8
0
100
AcDbBlockEnd
  0
ENDSEC
  0
SECTION
  2
ENTITIES
  0
INSERT
  5
34B
100
AcDbEntity
  8
1.5_dims2
  6
ByLayer
 62
  256
370
   -1
100
AcDbBlockReference
  2
cross
 10
3.1889764
 20
-3
 30
0
 41
0.03937008
 42
0.03937008
 43
0
 50
0
 70
    1
 71
    1
 44
0
 45
0
  0
INSERT
  5
34C
100
AcDbEntity
  8
1.5_dims2
  6
ByLayer
 62
  256
370
   -1
100
AcDbBlockReference
  2
cross
 10
4.232283520000001
 20
-3
 30
0
 41
0.03937008
 42
0.03937008
 43
0
 50
0
 70
    1
 71
    1
 44
0
 45
0
  0
DIMENSION
  5
34D
100
AcDbEntity
  8
1.5_dims2
  6
ByLayer
 62
  256
370
   -1
100
AcDbDimension
  2
*D1
 10
4.232283520000001
 20
-3
 30
0
 11
4.537377163526002
 21
-2.993684190956721
 31
0
 70
   36
 71
    5
  3
Standard
 53
0
210
0
220
0
230
1
100
AcDbRadialDimension
 15
4.700445433376631
 25
-3.251619764563319
 35
0
 40
0
  0
DIMENSION
  5
34E
100
AcDbEntity
  8
1.5_dims2
  6
ByLayer
 62
  256
370
   -1
100
AcDbDimension
  2
*D2
 10
3.1889764
 20
-3
 30
0
 11
2.883833433351122
 21
-3.00312900440453
 31
0
 70
   36
 71
    5
  3
Standard
 53
0
210
0
220
0
230
1
100
AcDbRadialDimension
 15
2.72882564870127
 25
-3.265987535675229
 35
0
 40
0
  0
LINE
  5
34F
100
AcDbEntity
  8
1.5_dims2
  6
ByLayer
 62
  256
370
   -1
100
AcDbLine
 10
2.5
 20
-2.9
 11
2.5
 21
-2
  0
LINE
  5
350
100
AcDbEntity
  8
1.5_dims2
  6
ByLayer
 62
  256
370
   -1
100
AcDbLine
 10
4.232283520000001
 20
-2.85
 11
4.232283520000001
 21
-2
  0
LINE
  5
351
100
AcDbEntity
  8
1.5_dims2
  6
ByLayer
 62
  256
370
   -1
100
AcDbLine
 10
3.1889764
 20
-2.85
 11
3.1889764
 21
-2
  0
LINE
  5
352
100
AcDbEntity
  8
1.5_dims2
  6
ByLayer
 62
  256
370
   -1
100
AcDbLine
 10
2.65748032
 20
-2.9
 11
2.65748032
 21
-2
  0
LINE
  5
353
100
AcDbEntity
  8
1.5_dims2
  6
ByLayer
 62
  256
370
   -1
100
AcDbLine
 10
4.763779599999999
 20
-2.9
 11
4.763779599999999
 21
-2
  0
LINE
  5
354
100
AcDbEntity
  8
1.5_dims2
  6
ByLayer
 62
  256
370
   -1
100
AcDbLine
 10
4.921259920000001
 20
-2.9
 11
4.921259920000001
 21
-2
  0
MTEXT
  5
355
100
AcDbEntity
  8
1.5_dims2
  6
ByLayer
 62
  256
370
   -1
100
AcDbMText
 10
2.5
 20
-1.9
 30
0
 40
0.1
 41
0.3111111111111111
 71
    4
 72
    1
  1
0.000
  7
standard
210
0
220
0
230
1
 50
90
 73
    2
 44
1
  0
MTEXT
  5
356
100
AcDbEntity
  8
1.5_dims2
  6
ByLayer
 62
  256
370
   -1
100
AcDbMText
 10
2.65748032
 20
-1.9
 30
0
 40
0.1
 41
0.2888888888888951
 71
    4
 72
    1
  1
0.157
  7
standard
210
0
220
0
230
1
 50
90
 73
    2
 44
1
  0
MTEXT
  5
357
100
AcDbEntity
  8
1.5_dims2
  6
ByLayer
 62
  256
370
   -1
100
AcDbMText
 10
3.2
 20
-1.9
 30
0
 40
0.1
 41
0.3111111111111174
 71
    4
 72
    1
  1
0.689
  7
standard
210
0
220
0
230
1
 50
90
 73
    2
 44
1
  0
MTEXT
  5
358
100
AcDbEntity
  8
1.5_dims2
  6
ByLayer
 62
  256
370
   -1
100
AcDbMText
 10
4.232283520000001
 20
-1.9
 30
0
 40
0.1
 41
0.2888888888888951
 71
    4
 72
    1
  1
1.732
  7
standard
210
0
220
0
230
1
 50
90
 73
    2
 44
1
  0
MTEXT
  5
359
100
AcDbEntity
  8
1.5_dims2
  6
ByLayer
 62
  256
370
   -1
100
AcDbMText
 10
4.763779599999999
 20
-1.9
 30
0
 40
0.1
 41
0.3222222222222285
 71
    4
 72
    1
  1
2.264
  7
standard
210
0
220
0
230
1
 50
90
 73
    2
 44
1
  0
MTEXT
  5
35A
100
AcDbEntity
  8
1.5_dims2
  6
ByLayer
 62
  256
370
   -1
100
AcDbMText
 10
4.921259920000001
 20
-1.9
 30
0
 40
0.1
 41
0.3
 71
    4
 72
    1
  1
2.421
  7
standard
210
0
220
0
230
1
 50
90
 73
    2
 44
1
  0
LINE
  5
35B
100
AcDbEntity
  8
1.5_dims2
  6
ByLayer
 62
  256
370
   -1
100
AcDbLine
 10
2.4
 20
-3
 11
1.5
 21
-3
  0
MTEXT
  5
35C
100
AcDbEntity
  8
1.5_dims2
  6
ByLayer
 62
  256
370
   -1
100
AcDbMText
 10
1.4
 20
-3
 30
0
 40
0.1
 41
0.3111111111111111
 71
    6
 72
    1
  1
0.000
  7
standard
210
0
220
0
230
1
 50
0
 73
    2
 44
1
  0
INSERT
  5
35D
100
AcDbEntity
  8
0
  6
ByLayer
 62
  256
370
   -1
100
AcDbBlockReference
  2
laser_mount_cap_b
 10
2.5
 20
-6
 30
0
 41
1
 42
1
 43
0
 50
0
 70
    1
 71
    1
 44
1
 45
1
  0
LINE
  5
35E
100
AcDbEntity
  8
1.5_dims2
  6
ByLayer
 62
  256
370
   -1
100
AcDbLine
 10
2.578740160000001
 20
-6.039370079999999
 11
2.578740160000001
 21
-5
  0
LINE
  5
35F
100
AcDbEntity
  8
1.5_dims2
  6
ByLayer
 62
  256
370
   -1
100
AcDbLine
 10
4.84251976
 20
-6.039370079999999
 11
4.84251976
 21
-5
  0
LINE
  5
360
100
AcDbEntity
  8
1.5_dims2
  6
ByLayer
 62
  256
370
   -1
100
AcDbLine
 10
2.5
 20
-5.9
 11
2.5
 21
-5
  0
LINE
  5
361
100
AcDbEntity
  8
1.5_dims2
  6
ByLayer
 62
  256
370
   -1
100
AcDbLine
 10
4.921259920000001
 20
-5.9
 11
4.921259920000001
 21
-5
  0
MTEXT
  5
362
100
AcDbEntity
  8
1.5_dims2
  6
ByLayer
 62
  256
370
   -1
100
AcDbMText
 10
4.801968504
 20
-4.9
 30
0
 40
0.1
 41
0.3222222222222346
 71
    4
 72
    1
  1
2.343
  7
standard
210
0
220
0
230
1
 50
90
 73
    2
 44
1
  0
MTEXT
  5
363
100
AcDbEntity
  8
1.5_dims2
  6
ByLayer
 62
  256
370
   -1
100
AcDbMText
 10
4.94
 20
-4.9
 30
0
 40
0.1
 41
0.3
 71
    4
 72
    1
  1
2.421
  7
standard
210
0
220
0
230
1
 50
90
 73
    2
 44
1
  0
MTEXT
  5
364
100
AcDbEntity
  8
1.5_dims2
  6
ByLayer
 62
  256
370
   -1
100
AcDbMText
 10
2.470000000000001
 20
-4.9
 30
0
 40
0.1
 41
0.3111111111111111
 71
    4
 72
    1
  1
0.000
  7
standard
210
0
220
0
230
1
 50
90
 73
    2
 44
1
  0
MTEXT
  5
365
100
AcDbEntity
  8
1.5_dims2
  6
ByLayer
 62
  256
370
   -1
100
AcDbMText
 10
2.6
 20
-4.9
 30
0
 40
0.1
 41
0.3111111111111111
 71
    4
 72
    1
  1
0.079
  7
standard
210
0
220
0
230
1
 50
90
 73
    2
 44
1
  0
INSERT
  5
366
100
AcDbEntity
  8
1.5_dims2
  6
ByLayer
 62
  256
370
   -1
100
AcDbBlockReference
  2
cross_m2
 10
2.578740160000001
 20
-6.095000000000001
 30
0
 41
0.03937008
 42
0.03937008
 43
0
 50
0
 70
    1
 71
    1
 44
0.03937008
 45
0.03937008
  0
INSERT
  5
367
100
AcDbEntity
  8
0
  6
ByLayer
 62
  256
370
   -1
100
AcDbBlockReference
  2
laser_mount_cap_s
 10
7.5
 20
-3
 30
0
 41
1
 42
1
 43
0
 50
0
 70
    1
 71
    1
 44
1
 45
1
  0
LINE
  5
368
100
AcDbEntity
  8
1.5_dims2
  6
ByLayer
 62
  256
370
   -1
100
AcDbLine
 10
7.4
 20
-3
 11
6.5
 21
-3
  0
MTEXT
  5
369
100
AcDbEntity
  8
1.5_dims2
  6
ByLayer
 62
  256
370
   -1
100
AcDbMText
 10
6.4
 20
-3
 30
0
 40
0.1
 41
0.3111111111111111
 71
    6
 72
    1
  1
0.000
  7
standard
210
0
220
0
230
1
 50
0
 73
    2
 44
1
  0
LEADER
  5
36A
100
AcDbEntity
  8
1.5_dims2
  6
ByLayer
 62
  256
370
   -1
100
AcDbLeader
  3
Standard
 71
    1
 72
    0
 73
    3
 74
    0
 75
    0
 40
1
 41
10
 76
3
 76
3
 10
4.818316581152102
 20
-6.1260517202883
 30
0
 10
4.3
 20
-6.550000000000001
 30
0
 10
4.2
 20
-6.550000000000001
 30
0
  0
LEADER
  5
36B
100
AcDbEntity
  8
1.5_dims2
  6
ByLayer
 62
  256
370
   -1
100
AcDbLeader
  3
Standard
 71
    1
 72
    0
 73
    3
 74
    0
 75
    0
 40
1
 41
10
 76
3
 76
3
 10
2.597113693454017
 20
-6.129819771217241
 30
0
 10
3.2
 20
-6.56
 30
0
 10
3.27
 20
-6.56
 30
0
  0
DIMENSION
  5
36C
100
AcDbEntity
  8
1.5_dims2
  6
ByLayer
 62
  256
370
   -1
100
AcDbDimension
  2
*D5
 10
1.5
 20
-6.19
 30
0
 11
1.35
 21
-6.095000000000001
 31
0
 70
   32
  1
 
 71
    5
 72
    0
  3
Standard
 53
0
210
0
220
0
230
1
100
AcDbAlignedDimension
 13
2.4
 23
-6
 33
0
 14
2.4
 24
-6.19
 34
0
 50
90
100
AcDbRotatedDimension
  0
MTEXT
  5
36D
100
AcDbEntity
  8
1.5_dims2
  6
ByLayer
 62
  256
370
   -1
100
AcDbMText
 10
0.7000000000000011
 20
-6.1
 30
0
 40
0.1
 41
0.6805555555555679
 71
    4
 72
    1
  1
3/16" NOM
  7
standard
210
0
220
0
230
1
 50
0
 73
    2
 44
1
  0
INSERT
  5
36E
100
AcDbEntity
  8
0
  6
ByLayer
 62
  256
370
   -1
100
AcDbBlockReference
  2
laser_mount_cap_f
 10
2.5
 20
-3
 30
0
 41
1
 42
1
 43
0
 50
0
 70
    1
 71
    1
 44
1
 45
1
  0
MTEXT
  5
36F
100
AcDbEntity
  8
1.5_dims2
  6
ByLayer
 62
  256
370
   -1
100
AcDbMText
 10
1.4
 20
-3.65
 30
0
 40
0.1
 41
0.3111111111111236
 71
    6
 72
    1
  1
0.650
  7
standard
210
0
220
0
230
1
 50
0
 73
    2
 44
1
  0
LINE
  5
370
100
AcDbEntity
  8
1.5_dims2
  6
ByLayer
 62
  256
370
   -1
100
AcDbLine
 10
2.4
 20
-3.65023624
 11
1.5
 21
-3.65023624
  0
LINE
  5
371
100
AcDbEntity
  8
1.5_dims2
  6
ByLayer
 62
  256
370
   -1
100
AcDbLine
 10
7.400000000000001
 20
-3.65
 11
6.500000000000001
 21
-3.65
  0
MTEXT
  5
372
100
AcDbEntity
  8
1.5_dims2
  6
ByLayer
 62
  256
370
   -1
100
AcDbMText
 10
6.4
 20
-3.65
 30
0
 40
0.1
 41
0.3111111111111236
 71
    6
 72
    1
  1
0.650
  7
standard
210
0
220
0
230
1
 50
0
 73
    2
 44
1
  0
DIMENSION
  5
373
100
AcDbEntity
  8
1.5_dims2
  6
ByLayer
 62
  256
370
   -1
100
AcDbDimension
  2
*D6
 10
7.69
 20
-2
 30
0
 11
7.594999999999999
 21
-1.85
 31
0
 70
   32
  1
 
 71
    5
 72
    0
  3
Standard
 53
0
210
0
220
0
230
1
100
AcDbAlignedDimension
 13
7.5
 23
-2.9
 33
0
 14
7.69
 24
-2.9
 34
0
100
AcDbRotatedDimension
  0
MTEXT
  5
374
100
AcDbEntity
  8
1.5_dims2
  6
ByLayer
 62
  256
370
   -1
100
AcDbMText
 10
7.600000000000001
 20
-1.9
 30
0
 40
0.1
 41
0.6805555555555679
 71
    4
 72
    1
  1
3/16" NOM
  7
standard
210
0
220
0
230
1
 50
90
 73
    2
 44
1
  0
INSERT
  5
375
100
AcDbEntity
  8
1.5_dims2
  6
ByLayer
 62
  256
370
   -1
100
AcDbBlockReference
  2
cross_m2
 10
2.57874016
 20
-6.095000000000001
 30
0
 41
1
 42
1
 43
0
 50
0
 70
    1
 71
    1
 44
1
 45
1
  0
INSERT
  5
376
100
AcDbEntity
  8
1.5_dims2
  6
ByLayer
 62
  256
370
   -1
100
AcDbBlockReference
  2
cross_m2
 10
4.84251976
 20
-6.095000000000001
 30
0
 41
1
 42
1
 43
0
 50
0
 70
    1
 71
    1
 44
1
 45
1
  0
LINE
  5
377
100
AcDbEntity
  8
1.5_dims2
  6
CENTER2
 62
  256
370
   -1
100
AcDbLine
 10
2.3
 20
-6.095000000000001
 11
5.100000000000001
 21
-6.095000000000001
  0
MTEXT
  5
378
100
AcDbEntity
  8
1.5_dims2
  6
ByLayer
 62
  256
370
   -1
100
AcDbMText
 10
3.288888888888876
 20
-6.60000000000001
 30
0
 40
0.1
 41
0.7694444444444569
 71
    7
 72
    1
  1
%%C3/32" CLR
  7
standard
210
0
220
0
230
1
 50
0
 73
    2
 44
1
  0
MTEXT
  5
379
100
AcDbEntity
  8
0
  6
ByLayer
 62
  256
370
   -1
100
AcDbMText
 10
0.8587487654290173
 20
-0.4031496
 30
0
 40
0.1968504
 41
3.461286241071124
 71
    1
 72
    1
  1
Laser Mount Cap (Delrin?)
  7
standard
210
0
220
0
230
1
 50
0
 73
    2
 44
1
  0
INSERT
  5
37A
100
AcDbEntity
  8
0
  6
ByLayer
 62
  256
370
   -1
100
AcDbBlockReference
  2
laser_mount_cap_iso
 10
9.104844974567431
 20
-0.8326770912097518
 30
0
 41
0.03937008
 42
0.03937008
 43
0
 50
0
 70
    1
 71
    1
 44
0
 45
0
  0
ENDSEC
  0
SECTION
  2
OBJECTS
  0
DICTIONARY
  5
C
330
0
100
AcDbDictionary
281
    1
  3
ACAD_GROUP
350
D
  0
DICTIONARY
  5
D
330
C
100
AcDbDictionary
281
    1
  0
ENDSEC
  0
EOF
